<svg width="111" height="110" viewBox="0 0 111 110" fill="none" xmlns="http://www.w3.org/2000/svg">
<path d="M55.9688 0.000183105C86.3517 0.000183105 110.969 24.6322 110.969 55.0002C110.969 85.3682 86.3368 110 55.9688 110C25.6007 110 0.96875 85.3831 0.96875 55.0002C0.96875 24.6172 25.6007 0.000183105 55.9688 0.000183105Z" fill="#F0B90B"/>
<path d="M41.7333 49.0999L50.0684 40.7946L51.8161 39.032L55.9837 34.8793L70.1594 49.0999L78.4049 40.7946L55.9837 18.3285L33.4878 40.7946L41.7333 49.0999Z" fill="white"/>
<path d="M55.9963 46.7025L47.7153 54.9834L55.9963 63.2644L64.2772 54.9834L55.9963 46.7025Z" fill="white"/>
<path d="M70.1594 60.9304L55.9837 75.1061L50.9946 70.1319L50.0834 69.2058L41.7333 60.9304L33.4878 69.1759L55.9837 91.642L78.4049 69.1759L70.1594 60.9304Z" fill="white"/>
<path d="M27.5925 46.7373L19.3115 55.0183L27.5925 63.2992L35.8734 55.0183L27.5925 46.7373Z" fill="white"/>
<path d="M84.3446 46.7267L76.0637 55.0076L84.3446 63.2886L92.6256 55.0076L84.3446 46.7267Z" fill="white"/>
</svg>
