<svg width="117" height="41" viewBox="0 0 117 41" fill="none" xmlns="http://www.w3.org/2000/svg">
<g clip-path="url(#clip0_374_3406)">
<path fill-rule="evenodd" clip-rule="evenodd" d="M0.803284 8.23443C9.0684 6.71953 17.3821 5.35124 25.6959 4.10511C36.4891 2.49248 47.3067 1.12418 58.1486 0.0246582H58.5132H58.8779C69.7198 1.12418 80.5373 2.49248 91.3063 4.08068C99.62 5.3268 107.934 6.6951 116.199 8.21C116.491 10.971 117.001 19.7183 117.001 20.4758C117.001 21.2332 116.491 29.9806 116.199 32.7416C107.934 34.2565 99.62 35.6248 91.3063 36.8709C80.5373 38.4835 69.7198 39.8518 58.8779 40.9514H58.5132H58.1486C47.3067 39.8518 36.4891 38.4835 25.7202 36.8709C17.4064 35.6248 9.09271 34.2565 0.827593 32.7416C0.535883 29.9806 0.0253906 21.2332 0.0253906 20.4758C0.0253906 19.7183 0.511574 10.9955 0.803284 8.23443Z" fill="#BA7D24"/>
<path fill-rule="evenodd" clip-rule="evenodd" d="M111.142 28.148C111.142 27.9036 111.191 27.6593 111.191 27.4149C111.337 25.5824 111.531 22.3816 111.556 20.549C111.531 18.6921 111.313 15.4668 111.191 13.6343C111.191 13.3899 111.142 13.1456 111.142 12.9012C104.287 11.6795 97.3835 10.5556 90.4796 9.52937C79.8565 7.94117 69.1848 6.59731 58.4888 5.52222C47.7928 6.59731 37.121 7.9656 26.4979 9.52937C19.5941 10.5556 12.7146 11.6795 5.83513 12.9012C5.83513 13.1456 5.78651 13.3899 5.78651 13.6343C5.64066 15.4668 5.44618 18.6676 5.42188 20.5246C5.44618 22.3816 5.66497 25.6068 5.78651 27.4394C5.78651 27.6837 5.83513 27.9281 5.83513 28.1724C12.6903 29.3941 19.5941 30.518 26.4979 31.5443C37.121 33.1325 47.7928 34.4763 58.4888 35.5514C69.1848 34.4763 79.8565 33.108 90.4796 31.5443C97.3835 30.518 104.263 29.3941 111.142 28.1724V28.148Z" fill="#CE0921"/>
<path fill-rule="evenodd" clip-rule="evenodd" d="M58.5112 8.20972C47.9367 9.28481 37.4108 10.6287 26.9092 12.1924C20.7347 13.1209 14.5602 14.0983 8.38567 15.1734C8.26412 16.4928 8.16689 19.1561 8.14258 20.4755C8.16689 21.7949 8.28843 24.4827 8.38567 25.8021C14.5359 26.8772 20.7104 27.879 26.9092 28.783C37.4108 30.3468 47.961 31.6906 58.5112 32.7657C69.0856 31.6906 79.6115 30.3468 90.1131 28.783C96.2876 27.8545 102.462 26.8772 108.637 25.8021C108.758 24.4827 108.855 21.8194 108.88 20.4999C108.855 19.1805 108.734 16.4928 108.637 15.1734C102.486 14.0983 96.3119 13.0965 90.1131 12.1924C79.6115 10.6287 69.0856 9.28481 58.5112 8.20972Z" fill="url(#paint0_radial_374_3406)"/>
<path fill-rule="evenodd" clip-rule="evenodd" d="M3.62206 20.4755C3.64637 18.6674 3.86516 15.2955 3.9867 13.463C4.03532 12.7544 4.08394 12.0214 4.15687 11.3128L0.802202 8.23413C0.510492 10.9952 0 19.7425 0 20.4999H3.62206V20.4755Z" fill="url(#paint1_linear_374_3406)"/>
<path fill-rule="evenodd" clip-rule="evenodd" d="M4.1574 11.3129C11.4988 9.99345 18.8644 8.79619 26.2301 7.69666C36.9505 6.10846 47.7194 4.74017 58.4884 3.64064V0H58.1237C47.2819 1.12396 36.4643 2.49225 25.6953 4.10489C17.3816 5.35101 9.09216 6.71931 0.802734 8.23421L4.1574 11.3129Z" fill="url(#paint2_linear_374_3406)"/>
<path fill-rule="evenodd" clip-rule="evenodd" d="M58.5126 3.64087C69.3059 4.71596 80.0505 6.08425 90.7708 7.69689C98.1365 8.79641 105.502 9.99367 112.844 11.3131L116.198 8.23443C107.933 6.71953 99.6194 5.35124 91.3057 4.10511C80.5124 2.49248 69.6948 1.12418 58.8529 0.0246582H58.4883V3.64087H58.5126Z" fill="url(#paint3_linear_374_3406)"/>
<path fill-rule="evenodd" clip-rule="evenodd" d="M117.001 20.5H113.379C113.354 22.3081 113.135 25.68 113.014 27.5125C112.965 28.2211 112.917 28.9297 112.844 29.6627L116.198 32.7414C116.49 29.9804 117.001 21.233 117.001 20.4756V20.5Z" fill="url(#paint4_linear_374_3406)"/>
<path fill-rule="evenodd" clip-rule="evenodd" d="M112.843 29.6873C105.501 31.0067 98.1357 32.2039 90.77 33.3035C80.0496 34.8917 69.2807 36.26 58.5117 37.3595V41.0001H58.8764C69.7182 39.8762 80.5358 38.5079 91.3048 36.8952C99.6185 35.6491 107.932 34.2808 116.197 32.7659L112.843 29.6873Z" fill="url(#paint5_linear_374_3406)"/>
<path fill-rule="evenodd" clip-rule="evenodd" d="M58.5118 41.0001V37.3595C47.7185 36.2844 36.9739 34.9161 26.2536 33.3035C18.8879 32.2039 11.5222 31.0067 4.18084 29.6873L0.826172 32.7659C9.09129 34.2808 17.405 35.6491 25.7188 36.8952C36.4877 38.5079 47.3053 39.8762 58.1472 40.9757H58.5118V41.0001Z" fill="url(#paint6_linear_374_3406)"/>
<path fill-rule="evenodd" clip-rule="evenodd" d="M26.4964 9.50473C37.1195 7.91653 47.7912 6.57267 58.4872 5.49758V3.66504C47.694 4.74013 36.9493 6.10842 26.229 7.72106C18.8633 8.82058 11.4976 10.0178 4.15625 11.3373L5.85789 12.8766C12.7131 11.6549 19.6169 10.531 26.5207 9.50473H26.4964Z" fill="url(#paint7_linear_374_3406)"/>
<path fill-rule="evenodd" clip-rule="evenodd" d="M58.5117 5.47316C69.2077 6.54825 79.8795 7.91655 90.5026 9.48032C97.4064 10.5065 104.286 11.6305 111.165 12.8522L112.867 11.3129C105.526 9.99343 98.16 8.79617 90.7943 7.69664C80.0739 6.10844 69.305 4.74015 58.536 3.64062V5.47316H58.5117Z" fill="url(#paint8_linear_374_3406)"/>
<path fill-rule="evenodd" clip-rule="evenodd" d="M111.288 14.4893C111.409 16.0531 111.555 18.9607 111.579 20.5245C111.579 20.7933 111.579 21.0621 111.555 21.3553C111.482 22.919 111.336 25.8511 111.215 27.4149C111.215 27.6592 111.166 27.9035 111.166 28.1479L111.312 28.27L112.868 29.6872C112.916 29.1252 112.965 28.5388 112.989 27.9768C112.989 27.8302 112.989 27.6836 113.014 27.5615C113.135 25.9 113.33 22.6991 113.378 21.0376C113.378 20.8666 113.378 20.6955 113.378 20.5489C113.354 18.9363 113.184 15.8576 113.062 14.2206C113.062 13.9762 113.014 13.7563 113.014 13.512C113.014 13.4631 113.014 13.4387 113.014 13.3898C112.965 12.7057 112.916 12.046 112.868 11.3618L111.166 12.9011C111.166 13.1455 111.215 13.3898 111.215 13.6342C111.215 13.9274 111.263 14.2206 111.288 14.5138V14.4893Z" fill="url(#paint9_linear_374_3406)"/>
<path fill-rule="evenodd" clip-rule="evenodd" d="M111.142 28.1479C104.287 29.3696 97.3829 30.4936 90.4791 31.5198C79.856 33.108 69.1843 34.4519 58.4883 35.527V37.3595C69.2815 36.2844 80.0262 34.9161 90.7465 33.3035C98.1122 32.204 105.478 31.0067 112.819 29.6873L111.263 28.2701L111.118 28.1479H111.142Z" fill="url(#paint10_linear_374_3406)"/>
<path fill-rule="evenodd" clip-rule="evenodd" d="M58.5115 35.527C47.8155 34.4519 37.1438 33.0836 26.5207 31.5198C19.6169 30.4936 12.7374 29.3696 5.85789 28.1479L5.71204 28.2701L4.15625 29.6873C11.4976 31.0067 18.8633 32.204 26.229 33.3035C36.9493 34.8917 47.7183 36.26 58.4872 37.3595V35.527H58.5115Z" fill="url(#paint11_linear_374_3406)"/>
<path fill-rule="evenodd" clip-rule="evenodd" d="M5.71363 14.4893C5.59209 16.0531 5.44623 18.9607 5.42192 20.5245C5.42192 20.7933 5.42192 21.0621 5.44623 21.3553C5.51916 22.919 5.66502 25.8511 5.78656 27.4149C5.78656 27.6592 5.83518 27.9035 5.83518 28.1479L5.68933 28.27L4.13354 29.6872C4.08492 29.1252 4.0363 28.5388 4.01199 27.9768C4.01199 27.8302 4.01199 27.6836 3.98768 27.5615C3.86614 25.9 3.67167 22.6991 3.62305 21.0376C3.62305 20.8666 3.62305 20.6955 3.62305 20.5489C3.64736 18.9363 3.81752 15.8576 3.93907 14.2206C3.93907 13.9762 3.98768 13.7563 3.98768 13.512C3.98768 13.4631 3.98768 13.4387 3.98768 13.3898C4.0363 12.7057 4.08492 12.046 4.13354 11.3618L5.83518 12.9011C5.83518 13.1455 5.78656 13.3898 5.78656 13.6342C5.78656 13.9274 5.73794 14.2206 5.71363 14.5138V14.4893Z" fill="url(#paint12_linear_374_3406)"/>
<g style="mix-blend-mode:screen" opacity="0.75">
<path fill-rule="evenodd" clip-rule="evenodd" d="M58.5106 3.64079C61.9625 3.98286 65.3901 4.34937 68.842 4.76475C76.1591 5.61993 83.4761 6.59728 90.7689 7.69681C94.1479 8.18548 97.5025 8.72303 100.857 9.26057C87.0739 6.45068 72.7801 4.47154 59.2642 2.88334C59.0211 1.95485 58.7537 1.0508 58.5106 0.122314C58.2675 1.0508 58.0001 1.95485 57.757 2.88334C44.2168 4.47154 29.9474 6.47512 16.1641 9.26057C19.5187 8.72303 22.8977 8.18548 26.2524 7.69681C33.5451 6.62172 40.8622 5.64436 48.1792 4.76475C51.6068 4.34937 55.0587 3.98286 58.5106 3.64079Z" fill="white"/>
</g>
<path fill-rule="evenodd" clip-rule="evenodd" d="M26.8857 12.1925C37.3873 10.6287 47.9131 9.28482 58.4876 8.20974V5.47314C47.7916 6.54823 37.1199 7.91653 26.4968 9.4803C19.593 10.5065 12.7135 11.6305 5.83398 12.8522L6.83066 13.7562L8.07043 14.9046L8.36214 15.1734C8.58092 15.1245 8.7997 15.1001 8.99418 15.0512C10.0395 14.8802 11.0848 14.6847 12.1301 14.5137C17.0405 13.6829 21.951 12.901 26.8614 12.168L26.8857 12.1925Z" fill="url(#paint13_linear_374_3406)"/>
<path fill-rule="evenodd" clip-rule="evenodd" d="M58.5126 8.20996C69.0871 9.28505 79.6129 10.6289 90.1145 12.1927C95.025 12.9257 99.9354 13.7076 104.846 14.5383C105.891 14.7094 106.936 14.9048 107.982 15.0759C108.201 15.1247 108.419 15.1492 108.614 15.198L108.905 14.9293L110.145 13.7809L111.142 12.8768C104.287 11.6551 97.3829 10.5312 90.4791 9.50495C79.856 7.91675 69.1843 6.57289 58.4883 5.4978V8.23439L58.5126 8.20996Z" fill="url(#paint14_linear_374_3406)"/>
<path fill-rule="evenodd" clip-rule="evenodd" d="M8.14363 20.4757C8.16794 19.1562 8.28948 16.4929 8.38672 15.1735L8.09501 14.9047L6.85524 13.7563L5.85857 12.8523C5.85857 13.0966 5.80995 13.341 5.80995 13.5853C5.80995 13.8785 5.76133 14.1717 5.73702 14.4649C5.61548 16.0043 5.46962 18.9119 5.44531 20.4512C5.44531 20.7444 5.44531 21.0376 5.46962 21.3064C5.54255 22.8702 5.6884 25.8022 5.80995 27.366C5.80995 27.6103 5.85857 27.8547 5.85857 28.099L8.38672 25.7778C8.31379 24.8982 8.24087 22.6503 8.19225 21.7706C8.16794 21.3308 8.14363 20.8666 8.14363 20.4268V20.4757Z" fill="url(#paint15_linear_374_3406)"/>
<path fill-rule="evenodd" clip-rule="evenodd" d="M108.613 15.1735C108.735 16.4929 108.832 19.1807 108.856 20.5001C108.856 20.9399 108.832 21.3797 108.808 21.7951C108.759 22.6747 108.686 24.9226 108.613 25.8022L111.141 28.1235C111.141 27.8791 111.19 27.6348 111.19 27.3904C111.312 25.8267 111.457 22.8946 111.53 21.3308C111.53 21.0621 111.53 20.7933 111.555 20.5001C111.53 18.9363 111.385 16.0287 111.263 14.4649C111.263 14.1717 111.214 13.8785 111.19 13.5853C111.19 13.341 111.141 13.0966 111.141 12.8523L110.145 13.7563L108.905 14.9047L108.613 15.1735Z" fill="#01A238"/>
<path fill-rule="evenodd" clip-rule="evenodd" d="M26.8857 28.8076C37.3873 30.3714 47.9131 31.7152 58.4876 32.7903V35.5269C47.7916 34.4518 37.1199 33.0835 26.4968 31.5197C19.593 30.4935 12.7135 29.3696 5.83398 28.1479L6.83066 27.2438L8.07043 26.0954L8.36214 25.8267C8.58092 25.8755 8.7997 25.9 8.99418 25.9488C10.0395 26.1199 11.0848 26.3153 12.1301 26.4864C17.0405 27.3171 21.951 28.099 26.8614 28.832L26.8857 28.8076Z" fill="url(#paint16_linear_374_3406)"/>
<path fill-rule="evenodd" clip-rule="evenodd" d="M58.5126 32.7903C69.0871 31.7152 79.6129 30.3714 90.1145 28.8076C95.025 28.0746 99.9354 27.2927 104.846 26.462C105.891 26.2909 106.936 26.0955 107.982 25.9244C108.201 25.8755 108.419 25.8511 108.614 25.8022L108.905 26.071L110.145 27.2194L111.142 28.1235C104.287 29.3452 97.3829 30.4691 90.4791 31.4953C79.856 33.0835 69.1843 34.4274 58.4883 35.5025V32.7659L58.5126 32.7903Z" fill="url(#paint17_linear_374_3406)"/>
<path fill-rule="evenodd" clip-rule="evenodd" d="M3.62206 20.5244C3.64637 22.3325 3.86516 25.7044 3.9867 27.5369C4.03532 28.2455 4.08394 28.9541 4.15687 29.6871L0.802202 32.7658C0.510492 30.0048 0 21.2574 0 20.5H3.62206V20.5244Z" fill="url(#paint18_linear_374_3406)"/>
<path fill-rule="evenodd" clip-rule="evenodd" d="M113.379 20.4755C113.354 18.6674 113.135 15.2955 113.014 13.463C112.965 12.7544 112.917 12.0214 112.844 11.3128L116.198 8.23413C116.49 10.9952 117.001 19.7425 117.001 20.4999H113.379V20.4755Z" fill="url(#paint19_linear_374_3406)"/>
<g style="mix-blend-mode:screen" opacity="0.5">
<path fill-rule="evenodd" clip-rule="evenodd" d="M58.5121 36.5042C43.5863 35.1604 28.6118 33.2789 13.5645 31.2998C17.7942 32.0084 22.024 32.6681 26.2538 33.3034C36.9742 34.8916 47.7431 36.2599 58.5121 37.3594C69.3054 36.2843 80.05 34.916 90.7703 33.3034C95.0001 32.6681 99.2299 32.0084 103.46 31.2998C88.4124 33.2545 73.4379 35.1359 58.5121 36.5042Z" fill="white"/>
</g>
<path style="mix-blend-mode:screen" fill-rule="evenodd" clip-rule="evenodd" d="M32.8652 11.3372L17.0156 27.2681C20.2974 27.8057 23.6034 28.3188 26.9095 28.8075C31.3094 29.4672 35.7094 30.078 40.1093 30.64L62.0605 8.57622C60.8694 8.45406 59.7025 8.33189 58.5114 8.20972C49.9545 9.08934 41.3977 10.1156 32.8652 11.3128V11.3372Z" fill="url(#paint20_radial_374_3406)"/>
<path style="mix-blend-mode:screen" fill-rule="evenodd" clip-rule="evenodd" d="M89.579 12.1191L70.3262 31.4707C74.9449 30.9088 79.5393 30.3224 84.1581 29.6626L100.008 13.7318C96.7259 13.1942 93.4199 12.6811 90.1138 12.1924C89.9437 12.168 89.7492 12.1436 89.579 12.1191Z" fill="url(#paint21_radial_374_3406)"/>
<path d="M50.6454 13.446C51.2958 13.446 51.8524 13.575 52.3153 13.8328C52.7782 14.0906 53.1327 14.4363 53.3788 14.8699C53.6249 15.3035 53.7479 15.7839 53.7479 16.3113V18.2537C53.4315 18.5525 53.077 18.8601 52.6845 19.1765C53.077 19.4988 53.4315 19.8093 53.7479 20.1082V23.1755C53.7479 23.7029 53.6249 24.1833 53.3788 24.6169C53.1327 25.0505 52.7782 25.3962 52.3153 25.6541C51.8524 25.9119 51.2958 26.0408 50.6454 26.0408H46.4003V13.446H50.6454ZM48.9755 15.573V19.0535C49.6962 18.5671 50.4901 17.9636 51.3573 17.2429V17.1287L51.3485 16.7156C51.3368 16.1648 51.1962 15.8308 50.9267 15.7136C50.704 15.614 50.2938 15.5642 49.6962 15.5642C49.579 15.5642 49.453 15.5671 49.3183 15.573H48.9755ZM51.3573 21.1101C51.1698 20.9519 50.9794 20.7966 50.786 20.6443C50.0946 21.1423 49.4911 21.5671 48.9755 21.9187V23.9138H49.6083C49.9774 23.9138 50.2851 23.9021 50.5311 23.8787C50.7831 23.8552 50.9706 23.782 51.0936 23.6589C51.2226 23.53 51.2987 23.3191 51.3222 23.0261C51.3456 22.7332 51.3573 22.323 51.3573 21.7957V21.1101ZM59.8212 13.446H62.3964V26.0408H58.1513C57.5009 26.0408 56.9442 25.9119 56.4813 25.6541C56.0185 25.3962 55.664 25.0505 55.4179 24.6169C55.1776 24.1833 55.0575 23.7029 55.0575 23.1755V13.446H57.6327V22.5427C57.6327 23.1931 57.7558 23.5916 58.0019 23.738C58.2245 23.8669 58.6581 23.9314 59.3026 23.9314C59.4257 23.9314 59.5575 23.9285 59.6981 23.9226H59.8212V13.446ZM70.9833 13.446V20.3279L68.6015 22.0593V26.0408H66.0175V22.0593L63.6356 20.3279V13.446H66.2196V19.0359L67.3095 19.8181L68.3993 19.0359V13.446H70.9833Z" fill="white"/>
</g>
<defs>
<radialGradient id="paint0_radial_374_3406" cx="0" cy="0" r="1" gradientUnits="userSpaceOnUse" gradientTransform="translate(58.5112 8.23415) scale(56.3 56.5888)">
<stop stop-color="#00AF3C"/>
<stop offset="1" stop-color="#0A6629"/>
</radialGradient>
<linearGradient id="paint1_linear_374_3406" x1="2.06628" y1="20.4999" x2="2.06628" y2="8.23413" gradientUnits="userSpaceOnUse">
<stop stop-color="#FFD97A"/>
<stop offset="1" stop-color="#EB9E21"/>
</linearGradient>
<linearGradient id="paint2_linear_374_3406" x1="0.802734" y1="5.66865" x2="58.5127" y2="5.66865" gradientUnits="userSpaceOnUse">
<stop stop-color="#F5D36C"/>
<stop offset="1" stop-color="#FFF5B0"/>
</linearGradient>
<linearGradient id="paint3_linear_374_3406" x1="58.5126" y1="5.66888" x2="116.198" y2="5.66888" gradientUnits="userSpaceOnUse">
<stop stop-color="#FFDD6E"/>
<stop offset="1" stop-color="#D69705"/>
</linearGradient>
<linearGradient id="paint4_linear_374_3406" x1="114.934" y1="32.7658" x2="114.934" y2="20.5" gradientUnits="userSpaceOnUse">
<stop stop-color="#E8B048"/>
<stop offset="1" stop-color="#C27C0C"/>
</linearGradient>
<linearGradient id="paint5_linear_374_3406" x1="58.5117" y1="35.3315" x2="116.197" y2="35.3315" gradientUnits="userSpaceOnUse">
<stop stop-color="#A87219"/>
<stop offset="1" stop-color="#6B4200"/>
</linearGradient>
<linearGradient id="paint6_linear_374_3406" x1="0.801863" y1="35.3315" x2="58.5118" y2="35.3315" gradientUnits="userSpaceOnUse">
<stop stop-color="#A36808"/>
<stop offset="1" stop-color="#BF8800"/>
</linearGradient>
<linearGradient id="paint7_linear_374_3406" x1="4.15625" y1="8.2586" x2="58.5115" y2="8.2586" gradientUnits="userSpaceOnUse">
<stop stop-color="#6B4200"/>
<stop offset="1" stop-color="#A87219"/>
</linearGradient>
<linearGradient id="paint8_linear_374_3406" x1="58.5117" y1="8.25862" x2="112.843" y2="8.25862" gradientUnits="userSpaceOnUse">
<stop stop-color="#BF8800"/>
<stop offset="1" stop-color="#A36808"/>
</linearGradient>
<linearGradient id="paint9_linear_374_3406" x1="112.26" y1="29.6872" x2="112.26" y2="11.3129" gradientUnits="userSpaceOnUse">
<stop stop-color="#E8B048"/>
<stop offset="1" stop-color="#8F6B09"/>
</linearGradient>
<linearGradient id="paint10_linear_374_3406" x1="58.5126" y1="32.7415" x2="112.844" y2="32.7415" gradientUnits="userSpaceOnUse">
<stop stop-color="#FFF5B0"/>
<stop offset="1" stop-color="#F5D36C"/>
</linearGradient>
<linearGradient id="paint11_linear_374_3406" x1="4.15625" y1="32.7415" x2="58.5115" y2="32.7415" gradientUnits="userSpaceOnUse">
<stop stop-color="#D69705"/>
<stop offset="1" stop-color="#FFDD6E"/>
</linearGradient>
<linearGradient id="paint12_linear_374_3406" x1="4.74127" y1="7.81521e-05" x2="4.74127" y2="7.81521e-05" gradientUnits="userSpaceOnUse">
<stop stop-color="#E8B048"/>
<stop offset="1" stop-color="#8F6B09"/>
</linearGradient>
<linearGradient id="paint13_linear_374_3406" x1="5.85829" y1="10.3355" x2="58.5119" y2="10.3355" gradientUnits="userSpaceOnUse">
<stop stop-color="#005C1F"/>
<stop offset="1" stop-color="#07C748"/>
</linearGradient>
<linearGradient id="paint14_linear_374_3406" x1="58.5126" y1="10.3357" x2="111.142" y2="10.3357" gradientUnits="userSpaceOnUse">
<stop stop-color="#02C243"/>
<stop offset="1" stop-color="#005B1F"/>
</linearGradient>
<linearGradient id="paint15_linear_374_3406" x1="6.90386" y1="28.1479" x2="6.90386" y2="12.8523" gradientUnits="userSpaceOnUse">
<stop stop-color="#005B1F"/>
<stop offset="1" stop-color="#00C643"/>
</linearGradient>
<linearGradient id="paint16_linear_374_3406" x1="5.85829" y1="30.6646" x2="58.5119" y2="30.6646" gradientUnits="userSpaceOnUse">
<stop stop-color="#007628"/>
<stop offset="1" stop-color="#00C744"/>
</linearGradient>
<linearGradient id="paint17_linear_374_3406" x1="58.5126" y1="30.6646" x2="111.142" y2="30.6646" gradientUnits="userSpaceOnUse">
<stop stop-color="#00A839"/>
<stop offset="1" stop-color="#00C543"/>
</linearGradient>
<linearGradient id="paint18_linear_374_3406" x1="2.06628" y1="2.29122e-06" x2="2.06628" y2="20.5" gradientUnits="userSpaceOnUse">
<stop stop-color="#E8B048"/>
<stop offset="1" stop-color="#C27C0C"/>
</linearGradient>
<linearGradient id="paint19_linear_374_3406" x1="114.934" y1="-7.63862e-05" x2="114.934" y2="-7.63862e-05" gradientUnits="userSpaceOnUse">
<stop stop-color="#FFD97A"/>
<stop offset="1" stop-color="#EB9E21"/>
</linearGradient>
<radialGradient id="paint20_radial_374_3406" cx="0" cy="0" r="1" gradientUnits="userSpaceOnUse" gradientTransform="translate(29.1945 -7.91663) scale(41.4714 41.6842)">
<stop/>
<stop offset="1" stop-color="#003311"/>
</radialGradient>
<radialGradient id="paint21_radial_374_3406" cx="0" cy="0" r="1" gradientUnits="userSpaceOnUse" gradientTransform="translate(74.3372 -1.49051) scale(34.8836 35.0626)">
<stop stop-color="#FF99CC"/>
<stop offset="1"/>
</radialGradient>
<clipPath id="clip0_374_3406">
<rect width="117" height="41" fill="white"/>
</clipPath>
</defs>
</svg>
