<svg width="134" height="45" viewBox="0 0 134 45" fill="none" xmlns="http://www.w3.org/2000/svg">
<g clip-path="url(#clip0_667_10024)">
<path fill-rule="evenodd" clip-rule="evenodd" d="M1.41162 9.03764C10.807 7.37495 20.2577 5.87316 29.7083 4.50546C41.9776 2.7355 54.2745 1.23371 66.599 0.0269165H67.0135H67.428C79.7526 1.23371 92.0495 2.7355 104.291 4.47864C113.742 5.84634 123.192 7.34813 132.588 9.01083C132.919 12.0412 133.5 21.6419 133.5 22.4733C133.5 23.3046 132.919 32.9053 132.588 35.9357C123.192 37.5984 113.742 39.1002 104.291 40.4679C92.0495 42.2379 79.7526 43.7397 67.428 44.9465H67.0135H66.599C54.2745 43.7397 41.9776 42.2379 29.7359 40.4679C20.2853 39.1002 10.8346 37.5984 1.43925 35.9357C1.10765 32.9053 0.527344 23.3046 0.527344 22.4733C0.527344 21.6419 1.08001 12.068 1.41162 9.03764Z" fill="#BA7D24"/>
<path fill-rule="evenodd" clip-rule="evenodd" d="M126.84 30.8939C126.84 30.6258 126.895 30.3576 126.895 30.0894C127.061 28.0781 127.282 24.565 127.31 22.5536C127.282 20.5155 127.034 16.9756 126.895 14.9642C126.895 14.6961 126.84 14.4279 126.84 14.1597C119.048 12.8188 111.2 11.5852 103.352 10.4589C91.2759 8.71574 79.1448 7.24077 66.986 6.06079C54.8273 7.24077 42.6962 8.74256 30.6203 10.4589C22.7724 11.5852 14.9522 12.8188 7.13188 14.1597C7.13188 14.4279 7.07661 14.6961 7.07661 14.9642C6.91081 16.9756 6.68974 20.4887 6.66211 22.5268C6.68974 24.565 6.93844 28.1049 7.07661 30.1162C7.07661 30.3844 7.13188 30.6526 7.13188 30.9207C14.9245 32.2616 22.7724 33.4952 30.6203 34.6216C42.6962 36.3647 54.8273 37.8397 66.986 39.0197C79.1448 37.8397 91.2759 36.3379 103.352 34.6216C111.2 33.4952 119.02 32.2616 126.84 30.9207V30.8939Z" fill="#CE0921"/>
<path fill-rule="evenodd" clip-rule="evenodd" d="M67.0124 9.01074C54.9919 10.1907 43.0266 11.6657 31.0889 13.382C24.07 14.4011 17.0511 15.4738 10.0322 16.6538C9.89403 18.1019 9.78349 21.025 9.75586 22.4732C9.78349 23.9214 9.92166 26.8713 10.0322 28.3194C17.0235 29.4994 24.0424 30.5989 31.0889 31.5912C43.0266 33.3075 55.0195 34.7825 67.0124 35.9625C79.033 34.7825 90.9983 33.3075 102.936 31.5912C109.955 30.5721 116.974 29.4994 123.993 28.3194C124.131 26.8713 124.241 23.9482 124.269 22.5C124.241 21.0519 124.103 18.1019 123.993 16.6538C117.001 15.4738 109.983 14.3743 102.936 13.382C90.9983 11.6657 79.033 10.1907 67.0124 9.01074Z" fill="url(#paint0_radial_667_10024)"/>
<path fill-rule="evenodd" clip-rule="evenodd" d="M4.61739 22.4731C4.64502 20.4886 4.89372 16.7878 5.03189 14.7765C5.08716 13.9987 5.14243 13.1942 5.22533 12.4165L1.41191 9.03748C1.0803 12.0679 0.5 21.6686 0.5 22.4999H4.61739V22.4731Z" fill="url(#paint1_linear_667_10024)"/>
<path fill-rule="evenodd" clip-rule="evenodd" d="M5.22553 12.4165C13.5708 10.9684 21.9438 9.65429 30.3167 8.4475C42.5031 6.70435 54.7447 5.20256 66.9864 3.99577V-6.10352e-05H66.5719C54.2473 1.23355 41.9504 2.73534 29.7088 4.5053C20.2581 5.873 10.8351 7.37479 1.41211 9.03748L5.22553 12.4165Z" fill="url(#paint2_linear_667_10024)"/>
<path fill-rule="evenodd" clip-rule="evenodd" d="M67.014 3.99593C79.2832 5.1759 91.4972 6.67769 103.684 8.44766C112.057 9.65445 120.43 10.9685 128.775 12.4167L132.588 9.03764C123.193 7.37495 113.742 5.87316 104.292 4.50546C92.0223 2.7355 79.7254 1.23371 67.4008 0.0269165H66.9863V3.99593H67.014Z" fill="url(#paint3_linear_667_10024)"/>
<path fill-rule="evenodd" clip-rule="evenodd" d="M133.499 22.5H129.381C129.354 24.4845 129.105 28.1853 128.967 30.1966C128.912 30.9743 128.856 31.752 128.773 32.5566L132.587 35.9356C132.918 32.9052 133.499 23.3045 133.499 22.4731V22.5Z" fill="url(#paint4_linear_667_10024)"/>
<path fill-rule="evenodd" clip-rule="evenodd" d="M128.775 32.5835C120.429 34.0316 112.056 35.3457 103.683 36.5525C91.4969 38.2957 79.2553 39.7974 67.0137 41.0042V45.0001H67.4282C79.7527 43.7665 92.0496 42.2647 104.291 40.4947C113.742 39.127 123.193 37.6252 132.588 35.9625L128.775 32.5835Z" fill="url(#paint5_linear_667_10024)"/>
<path fill-rule="evenodd" clip-rule="evenodd" d="M67.0137 45.0001V41.0042C54.7445 39.8243 42.5305 38.3225 30.3441 36.5525C21.9711 35.3457 13.5982 34.0316 5.25287 32.5835L1.43945 35.9625C10.8348 37.6252 20.2855 39.127 29.7361 40.4947C41.9778 42.2647 54.2747 43.7665 66.5992 44.9732H67.0137V45.0001Z" fill="url(#paint6_linear_667_10024)"/>
<path fill-rule="evenodd" clip-rule="evenodd" d="M30.6217 10.4321C42.6976 8.68898 54.8287 7.214 66.9874 6.03403V4.02271C54.7181 5.20268 42.5041 6.70447 30.3178 8.47443C21.9448 9.68123 13.5719 10.9953 5.22656 12.4434L7.16091 14.133C14.9536 12.7921 22.8015 11.5585 30.6494 10.4321H30.6217Z" fill="url(#paint7_linear_667_10024)"/>
<path fill-rule="evenodd" clip-rule="evenodd" d="M67.0137 6.00717C79.1724 7.18715 91.3035 8.68894 103.379 10.4053C111.227 11.5316 119.048 12.7652 126.868 14.1061L128.802 12.4166C120.457 10.9684 112.084 9.65437 103.711 8.44758C91.5246 6.70443 79.2829 5.20264 67.0413 3.99585V6.00717H67.0137Z" fill="url(#paint8_linear_667_10024)"/>
<path fill-rule="evenodd" clip-rule="evenodd" d="M127.005 15.9029C127.144 17.6192 127.309 20.8105 127.337 22.5268C127.337 22.8218 127.337 23.1168 127.309 23.4386C127.226 25.155 127.061 28.3731 126.922 30.0894C126.922 30.3576 126.867 30.6258 126.867 30.8939L127.033 31.028L128.802 32.5834C128.857 31.9666 128.912 31.323 128.94 30.7062C128.94 30.5453 128.94 30.3844 128.967 30.2503C129.106 28.4267 129.327 24.9136 129.382 23.09C129.382 22.9023 129.382 22.7146 129.382 22.5536C129.354 20.7837 129.161 17.4047 129.023 15.6079C129.023 15.3397 128.967 15.0983 128.967 14.8302C128.967 14.7765 128.967 14.7497 128.967 14.6961C128.912 13.9452 128.857 13.2211 128.802 12.4702L126.867 14.1597C126.867 14.4279 126.922 14.6961 126.922 14.9643C126.922 15.2861 126.978 15.6079 127.005 15.9297V15.9029Z" fill="url(#paint9_linear_667_10024)"/>
<path fill-rule="evenodd" clip-rule="evenodd" d="M126.84 30.8939C119.048 32.2348 111.2 33.4684 103.352 34.5948C91.2762 36.3379 79.1451 37.8129 66.9863 38.9928V41.0042C79.2556 39.8242 91.4696 38.3224 103.656 36.5524C112.029 35.3456 120.402 34.0316 128.747 32.5834L126.979 31.028L126.813 30.8939H126.84Z" fill="url(#paint10_linear_667_10024)"/>
<path fill-rule="evenodd" clip-rule="evenodd" d="M67.015 38.9928C54.8563 37.8129 42.7252 36.3111 30.6494 34.5948C22.8015 33.4684 14.9812 32.2348 7.16091 30.8939L6.99511 31.028L5.22656 32.5834C13.5719 34.0316 21.9448 35.3456 30.3178 36.5524C42.5041 38.2956 54.7458 39.7974 66.9874 41.0042V38.9928H67.015Z" fill="url(#paint11_linear_667_10024)"/>
<path fill-rule="evenodd" clip-rule="evenodd" d="M6.99562 15.9029C6.85745 17.6192 6.69165 20.8105 6.66402 22.5268C6.66402 22.8218 6.66402 23.1168 6.69165 23.4386C6.77455 25.155 6.94035 28.3731 7.07852 30.0894C7.07852 30.3576 7.13379 30.6258 7.13379 30.8939L6.96799 31.028L5.19944 32.5834C5.14418 31.9666 5.08891 31.323 5.06128 30.7062C5.06128 30.5453 5.06128 30.3844 5.03364 30.2503C4.89548 28.4267 4.67441 24.9136 4.61914 23.09C4.61914 22.9023 4.61914 22.7146 4.61914 22.5536C4.64677 20.7837 4.84021 17.4047 4.97838 15.6079C4.97838 15.3397 5.03364 15.0983 5.03364 14.8302C5.03364 14.7765 5.03364 14.7497 5.03364 14.6961C5.08891 13.9452 5.14418 13.2211 5.19944 12.4702L7.13379 14.1597C7.13379 14.4279 7.07852 14.6961 7.07852 14.9643C7.07852 15.2861 7.02325 15.6079 6.99562 15.9297V15.9029Z" fill="url(#paint12_linear_667_10024)"/>
<g style="mix-blend-mode:screen" opacity="0.75">
<path fill-rule="evenodd" clip-rule="evenodd" d="M67.0125 3.9959C70.9365 4.37134 74.8328 4.77361 78.7568 5.22951C87.0745 6.16812 95.3921 7.24083 103.682 8.44762C107.523 8.98398 111.337 9.57396 115.15 10.164C99.4819 7.07992 83.2334 4.90769 67.8692 3.16455C67.5928 2.14548 67.2889 1.15323 67.0125 0.134155C66.7362 1.15323 66.4322 2.14548 66.1559 3.16455C50.764 4.90769 34.5432 7.10674 18.875 10.164C22.6884 9.57396 26.5295 8.98398 30.3429 8.44762C38.6329 7.26765 46.9506 6.19494 55.2683 5.22951C59.1646 4.77361 63.0886 4.37134 67.0125 3.9959Z" fill="white"/>
</g>
<path fill-rule="evenodd" clip-rule="evenodd" d="M31.0634 13.382C43.0011 11.6657 54.9664 10.1907 66.987 9.01072V6.00714C54.8282 7.18712 42.6971 8.68891 30.6213 10.4052C22.7734 11.5316 14.9531 12.7652 7.13281 14.1061L8.26579 15.0983L9.67509 16.3587L10.0067 16.6537C10.2554 16.6001 10.5041 16.5733 10.7252 16.5197C11.9134 16.3319 13.1016 16.1174 14.2899 15.9297C19.8719 15.0179 25.4538 14.1597 31.0358 13.3552L31.0634 13.382Z" fill="url(#paint13_linear_667_10024)"/>
<path fill-rule="evenodd" clip-rule="evenodd" d="M67.014 9.01075C79.0345 10.1907 90.9998 11.6657 102.938 13.382C108.519 14.1866 114.101 15.0447 119.683 15.9565C120.872 16.1442 122.06 16.3588 123.248 16.5465C123.497 16.6001 123.746 16.627 123.967 16.6806L124.298 16.3856L125.708 15.1252L126.84 14.1329C119.048 12.792 111.2 11.5584 103.352 10.4321C91.2762 8.68894 79.1451 7.21397 66.9863 6.034V9.03757L67.014 9.01075Z" fill="url(#paint14_linear_667_10024)"/>
<path fill-rule="evenodd" clip-rule="evenodd" d="M9.75677 22.4732C9.7844 21.025 9.92257 18.1019 10.0331 16.6538L9.7015 16.3588L8.2922 15.0983L7.15922 14.1061C7.15922 14.3743 7.10396 14.6424 7.10396 14.9106C7.10396 15.2324 7.04869 15.5542 7.02105 15.876C6.88289 17.5656 6.71709 20.7569 6.68945 22.4464C6.68945 22.7682 6.68945 23.09 6.71709 23.385C6.79999 25.1013 6.96579 28.3194 7.10396 30.0358C7.10396 30.3039 7.15922 30.5721 7.15922 30.8403L10.0331 28.2926C9.95021 27.3272 9.8673 24.86 9.81204 23.8945C9.7844 23.4118 9.75677 22.9023 9.75677 22.4195V22.4732Z" fill="url(#paint15_linear_667_10024)"/>
<path fill-rule="evenodd" clip-rule="evenodd" d="M123.967 16.6538C124.105 18.1019 124.215 21.0518 124.243 22.5C124.243 22.9827 124.215 23.4654 124.188 23.9213C124.133 24.8868 124.05 27.354 123.967 28.3194L126.841 30.8671C126.841 30.5989 126.896 30.3308 126.896 30.0626C127.034 28.3462 127.2 25.1281 127.283 23.4118C127.283 23.1168 127.283 22.8218 127.31 22.5C127.283 20.7837 127.117 17.5924 126.979 15.876C126.979 15.5542 126.924 15.2324 126.896 14.9106C126.896 14.6424 126.841 14.3743 126.841 14.1061L125.708 15.0983L124.298 16.3588L123.967 16.6538Z" fill="#01A238"/>
<path fill-rule="evenodd" clip-rule="evenodd" d="M31.0634 31.6181C43.0011 33.3344 54.9664 34.8094 66.987 35.9893V38.9929C54.8282 37.8129 42.6971 36.3112 30.6213 34.5948C22.7734 33.4685 14.9531 32.2349 7.13281 30.894L8.26579 29.9017L9.67509 28.6413L10.0067 28.3463C10.2554 28.3999 10.5041 28.4268 10.7252 28.4804C11.9134 28.6681 13.1016 28.8827 14.2899 29.0704C19.8719 29.9822 25.4538 30.8404 31.0358 31.6449L31.0634 31.6181Z" fill="url(#paint16_linear_667_10024)"/>
<path fill-rule="evenodd" clip-rule="evenodd" d="M67.014 35.9893C79.0345 34.8093 90.9998 33.3344 102.938 31.618C108.519 30.8135 114.101 29.9553 119.683 29.0435C120.872 28.8558 122.06 28.6413 123.248 28.4535C123.497 28.3999 123.746 28.3731 123.967 28.3195L124.298 28.6145L125.708 29.8749L126.84 30.8671C119.048 32.208 111.2 33.4416 103.352 34.568C91.2762 36.3111 79.1451 37.7861 66.9863 38.9661V35.9625L67.014 35.9893Z" fill="url(#paint17_linear_667_10024)"/>
<path fill-rule="evenodd" clip-rule="evenodd" d="M4.61739 22.5269C4.64502 24.5114 4.89372 28.2123 5.03189 30.2236C5.08716 31.0013 5.14243 31.779 5.22533 32.5836L1.41191 35.9626C1.0803 32.9322 0.5 23.3315 0.5 22.5001H4.61739V22.5269Z" fill="url(#paint18_linear_667_10024)"/>
<path fill-rule="evenodd" clip-rule="evenodd" d="M129.381 22.4731C129.354 20.4886 129.105 16.7878 128.967 14.7765C128.912 13.9987 128.856 13.1942 128.773 12.4165L132.587 9.03748C132.918 12.0679 133.499 21.6686 133.499 22.4999H129.381V22.4731Z" fill="url(#paint19_linear_667_10024)"/>
<g style="mix-blend-mode:screen" opacity="0.5">
<path fill-rule="evenodd" clip-rule="evenodd" d="M67.0142 40.0654C50.0473 38.5905 33.0251 36.5255 15.9199 34.3533C20.7281 35.131 25.5364 35.8551 30.3446 36.5523C42.531 38.2955 54.7726 39.7973 67.0142 41.004C79.2835 39.8241 91.4975 38.3223 103.684 36.5523C108.492 35.8551 113.3 35.131 118.109 34.3533C101.003 36.4987 83.9812 38.5636 67.0142 40.0654Z" fill="white"/>
</g>
<path style="mix-blend-mode:screen" fill-rule="evenodd" clip-rule="evenodd" d="M37.8588 12.4434L19.8418 29.9285C23.5723 30.5185 27.3305 31.0817 31.0886 31.618C36.0903 32.3421 41.092 33.0125 46.0936 33.6293L71.0467 9.41301C69.6926 9.27892 68.3662 9.14483 67.0122 9.01074C57.2852 9.97618 47.5582 11.1025 37.8588 12.4166V12.4434Z" fill="url(#paint20_radial_667_10024)"/>
<path style="mix-blend-mode:screen" fill-rule="evenodd" clip-rule="evenodd" d="M102.329 13.3015L80.4434 34.5411C85.6937 33.9243 90.9164 33.2807 96.1668 32.5566L114.184 15.0715C110.453 14.4815 106.695 13.9183 102.937 13.382C102.744 13.3551 102.523 13.3283 102.329 13.3015Z" fill="url(#paint21_radial_667_10024)"/>
<path d="M32.8896 15.4053C33.54 15.4053 34.0967 15.5342 34.5596 15.792C35.0225 16.0498 35.377 16.3955 35.623 16.8291C35.8691 17.2627 35.9922 17.7432 35.9922 18.2705V20.2129C35.6758 20.5117 35.3213 20.8193 34.9287 21.1357C35.3213 21.458 35.6758 21.7686 35.9922 22.0674V25.1348C35.9922 25.6621 35.8691 26.1426 35.623 26.5762C35.377 27.0098 35.0225 27.3555 34.5596 27.6133C34.0967 27.8711 33.54 28 32.8896 28H28.6445V15.4053H32.8896ZM31.2197 17.5322V21.0127C31.9404 20.5264 32.7344 19.9229 33.6016 19.2021V19.0879L33.5928 18.6748C33.5811 18.124 33.4404 17.79 33.1709 17.6729C32.9482 17.5732 32.5381 17.5234 31.9404 17.5234C31.8232 17.5234 31.6973 17.5264 31.5625 17.5322H31.2197ZM33.6016 23.0693C33.4141 22.9111 33.2236 22.7559 33.0303 22.6035C32.3389 23.1016 31.7354 23.5264 31.2197 23.8779V25.873H31.8525C32.2217 25.873 32.5293 25.8613 32.7754 25.8379C33.0273 25.8145 33.2148 25.7412 33.3379 25.6182C33.4668 25.4893 33.543 25.2783 33.5664 24.9854C33.5898 24.6924 33.6016 24.2822 33.6016 23.7549V23.0693ZM42.0654 15.4053H44.6406V28H40.3955C39.7451 28 39.1885 27.8711 38.7256 27.6133C38.2627 27.3555 37.9082 27.0098 37.6621 26.5762C37.4219 26.1426 37.3018 25.6621 37.3018 25.1348V15.4053H39.877V24.502C39.877 25.1523 40 25.5508 40.2461 25.6973C40.4688 25.8262 40.9023 25.8906 41.5469 25.8906C41.6699 25.8906 41.8018 25.8877 41.9424 25.8818H42.0654V15.4053ZM53.2275 15.4053V22.2871L50.8457 24.0186V28H48.2617V24.0186L45.8799 22.2871V15.4053H48.4639V20.9951L49.5537 21.7773L50.6436 20.9951V15.4053H53.2275ZM64.7148 15.4053V17.585L62.6582 17.374V28H60.0742V17.3301L57.8857 17.585V15.4053H64.7148ZM72.2207 17.2949C72.2441 17.377 72.2646 17.4941 72.2822 17.6465C72.3057 17.793 72.3174 17.9131 72.3174 18.0068V25.3457C72.3174 25.873 72.1943 26.3535 71.9482 26.7871C71.7021 27.2148 71.3477 27.5576 70.8848 27.8154C70.4277 28.0732 69.8711 28.2021 69.2148 28.2021H68.3447C67.6943 28.2021 67.1377 28.0732 66.6748 27.8154C66.2119 27.5576 65.8574 27.2148 65.6113 26.7871C65.3711 26.3535 65.251 25.873 65.251 25.3457V18.0596C65.251 17.5322 65.3711 17.0547 65.6113 16.627C65.8574 16.1934 66.2119 15.8477 66.6748 15.5898C67.1377 15.332 67.6943 15.2031 68.3447 15.2031H69.2148C70.0293 15.2031 70.6943 15.3994 71.21 15.792C71.7256 16.1787 72.0625 16.6797 72.2207 17.2949ZM69.7334 19.4482C69.7334 18.8975 69.7188 18.4697 69.6895 18.165C69.6602 17.8604 69.5781 17.6494 69.4434 17.5322C69.3145 17.4092 69.0947 17.3477 68.7842 17.3477C68.4736 17.3477 68.251 17.4092 68.1162 17.5322C67.9814 17.6494 67.8994 17.8604 67.8701 18.165C67.8408 18.4697 67.8262 18.8975 67.8262 19.4482V23.957C67.8262 24.5078 67.8408 24.9355 67.8701 25.2402C67.8994 25.5449 67.9785 25.7588 68.1074 25.8818C68.2422 25.999 68.4678 26.0576 68.7842 26.0576C69.1006 26.0576 69.3232 25.999 69.4521 25.8818C69.5869 25.7588 69.666 25.5449 69.6895 25.2402C69.7188 24.9355 69.7334 24.5078 69.7334 23.957V19.4482ZM78.54 28L77.248 24.6514C76.8379 24.9326 76.4717 25.1816 76.1494 25.3984V28H73.5742V15.4053H76.1494V22.5244C76.6768 22.1436 77.2979 21.6514 78.0127 21.0479V15.4053H80.5527V22.0586C80.2246 22.3691 79.8613 22.6855 79.4629 23.0078L81.3086 28H78.54ZM88.3838 17.585L84.4375 17.3477V22.0762H88.3838V24.2559L84.4375 24.0186V26.0488L88.3838 25.8115V27.9912H84.4375L81.8623 28V24.2559L80.9043 22.0762H81.8623V15.4053H88.3838V17.585ZM93.9033 15.4053H96.4785V28H93.9033V21.6455L92.04 19.1758V28H89.5V15.3877L91.9873 15.3965L92.0488 15.4668L93.9033 17.9189V15.4053ZM104.046 20.3096L101.989 20.1602V17.5322H101.937C101.796 17.5264 101.667 17.5234 101.55 17.5234C100.999 17.5234 100.612 17.5703 100.39 17.6641C100.167 17.7578 100.047 18.0449 100.029 18.5254C100.023 18.6016 100.018 18.6953 100.012 18.8066C100.012 18.918 100.009 19.0322 100.003 19.1494C100.003 19.2607 100.003 19.3545 100.003 19.4307V19.5537L104.459 22.7441V25.126C104.459 25.6533 104.336 26.1338 104.09 26.5674C103.844 27.001 103.489 27.3467 103.026 27.6045C102.569 27.8623 102.016 27.9912 101.365 27.9912H97.6211V23.5L99.6777 23.6494L99.9326 25.8643C100.149 25.8643 100.346 25.8672 100.521 25.873C100.645 25.8789 100.759 25.8818 100.864 25.8818C101.146 25.8818 101.383 25.8643 101.576 25.8291C101.77 25.7881 101.901 25.6621 101.972 25.4512C102.042 25.2344 102.077 24.8799 102.077 24.3877V24.2295L97.6211 20.9775V18.2705C97.6211 17.7432 97.7412 17.2627 97.9814 16.8291C98.2275 16.3955 98.582 16.0498 99.0449 15.792C99.5078 15.5342 100.064 15.4053 100.715 15.4053H104.354L104.046 20.3096Z" fill="white"/>
</g>
<defs>
<radialGradient id="paint0_radial_667_10024" cx="0" cy="0" r="1" gradientUnits="userSpaceOnUse" gradientTransform="translate(67.0125 9.03756) scale(63.9992 62.1097)">
<stop stop-color="#00AF3C"/>
<stop offset="1" stop-color="#0A6629"/>
</radialGradient>
<linearGradient id="paint1_linear_667_10024" x1="2.84885" y1="22.4999" x2="2.84885" y2="9.03748" gradientUnits="userSpaceOnUse">
<stop stop-color="#FFD97A"/>
<stop offset="1" stop-color="#EB9E21"/>
</linearGradient>
<linearGradient id="paint2_linear_667_10024" x1="1.41211" y1="6.22163" x2="67.014" y2="6.22163" gradientUnits="userSpaceOnUse">
<stop stop-color="#F5D36C"/>
<stop offset="1" stop-color="#FFF5B0"/>
</linearGradient>
<linearGradient id="paint3_linear_667_10024" x1="67.014" y1="6.22179" x2="132.588" y2="6.22179" gradientUnits="userSpaceOnUse">
<stop stop-color="#FFDD6E"/>
<stop offset="1" stop-color="#D69705"/>
</linearGradient>
<linearGradient id="paint4_linear_667_10024" x1="131.15" y1="35.9624" x2="131.15" y2="22.5" gradientUnits="userSpaceOnUse">
<stop stop-color="#E8B048"/>
<stop offset="1" stop-color="#C27C0C"/>
</linearGradient>
<linearGradient id="paint5_linear_667_10024" x1="67.0137" y1="38.7784" x2="132.588" y2="38.7784" gradientUnits="userSpaceOnUse">
<stop stop-color="#A87219"/>
<stop offset="1" stop-color="#6B4200"/>
</linearGradient>
<linearGradient id="paint6_linear_667_10024" x1="1.41182" y1="38.7784" x2="67.0137" y2="38.7784" gradientUnits="userSpaceOnUse">
<stop stop-color="#A36808"/>
<stop offset="1" stop-color="#BF8800"/>
</linearGradient>
<linearGradient id="paint7_linear_667_10024" x1="5.22656" y1="9.06442" x2="67.0151" y2="9.06442" gradientUnits="userSpaceOnUse">
<stop stop-color="#6B4200"/>
<stop offset="1" stop-color="#A87219"/>
</linearGradient>
<linearGradient id="paint8_linear_667_10024" x1="67.0137" y1="9.06438" x2="128.775" y2="9.06438" gradientUnits="userSpaceOnUse">
<stop stop-color="#BF8800"/>
<stop offset="1" stop-color="#A36808"/>
</linearGradient>
<linearGradient id="paint9_linear_667_10024" x1="128.111" y1="32.5834" x2="128.111" y2="12.4166" gradientUnits="userSpaceOnUse">
<stop stop-color="#E8B048"/>
<stop offset="1" stop-color="#8F6B09"/>
</linearGradient>
<linearGradient id="paint10_linear_667_10024" x1="67.014" y1="35.9356" x2="128.775" y2="35.9356" gradientUnits="userSpaceOnUse">
<stop stop-color="#FFF5B0"/>
<stop offset="1" stop-color="#F5D36C"/>
</linearGradient>
<linearGradient id="paint11_linear_667_10024" x1="5.22656" y1="35.9356" x2="67.015" y2="35.9356" gradientUnits="userSpaceOnUse">
<stop stop-color="#D69705"/>
<stop offset="1" stop-color="#FFDD6E"/>
</linearGradient>
<linearGradient id="paint12_linear_667_10024" x1="5.89028" y1="1.4667e-05" x2="5.89028" y2="1.4667e-05" gradientUnits="userSpaceOnUse">
<stop stop-color="#E8B048"/>
<stop offset="1" stop-color="#8F6B09"/>
</linearGradient>
<linearGradient id="paint13_linear_667_10024" x1="7.16045" y1="11.3439" x2="67.0146" y2="11.3439" gradientUnits="userSpaceOnUse">
<stop stop-color="#005C1F"/>
<stop offset="1" stop-color="#07C748"/>
</linearGradient>
<linearGradient id="paint14_linear_667_10024" x1="67.014" y1="11.3439" x2="126.84" y2="11.3439" gradientUnits="userSpaceOnUse">
<stop stop-color="#02C243"/>
<stop offset="1" stop-color="#005B1F"/>
</linearGradient>
<linearGradient id="paint15_linear_667_10024" x1="8.34746" y1="30.8939" x2="8.34746" y2="14.1061" gradientUnits="userSpaceOnUse">
<stop stop-color="#005B1F"/>
<stop offset="1" stop-color="#00C643"/>
</linearGradient>
<linearGradient id="paint16_linear_667_10024" x1="7.16045" y1="33.6562" x2="67.0146" y2="33.6562" gradientUnits="userSpaceOnUse">
<stop stop-color="#007628"/>
<stop offset="1" stop-color="#00C744"/>
</linearGradient>
<linearGradient id="paint17_linear_667_10024" x1="67.014" y1="33.6562" x2="126.84" y2="33.6562" gradientUnits="userSpaceOnUse">
<stop stop-color="#00A839"/>
<stop offset="1" stop-color="#00C543"/>
</linearGradient>
<linearGradient id="paint18_linear_667_10024" x1="2.84885" y1="0.000125557" x2="2.84885" y2="22.5001" gradientUnits="userSpaceOnUse">
<stop stop-color="#E8B048"/>
<stop offset="1" stop-color="#C27C0C"/>
</linearGradient>
<linearGradient id="paint19_linear_667_10024" x1="131.15" y1="-6.90768e-05" x2="131.15" y2="-6.90768e-05" gradientUnits="userSpaceOnUse">
<stop stop-color="#FFD97A"/>
<stop offset="1" stop-color="#EB9E21"/>
</linearGradient>
<radialGradient id="paint20_radial_667_10024" cx="0" cy="0" r="1" gradientUnits="userSpaceOnUse" gradientTransform="translate(33.6862 -8.6889) scale(47.1427 45.7509)">
<stop/>
<stop offset="1" stop-color="#003311"/>
</radialGradient>
<radialGradient id="paint21_radial_667_10024" cx="0" cy="0" r="1" gradientUnits="userSpaceOnUse" gradientTransform="translate(85.0029 -1.63591) scale(39.6541 38.4833)">
<stop stop-color="#FF99CC"/>
<stop offset="1"/>
</radialGradient>
<clipPath id="clip0_667_10024">
<rect width="133" height="45" fill="white" transform="translate(0.5)"/>
</clipPath>
</defs>
</svg>
