<svg width="574" height="417" viewBox="0 0 574 417" fill="none" xmlns="http://www.w3.org/2000/svg">
<g clip-path="url(#clip0_1105_2128)">
<path d="M305.127 307.13C307.123 309.319 309.081 311.548 311.023 313.824L308.428 316.021C283.288 286.452 254.059 264.731 186.247 247.93C124.166 232.549 117.79 198.256 111.037 161.946C110.518 159.168 110.007 156.382 109.457 153.597L112.798 152.945C113.348 155.747 113.867 158.548 114.386 161.326C120.927 196.529 127.106 229.779 187.065 244.634C250.561 260.368 280.717 280.418 305.127 307.122V307.13Z" fill="url(#paint0_linear_1105_2128)"/>
<path d="M112.212 158.94C97.6603 145.631 99.1776 135.288 98.6902 123.29C98.1949 111.291 88.3289 93.3991 88.4782 78.8266C88.6276 64.2541 90.2235 40.9004 90.2235 40.9004C90.2235 40.9004 93.4309 61.8763 99.8772 74.9265C106.316 87.9766 119.2 109.102 120.333 121.014C121.465 132.926 112.22 158.94 112.22 158.94H112.212Z" fill="url(#paint1_linear_1105_2128)"/>
<path d="M145.525 228.467C142.475 208.856 129.543 195.249 127.287 181.869C125.031 168.49 140.25 155.125 139.724 138.183C139.197 121.241 147.931 112.789 147.931 112.789C147.931 112.789 142.043 133.082 150.769 147.545C159.495 162 145.101 187.048 145.958 196.238C146.807 205.419 145.525 228.475 145.525 228.475V228.467Z" fill="url(#paint2_linear_1105_2128)"/>
<path d="M189.041 246.885C175.559 232.501 156.401 218.085 159.899 192.997C163.397 167.909 158.523 154.922 158.523 154.922C158.523 154.922 168.932 166.85 178.224 180.292C187.516 193.735 182.603 214.64 183.727 224.559C184.859 234.478 189.041 246.877 189.041 246.877V246.885Z" fill="url(#paint3_linear_1105_2128)"/>
<path d="M227.341 222.371C227.412 222.709 234.495 256.578 246.531 264.605L244.644 267.431C231.46 258.649 224.307 224.506 224.008 223.054L227.341 222.371Z" fill="url(#paint4_linear_1105_2128)"/>
<path d="M266.45 277.097C248.99 274.657 221.161 278.588 199.062 294.236C176.956 309.883 174.582 310.558 174.582 310.558C174.582 310.558 190.163 305.332 215.037 306.58C239.91 307.827 266.458 277.105 266.458 277.105L266.45 277.097Z" fill="url(#paint5_linear_1105_2128)"/>
<path d="M226.776 227.44C212.106 214.649 198.412 189.294 193.569 169.801C188.727 150.316 171.07 131.545 175.661 116.918C175.661 116.918 182.068 136.474 192.186 143.191C202.311 149.9 219.37 170.209 223.56 186.799C227.75 203.388 226.776 227.44 226.776 227.44Z" fill="url(#paint6_linear_1105_2128)"/>
<path d="M231.293 239.987C240.428 228.184 237.739 207.232 234.642 189.646C231.537 172.06 256.048 155.22 256.504 133.898C256.504 133.898 265.168 155.384 258.658 177.734C252.157 200.083 253.627 207.2 244.775 218.752C235.923 230.303 231.293 239.987 231.293 239.987Z" fill="url(#paint7_linear_1105_2128)"/>
<path d="M289.482 292.542C282.053 275.913 262.667 260.705 263.186 243.81C263.705 226.914 271.928 212.452 269.9 199.865C267.871 187.277 270.584 179.328 270.584 179.328C270.584 179.328 275.355 197.102 280.072 203.898C284.789 210.694 282.25 226.451 290.457 237.893C298.664 249.342 289.482 292.542 289.482 292.542Z" fill="url(#paint8_linear_1105_2128)"/>
<path d="M228.63 257.236L228.19 260.602C200.345 256.961 164.427 268.332 164.073 268.45L163.035 265.217C164.529 264.738 200.023 253.5 228.638 257.236H228.63Z" fill="url(#paint9_linear_1105_2128)"/>
<path d="M173.608 242.499C152.783 245.779 130.252 230.948 114.97 234.416C99.687 237.885 79.0902 254.639 52.0156 247.937C52.0156 247.937 78.5792 260.085 101.354 258.264C124.128 256.444 173.608 242.499 173.608 242.499Z" fill="url(#paint10_linear_1105_2128)"/>
<path d="M192.199 260.258C170.738 267.124 157.641 276.196 144.716 296.434C131.792 316.672 115.873 317.802 105.504 341.392C105.504 341.392 121.714 325.846 134.473 320.698C147.224 315.558 163.56 300.679 169.315 288.971C175.069 277.263 192.199 260.266 192.199 260.266V260.258Z" fill="url(#paint11_linear_1105_2128)"/>
<path d="M167.177 265.759C149.709 261.513 125.417 273.677 110.37 271.95C95.3237 270.216 74.043 273.669 62.1016 278.071C62.1016 278.071 81.6764 277.663 95.0958 280.88C108.507 284.098 123.452 290.902 135.22 285.911C146.989 280.92 167.177 265.759 167.177 265.759Z" fill="url(#paint12_linear_1105_2128)"/>
<path d="M128.161 209.972C108.602 196.898 91.9357 190.667 71.9914 193.398C52.047 196.129 36.6073 197.243 23.7775 187.026C10.9478 176.809 0.5 182.836 0.5 182.836C0.5 182.836 10.8613 184.35 22.0638 196.058C33.2584 207.767 44.6652 210.827 59.8377 211.941C75.0101 213.064 87.3996 227.165 101.943 222.889C116.487 218.612 128.169 209.98 128.169 209.98L128.161 209.972Z" fill="url(#paint13_linear_1105_2128)"/>
<path d="M116.064 178.401C108.415 167.211 102.338 151.83 75.4522 140.969C48.5663 130.109 42.7331 129.442 35.7129 121.9C28.6927 114.359 15.2891 116.603 15.2891 116.603C15.2891 116.603 24.5183 120.15 33.2051 129.661C41.8998 139.172 51.3728 151.446 67.0012 156.138C82.6296 160.823 116.064 178.401 116.064 178.401Z" fill="url(#paint14_linear_1105_2128)"/>
<path d="M11.5391 269.336C35.7364 274.484 52.0094 282.536 61.0815 308.644C72.9364 342.748 105.16 333.677 128.43 348.791C149.31 362.351 154.459 374.969 192.689 373.934C119.342 335.482 91.0412 292.549 82.5823 282.747C60.6019 257.291 13.0091 237.256 11.5391 269.336Z" fill="url(#paint15_linear_1105_2128)"/>
<path d="M18.1261 298.834C19.2581 301.722 20.4609 304.468 21.7344 307.113C33.6837 309.93 42.8422 312.331 42.5514 313.014C42.2919 313.603 34.9808 313.618 24.989 313.359C30.2797 322.729 36.5767 330.451 43.8721 336.964C56.5839 335.45 66.5757 334.5 66.5285 335.261C66.4892 335.913 59.414 338.495 49.6895 341.743C85.7889 369.123 143.067 373.078 219.825 397.53L221.445 387.697C211.154 383.224 201.611 378.61 192.696 373.941C154.466 374.977 149.317 362.358 128.437 348.798C105.167 333.684 72.9434 342.748 61.0885 308.651C52.0164 282.543 35.7355 274.492 11.5461 269.344C11.2238 276.453 13.1498 286.106 18.1339 298.842L18.1261 298.834Z" fill="url(#paint16_linear_1105_2128)"/>
<path d="M324.948 403.487C327.574 397.343 331.622 389.417 337.636 381.138C349.641 364.612 372.132 343.212 411.156 335.082C500.099 316.562 516.931 291.757 537.024 252.826L538.612 253.674C518.236 293.146 501.192 318.289 411.384 336.989C373.005 344.978 350.891 365.977 339.106 382.182C326.316 399.76 322.558 415.659 322.527 415.816L320.75 415.478C320.774 415.392 321.89 410.644 324.948 403.479V403.487Z" fill="url(#paint17_linear_1105_2128)"/>
<path d="M499.648 303.567C499.648 303.567 552.005 289.261 548.523 311.673C545.63 330.279 499.648 303.567 499.648 303.567Z" fill="url(#paint18_linear_1105_2128)"/>
<path d="M463.77 322.416C463.77 322.416 517.872 326.865 506.913 346.735C497.817 363.23 463.77 322.416 463.77 322.416Z" fill="url(#paint19_linear_1105_2128)"/>
<path d="M424.117 335.152C424.117 335.152 476.073 350.855 461.168 367.986C448.802 382.205 424.117 335.152 424.117 335.152Z" fill="url(#paint20_linear_1105_2128)"/>
<path d="M388.984 341.172C388.984 341.172 437.874 364.73 420.485 379.341C406.059 391.473 388.984 341.172 388.984 341.172Z" fill="url(#paint21_linear_1105_2128)"/>
<path d="M348.844 353.633C348.844 353.633 401.373 367.287 387.16 384.991C375.36 399.681 348.844 353.633 348.844 353.633Z" fill="url(#paint22_linear_1105_2128)"/>
<path d="M312.84 378.689C312.84 378.689 367.052 381.405 356.738 401.619C348.177 418.397 312.84 378.689 312.84 378.689Z" fill="url(#paint23_linear_1105_2128)"/>
<path d="M524.02 276.195C524.02 276.195 571.856 250.589 573.475 273.213C574.82 292 524.02 276.195 524.02 276.195Z" fill="url(#paint24_linear_1105_2128)"/>
<path d="M516.354 288.296C516.354 288.296 483.965 244.806 506.15 239.901C524.569 235.828 516.354 288.296 516.354 288.296Z" fill="url(#paint25_linear_1105_2128)"/>
<path d="M482.6 314.929C482.6 314.929 462.915 264.432 485.611 265.562C504.455 266.503 482.6 314.929 482.6 314.929Z" fill="url(#paint26_linear_1105_2128)"/>
<path d="M443.441 330.028C443.441 330.028 437.207 276.203 458.873 283.03C476.86 288.704 443.441 330.028 443.441 330.028Z" fill="url(#paint27_linear_1105_2128)"/>
<path d="M402.751 339.248C402.751 339.248 399.268 285.172 420.564 293.098C438.237 299.682 402.751 339.248 402.751 339.248Z" fill="url(#paint28_linear_1105_2128)"/>
<path d="M368.191 346.688C368.191 346.688 364.716 292.612 386.005 300.537C403.677 307.121 368.191 346.688 368.191 346.688Z" fill="url(#paint29_linear_1105_2128)"/>
<path d="M328.384 365.152C328.384 365.152 308.369 314.78 331.072 315.768C349.916 316.584 328.384 365.152 328.384 365.152Z" fill="url(#paint30_linear_1105_2128)"/>
<path d="M298.635 395.812C298.635 395.812 263.455 354.542 285.27 348.186C303.383 342.913 298.635 395.812 298.635 395.812Z" fill="url(#paint31_linear_1105_2128)"/>
<path d="M535.625 256.867C535.625 256.867 538.196 202.744 558.47 212.985C575.301 221.483 535.625 256.867 535.625 256.867Z" fill="url(#paint32_linear_1105_2128)"/>
<path d="M346.518 310.912C347.422 303.512 347.87 293.585 346.447 282.199C343.601 259.481 332.501 226.09 295.788 196.051C212.112 127.583 209.101 94.153 211.113 45.2797L208.904 45.1855C206.86 94.7415 209.895 128.619 294.381 197.754C330.488 227.299 341.415 260.077 344.23 282.372C347.28 306.549 341.714 323.978 341.659 324.151L343.758 324.833C343.79 324.739 345.456 319.537 346.51 310.912H346.518Z" fill="url(#paint33_linear_1105_2128)"/>
<path d="M217.655 107.823C217.655 107.823 179.495 69.2851 171.272 90.4337C164.449 107.988 217.655 107.823 217.655 107.823Z" fill="url(#paint34_linear_1105_2128)"/>
<path d="M239.263 142.068C239.263 142.068 190.193 118.895 189.721 141.574C189.328 160.4 239.263 142.068 239.263 142.068Z" fill="url(#paint35_linear_1105_2128)"/>
<path d="M267.213 172.9C267.213 172.9 214.361 160.549 218.676 182.819C222.261 201.308 267.213 172.9 267.213 172.9Z" fill="url(#paint36_linear_1105_2128)"/>
<path d="M294.616 195.658C294.616 195.658 240.483 191.64 248.203 212.97C254.618 230.681 294.616 195.658 294.616 195.658Z" fill="url(#paint37_linear_1105_2128)"/>
<path d="M323.13 226.498C323.13 226.498 270.805 212.082 274.24 234.51C277.094 253.124 323.13 226.498 323.13 226.498Z" fill="url(#paint38_linear_1105_2128)"/>
<path d="M341.736 266.174C341.736 266.174 293.436 241.447 292.233 264.094C291.235 282.897 341.736 266.174 341.736 266.174Z" fill="url(#paint39_linear_1105_2128)"/>
<path d="M210.272 71.9534C210.272 71.9534 181.688 25.8895 168.944 44.6682C158.371 60.2609 210.272 71.9534 210.272 71.9534Z" fill="url(#paint40_linear_1105_2128)"/>
<path d="M210.844 86.2586C210.844 86.2586 260.685 64.7805 243.932 49.4546C230.026 36.7262 210.844 86.2586 210.844 86.2586Z" fill="url(#paint41_linear_1105_2128)"/>
<path d="M226.719 126.179C226.719 126.179 269.076 92.2859 248.856 81.9352C232.072 73.3424 226.719 126.179 226.719 126.179Z" fill="url(#paint42_linear_1105_2128)"/>
<path d="M253.052 158.815C253.052 158.815 285.433 115.325 263.24 110.413C244.821 106.34 253.052 158.815 253.052 158.815Z" fill="url(#paint43_linear_1105_2128)"/>
<path d="M283.667 187.12C283.667 187.12 313.784 142.037 291.379 138.263C272.779 135.132 283.667 187.12 283.667 187.12Z" fill="url(#paint44_linear_1105_2128)"/>
<path d="M309.851 210.828C309.851 210.828 339.968 165.745 317.563 161.97C298.963 158.839 309.851 210.828 309.851 210.828Z" fill="url(#paint45_linear_1105_2128)"/>
<path d="M335.062 246.69C335.062 246.69 377.64 213.08 357.491 202.588C340.762 193.885 335.062 246.69 335.062 246.69Z" fill="url(#paint46_linear_1105_2128)"/>
<path d="M345.449 288.091C345.449 288.091 396.595 269.925 380.888 253.532C367.854 239.917 345.449 288.091 345.449 288.091Z" fill="url(#paint47_linear_1105_2128)"/>
<path d="M209.911 49.4228C209.911 49.4228 234.816 1.2794 212.128 0.0159731C193.292 -1.02772 209.911 49.4228 209.911 49.4228Z" fill="url(#paint48_linear_1105_2128)"/>
<path d="M256.851 278.534C254.964 280.818 253.117 283.141 251.293 285.511L253.997 287.582C277.652 256.813 305.772 233.687 372.68 213.582C433.928 195.172 438.614 160.604 443.566 124.012C443.944 121.219 444.321 118.409 444.73 115.592L441.365 115.105C440.957 117.931 440.571 120.748 440.194 123.557C435.391 159.035 430.855 192.551 371.698 210.333C309.05 229.159 279.924 250.668 256.859 278.542L256.851 278.534Z" fill="url(#paint49_linear_1105_2128)"/>
<path d="M442.239 121.054C456.114 107.046 454.086 96.7897 453.991 84.7833C453.889 72.7768 462.867 54.4219 462.002 39.8729C461.137 25.3239 458.394 2.07227 458.394 2.07227C458.394 2.07227 456.224 23.1816 450.43 36.53C444.636 49.8783 432.813 71.6154 432.27 83.5669C431.728 95.5184 442.246 121.054 442.246 121.054H442.239Z" fill="url(#paint50_linear_1105_2128)"/>
<path d="M412.387 192.136C414.462 172.399 426.718 158.172 428.306 144.698C429.894 131.224 414.038 118.629 413.731 101.671C413.425 84.7211 404.282 76.709 404.282 76.709C404.282 76.709 411.161 96.6883 403.158 111.559C395.155 126.43 410.76 150.741 410.367 159.954C409.974 169.166 412.387 192.128 412.387 192.128V192.136Z" fill="url(#paint51_linear_1105_2128)"/>
<path d="M369.836 212.664C382.595 197.637 401.022 182.295 396.289 157.411C391.557 132.52 395.794 119.32 395.794 119.32C395.794 119.32 385.991 131.751 377.367 145.632C368.751 159.514 374.686 180.153 374.05 190.119C373.405 200.085 369.836 212.672 369.836 212.672V212.664Z" fill="url(#paint52_linear_1105_2128)"/>
<path d="M330.38 190.055C330.325 190.4 324.916 224.567 313.289 233.184L315.317 235.915C328.053 226.49 333.516 192.04 333.744 190.58L330.38 190.063V190.055Z" fill="url(#paint53_linear_1105_2128)"/>
<path d="M294.004 246.642C311.323 243.346 339.309 245.904 362.154 260.453C384.999 275.002 387.413 275.551 387.413 275.551C387.413 275.551 371.596 271.094 346.817 273.558C322.038 276.022 294.004 246.642 294.004 246.642Z" fill="url(#paint54_linear_1105_2128)"/>
<path d="M331.186 195.093C345.203 181.596 357.64 155.597 361.515 135.901C365.391 116.204 382.097 96.5854 376.798 82.2012C376.798 82.2012 371.366 102.047 361.586 109.251C351.807 116.455 335.762 137.572 332.397 154.35C329.024 171.127 331.186 195.101 331.186 195.101V195.093Z" fill="url(#paint55_linear_1105_2128)"/>
<path d="M327.291 207.854C317.582 196.514 319.233 175.452 321.473 157.741C323.706 140.029 298.4 124.405 296.891 103.131C296.891 103.131 289.297 125.017 296.891 147.021C304.485 169.025 303.369 176.205 312.779 187.309C322.189 198.413 327.291 207.862 327.291 207.862V207.854Z" fill="url(#paint56_linear_1105_2128)"/>
<path d="M271.757 263.192C278.361 246.218 296.969 230.076 295.625 213.228C294.28 196.379 285.35 182.333 286.757 169.659C288.164 156.986 285.067 149.186 285.067 149.186C285.067 149.186 281.175 167.172 276.797 174.195C272.418 181.218 275.727 196.827 268.102 208.661C260.476 220.494 271.765 263.2 271.765 263.2L271.757 263.192Z" fill="url(#paint57_linear_1105_2128)"/>
<path d="M330.805 224.945L331.41 228.288C359.043 223.29 395.472 232.887 395.842 232.981L396.722 229.701C395.205 229.293 359.2 219.813 330.805 224.945Z" fill="url(#paint58_linear_1105_2128)"/>
<path d="M385.039 207.524C405.998 209.776 427.774 193.862 443.205 196.569C458.645 199.276 480.036 215.01 506.749 206.982C506.749 206.982 480.814 220.425 457.977 219.719C435.14 219.02 385.031 207.516 385.031 207.516L385.039 207.524Z" fill="url(#paint59_linear_1105_2128)"/>
<path d="M346.039 231.592C367.815 237.399 381.337 245.819 395.251 265.39C409.158 284.969 425.117 285.323 436.626 308.37C436.626 308.37 419.669 293.633 406.674 289.121C393.679 284.608 376.636 270.554 370.315 259.144C363.994 247.726 346.039 231.592 346.039 231.592Z" fill="url(#paint60_linear_1105_2128)"/>
<path d="M392.602 230.445C409.842 225.353 434.699 236.307 449.644 233.843C464.588 231.379 486.018 233.781 498.156 237.587C498.156 237.587 478.581 238.144 465.343 242.012C452.104 245.881 437.514 253.415 425.509 249.004C413.505 244.594 392.602 230.445 392.602 230.445Z" fill="url(#paint61_linear_1105_2128)"/>
<path d="M428.82 172.806C447.711 158.783 464.047 151.744 484.101 153.494C504.156 155.244 519.635 155.597 531.946 144.76C544.257 133.922 554.988 139.431 554.988 139.431C554.988 139.431 544.713 141.456 534.108 153.698C523.503 165.94 512.261 169.557 497.167 171.417C482.065 173.277 470.383 187.975 455.651 184.412C440.919 180.85 428.82 172.806 428.82 172.806Z" fill="url(#paint62_linear_1105_2128)"/>
<path d="M439.352 140.68C446.443 129.129 451.757 113.474 478.069 101.302C504.389 89.1312 510.183 88.1895 516.825 80.3108C523.468 72.4321 536.966 74.0172 536.966 74.0172C536.966 74.0172 527.926 78.0115 519.711 87.9384C511.495 97.8653 502.636 110.594 487.259 116.04C471.882 121.486 439.352 140.688 439.352 140.688V140.68Z" fill="url(#paint63_linear_1105_2128)"/>
<path d="M296.362 105.061C297.439 103.044 298.052 100.752 298.052 98.3119C298.052 90.3704 291.598 83.9277 283.642 83.9277C275.687 83.9277 269.232 90.3704 269.232 98.3119C269.232 100.705 269.83 102.965 270.868 104.951C172.648 111.048 94.875 192.48 94.875 292.063V402.734H470.531V292.063C470.531 193.1 393.717 112.045 296.354 105.068L296.362 105.061Z" fill="#009922"/>
<path style="mix-blend-mode:multiply" opacity="0.39" d="M377.391 130.109C412.869 168.412 434.566 219.632 434.566 275.913V402.726H470.532V292.055C470.532 222.975 433.104 162.637 377.391 130.109Z" fill="url(#paint64_linear_1105_2128)"/>
<path d="M385.245 285.134C397.979 285.134 408.302 274.829 408.302 262.118C408.302 249.406 397.979 239.102 385.245 239.102C372.511 239.102 362.188 249.406 362.188 262.118C362.188 274.829 372.511 285.134 385.245 285.134Z" fill="white"/>
<path d="M359.648 228.482C372.047 225.584 379.745 213.201 376.841 200.824C373.937 188.448 361.532 180.764 349.134 183.662C336.735 186.561 329.037 198.943 331.941 211.32C334.844 223.697 347.25 231.381 359.648 228.482Z" fill="white"/>
<path d="M420.425 234.57C426.88 219.278 419.694 201.657 404.375 195.213C389.055 188.769 371.402 195.942 364.947 211.234C358.491 226.527 365.677 244.148 380.997 250.592C396.317 257.036 413.969 249.863 420.425 234.57Z" fill="white"/>
<path d="M355.911 260.476C369.761 258.36 379.27 245.438 377.151 231.613C375.032 217.789 362.086 208.296 348.237 210.412C334.387 212.527 324.878 225.449 326.997 239.274C329.117 253.099 342.062 262.591 355.911 260.476Z" fill="white"/>
<path d="M316.402 203.128C333.026 203.128 346.503 189.675 346.503 173.081C346.503 156.486 333.026 143.033 316.402 143.033C299.778 143.033 286.301 156.486 286.301 173.081C286.301 189.675 299.778 203.128 316.402 203.128Z" fill="white"/>
<path d="M323.921 254.253C333.246 252.07 339.032 242.754 336.845 233.446C334.658 224.138 325.326 218.362 316.001 220.545C306.676 222.728 300.89 232.044 303.077 241.352C305.264 250.66 314.597 256.436 323.921 254.253Z" fill="white"/>
<path d="M287.452 222.755C297.582 208.636 294.328 188.993 280.184 178.882C266.04 168.77 246.362 172.018 236.232 186.137C226.102 200.256 229.357 219.898 243.501 230.01C257.644 240.122 277.322 236.874 287.452 222.755Z" fill="white"/>
<path d="M302.62 230.602C313.952 230.602 323.138 221.432 323.138 210.12C323.138 198.809 313.952 189.639 302.62 189.639C291.288 189.639 282.102 198.809 282.102 210.12C282.102 221.432 291.288 230.602 302.62 230.602Z" fill="white"/>
<path d="M323.139 230.602C334.471 230.602 343.657 221.432 343.657 210.12C343.657 198.809 334.471 189.639 323.139 189.639C311.807 189.639 302.621 198.809 302.621 210.12C302.621 221.432 311.807 230.602 323.139 230.602Z" fill="white"/>
<path d="M223.668 215.967C237.922 215.967 249.477 204.433 249.477 190.204C249.477 175.976 237.922 164.441 223.668 164.441C209.414 164.441 197.859 175.976 197.859 190.204C197.859 204.433 209.414 215.967 223.668 215.967Z" fill="white"/>
<path d="M279.181 184.453C295.352 180.602 305.333 164.394 301.474 148.252C297.616 132.111 281.379 122.148 265.209 125.999C249.038 129.85 239.057 146.058 242.916 162.2C246.774 178.341 263.011 188.305 279.181 184.453Z" fill="white"/>
<path d="M383.919 213.79C403.349 209.269 415.428 189.882 410.9 170.488C406.371 151.093 386.949 139.035 367.52 143.555C348.091 148.076 336.011 167.463 340.539 186.858C345.068 206.252 364.49 218.31 383.919 213.79Z" fill="white"/>
<path d="M346.525 162.172C356.694 160.517 363.593 150.947 361.935 140.796C360.277 130.646 350.69 123.759 340.521 125.414C330.353 127.069 323.453 136.639 325.111 146.789C326.769 156.94 336.356 163.827 346.525 162.172Z" fill="white"/>
<path d="M249.475 195.759C259.778 195.759 268.13 187.422 268.13 177.137C268.13 166.853 259.778 158.516 249.475 158.516C239.172 158.516 230.82 166.853 230.82 177.137C230.82 187.422 239.172 195.759 249.475 195.759Z" fill="white"/>
<path d="M287.961 201.174C297.984 198.796 304.179 188.757 301.796 178.751C299.414 168.745 289.357 162.562 279.333 164.94C269.309 167.318 263.115 177.357 265.497 187.363C267.88 197.369 277.937 203.552 287.961 201.174Z" fill="white"/>
<path d="M294.687 331.527H331.902V326.474H294.687V331.527Z" fill="white"/>
<path d="M294.687 342.232H331.902V337.179H294.687V342.232Z" fill="white"/>
<path d="M294.687 352.943H331.902V347.89H294.687V352.943Z" fill="white"/>
<path d="M227.94 331.527H265.156V326.474H227.94V331.527Z" fill="white"/>
<path d="M227.94 342.232H265.156V337.179H227.94V342.232Z" fill="white"/>
<path d="M227.94 352.943H265.156V347.89H227.94V352.943Z" fill="white"/>
<path d="M161.206 331.527H198.422V326.474H161.206V331.527Z" fill="white"/>
<path d="M161.206 342.232H198.422V337.179H161.206V342.232Z" fill="white"/>
<path d="M161.206 352.943H198.422V347.89H161.206V352.943Z" fill="white"/>
<path d="M361.108 222.025H330.566V397.939H361.108V222.025Z" fill="url(#paint65_linear_1105_2128)"/>
<path d="M361.107 222.025H349.621V397.939H361.107V222.025Z" fill="url(#paint66_linear_1105_2128)"/>
<path d="M363.121 215.732H328.555V222.018H363.121V215.732Z" fill="url(#paint67_linear_1105_2128)"/>
<path d="M134.566 401.59H174.188L174.187 260.871H134.566V401.59Z" fill="#00B822"/>
<path d="M146.176 289.011V267.203H141.113V289.011H146.176Z" fill="url(#paint68_linear_1105_2128)"/>
<path d="M156.906 289.011V267.203H151.844V289.011H156.906Z" fill="url(#paint69_linear_1105_2128)"/>
<path d="M167.629 289.011V267.203H162.566V289.011H167.629Z" fill="url(#paint70_linear_1105_2128)"/>
<path d="M197.82 401.59H237.441L237.441 260.871H197.82V401.59Z" fill="#00B822"/>
<path d="M209.43 289.003V267.195H204.367V289.003H209.43Z" fill="url(#paint71_linear_1105_2128)"/>
<path d="M220.152 289.011V267.203H215.09V289.011H220.152Z" fill="url(#paint72_linear_1105_2128)"/>
<path d="M230.883 289.003V267.195H225.82V289.003H230.883Z" fill="url(#paint73_linear_1105_2128)"/>
<path d="M261.062 401.59H300.684V260.871H261.062V401.59Z" fill="#00B822"/>
<path d="M272.672 289.011V267.203H267.609V289.011H272.672Z" fill="url(#paint74_linear_1105_2128)"/>
<path d="M283.395 289.011V267.203H278.332V289.011H283.395Z" fill="url(#paint75_linear_1105_2128)"/>
<path d="M294.125 289.011V267.203H289.062V289.011H294.125Z" fill="url(#paint76_linear_1105_2128)"/>
<path d="M237.44 305.781V260.871L300.685 305.781V260.871L374.598 313.354V401.59H311.353H300.685H248.108H237.44H174.188V260.871L237.44 305.781Z" fill="url(#paint77_linear_1105_2128)"/>
<path d="M428.787 316.115H371.91V401.314H428.787V316.115Z" fill="url(#paint78_linear_1105_2128)"/>
<path d="M428.779 316.115H403.961V401.314H428.779V316.115Z" fill="url(#paint79_linear_1105_2128)"/>
<path d="M424.903 316.438H375.785L382.507 245.059H418.182L424.903 316.438Z" fill="url(#paint80_linear_1105_2128)"/>
<path d="M421.027 240.711H379.66V245.058H421.027V240.711Z" fill="url(#paint81_linear_1105_2128)"/>
<mask id="mask0_1105_2128" style="mask-type:luminance" maskUnits="userSpaceOnUse" x="375" y="245" width="50" height="72">
<path d="M424.903 316.438H375.785L382.507 245.059H418.182L424.903 316.438Z" fill="white"/>
</mask>
<g mask="url(#mask0_1105_2128)">
<path d="M454.115 254.107H364.668V262.245H454.115V254.107Z" fill="url(#paint82_linear_1105_2128)"/>
<path d="M454.115 269.158H364.668V277.296H454.115V269.158Z" fill="url(#paint83_linear_1105_2128)"/>
<path d="M454.115 284.209H364.668V292.347H454.115V284.209Z" fill="url(#paint84_linear_1105_2128)"/>
<path d="M454.115 299.262H364.668V307.399H454.115V299.262Z" fill="url(#paint85_linear_1105_2128)"/>
</g>
<path style="mix-blend-mode:multiply" opacity="0.39" d="M418.181 245.059H405.965L409.07 316.438H424.903L418.181 245.059Z" fill="url(#paint86_linear_1105_2128)"/>
<path d="M91.4233 417.001C87.4769 417.001 84.2773 413.807 84.2773 409.868C84.2773 405.928 87.4769 402.734 91.4233 402.734H473.981C477.928 402.734 481.127 405.928 481.127 409.868C481.127 413.807 477.928 417.001 473.981 417.001" fill="#008222"/>
<path d="M127.801 296.794C127.801 237.625 159.246 185.786 206.36 157.018" stroke="white" stroke-width="4.85" stroke-linecap="round" stroke-linejoin="round"/>
</g>
<defs>
<linearGradient id="paint0_linear_1105_2128" x1="27.067" y1="112.61" x2="249.59" y2="285.873" gradientUnits="userSpaceOnUse">
<stop stop-color="#81C784"/>
<stop offset="1" stop-color="#4CAF50"/>
</linearGradient>
<linearGradient id="paint1_linear_1105_2128" x1="61.1585" y1="68.8285" x2="283.689" y2="242.091" gradientUnits="userSpaceOnUse">
<stop stop-color="#81C784"/>
<stop offset="1" stop-color="#4CAF50"/>
</linearGradient>
<linearGradient id="paint2_linear_1105_2128" x1="43.9734" y1="90.8886" x2="266.505" y2="264.159" gradientUnits="userSpaceOnUse">
<stop stop-color="#81C784"/>
<stop offset="1" stop-color="#4CAF50"/>
</linearGradient>
<linearGradient id="paint3_linear_1105_2128" x1="39.464" y1="96.6875" x2="261.994" y2="269.95" gradientUnits="userSpaceOnUse">
<stop stop-color="#81C784"/>
<stop offset="1" stop-color="#4CAF50"/>
</linearGradient>
<linearGradient id="paint4_linear_1105_2128" x1="41.5259" y1="94.0435" x2="264.056" y2="267.306" gradientUnits="userSpaceOnUse">
<stop stop-color="#81C784"/>
<stop offset="1" stop-color="#4CAF50"/>
</linearGradient>
<linearGradient id="paint5_linear_1105_2128" x1="11.9723" y1="132.021" x2="234.493" y2="305.269" gradientUnits="userSpaceOnUse">
<stop stop-color="#81C784"/>
<stop offset="1" stop-color="#4CAF50"/>
</linearGradient>
<linearGradient id="paint6_linear_1105_2128" x1="63.7349" y1="65.5068" x2="286.266" y2="238.777" gradientUnits="userSpaceOnUse">
<stop stop-color="#81C784"/>
<stop offset="1" stop-color="#4CAF50"/>
</linearGradient>
<linearGradient id="paint7_linear_1105_2128" x1="72.6362" y1="54.0611" x2="295.176" y2="227.33" gradientUnits="userSpaceOnUse">
<stop stop-color="#81C784"/>
<stop offset="1" stop-color="#4CAF50"/>
</linearGradient>
<linearGradient id="paint8_linear_1105_2128" x1="62.4648" y1="67.1253" x2="285.004" y2="240.394" gradientUnits="userSpaceOnUse">
<stop stop-color="#81C784"/>
<stop offset="1" stop-color="#4CAF50"/>
</linearGradient>
<linearGradient id="paint9_linear_1105_2128" x1="17.9048" y1="124.392" x2="240.426" y2="297.648" gradientUnits="userSpaceOnUse">
<stop stop-color="#81C784"/>
<stop offset="1" stop-color="#4CAF50"/>
</linearGradient>
<linearGradient id="paint10_linear_1105_2128" x1="-4.99562" y1="153.806" x2="217.526" y2="327.062" gradientUnits="userSpaceOnUse">
<stop stop-color="#81C784"/>
<stop offset="1" stop-color="#4CAF50"/>
</linearGradient>
<linearGradient id="paint11_linear_1105_2128" x1="-18.4054" y1="171.048" x2="204.107" y2="344.297" gradientUnits="userSpaceOnUse">
<stop stop-color="#81C784"/>
<stop offset="1" stop-color="#4CAF50"/>
</linearGradient>
<linearGradient id="paint12_linear_1105_2128" x1="-17.2695" y1="169.568" x2="205.252" y2="342.824" gradientUnits="userSpaceOnUse">
<stop stop-color="#81C784"/>
<stop offset="1" stop-color="#4CAF50"/>
</linearGradient>
<linearGradient id="paint13_linear_1105_2128" x1="0.433033" y1="146.821" x2="222.962" y2="320.076" gradientUnits="userSpaceOnUse">
<stop stop-color="#81C784"/>
<stop offset="1" stop-color="#4CAF50"/>
</linearGradient>
<linearGradient id="paint14_linear_1105_2128" x1="26.3074" y1="113.592" x2="248.83" y2="286.855" gradientUnits="userSpaceOnUse">
<stop stop-color="#81C784"/>
<stop offset="1" stop-color="#4CAF50"/>
</linearGradient>
<linearGradient id="paint15_linear_1105_2128" x1="15.4046" y1="259.299" x2="214.061" y2="400.125" gradientUnits="userSpaceOnUse">
<stop stop-color="#81C784"/>
<stop offset="1" stop-color="#4CAF50"/>
</linearGradient>
<linearGradient id="paint16_linear_1105_2128" x1="5.6604" y1="273.045" x2="204.316" y2="413.879" gradientUnits="userSpaceOnUse">
<stop stop-color="#4CAF50"/>
<stop offset="1" stop-color="#81C784"/>
</linearGradient>
<linearGradient id="paint17_linear_1105_2128" x1="341.929" y1="442.404" x2="557.852" y2="217.557" gradientUnits="userSpaceOnUse">
<stop stop-color="#81C784"/>
<stop offset="1" stop-color="#4CAF50"/>
</linearGradient>
<linearGradient id="paint18_linear_1105_2128" x1="345.41" y1="501.967" x2="587.21" y2="239.408" gradientUnits="userSpaceOnUse">
<stop stop-color="#81C784"/>
<stop offset="1" stop-color="#4CAF50"/>
</linearGradient>
<linearGradient id="paint19_linear_1105_2128" x1="337.527" y1="494.703" x2="579.327" y2="232.144" gradientUnits="userSpaceOnUse">
<stop stop-color="#81C784"/>
<stop offset="1" stop-color="#4CAF50"/>
</linearGradient>
<linearGradient id="paint20_linear_1105_2128" x1="322.857" y1="481.183" x2="564.648" y2="218.629" gradientUnits="userSpaceOnUse">
<stop stop-color="#81C784"/>
<stop offset="1" stop-color="#4CAF50"/>
</linearGradient>
<linearGradient id="paint21_linear_1105_2128" x1="306.755" y1="466.355" x2="548.544" y2="203.809" gradientUnits="userSpaceOnUse">
<stop stop-color="#81C784"/>
<stop offset="1" stop-color="#4CAF50"/>
</linearGradient>
<linearGradient id="paint22_linear_1105_2128" x1="291.397" y1="452.211" x2="533.188" y2="189.658" gradientUnits="userSpaceOnUse">
<stop stop-color="#81C784"/>
<stop offset="1" stop-color="#4CAF50"/>
</linearGradient>
<linearGradient id="paint23_linear_1105_2128" x1="283.977" y1="445.38" x2="525.783" y2="182.83" gradientUnits="userSpaceOnUse">
<stop stop-color="#81C784"/>
<stop offset="1" stop-color="#4CAF50"/>
</linearGradient>
<linearGradient id="paint24_linear_1105_2128" x1="342.696" y1="499.463" x2="584.497" y2="236.904" gradientUnits="userSpaceOnUse">
<stop stop-color="#81C784"/>
<stop offset="1" stop-color="#4CAF50"/>
</linearGradient>
<linearGradient id="paint25_linear_1105_2128" x1="315.497" y1="474.392" x2="557.284" y2="211.854" gradientUnits="userSpaceOnUse">
<stop stop-color="#81C784"/>
<stop offset="1" stop-color="#4CAF50"/>
</linearGradient>
<linearGradient id="paint26_linear_1105_2128" x1="313.254" y1="472.329" x2="555.042" y2="209.783" gradientUnits="userSpaceOnUse">
<stop stop-color="#81C784"/>
<stop offset="1" stop-color="#4CAF50"/>
</linearGradient>
<linearGradient id="paint27_linear_1105_2128" x1="302.855" y1="462.753" x2="544.644" y2="200.207" gradientUnits="userSpaceOnUse">
<stop stop-color="#81C784"/>
<stop offset="1" stop-color="#4CAF50"/>
</linearGradient>
<linearGradient id="paint28_linear_1105_2128" x1="286.166" y1="447.385" x2="527.954" y2="184.839" gradientUnits="userSpaceOnUse">
<stop stop-color="#81C784"/>
<stop offset="1" stop-color="#4CAF50"/>
</linearGradient>
<linearGradient id="paint29_linear_1105_2128" x1="271.211" y1="433.619" x2="512.999" y2="171.073" gradientUnits="userSpaceOnUse">
<stop stop-color="#81C784"/>
<stop offset="1" stop-color="#4CAF50"/>
</linearGradient>
<linearGradient id="paint30_linear_1105_2128" x1="254.941" y1="418.638" x2="496.737" y2="156.095" gradientUnits="userSpaceOnUse">
<stop stop-color="#81C784"/>
<stop offset="1" stop-color="#4CAF50"/>
</linearGradient>
<linearGradient id="paint31_linear_1105_2128" x1="251.044" y1="415.047" x2="492.825" y2="152.5" gradientUnits="userSpaceOnUse">
<stop stop-color="#81C784"/>
<stop offset="1" stop-color="#4CAF50"/>
</linearGradient>
<linearGradient id="paint32_linear_1105_2128" x1="318.61" y1="477.269" x2="560.401" y2="214.716" gradientUnits="userSpaceOnUse">
<stop stop-color="#81C784"/>
<stop offset="1" stop-color="#4CAF50"/>
</linearGradient>
<linearGradient id="paint33_linear_1105_2128" x1="314.266" y1="342.668" x2="236.198" y2="-5.34487" gradientUnits="userSpaceOnUse">
<stop stop-color="#81C784"/>
<stop offset="1" stop-color="#4CAF50"/>
</linearGradient>
<linearGradient id="paint34_linear_1105_2128" x1="251.706" y1="356.691" x2="173.642" y2="8.69523" gradientUnits="userSpaceOnUse">
<stop stop-color="#81C784"/>
<stop offset="1" stop-color="#4CAF50"/>
</linearGradient>
<linearGradient id="paint35_linear_1105_2128" x1="262.169" y1="354.347" x2="184.117" y2="6.33817" gradientUnits="userSpaceOnUse">
<stop stop-color="#81C784"/>
<stop offset="1" stop-color="#4CAF50"/>
</linearGradient>
<linearGradient id="paint36_linear_1105_2128" x1="281.663" y1="349.982" x2="203.605" y2="1.9633" gradientUnits="userSpaceOnUse">
<stop stop-color="#81C784"/>
<stop offset="1" stop-color="#4CAF50"/>
</linearGradient>
<linearGradient id="paint37_linear_1105_2128" x1="303.044" y1="345.19" x2="224.971" y2="-2.83265" gradientUnits="userSpaceOnUse">
<stop stop-color="#81C784"/>
<stop offset="1" stop-color="#4CAF50"/>
</linearGradient>
<linearGradient id="paint38_linear_1105_2128" x1="323.433" y1="340.61" x2="245.366" y2="-7.40287" gradientUnits="userSpaceOnUse">
<stop stop-color="#81C784"/>
<stop offset="1" stop-color="#4CAF50"/>
</linearGradient>
<linearGradient id="paint39_linear_1105_2128" x1="333.274" y1="338.4" x2="255.213" y2="-9.60299" gradientUnits="userSpaceOnUse">
<stop stop-color="#81C784"/>
<stop offset="1" stop-color="#4CAF50"/>
</linearGradient>
<linearGradient id="paint40_linear_1105_2128" x1="255.308" y1="355.887" x2="177.248" y2="7.8759" gradientUnits="userSpaceOnUse">
<stop stop-color="#81C784"/>
<stop offset="1" stop-color="#4CAF50"/>
</linearGradient>
<linearGradient id="paint41_linear_1105_2128" x1="291.43" y1="347.802" x2="213.367" y2="-0.225802" gradientUnits="userSpaceOnUse">
<stop stop-color="#81C784"/>
<stop offset="1" stop-color="#4CAF50"/>
</linearGradient>
<linearGradient id="paint42_linear_1105_2128" x1="294.414" y1="347.132" x2="216.351" y2="-0.896037" gradientUnits="userSpaceOnUse">
<stop stop-color="#81C784"/>
<stop offset="1" stop-color="#4CAF50"/>
</linearGradient>
<linearGradient id="paint43_linear_1105_2128" x1="308.216" y1="344.027" x2="230.151" y2="-3.99334" gradientUnits="userSpaceOnUse">
<stop stop-color="#81C784"/>
<stop offset="1" stop-color="#4CAF50"/>
</linearGradient>
<linearGradient id="paint44_linear_1105_2128" x1="330.372" y1="339.06" x2="252.309" y2="-8.9683" gradientUnits="userSpaceOnUse">
<stop stop-color="#81C784"/>
<stop offset="1" stop-color="#4CAF50"/>
</linearGradient>
<linearGradient id="paint45_linear_1105_2128" x1="350.22" y1="334.604" x2="272.155" y2="-13.4164" gradientUnits="userSpaceOnUse">
<stop stop-color="#81C784"/>
<stop offset="1" stop-color="#4CAF50"/>
</linearGradient>
<linearGradient id="paint46_linear_1105_2128" x1="371.821" y1="329.756" x2="293.758" y2="-18.2715" gradientUnits="userSpaceOnUse">
<stop stop-color="#81C784"/>
<stop offset="1" stop-color="#4CAF50"/>
</linearGradient>
<linearGradient id="paint47_linear_1105_2128" x1="377.003" y1="328.594" x2="298.935" y2="-19.4433" gradientUnits="userSpaceOnUse">
<stop stop-color="#81C784"/>
<stop offset="1" stop-color="#4CAF50"/>
</linearGradient>
<linearGradient id="paint48_linear_1105_2128" x1="287.294" y1="348.722" x2="209.229" y2="0.701955" gradientUnits="userSpaceOnUse">
<stop stop-color="#81C784"/>
<stop offset="1" stop-color="#4CAF50"/>
</linearGradient>
<linearGradient id="paint49_linear_1105_2128" x1="425.896" y1="-7.62354" x2="341.747" y2="229.575" gradientUnits="userSpaceOnUse">
<stop stop-color="#81C784"/>
<stop offset="1" stop-color="#4CAF50"/>
</linearGradient>
<linearGradient id="paint50_linear_1105_2128" x1="471.558" y1="8.57773" x2="387.406" y2="245.769" gradientUnits="userSpaceOnUse">
<stop stop-color="#81C784"/>
<stop offset="1" stop-color="#4CAF50"/>
</linearGradient>
<linearGradient id="paint51_linear_1105_2128" x1="455.231" y1="2.78558" x2="371.08" y2="239.977" gradientUnits="userSpaceOnUse">
<stop stop-color="#81C784"/>
<stop offset="1" stop-color="#4CAF50"/>
</linearGradient>
<linearGradient id="paint52_linear_1105_2128" x1="443.891" y1="-1.23793" x2="359.742" y2="235.961" gradientUnits="userSpaceOnUse">
<stop stop-color="#81C784"/>
<stop offset="1" stop-color="#4CAF50"/>
</linearGradient>
<linearGradient id="paint53_linear_1105_2128" x1="405.585" y1="-14.8298" x2="321.434" y2="222.361" gradientUnits="userSpaceOnUse">
<stop stop-color="#81C784"/>
<stop offset="1" stop-color="#4CAF50"/>
</linearGradient>
<linearGradient id="paint54_linear_1105_2128" x1="435.227" y1="-4.31315" x2="351.078" y2="232.886" gradientUnits="userSpaceOnUse">
<stop stop-color="#81C784"/>
<stop offset="1" stop-color="#4CAF50"/>
</linearGradient>
<linearGradient id="paint55_linear_1105_2128" x1="404.426" y1="-15.2448" x2="320.277" y2="221.954" gradientUnits="userSpaceOnUse">
<stop stop-color="#81C784"/>
<stop offset="1" stop-color="#4CAF50"/>
</linearGradient>
<linearGradient id="paint56_linear_1105_2128" x1="376.439" y1="-25.1712" x2="292.288" y2="212.02" gradientUnits="userSpaceOnUse">
<stop stop-color="#81C784"/>
<stop offset="1" stop-color="#4CAF50"/>
</linearGradient>
<linearGradient id="paint57_linear_1105_2128" x1="366.259" y1="-28.7835" x2="282.11" y2="208.415" gradientUnits="userSpaceOnUse">
<stop stop-color="#81C784"/>
<stop offset="1" stop-color="#4CAF50"/>
</linearGradient>
<linearGradient id="paint58_linear_1105_2128" x1="445.153" y1="-0.785364" x2="360.998" y2="236.399" gradientUnits="userSpaceOnUse">
<stop stop-color="#81C784"/>
<stop offset="1" stop-color="#4CAF50"/>
</linearGradient>
<linearGradient id="paint59_linear_1105_2128" x1="511.6" y1="22.7864" x2="427.448" y2="259.977" gradientUnits="userSpaceOnUse">
<stop stop-color="#81C784"/>
<stop offset="1" stop-color="#4CAF50"/>
</linearGradient>
<linearGradient id="paint60_linear_1105_2128" x1="478.889" y1="24.1431" x2="394.74" y2="261.342" gradientUnits="userSpaceOnUse">
<stop stop-color="#81C784"/>
<stop offset="1" stop-color="#4CAF50"/>
</linearGradient>
<linearGradient id="paint61_linear_1105_2128" x1="519.604" y1="25.6257" x2="435.453" y2="262.817" gradientUnits="userSpaceOnUse">
<stop stop-color="#81C784"/>
<stop offset="1" stop-color="#4CAF50"/>
</linearGradient>
<linearGradient id="paint62_linear_1105_2128" x1="536.293" y1="31.5475" x2="452.141" y2="268.739" gradientUnits="userSpaceOnUse">
<stop stop-color="#81C784"/>
<stop offset="1" stop-color="#4CAF50"/>
</linearGradient>
<linearGradient id="paint63_linear_1105_2128" x1="517.55" y1="24.895" x2="433.398" y2="262.086" gradientUnits="userSpaceOnUse">
<stop stop-color="#81C784"/>
<stop offset="1" stop-color="#4CAF50"/>
</linearGradient>
<linearGradient id="paint64_linear_1105_2128" x1="423.961" y1="402.726" x2="423.961" y2="130.109" gradientUnits="userSpaceOnUse">
<stop stop-color="#B2DFDB"/>
<stop offset="1" stop-color="#E0F2F1"/>
</linearGradient>
<linearGradient id="paint65_linear_1105_2128" x1="330.566" y1="309.978" x2="361.108" y2="309.978" gradientUnits="userSpaceOnUse">
<stop stop-color="#81C784"/>
<stop offset="1" stop-color="#4CAF50"/>
</linearGradient>
<linearGradient id="paint66_linear_1105_2128" x1="355.36" y1="397.939" x2="355.36" y2="222.025" gradientUnits="userSpaceOnUse">
<stop stop-color="#81C784"/>
<stop offset="1" stop-color="#4CAF50"/>
</linearGradient>
<linearGradient id="paint67_linear_1105_2128" x1="328.555" y1="218.879" x2="363.121" y2="218.879" gradientUnits="userSpaceOnUse">
<stop stop-color="#81C784"/>
<stop offset="1" stop-color="#4CAF50"/>
</linearGradient>
<linearGradient id="paint68_linear_1105_2128" x1="143.652" y1="289.011" x2="143.652" y2="267.203" gradientUnits="userSpaceOnUse">
<stop stop-color="#FFF59D"/>
<stop offset="1" stop-color="#FFEE58"/>
</linearGradient>
<linearGradient id="paint69_linear_1105_2128" x1="154.375" y1="0.00113674" x2="154.375" y2="0.00113674" gradientUnits="userSpaceOnUse">
<stop stop-color="#FFF59D"/>
<stop offset="1" stop-color="#FFEE58"/>
</linearGradient>
<linearGradient id="paint70_linear_1105_2128" x1="165.105" y1="0.00113674" x2="165.105" y2="0.00113674" gradientUnits="userSpaceOnUse">
<stop stop-color="#FFF59D"/>
<stop offset="1" stop-color="#FFEE58"/>
</linearGradient>
<linearGradient id="paint71_linear_1105_2128" x1="206.898" y1="0.00104548" x2="206.898" y2="0.00104548" gradientUnits="userSpaceOnUse">
<stop stop-color="#FFF59D"/>
<stop offset="1" stop-color="#FFEE58"/>
</linearGradient>
<linearGradient id="paint72_linear_1105_2128" x1="217.629" y1="0.000996524" x2="217.629" y2="0.000996524" gradientUnits="userSpaceOnUse">
<stop stop-color="#FFF59D"/>
<stop offset="1" stop-color="#FFEE58"/>
</linearGradient>
<linearGradient id="paint73_linear_1105_2128" x1="228.351" y1="0.00104548" x2="228.351" y2="0.00104548" gradientUnits="userSpaceOnUse">
<stop stop-color="#FFF59D"/>
<stop offset="1" stop-color="#FFEE58"/>
</linearGradient>
<linearGradient id="paint74_linear_1105_2128" x1="270.141" y1="0.000996524" x2="270.141" y2="0.000996524" gradientUnits="userSpaceOnUse">
<stop stop-color="#FFF59D"/>
<stop offset="1" stop-color="#FFEE58"/>
</linearGradient>
<linearGradient id="paint75_linear_1105_2128" x1="280.871" y1="0.000996524" x2="280.871" y2="0.000996524" gradientUnits="userSpaceOnUse">
<stop stop-color="#FFF59D"/>
<stop offset="1" stop-color="#FFEE58"/>
</linearGradient>
<linearGradient id="paint76_linear_1105_2128" x1="291.594" y1="0.000996524" x2="291.594" y2="0.000996524" gradientUnits="userSpaceOnUse">
<stop stop-color="#FFF59D"/>
<stop offset="1" stop-color="#FFEE58"/>
</linearGradient>
<linearGradient id="paint77_linear_1105_2128" x1="185.256" y1="331.23" x2="347.649" y2="331.23" gradientUnits="userSpaceOnUse">
<stop stop-color="#81C784"/>
<stop offset="1" stop-color="#4CAF50"/>
</linearGradient>
<linearGradient id="paint78_linear_1105_2128" x1="371.91" y1="358.711" x2="428.787" y2="358.711" gradientUnits="userSpaceOnUse">
<stop stop-color="#81C784"/>
<stop offset="1" stop-color="#4CAF50"/>
</linearGradient>
<linearGradient id="paint79_linear_1105_2128" x1="484.972" y1="358.711" x2="405.085" y2="358.711" gradientUnits="userSpaceOnUse">
<stop stop-color="#81C784"/>
<stop offset="1" stop-color="#4CAF50"/>
</linearGradient>
<linearGradient id="paint80_linear_1105_2128" x1="375.785" y1="280.748" x2="424.911" y2="280.748" gradientUnits="userSpaceOnUse">
<stop stop-color="#81C784"/>
<stop offset="1" stop-color="#4CAF50"/>
</linearGradient>
<linearGradient id="paint81_linear_1105_2128" x1="379.668" y1="242.885" x2="421.027" y2="242.885" gradientUnits="userSpaceOnUse">
<stop stop-color="#81C784"/>
<stop offset="1" stop-color="#4CAF50"/>
</linearGradient>
<linearGradient id="paint82_linear_1105_2128" x1="364.668" y1="258.172" x2="454.123" y2="258.172" gradientUnits="userSpaceOnUse">
<stop stop-color="#81C784"/>
<stop offset="1" stop-color="#4CAF50"/>
</linearGradient>
<linearGradient id="paint83_linear_1105_2128" x1="364.668" y1="273.223" x2="454.123" y2="273.223" gradientUnits="userSpaceOnUse">
<stop stop-color="#81C784"/>
<stop offset="1" stop-color="#4CAF50"/>
</linearGradient>
<linearGradient id="paint84_linear_1105_2128" x1="364.668" y1="288.274" x2="454.123" y2="288.274" gradientUnits="userSpaceOnUse">
<stop stop-color="#81C784"/>
<stop offset="1" stop-color="#4CAF50"/>
</linearGradient>
<linearGradient id="paint85_linear_1105_2128" x1="364.668" y1="303.327" x2="454.123" y2="303.327" gradientUnits="userSpaceOnUse">
<stop stop-color="#81C784"/>
<stop offset="1" stop-color="#4CAF50"/>
</linearGradient>
<linearGradient id="paint86_linear_1105_2128" x1="405.973" y1="280.748" x2="424.911" y2="280.748" gradientUnits="userSpaceOnUse">
<stop stop-color="#B2DFDB"/>
<stop offset="1" stop-color="#E0F2F1"/>
</linearGradient>
<clipPath id="clip0_1105_2128">
<rect width="573" height="417" fill="white" transform="translate(0.5)"/>
</clipPath>
</defs>
</svg>
