<svg width="565" height="374" viewBox="0 0 565 374" fill="none" xmlns="http://www.w3.org/2000/svg">
<g clip-path="url(#clip0_1093_3497)">
<path d="M500.768 182.973C500.768 182.973 480.668 133.756 548.113 110.445C548.113 110.445 577.791 170.975 506.982 186.468C506.982 186.468 530.976 161.06 535.529 141.031C535.529 141.031 516.201 171.703 500.768 182.973Z" fill="#27E124"/>
<path d="M500.983 122.329C500.983 122.329 478.578 106.023 502.029 77.3202C502.029 77.3202 531.778 96.0226 504.691 122.186C504.691 122.186 508.342 104.397 504.863 94.2965C504.863 94.2965 504.72 113.142 500.983 122.329Z" fill="#27E124"/>
<path d="M504.775 254.644C474.896 238.039 445.046 253.702 426.535 268.168C435.955 269.866 448.296 272.391 464.244 276.2C504.746 285.872 527.824 290.851 527.824 290.851C527.824 290.851 504.273 289.082 463.371 280.051C446.979 276.428 433.535 273.261 423.313 270.764C413.707 278.753 407.895 285.715 407.895 285.715C407.895 285.715 422.827 312.035 469.126 322.121C515.426 332.207 571.518 280.522 571.518 280.522C571.518 280.522 544.446 276.685 504.775 254.644Z" fill="#27E124"/>
<path style="mix-blend-mode:multiply" opacity="0.63" d="M501.313 252.875C454.011 230.421 407.883 285.729 407.883 285.729C407.883 285.729 421.269 309.296 461.956 320.367C480.067 301.593 493.739 278.539 501.327 252.875H501.313Z" fill="url(#paint0_linear_1093_3497)"/>
<path d="M512.463 199.307C491.275 197.167 478.103 213.459 471.103 226.284C476.901 224.928 484.575 223.345 494.639 221.604C520.18 217.168 534.611 214.343 534.611 214.343C534.611 214.343 520.709 219.122 495.097 224.03C484.818 225.998 476.371 227.482 469.9 228.566C466.378 235.499 464.789 240.906 464.789 240.906C464.789 240.906 479.836 252.276 508.798 246.655C537.76 241.034 557.016 197.695 557.016 197.695C557.016 197.695 540.595 202.16 512.463 199.321V199.307Z" fill="#27E124"/>
<path style="mix-blend-mode:multiply" opacity="0.63" d="M464.789 240.892C464.789 240.892 477.774 250.678 502.799 247.582C506.221 234.387 508.039 220.549 508.039 206.283C508.039 203.886 507.982 201.49 507.868 199.122C476.887 199.863 464.789 240.892 464.789 240.892Z" fill="url(#paint1_linear_1093_3497)"/>
<path d="M457.845 336.744C450.601 316.772 430.171 312.007 415.54 311.279C419.277 315.901 424.03 322.121 429.971 330.395C445.046 351.423 453.851 363.15 453.851 363.15C453.851 363.15 443.5 352.736 427.981 331.85C421.753 323.462 416.743 316.529 412.963 311.194C405.175 311.037 399.591 311.95 399.591 311.95C399.591 311.95 395.826 330.395 413.45 353.962C431.073 377.544 478.619 376.074 478.619 376.074C478.619 376.074 467.466 363.264 457.86 336.758L457.845 336.744Z" fill="#27E124"/>
<path style="mix-blend-mode:multiply" opacity="0.63" d="M399.576 311.935C399.576 311.935 395.81 330.381 413.434 353.948C415.438 356.644 417.858 358.984 420.535 361.067C433.678 353.292 445.646 343.762 456.112 332.792C442.139 305.017 399.576 311.935 399.576 311.935Z" fill="url(#paint2_linear_1093_3497)"/>
<path d="M445.892 303.318C510.429 239.01 510.429 134.747 445.892 70.4393C381.356 6.13166 276.722 6.13167 212.185 70.4393C147.649 134.747 147.649 239.01 212.185 303.318C276.722 367.626 381.356 367.626 445.892 303.318Z" fill="url(#paint3_linear_1093_3497)"/>
<path d="M468.339 265.914C468.339 265.914 464.144 266.613 463.443 266.841C462.741 267.07 460.88 267.312 460.179 267.997C459.477 268.696 459.248 267.769 456.914 268.468C454.581 269.167 453.894 268.696 455.282 266.142C456.685 263.589 455.755 262.89 455.511 261.035C455.282 259.181 458.074 258.025 453.421 257.783C448.768 257.554 448.525 256.627 445.275 258.482C442.011 260.336 439.448 262.191 439.448 262.191L436.184 260.336C436.184 260.336 432.462 256.399 431.76 256.156C431.059 255.928 428.267 255.928 428.267 255.928C428.267 255.928 427.566 253.603 428.038 251.52C428.51 249.437 427.809 248.738 426.406 249.437C425.003 250.136 422.455 251.52 422.455 251.52C422.455 251.52 418.26 251.991 415.697 253.374C413.134 254.772 412.905 255.7 408.711 255.229C404.516 254.758 404.287 258.482 401.023 256.384C397.759 254.302 396.126 253.603 394.738 251.976C393.335 250.35 392.404 251.277 392.877 253.717C393.349 256.156 396.37 255.685 393.22 256.727C390.071 257.768 388.453 256.256 389.025 259.865C389.612 263.46 389.727 265.9 388.682 265.9C387.637 265.9 385.189 263.232 387.05 260.907C388.911 258.596 387.164 257.312 387.164 257.312C387.164 257.312 387.98 255.571 389.14 255.343C390.3 255.115 391.23 252.561 389.025 252.904C386.821 253.246 386.935 252.205 386.348 254.173C385.761 256.142 385.303 256.613 383.084 257.183C380.865 257.768 380.636 257.183 379.004 258.339C377.372 259.494 379.004 259.965 376.556 259.965C374.108 259.965 373.406 260.664 373.406 262.519C373.406 264.373 372.59 264.487 371.545 265.657C370.5 266.813 370.271 267.055 369.455 267.983C368.639 268.91 368.753 269.381 368.639 269.837C368.524 270.308 367.594 270.536 367.007 270.308C366.42 270.08 365.604 269.038 363.513 267.64C361.423 266.242 360.02 265.671 357.572 265.671C355.124 265.671 353.034 270.665 349.655 269.038C346.276 267.412 346.634 267.07 344.644 265.786C342.668 264.516 343.241 264.273 342.898 262.533C342.554 260.793 341.852 260.564 342.783 259.166C343.714 257.768 343.828 256.841 343.714 253.945C343.599 251.049 345.804 247.097 343.714 245.942C341.623 244.786 346.162 244.544 339.519 244.316C332.89 244.087 334.164 242.689 329.741 243.388C325.317 244.087 322.869 244.658 321.595 244.544C320.32 244.43 318.33 243.959 320.664 241.876C322.998 239.793 323.814 241.177 323.685 238.509C323.57 235.842 322.64 233.759 324.028 234.572C325.431 235.385 326.362 234.101 327.293 232.946C328.223 231.79 325.775 229.351 328.223 227.382C330.671 225.413 332.761 224.244 329.039 224.244C325.317 224.244 328.338 222.503 323.456 222.974C318.559 223.445 318.688 223.202 318.445 224.714C318.216 226.227 314.723 223.316 316.355 227.04C317.987 230.749 318.101 232.603 316.584 232.846C315.066 233.074 316.24 232.732 312.632 233.431C309.025 234.13 306.806 236.683 305.875 234.943C304.944 233.203 306.462 232.746 303.785 232.746C301.108 232.746 300.764 233.787 299.833 230.192C298.903 226.597 294.937 223.345 296.684 223.345C298.43 223.345 298.201 221.49 297.385 219.522C296.569 217.553 296.798 214.885 296.798 212.788C296.798 210.691 296.684 207.11 298.201 208.38C299.719 209.65 299.833 208.851 299.833 206.64C299.833 204.428 297.972 202.931 299.361 200.962C300.764 198.993 299.246 199.107 302.267 197.952C305.288 196.796 304.357 196.682 307.393 196.554C310.413 196.44 310.299 197.024 311.473 195.741C312.632 194.471 311.587 192.031 313.105 193.301C314.622 194.571 313.806 194.228 316.942 194C320.091 193.772 321.838 195.042 322.182 192.673C322.525 190.291 321.251 190.063 324.973 189.835C328.696 189.606 330.442 189.364 332.074 189.492C333.706 189.606 333.821 188.451 334.164 190.419C334.508 192.388 336.369 191.575 337.772 191.347C339.175 191.118 339.29 189.264 340.564 190.419C341.838 191.575 344.644 192.859 345.217 194.243C345.804 195.641 346.376 196.211 345.804 198.423C345.217 200.634 344.057 201.433 345.46 202.602C346.863 203.758 347.55 203.187 347.665 204.928C347.779 206.668 349.183 208.18 349.297 208.993C349.412 209.807 351.273 210.392 351.86 210.149C352.447 209.921 354.88 207.938 353.134 201.804C351.387 195.655 352.432 195.427 351.616 192.06C350.8 188.693 350.213 188.351 352.318 185.327C354.408 182.316 354.88 181.261 357.329 180.105C359.777 178.95 360.593 178.251 362.454 175.469C364.315 172.687 366.062 171.76 368.395 170.718C370.729 169.677 368.739 169.377 368.796 168.222C368.853 167.066 370.371 167.637 371.359 167.009C372.347 166.367 373.105 166.196 372.576 165.269C372.046 164.342 370.715 165.497 370.886 164.741C371.058 163.985 373.506 162.658 372.862 161.959C372.218 161.26 371.344 160.975 370.128 161.617C368.911 162.259 367.622 161.845 368.152 161.089C368.682 160.333 369.498 161.488 369.254 159.177C369.025 156.852 367.45 153.956 368.209 152.743C368.968 151.531 369.197 150.361 369.312 153.899C369.426 157.437 368.968 161.032 370.586 159.99C372.218 158.949 373.607 158.079 372.733 155.982C371.86 153.899 370.528 152.786 372.146 153.485C373.764 154.184 373.42 156.495 374.652 155.112C375.869 153.714 377.558 152.216 376.513 151.046C375.468 149.89 376.284 148.549 376.341 147.793C376.398 147.037 375.124 145.996 377.042 145.939C378.961 145.882 380.708 146.98 381.581 145.354C382.454 143.727 383.213 143.271 381.924 143.442C380.65 143.613 379.19 144.712 378.374 144.484C377.558 144.255 379.834 143.028 381.753 142.686C383.671 142.344 381.867 141.816 383.728 141.759C385.589 141.702 387.809 142.23 387.866 141.003C387.923 139.79 386.176 138.449 385.475 138.863C384.773 139.262 384.315 138.863 384.373 137.764C384.43 136.666 385.776 136.024 386.291 134.697C386.821 133.356 389.083 131.245 389.727 130.86C390.371 130.46 392.662 131.83 393.12 130.146C393.592 128.463 393.664 127.807 393.979 127.664C394.294 127.536 395.139 128.092 395.683 127.036C396.227 125.981 396.971 123.641 397.129 125.282C397.286 126.922 396.742 127.208 398.188 125.967C399.648 124.74 400.178 123.185 400.264 124.198C400.335 125.196 400.837 125.895 401.452 125.196C402.053 124.497 401.982 126.223 401.123 126.366C400.264 126.509 398.66 124.597 398.804 126.48C398.947 128.363 398.145 127.051 397.973 128.677C397.787 130.303 397.787 133.784 399.806 132.087C401.824 130.389 401.495 129.119 402.898 128.092C404.301 127.065 406.563 125.967 406.563 125.967L408.711 123.342C408.711 123.342 410.314 122.329 408.467 122.329C406.62 122.329 407.207 122.015 405.776 122.5C404.344 122.971 403.657 122.842 402.898 122.172C402.139 121.487 402.283 121.259 400.665 121.33C399.033 121.402 398.761 121.701 397.973 119.205C397.186 116.708 399.749 116.879 397.186 116.708C394.623 116.537 394.852 116.651 393.349 117.15C391.831 117.65 391.259 117.236 392.247 116.423C393.234 115.61 394.466 116.023 395.797 115.381C397.129 114.739 399.29 114.982 397.973 113.413C396.67 111.843 394.451 111.501 394.451 111.501L389.326 113.641L386.119 116.48C386.119 116.48 384.43 118.691 383.442 120.032C382.454 121.359 380.822 122.457 381.753 120.831C382.683 119.205 383.957 116.594 385.303 115.21C386.635 113.812 387.579 113.27 388.796 112.214C390.013 111.159 389.899 108.491 391.645 108.191C393.392 107.906 395.053 108.077 398.145 107.721C401.252 107.378 404.802 107.136 405.905 106.565C407.007 105.98 407.15 105.024 407.58 103.94C408.009 102.856 408.038 103.056 409.77 102.642C411.502 102.228 411.502 100.231 411.502 99.2182C411.502 98.2053 409.627 97.8202 409.326 96.5077C409.026 95.1952 409.441 94.111 408.453 94.8101C407.465 95.5091 407.78 97.2067 407.236 96.5077C406.692 95.8087 408.095 93.8828 406.148 94.3393C404.201 94.8101 405.146 94.111 403.27 96.2794C401.409 98.4478 400.278 98.0627 401.424 96.2794C402.569 94.4962 404.974 93.4691 405.747 93.0982C406.52 92.7273 404.273 92.2565 401.867 91.8713C399.462 91.4861 397.916 90.4019 397.286 89.8598C396.67 89.3177 395.654 89.3177 395.425 89.3177C395.196 89.3177 394.809 88.4618 392.404 86.2221C389.999 83.9823 386.892 81.0436 385.346 79.3459C383.8 77.6483 383.485 75.0947 383.098 77.4914C382.712 79.888 384.029 81.0436 382.483 81.8995C380.937 82.7555 381.538 83.212 380.035 83.6827C378.531 84.1535 379.047 83.8397 377.787 83.3689C376.513 82.8981 375.196 83.911 375.124 82.8981C375.052 81.8995 377.687 83.2833 375.353 81.0436C373.02 78.8038 374.351 80.045 374.423 78.3331C374.494 76.6354 371.158 76.3929 369.226 75.9364C367.279 75.4656 368.295 74.467 365.661 74.3101C363.027 74.1532 361.337 73.768 360.664 73.6111C359.992 73.4542 355.496 72.6125 355.496 72.6125C355.496 72.6125 353.792 70.4441 353.707 73.0833C353.635 75.7082 353.635 75.9507 353.635 77.0206C353.635 78.0906 354.923 79.7026 354.923 79.7026C354.923 79.7026 356.57 78.5471 356.913 79.4743C357.257 80.4016 354.122 80.9294 353.306 81.5001C352.49 82.085 352.089 81.6713 353.835 83.0693C355.582 84.4674 357.1 84.8097 357.5 85.68C357.901 86.5502 358.603 88.1194 358.603 88.1194C358.603 88.1194 360.407 89.3891 359.476 89.5175C358.546 89.6316 358.717 89.9169 357.443 91.6573C356.169 93.3978 354.422 94.4962 353.134 94.967C351.86 95.4378 351.674 95.5519 352.146 97.1782C352.618 98.8045 354.007 98.5762 354.294 100.074C354.58 101.586 353.764 100.659 354.88 102.642L355.997 104.625C355.997 104.625 354.823 103.484 355.525 105.11C356.226 106.736 356.112 108.006 355.181 106.508C354.251 104.996 354.709 104.539 353.907 105.352C353.091 106.166 352.976 106.28 353.678 107.378C354.379 108.477 355.195 110.388 354.379 109.29C353.563 108.191 353.506 106.907 352.232 107.492C350.958 108.077 350.084 109.133 349.497 109.005C348.911 108.876 349.555 107.378 349.555 107.378L350.657 105.11L348.853 103.655C348.853 103.655 346.162 104.411 347.135 103.255C348.094 102.1 346.477 101.743 345.947 101.743C345.417 101.743 343.728 100.474 345.074 100.474C346.419 100.474 346.577 100.588 347.135 99.6604C347.694 98.7332 346.706 97.5206 346.291 96.7645C345.89 96.0084 346.691 94.2109 344.945 94.2109C343.198 94.2109 340.235 94.6817 339.648 94.268C339.061 93.8543 338.13 92.8699 336.799 92.5275C335.453 92.1852 333.721 92.6987 333.076 92.7558C332.432 92.8129 332.847 91.7857 332.375 91.2008C331.902 90.6159 330.227 90.0881 329.755 90.031C329.283 89.974 328.538 89.8598 328.538 89.8598C328.538 89.8598 327.378 89.3891 327.378 87.9482C327.378 86.5074 326.391 85.1664 325.517 85.9795C324.644 86.7927 323.885 87.72 323.885 87.72C323.885 87.72 322.081 85.2805 322.31 84.2391C322.539 83.1977 323.527 83.7113 323.527 82.4987C323.527 81.2861 323.642 82.3846 324.63 80.8153C325.617 79.2461 325.732 77.8052 327.421 78.0335C329.111 78.2617 330.213 78.5613 330.328 76.2931C330.442 74.0248 330.671 71.4855 332.074 70.5439C333.477 69.6167 332.303 70.6581 334.107 69.3884C335.911 68.1188 337.128 67.4768 335.968 67.1202C334.809 66.7778 334.05 67.5196 333.177 66.7207C332.303 65.9218 330.786 65.2656 332.776 65.4511C334.751 65.6223 335.682 66.8491 336.613 66.5495C337.543 66.2642 338.832 64.9232 339.061 64.4667C339.29 63.9959 339.59 64.695 340.106 64.0673C340.636 63.4253 340.22 62.8547 341.566 63.4824C342.898 64.1243 343.427 64.2955 343.485 63.1971C343.542 62.0986 344.888 61.742 344.888 60.8147C344.888 59.8874 343.785 60.5294 343.37 58.9601C342.969 57.3909 342.439 56.1212 341.795 55.7075C341.151 55.3081 340.278 54.3665 339.347 55.0656C338.416 55.7646 337.887 55.8216 338.073 56.7489C338.245 57.6762 337.787 58.6605 337.787 58.6605C337.787 58.6605 337.314 58.9601 336.212 60.0586C335.109 61.1571 335.281 63.4253 334.351 60.8717C333.42 58.3182 333.649 57.3909 332.719 57.1626C331.788 56.9344 331.845 56.9344 331.029 57.1056C330.213 57.2768 330.156 57.2197 328.939 57.1056C327.722 56.9914 327.25 56.2924 327.135 57.1626C327.021 58.0328 327.078 58.9031 327.536 59.0172C328.008 59.1313 327.421 59.3738 326.018 60.0586C324.615 60.7576 324.043 61.2141 324.043 61.2141C324.043 61.2141 325.675 62.1414 324.687 62.6692C323.699 63.1971 323.871 63.4824 323.341 63.1971C322.811 62.9117 321.766 62.3839 322.239 61.4566C322.711 60.5294 322.296 61.1143 322.998 60.0729C323.699 59.0315 324.572 58.5607 324.63 58.2754C324.687 57.99 323.985 57.1769 322.883 56.5349C321.781 55.893 321.022 54.7945 320.149 55.5506C319.275 56.3067 318.402 56.8916 318.173 57.234C317.944 57.5763 319.39 57.4622 319.92 57.6334C320.449 57.8046 320.85 58.9744 320.85 58.9744C320.85 58.9744 320.793 59.6164 320.149 59.8446C319.504 60.0729 318.517 60.5436 318.517 60.5436C318.517 60.5436 319.862 61.6421 316.884 60.4295C313.921 59.2169 312.933 58.2896 310.428 57.0057C307.922 55.7361 307.808 54.5092 307.106 55.7361C306.405 56.9486 307.75 57.1912 305.76 57.4765C303.785 57.7618 303.541 57.5906 303.083 58.3467C302.611 59.1028 302.439 60.3154 302.439 60.3154L302.325 61.3568C302.325 61.3568 301.623 62.3982 301.394 62.4552C301.165 62.5123 300.463 62.2841 300.234 62.1129C300.005 61.9417 300.635 60.6007 300.635 60.3154C300.635 60.0301 299.762 58.5749 299.762 58.5749C299.762 58.5749 298.946 57.1198 297.901 57.3624C296.856 57.6049 295.109 57.7047 295.109 57.7047C295.109 57.7047 292.26 56.7775 292.432 56.3637C292.604 55.9643 294.178 55.9643 294.064 55.6647C293.949 55.3651 294.536 55.0513 292.661 54.8373C290.8 54.6233 287.951 53.8672 287.951 52.4835C287.951 51.0997 286.848 50.9142 285.216 50.9713C283.584 51.0283 285.159 49.5162 283.241 50.1581C281.322 50.8001 280.392 50.0012 280.392 50.0012C280.392 50.0012 281.093 49.2308 278.244 49.2879C275.395 49.345 276.326 49.4591 275.037 49.9299C273.763 50.4006 273.691 50.044 273.577 49.2879C273.462 48.5318 272.174 48.3036 271.301 48.4177C270.427 48.5318 269.726 49.1738 269.726 49.1738C269.726 49.1738 269.726 48.3036 268.967 46.7914C268.208 45.2792 269.196 45.6929 267.507 45.1651C265.817 44.6373 264.013 43.8241 265.173 43.1964C266.333 42.5545 268.38 41.2848 266.977 40.3005C265.574 39.3161 265.875 39.1449 263.541 39.6585C261.207 40.1863 260.463 39.1877 259.647 40.3005C258.831 41.3989 259.761 41.2848 257.256 42.2121C254.751 43.1394 255.338 42.6115 254.178 44.2378C253.018 45.8641 252.961 46.3777 252.603 45.75C252.26 45.108 252.832 43.3105 253.949 42.0409C254.436 41.4845 255.252 40.2291 255.781 39.2163C253.605 40.3005 251.458 41.4275 249.325 42.6115C248.781 43.0823 248.408 43.6101 248.308 44.2806C247.993 46.5204 249.468 47.5475 247.764 47.8899C246.061 48.2322 245.517 49.4591 244.586 49.5447C243.655 49.6303 244.271 48.8457 242.023 48.6888C240.907 48.6174 240.348 48.3892 239.704 48.3749C236.239 50.6146 232.875 52.9685 229.597 55.4507C231.372 57.6049 231.2 59.2169 231.2 59.2169L226.905 62.0843L221.207 63.6964C221.207 63.6964 223.197 65.3797 226.69 64.538C230.183 63.6964 232.274 59.6306 232.159 61.2569C232.045 62.8832 230.069 63.6536 229.024 64.7806C227.979 65.8933 232.632 64.3954 233.562 63.2256C234.493 62.0701 235.538 57.7761 236.826 58.7033C238.101 59.6306 238.344 61.1428 238.344 61.1428L236.368 63.1115L239.274 64.538L243.584 66.8206C243.584 66.8206 243.813 66.8206 243.584 68.0902C243.355 69.3599 242.582 69.6309 242.968 70.1445C243.355 70.6581 243.312 70.6153 242.596 71.7708C241.88 72.9263 240.95 74.2816 240.792 74.7809C240.635 75.2802 241.608 75.594 241.923 74.7809C242.238 73.9677 242.782 72.8122 242.782 72.8122C242.782 72.8122 244.257 70.1445 244.6 70.4584C244.944 70.7722 245.216 71.5854 245.216 71.5854L244.013 74.41C244.013 74.41 243.899 75.1518 243.741 75.8366C243.584 76.5356 243.813 76.6925 243.426 76.9921C243.04 77.3059 242.181 75.9079 243.04 77.3059C243.899 78.704 243.584 78.704 243.04 79.3174C242.496 79.9308 241.909 80.0878 242.596 80.7155C243.283 81.3289 244.214 79.7882 244.6 80.2447C244.987 80.7155 245.459 80.316 245.216 81.2433C244.987 82.1706 246.189 82.7127 245.273 83.2548C244.357 83.7969 243.068 82.4844 242.596 82.6413C242.109 82.7983 241.88 82.7555 241.723 83.3974C241.565 84.0394 241.021 84.3532 241.723 84.8097C242.424 85.2805 241.565 85.8939 241.494 86.3504C241.422 86.8212 245.602 85.038 244.056 86.3504C242.51 87.6629 242.195 87.7485 241.723 88.9754C241.25 90.2165 240.406 91.3007 241.408 91.3007C242.41 91.3007 243.197 89.9026 243.813 89.9026C244.428 89.9026 244.013 90.6017 243.254 91.3007C242.496 91.9997 241.179 91.2294 240.706 92.228C240.234 93.2266 240.005 93.3122 239.303 93.9256C238.602 94.539 238.688 94.6959 239.618 95.4663C240.549 96.2366 242.911 95.1524 242.582 95.4663C242.252 95.7801 241.851 95.7801 241.422 96.2794C240.992 96.7787 240.491 97.492 241.322 97.3636C242.152 97.2353 242.739 97.0498 243.126 96.7217C243.512 96.3936 244.729 95.6803 244.071 96.4506C243.412 97.221 242.925 96.9927 243.025 97.6347C243.126 98.2766 243.369 97.8344 243.297 98.4478C243.226 99.0613 243.226 99.4465 243.527 99.6034C243.841 99.7603 244.572 99.4037 244.729 99.1041C244.887 98.7902 245.66 98.6333 245.273 99.261C244.887 99.8744 244.113 100.345 244.457 100.959C244.801 101.572 245.159 102.086 245.159 102.086L244.657 103.327L244.5 105.452C244.5 105.452 244.028 107.378 243.498 108.462C242.954 109.547 242.095 111.929 242.095 111.929H241.007L241.236 107.949C241.236 107.949 240.849 105.581 240.62 105.338C240.391 105.11 239.847 104.882 239.461 105.652C239.074 106.422 238.845 107.421 238.845 107.421C238.845 107.421 238.917 108.391 238.53 108.933C238.143 109.475 237.914 110.902 237.914 110.902C237.914 110.902 236.368 111.572 235.438 113.969C234.507 116.366 233.891 116.351 233.419 118.363C232.947 120.374 233.72 121.53 231.859 122.685C229.997 123.841 229.682 123.142 229.138 125.31C228.594 127.479 229.453 127.636 228.437 129.562C227.435 131.502 226.805 131.487 226.647 133.114C226.49 134.74 225.86 136.324 225.86 137.665C225.86 139.006 224.843 140.075 225.86 141.003C226.876 141.93 226.332 141.859 226.876 141.93C227.42 142.001 227.263 141.317 228.351 141.93C229.439 142.543 230.298 141.702 229.439 142.543C228.58 143.385 228.279 143.785 228.279 143.785C228.279 143.785 227.735 143.171 227.506 144.255C227.277 145.34 226.261 145.254 226.418 145.796C226.576 146.338 227.506 147.265 227.506 147.265C227.506 147.265 225.645 147.422 226.576 149.277C227.506 151.131 227.349 150.746 227.349 152.216C227.349 153.685 227.735 154.684 227.735 154.684L229.052 156.895L230.212 158.393C230.212 158.393 229.21 158.464 230.985 159.705C232.775 160.946 232.617 158.55 233.075 161.331C233.548 164.113 233.39 165.269 233.39 165.269L234.65 166.895C234.65 166.895 235.094 167.865 235.022 169.82C234.951 171.774 235.022 170.533 235.022 172.93C235.022 175.326 235.022 175.868 235.953 177.495C236.884 179.121 238.974 179.891 239.375 180.819C239.761 181.746 239.761 183.686 239.761 183.686C239.761 183.686 239.833 184.385 240.076 185.541C240.305 186.696 239.919 186.396 238.917 185.227C237.914 184.071 237.055 185.384 237.055 185.384C237.055 185.384 236.826 186.311 237.829 187.395C238.831 188.479 240.549 190.262 240.549 190.262C240.549 190.262 241.164 189.792 241.637 191.803C242.109 193.815 242.596 193.273 242.582 194.899C242.567 196.525 241.937 198.608 244.586 200.776C247.22 202.945 245.831 202.018 246.92 204.485C248.008 206.953 249.253 208.394 250.341 209.222C251.429 210.049 254.693 213.487 252.675 209.222C250.656 204.956 249.597 205.199 248.738 203.758C247.864 202.317 248.795 200.776 247.564 196.91C246.318 193.044 244.3 189.193 243.841 186.482C243.369 183.772 243.526 181.004 241.508 176.439C239.489 171.86 238.244 169.235 240.105 170.476C241.966 171.717 244.3 169.549 244.457 172.173C244.615 174.798 244.772 178.75 244.772 178.75C244.772 178.75 244.772 179.449 246.476 183.472C248.179 187.495 249.267 187.652 250.041 188.422C250.814 189.193 251.444 191.675 251.444 191.675C251.444 191.675 254.865 193.073 254.865 194.3C254.865 195.527 253.462 194.913 254.865 197.552C256.268 200.177 254.393 198.023 256.268 200.177C258.129 202.346 259.375 204.657 259.375 204.657L264.185 210.691C264.185 210.691 264.185 212.089 265.116 213.787C266.046 215.484 267.664 215.356 266.605 216.626C265.56 217.895 264.157 218.252 264.858 218.651C265.56 219.051 265.731 219.293 265.202 219.75C264.672 220.221 266.505 222.132 267.278 224.443C268.051 226.769 269.139 226.997 270.613 228.381C272.088 229.779 272.016 229.779 272.947 231.391C273.878 233.017 272.718 231.776 275.739 232.86C278.759 233.944 280.005 235.485 280.707 235.956C281.408 236.427 282.84 236.726 287.85 239.28C292.861 241.833 294.25 243.103 296.698 243.916C299.146 244.729 299.49 245.771 301.351 245.314C303.212 244.843 304.143 243.802 305.302 244.387C306.462 244.972 305.775 246.356 307.393 245.428C309.025 244.501 309.254 244.658 309.726 245.742C310.199 246.826 313.219 248.795 313.219 248.795C313.219 248.795 310.886 249.836 314.737 252.162C318.244 254.287 321.652 256.014 322.926 255.671C322.969 255.885 323.327 256.199 324.172 256.684C327.779 258.767 328.824 260.165 329.755 261.206C330.686 262.248 331.387 264.459 331.273 265.144C331.158 265.843 331.502 266.77 332.79 267.355C334.064 267.94 335.811 267.583 337.214 268.51C338.617 269.438 336.87 269.78 339.419 270.95C341.981 272.105 343.37 272.219 343.37 272.219L344.773 271.635L348.495 272.219C348.495 272.219 350.127 273.147 350.242 273.846C350.356 274.545 349.426 275.115 350.829 275.7C352.232 276.285 353.163 275.7 353.163 275.7C353.163 275.7 356.77 275.115 356.069 273.846C355.367 272.576 352.805 272.804 354.666 271.635C356.527 270.479 357.343 270.008 358.159 269.552C358.975 269.081 359.319 268.739 360.722 270.137C362.125 271.535 362.926 269.908 362.125 271.535C361.309 273.161 361.266 273.618 362.454 273.746C363.642 273.86 364.458 274.559 364.458 274.559C364.458 274.559 365.976 275.187 365.976 275.971C365.976 276.756 364.816 276.528 364.931 277.569C365.045 278.611 363.299 278.268 364.115 279.31C364.931 280.351 363.413 280.822 364 281.977C364.587 283.133 362.84 283.247 364.115 284.873C365.389 286.5 364.587 287.883 362.253 288.582C359.92 289.281 360.85 287.427 359.576 289.852C358.302 292.291 358.646 292.406 357.558 292.719C356.47 293.033 355.224 293.718 353.363 294.66C351.502 295.587 351.731 293.732 350.8 296.443C349.87 299.153 350.8 299.153 348.939 300.694C347.078 302.235 347.393 304.018 347.393 304.018C347.393 304.018 354.451 303.162 351.659 304.945C348.868 306.728 348.782 307.028 348.094 307.813C347.393 308.583 346.849 309.439 346.849 309.439L345.603 311.679L345.288 314.304C345.288 314.304 345.904 313.761 348.009 315.16C350.099 316.558 350.571 316.629 350.886 317.1C351.201 317.57 352.132 319.568 354.694 322.121C357.257 324.675 357.959 325.26 359.004 326.059C360.049 326.872 361.094 326.529 360.979 327.913C360.865 329.311 360.75 328.726 363.427 329.539C366.105 330.353 367.851 331.166 369.712 331.166C371.574 331.166 375.883 331.865 377.157 331.865C378.431 331.865 379.247 331.751 378.431 332.678C377.615 333.605 376.098 337.086 374.122 339.055C372.146 341.023 371.559 342.193 368.768 343.12C365.976 344.048 364.344 344.861 362.597 345.446C360.865 346.016 359.705 348.556 359.691 348.57C410.744 339.183 453.579 306.415 476.585 261.82L473.192 262.276L468.296 265.985L468.339 265.914ZM385.947 91.4433C386.534 91.1295 387.307 91.8285 387.894 92.2993C388.481 92.7701 389.212 93.2266 390.414 92.5275C391.617 91.8285 392.318 92.2565 393.478 92.7558C394.638 93.2551 393.32 93.7972 391.803 94.3821C390.285 94.967 391.531 94.9242 390.171 94.9242C388.811 94.9242 389.741 95.666 389.312 96.2366C388.882 96.8215 387.794 95.0383 386.205 93.7687C384.616 92.499 384.688 92.1138 385.933 91.4433H385.947ZM327.579 117.664C332.117 116.152 331.072 115.053 333.749 117.107C336.426 119.162 337.701 117.906 338.059 119.989C338.402 122.072 341.437 123.841 341.437 123.841L345.632 124.626L351.917 125.938C351.917 125.938 353.821 126.594 354.251 128.064C354.68 129.519 355.997 130.132 353.435 130.104C350.872 130.075 347.737 129.034 347.737 129.034C347.737 129.034 347.092 129.619 347.178 132.172C347.264 134.726 348.438 134.255 346.691 135.767C344.945 137.279 340.865 138.549 344.014 138.435C347.164 138.321 349.598 136.694 351.001 137.622C352.404 138.549 353.32 136.466 354.723 136.352C356.126 136.238 354.494 135.296 356.241 134.027C357.987 132.757 358.159 131.83 360.75 132.058C363.342 132.286 362.869 131.473 365.317 131.473C367.765 131.473 369.741 133.542 366.477 134.012C363.213 134.483 362.755 133.898 360.192 134.954C357.629 136.01 357.629 134.369 357.042 136.694C356.455 139.02 358.674 138.663 355.525 139.833C352.375 140.988 354.122 140.132 350.514 140.675C346.906 141.231 347.722 141.459 344.816 141.231C341.91 141.003 339.462 141.003 340.865 138.792C342.268 136.58 345.875 137.393 345.059 134.854C344.243 132.301 343.084 132.643 341.452 133.228C339.819 133.813 342.21 131.074 342.239 130.118C342.268 129.162 341.337 127.964 339.59 127.636C337.844 127.308 337.844 125.696 336.326 128.064C334.809 130.432 334.809 128.734 334.236 130.104C333.649 131.473 333.305 129.947 333.305 134.012C333.305 138.078 334.122 140.575 330.628 141.302C327.135 142.03 326.791 136.324 328.295 134.012C329.812 131.701 331.201 130.004 329.34 130.104C327.479 130.204 329.454 126.794 331.545 126.409C333.635 126.024 334.565 126.195 336.312 125.938C338.059 125.667 339.462 125.909 339.691 125.439C339.92 124.968 337.83 122.543 335.739 122.942C333.649 123.342 335.267 123.513 332.59 123.841C329.912 124.169 327.35 123.698 328.051 122.942C328.753 122.186 329.383 122.186 327.436 121.487C325.489 120.788 327.593 117.664 327.593 117.664H327.579ZM311.244 99.8316C312.561 99.6319 311.401 98.7902 311.63 97.4778C311.859 96.1653 313.105 96.7787 315.825 96.8643C315.825 96.8643 316.297 97.7916 315.052 98.1055C313.806 98.4193 314.436 98.6476 314.121 99.4179C313.911 99.9315 313.782 100.73 313.735 101.815C313.663 103.441 313.577 103.755 314.594 105.067C315.596 106.38 315.138 106.38 315.524 108.976C315.911 111.572 314.365 110.317 312.733 110.702C311.101 111.087 312.733 110.702 312.647 109.39C312.561 108.077 313.119 107.221 312.189 105.41C311.258 103.598 310.714 104.753 310.557 103.441C310.399 102.128 311.029 102.128 309.898 101.044C308.781 99.96 309.927 100.046 311.244 99.8316ZM307.135 99.8744C307.135 99.8744 308.452 101.815 307.521 102.599C306.591 103.398 306.82 104.197 308.065 104.825C309.311 105.438 309.54 105.21 309.068 106.365C308.595 107.521 309.454 107.906 309.841 109.918C310.227 111.929 308.051 110.773 308.051 108.962C308.051 107.15 307.35 107.606 306.19 106.679C305.03 105.752 305.102 105.281 305.36 104.354C305.617 103.427 305.803 102.956 304.257 101.415C302.711 99.8744 304.028 99.7175 307.135 99.8744ZM301.738 86.6928C301.909 84.553 301.437 84.9667 303.613 85.2948C304.372 85.4089 305.059 85.9938 304.357 88.1337C303.656 90.2735 303.312 88.9468 301.394 90.0453C299.476 91.1438 301.566 88.8327 301.738 86.6786V86.6928ZM261.164 138.891C260.177 141.16 260.062 139.933 257.786 140.104C255.509 140.275 257.786 138.948 257.786 135.867C257.786 132.786 257.499 133.798 260.692 133.656C262.038 133.599 262.152 136.609 261.164 138.877V138.891ZM276.941 61.2284C276.941 61.2284 277.872 60.9431 280.263 60.4152C282.654 59.8874 280.664 60.0729 279.261 59.4309C277.843 58.7889 278.173 59.2597 275.152 58.846C272.131 58.4466 277.356 58.3182 280.392 58.204C283.412 58.0899 281.222 58.0756 284.286 58.5464C285.488 58.7319 284.171 59.759 285.86 60.3439C287.55 60.9288 285.86 60.7433 285.86 61.6849C285.86 62.6264 285.216 62.7834 283.77 61.8561C282.31 60.9288 282.611 61.8561 282.138 62.2555C281.666 62.655 279.747 64.1101 279.747 64.1101C279.747 64.1101 277.543 63.354 276.025 62.4267C274.507 61.4994 276.956 61.2141 276.956 61.2141L276.941 61.2284ZM292.89 70.5154C292.017 70.5725 291.544 71.2144 290.442 72.37C289.339 73.5255 288.695 73.5255 287.421 73.5255C286.147 73.5255 285.903 73.7538 282.94 74.5669C279.976 75.3801 280.907 74.9093 279.332 73.8679C277.757 72.8265 277.471 72.7694 277.299 72.2416C277.127 71.7137 279.69 72.3557 280.506 71.8421C281.322 71.3143 282.367 70.0446 282.367 70.0446C282.367 70.0446 281.795 68.3042 283.412 67.8334C284.143 67.6195 283.942 68.5895 284.457 69.8021C284.987 71.0147 285.503 71.5996 287.421 71.3999C289.339 71.2002 289.626 70.2016 292.317 69.9163C294.994 69.6309 293.778 70.4441 292.904 70.5012L292.89 70.5154ZM323.57 255.229C324.501 254.459 325.732 253.617 325.832 254.558C325.89 255.115 324.429 255.072 323.57 255.229Z" fill="url(#paint4_linear_1093_3497)"/>
<path d="M340.106 67.0346C339.004 66.2214 338.474 65.18 338.474 66.5638C338.474 67.9476 337.429 67.6052 338.474 68.8891C339.519 70.1588 339.577 70.2872 338.589 70.2872C337.601 70.2872 337.315 70.8721 338.002 71.9135C338.703 72.9549 337.773 74.0533 339.276 73.4256C340.793 72.7837 341.896 72.0847 342.597 71.457C343.299 70.815 342.998 70.2444 344.229 70.9862C345.446 71.7423 346.434 71.9135 347.436 71.457C348.424 70.9862 349.412 70.0589 347.436 70.0589C345.461 70.0589 344.931 70.0589 344.931 69.3028C344.931 68.5467 345.747 68.3185 343.528 67.9618C341.323 67.6195 340.092 67.0346 340.092 67.0346H340.106Z" fill="url(#paint5_linear_1093_3497)"/>
<path d="M344.715 72.8265C342.968 72.6981 342.324 72.3272 341.637 73.5968C340.935 74.8522 340.935 76.2503 342.568 75.4371C344.2 74.624 344.142 74.6382 345.016 74.196C345.889 73.7537 345.946 72.9263 344.729 72.8265H344.715Z" fill="url(#paint6_linear_1093_3497)"/>
<path d="M351.229 72.6838C348.752 72.6125 347.907 73.1546 349.024 74.1817C350.126 75.2089 350.885 75.9079 351.229 74.7381C351.572 73.5826 352.102 72.6981 351.229 72.6696V72.6838Z" fill="url(#paint7_linear_1093_3497)"/>
<path d="M352.119 88.2763C351.389 88.3191 351.26 88.8898 350.988 89.6744C350.716 90.4447 350.988 90.1737 350.286 90.7158C349.585 91.2579 350.014 91.5717 350.83 91.9141C351.647 92.2565 352.506 92.499 352.506 91.372C352.506 90.245 352.033 89.974 352.892 89.4033C353.751 88.8184 352.82 88.2478 352.119 88.2763Z" fill="url(#paint8_linear_1093_3497)"/>
<path d="M402.983 109.561C399.075 109.661 394.78 107.606 397.214 109.561C399.648 111.515 400.464 112.243 402.21 112.172C403.957 112.1 402.969 109.561 402.969 109.561H402.983Z" fill="url(#paint9_linear_1093_3497)"/>
<path d="M409.884 115.895C408.624 115.809 409.67 116.152 408.567 117.892C407.765 119.162 406.549 120.617 406.763 120.859C406.878 120.988 407.408 120.745 407.694 120.56C408.195 120.246 408.496 119.789 408.825 119.133C408.825 119.133 409.326 118.106 409.884 115.895Z" fill="url(#paint10_linear_1093_3497)"/>
<path d="M411.475 119.476C412.119 120.146 412.577 120.303 411.947 120.888C411.303 121.487 411.775 120.931 411.131 121.901C410.487 122.871 410.387 123.969 409.886 122.928C409.384 121.887 409.785 120.56 410.315 119.975C410.845 119.39 411.489 119.461 411.489 119.461L411.475 119.476Z" fill="url(#paint11_linear_1093_3497)"/>
<path d="M413.58 101.772C412.692 102.143 412.42 102.699 412.306 103.683C412.191 104.668 411.833 105.538 411.833 105.538L411.361 106.936C411.361 106.936 411.948 107.692 411.647 108.448C411.361 109.204 411.361 110.132 411.361 110.132C411.361 110.132 410.473 110.274 410.301 110.702C410.13 111.116 408.512 110.017 409.872 111.53C411.232 113.042 411.003 112.571 410.717 113.27C410.43 113.969 410.946 114.953 411.819 114.668C412.692 114.383 411.117 113.726 414.353 114.055C417.589 114.383 417.989 112.642 418.29 113.384C418.576 114.14 418.705 114.197 419.135 113.612C419.564 113.027 421.425 112.157 420.523 113.327C419.621 114.483 417.946 115.652 419.135 115.909C420.323 116.166 422.184 115.467 421.84 114.04C421.497 112.614 421.841 111.116 422.37 112.628C422.9 114.14 422.313 115.41 423.53 115.296C424.747 115.182 424.933 115.595 425.62 115.966C426.307 116.337 427.596 116.408 426.722 114.725C425.849 113.042 426.436 110.902 425.506 111.829C424.575 112.756 423.53 113.042 423.057 111.601C422.585 110.146 422.714 110.089 421.783 109.276C420.853 108.462 422.413 107.007 420.523 106.95C418.634 106.893 418.462 108.462 417.288 107.763C416.128 107.064 416.128 105.738 415.284 106.722C414.439 107.706 413.795 108.805 413.394 107.935C412.993 107.064 412.177 107.321 412.75 106.123C413.337 104.925 414.553 101.387 413.566 101.786L413.58 101.772Z" fill="url(#paint12_linear_1093_3497)"/>
<path d="M290.153 49.4591C287.906 47.8328 284.183 48.6887 287.906 46.6773C291.628 44.6658 291.785 45.4362 293.26 44.3519C294.735 43.2677 296.281 43.1108 296.281 43.1108C296.281 43.1108 300.318 43.1108 301.091 43.8812C301.864 44.6515 303.725 45.0367 301.793 45.2792C299.846 45.5075 298.142 46.2778 298.142 46.2778L295.808 47.362L293.403 49.1453L290.139 49.4591H290.153Z" fill="url(#paint13_linear_1093_3497)"/>
<path d="M303.027 47.6759C303.099 46.9483 303.342 46.2778 301.782 46.7486C300.236 47.2194 299.219 46.8342 298.217 47.1338C297.215 47.4476 297.988 47.4476 296.971 48.0611C295.969 48.6745 294.48 49.4591 294.48 49.4591L296.513 50.0012C296.513 50.0012 298.689 50.8572 297.057 50.8572C295.425 50.8572 291.231 50.6289 293.106 51.3279C294.967 52.0269 297.215 51.5562 298.689 52.2552C300.164 52.9542 300.064 53.1825 297.902 53.1825C295.74 53.1825 292.533 51.7131 294.48 53.1825C296.442 54.6519 297.83 53.7959 297.057 54.8088C296.284 55.8074 296.356 56.2782 298.689 56.0499C301.023 55.8216 300.322 56.4065 302.34 56.107C304.359 55.8216 306.22 54.8944 306.22 54.8944C306.22 54.8944 307.308 53.3537 309.098 54.5092C310.887 55.6647 313.049 57.9901 314.452 57.8331C315.855 57.6762 315.612 57.0628 314.839 56.2068C314.065 55.3509 314.295 54.9657 315.454 54.7374C316.614 54.5092 318.017 54.0384 316.385 53.3394C314.753 52.6404 314.753 51.6418 314.753 50.5576C314.753 49.4734 314.28 48.5461 313.894 48.1609C313.507 47.7757 315.211 45.9212 313.121 48.0896C311.03 50.258 310.715 51.7987 310.329 51.0283C309.942 50.258 310.4 48.6317 310.4 48.6317C310.4 48.6317 310.715 47.2336 309.47 47.4762C308.224 47.7044 308.697 47.3192 307.609 48.0896C306.521 48.8599 306.206 49.559 306.062 48.6317C305.905 47.7044 306.921 47.0054 305.748 47.1623C304.588 47.3192 304.345 47.3192 304.044 47.6331C303.729 47.9469 302.956 48.5604 303.042 47.7044L303.027 47.6759Z" fill="url(#paint14_linear_1093_3497)"/>
<path d="M322.71 48.5889C323.812 49.4591 324.571 50.5005 324.571 50.5005C324.571 50.5005 326.432 50.5576 325.044 51.8415C323.641 53.1112 323.641 53.2966 322.71 53.639C321.779 53.9814 322.066 55.4365 321.078 54.0384C320.09 52.6404 320.376 52.5833 319.675 52.2124C318.973 51.8415 317.928 50.8001 319.389 50.686C320.849 50.5718 321.135 50.5148 321.307 49.4734C321.479 48.432 322.71 48.6032 322.71 48.6032V48.5889Z" fill="url(#paint15_linear_1093_3497)"/>
<path d="M327.764 52.1981C326.361 52.6974 324.443 53.1682 324.328 54.0242C324.214 54.8944 324.972 56.5777 324.972 56.5777C324.972 56.5777 326.547 56.2924 326.891 56.0499C327.234 55.8216 328.05 55.7075 329.167 55.7075C330.284 55.7075 331.315 55.4365 330.499 54.3808C329.683 53.3251 327.764 52.1839 327.764 52.1839V52.1981Z" fill="url(#paint16_linear_1093_3497)"/>
<path d="M327.02 48.5746C326.433 48.9313 326.433 49.1025 326.433 50.0868C326.433 51.0711 326.09 51.7702 326.72 51.599C327.364 51.4278 327.421 51.2566 328.065 51.1282C328.71 51.0141 326.791 51.8843 328.996 51.1282C331.201 50.3721 331.33 49.9156 331.673 49.4448C332.017 48.9741 333.95 48.432 331.673 48.5604C329.397 48.6888 327.02 48.5604 327.02 48.5604V48.5746Z" fill="url(#paint17_linear_1093_3497)"/>
<path d="M338.89 48.1181C337.959 47.7187 338.103 48.1752 337.287 48.5461C336.471 48.917 336.599 47.6474 335.325 49.0454C334.051 50.4435 333.707 49.2737 334.051 50.4435C334.395 51.599 334.867 52.2124 334.867 52.2124C334.867 52.2124 336.327 52.4835 336.027 53.3537C335.74 54.2239 336.556 54.766 337.072 54.4093C337.602 54.0527 338.532 53.9386 339.577 53.9386C340.622 53.9386 342.197 53.9956 343.099 54.1098C344.001 54.2239 345.633 54.2239 345.633 54.2239C345.633 54.2239 346.277 55.8502 347.437 55.0941C348.597 54.338 348.31 52.8258 349.713 53.7531C351.116 54.6804 352.219 54.9086 352.219 54.9086L354.08 56.0499L355.54 59.1171H358.446C358.446 59.1171 359.32 59.7305 359.492 60.1442C359.663 60.5436 361.009 57.2054 361.825 59.1171C362.641 61.0287 362.355 62.0558 362.355 62.0558C362.355 62.0558 361.081 62.3697 360.78 63.2399C360.494 64.1101 361.31 64.1814 360.25 64.5238C359.205 64.8662 359.262 65.0231 357.974 65.0802C356.7 65.1372 358.375 65.5937 355.827 65.0802C353.264 64.5523 353.55 63.9674 352.748 64.6665C351.932 65.3655 351.489 65.0088 351.718 66.3498C351.932 67.6908 353.507 68.3756 353.507 68.3756C353.507 68.3756 357.287 68.9605 358.103 67.8477C358.919 66.7493 360.021 67.8477 361.653 68.133C363.285 68.4184 365.433 69.4027 366.077 70.2158C366.721 71.029 365.318 70.6866 368.983 71.2002C372.648 71.728 372.935 71.728 374.452 72.0704C375.97 72.4128 377.559 73.0547 377.244 72.6696C376.313 71.5426 375.497 70.6724 373.865 70.1445C372.233 69.6167 370.487 68.347 371.661 68.6323C372.82 68.9177 374.868 69.7165 374.868 69.7165C374.868 69.7165 378.074 70.7151 378.475 71.0575C378.876 71.3999 381.553 73.1403 379.936 71.2858C378.303 69.4312 378.303 68.8463 378.303 68.8463L375.855 65.8505C375.855 65.8505 374.868 65.2514 373.636 65.0231C372.419 64.7948 371.131 63.6821 371.131 63.6821C371.131 63.6821 371.188 62.227 370.086 62.0558C368.983 61.8846 370.845 60.7148 371.661 61.4138C372.477 62.1129 372.648 62.6835 373.937 63.0972C375.211 63.4967 374.524 62.5694 376.213 63.7962C377.903 65.0088 378.776 64.1386 378.776 64.1386L378.948 62.3411L378.604 60.3297C378.604 60.3297 376.571 60.3439 375.454 60.3297C374.352 60.3154 373.593 59.1456 373.593 59.1456L371.904 58.7461L368.583 58.2183C368.583 58.2183 365.905 57.8759 366.306 57.1198C366.707 56.3638 366.779 55.3224 366.779 55.3224L365.376 54.2239C365.376 54.2239 363.629 54.1098 362.87 54.1668C362.111 54.2239 361.009 53.2395 361.009 53.2395C361.009 53.2395 361.009 52.4835 358.733 52.4264C356.456 52.3693 356.528 52.3693 355.998 52.2552C355.469 52.1411 355.884 50.2295 353.035 50.044C350.186 49.8728 349.842 48.4748 348.597 49.4591C347.337 50.4435 346.693 51.5419 345.59 50.044C344.488 48.5318 345.075 47.3192 343.113 47.3763C341.166 47.4334 339.534 47.2051 340.121 48.5033C340.708 49.8158 341.753 51.1995 341.753 51.1995C340.479 52.1839 340.88 52.3551 340.007 52.4121C339.133 52.4692 339.019 52.0127 339.076 51.1995C339.133 50.3864 339.362 50.7288 339.133 49.4021L338.904 48.0611L338.89 48.1181Z" fill="url(#paint18_linear_1093_3497)"/>
<path d="M346.106 46.7914C345.118 47.8328 344.589 48.1181 345.519 48.5604C346.45 49.0026 347.552 49.402 348.368 48.5604C349.184 47.7187 351.217 47.2622 349.585 46.7914C347.953 46.3206 346.092 46.7914 346.092 46.7914H346.106Z" fill="url(#paint19_linear_1093_3497)"/>
<path d="M328.293 44.0524C328.465 45.1508 328.579 45.7928 328.579 45.7928C328.579 45.7928 329.109 46.3777 329.796 47.0054C330.498 47.6473 331.543 47.9612 332.244 47.8043C332.946 47.6473 332.244 47.1908 333.59 46.8342C334.936 46.4918 335.451 46.7629 337.255 46.5631C339.059 46.3634 341.092 46.3634 341.965 46.1922C342.839 46.021 343.368 45.0938 343.368 45.0938C343.368 45.0938 343.712 44.4518 340.347 44.4518C336.983 44.4518 337.57 44.7942 335.838 44.5659C334.12 44.3377 334.12 42.7114 333.189 43.6387C332.259 44.5659 333.361 45.1794 332.144 45.5931C330.927 46.021 330.984 46.9055 330.34 45.5931C329.696 44.2806 329.811 44.1522 329.811 43.6387C329.811 43.1251 328.293 44.0381 328.293 44.0381V44.0524Z" fill="url(#paint20_linear_1093_3497)"/>
<path d="M351.058 37.5614C347.68 37.4616 345.847 37.5044 345.847 37.5044L341.466 37.4188C341.466 37.4188 340.178 36.948 339.834 37.6898C339.49 38.4317 338.317 38.5458 338.317 38.5458C338.317 38.5458 336.04 35.7925 336.226 37.2476C336.412 38.7027 336.398 38.717 336.398 38.717C336.398 38.717 337.801 40.115 337.801 40.5287C337.801 40.9424 337.458 42.1693 337.458 42.1693H336.198V41.0994L338.445 44.0524H339.848L338.044 43.8527L334.494 42.7685C334.494 42.7685 333.75 43.9953 335.868 43.9953C337.987 43.9953 337.343 44.4233 340.135 43.5388C342.926 42.6686 343.585 42.3975 345.06 42.3975C346.534 42.3975 343.571 42.8255 347.407 42.3547C351.244 41.884 352.06 41.9268 351.946 40.8854C351.831 39.844 351.66 39.8868 351.66 38.9595C351.66 38.0322 352.304 37.59 351.073 37.5614H351.058Z" fill="url(#paint21_linear_1093_3497)"/>
<path d="M326.32 41.3276C326.405 41.2848 326.835 41.0993 327.25 41.3276C327.293 41.3561 327.68 41.5701 327.723 41.941C327.766 42.4261 327.207 42.854 326.72 42.9396C326.348 43.011 325.776 42.9396 325.589 42.5973C325.389 42.1693 325.818 41.5416 326.32 41.3276Z" fill="url(#paint22_linear_1093_3497)"/>
<path d="M322.783 43.6529C323.184 43.7813 323.241 44.5374 323.255 44.6515C323.313 45.4219 322.826 45.964 322.754 46.0496C322.568 46.2493 322.239 46.606 321.824 46.5489C321.337 46.4918 320.965 45.9497 320.965 45.4647C320.965 45.0795 321.208 44.8227 321.623 44.3805C322.024 43.9525 322.439 43.5245 322.783 43.6529Z" fill="url(#paint23_linear_1093_3497)"/>
<path d="M325.417 45.8641C325.961 45.3363 327.292 45.8499 327.392 46.4062C327.464 46.8199 326.863 47.2479 326.734 47.3335C326.548 47.4619 326.047 47.8185 325.646 47.6474C325.116 47.4191 324.944 46.3064 325.417 45.8641Z" fill="url(#paint24_linear_1093_3497)"/>
<path d="M324.958 44.0381C324.915 44.2521 325.159 44.4661 325.187 44.5089C325.66 44.9226 326.648 44.7229 326.776 44.3092C326.848 44.0952 326.69 43.8527 326.547 43.7243C326.061 43.2963 325.044 43.6387 324.958 44.0381Z" fill="url(#paint25_linear_1093_3497)"/>
<path d="M321.238 39.0879C320.837 38.8882 320.364 38.9024 319.448 38.9309C318.331 38.9595 317.759 38.988 317.659 39.2448C317.501 39.6157 318.231 40.2434 318.632 40.5145C319.62 41.1849 320.679 41.0708 320.994 41.0138C321.395 40.9424 322.154 40.8283 322.269 40.4003C322.397 39.9438 321.767 39.3447 321.223 39.0879H321.238Z" fill="url(#paint26_linear_1093_3497)"/>
<path d="M324.3 39.901C323.742 39.9153 323.341 40.4859 323.441 40.9852C323.513 41.3276 323.813 41.5844 324.143 41.6415C324.644 41.727 325.216 41.3419 325.231 40.7855C325.231 40.3005 324.787 39.8725 324.3 39.901Z" fill="url(#paint27_linear_1093_3497)"/>
<path d="M313.978 42.4546C314.292 42.64 314.035 43.1394 314.45 43.6957C314.751 44.0952 315.066 44.0809 315.109 44.3519C315.166 44.7086 314.722 45.1651 314.25 45.322C313.505 45.5645 312.431 45.1366 312.231 44.3234C312.073 43.6814 312.546 43.1251 312.703 42.9682C313.033 42.6258 313.648 42.2691 313.978 42.4689V42.4546Z" fill="url(#paint28_linear_1093_3497)"/>
<path d="M304.115 42.7685C304.43 42.2692 305.017 42.1693 305.747 42.0266C306.448 41.8982 306.992 41.941 307.536 41.9838C308.324 42.0552 308.768 42.0837 309.326 42.3262C309.627 42.4546 310.6 42.8826 310.958 43.8384C310.987 43.924 311.273 44.6801 310.958 44.9654C310.715 45.1794 310.242 45.0082 309.598 44.7657C308.295 44.2806 308.052 43.7956 307.193 43.7671C307.092 43.7671 306.778 43.8099 306.148 43.924C304.644 44.1808 304.315 44.3234 304.086 44.1237C303.785 43.8527 303.857 43.1822 304.129 42.7685H304.115Z" fill="url(#paint29_linear_1093_3497)"/>
<path d="M298.873 40.6714C298.901 40.2434 300.061 40.0294 300.304 39.9724C300.991 39.844 301.55 39.7441 301.893 40.0865C302.237 40.4289 302.28 41.1136 302.008 41.3276C301.736 41.5416 301.349 41.0708 300.533 41.0994C299.732 41.1136 299.001 41.5987 299.016 41.6415C299.016 41.67 298.228 41.3704 298.271 41.2278C298.357 40.9995 298.83 41.0138 298.858 40.6857L298.873 40.6714Z" fill="url(#paint30_linear_1093_3497)"/>
<path d="M305.516 39.5872C305.329 39.6728 304.771 39.9153 304.785 40.2434C304.785 40.6286 305.516 40.9852 306.146 40.9852C306.26 40.9852 306.847 40.9567 307.277 40.4859C307.391 40.3575 307.692 40.0152 307.591 39.7584C307.434 39.3304 306.332 39.2448 305.53 39.6014L305.516 39.5872Z" fill="url(#paint31_linear_1093_3497)"/>
<path d="M311.46 39.8582C310.759 39.6157 309.828 39.8582 309.757 40.2434C309.685 40.5715 310.215 40.971 310.644 41.1279C311.36 41.3847 312.305 41.1707 312.391 40.7855C312.462 40.4574 311.933 40.0151 311.46 39.8582Z" fill="url(#paint32_linear_1093_3497)"/>
<path d="M315.411 46.8199C316.012 46.3206 317.286 46.663 317.544 47.4048C317.744 47.9612 317.286 48.5318 317.229 48.6032C316.885 49.0311 316.212 49.3592 315.711 49.1453C314.952 48.8314 314.738 47.362 315.396 46.8199H315.411Z" fill="url(#paint33_linear_1093_3497)"/>
<path d="M353.737 57.5193C354.352 57.7333 354.925 58.5036 354.782 59.2597C354.624 60.1299 353.637 60.4438 353.508 60.4723C352.491 60.7719 351.217 60.244 351.06 59.545C350.859 58.6177 352.52 57.077 353.737 57.5193Z" fill="url(#paint34_linear_1093_3497)"/>
<path d="M402.252 118.363C403.125 118.577 403.097 119.989 404.228 120.332C404.958 120.546 405.53 120.146 405.659 120.374C405.817 120.645 405.201 121.53 404.457 121.615C403.784 121.687 403.583 121.059 402.51 120.617C401.178 120.046 400.262 120.503 400.104 120.118C399.89 119.59 401.264 118.149 402.238 118.377L402.252 118.363Z" fill="url(#paint35_linear_1093_3497)"/>
<path d="M382.81 220.206C381.837 220.378 380.863 221.305 381.021 222.147C381.15 222.789 381.894 223.102 382.023 223.145C382.825 223.473 383.884 223.274 384.428 222.532C384.714 222.147 385.001 221.419 384.657 220.834C384.271 220.149 383.297 220.121 382.796 220.221L382.81 220.206Z" fill="url(#paint36_linear_1093_3497)"/>
<path d="M335.324 223.459C335.066 222.346 339.132 220.221 342.626 219.122C346.935 217.781 350.643 217.924 352.876 218.038C356.112 218.195 358.617 218.78 360.793 219.279C364.53 220.135 366.405 220.563 367.937 221.291C368.395 221.505 368.954 221.804 369.798 221.904C371.187 222.075 371.731 221.519 372.59 221.904C373.335 222.232 373.105 222.731 373.993 223.445C374.995 224.272 376.241 224.429 377.1 224.529C378.689 224.729 379.29 224.358 379.734 224.843C380.206 225.342 380.149 226.355 379.734 227.011C379.018 228.152 377.286 228.167 375.697 228.252C368.667 228.623 365.747 230.321 364.831 228.866C364.158 227.796 365.274 226.127 364.516 225.613C363.857 225.171 362.883 226.355 361.724 225.927C360.722 225.556 360.922 224.472 359.863 223.759C359.247 223.345 358.832 223.473 355.983 223.602C352.79 223.744 352.06 223.63 351.33 223.288C350.586 222.945 350.757 222.817 349.626 222.204C348.424 221.562 346.462 220.763 346.062 221.276C345.775 221.647 346.477 222.403 346.219 222.674C345.875 223.017 344.701 221.662 343.112 221.747C342.411 221.776 342.411 222.061 340.321 223.145C338.173 224.244 337.472 224.301 336.899 224.229C336.741 224.201 335.482 224.03 335.353 223.459H335.324Z" fill="url(#paint37_linear_1093_3497)"/>
<path d="M382.312 226.355C382.985 225.399 384.717 226.426 387.895 226.127C390.157 225.913 390.315 225.285 393.135 225.085C395.239 224.928 396.156 225.199 396.514 225.314C397.802 225.742 397.788 226.198 399.42 226.94C401.281 227.782 402.355 227.653 402.57 228.338C402.727 228.866 402.269 229.565 401.753 229.964C400.236 231.12 398.561 229.408 395.698 230.307C394.882 230.563 394.753 230.792 393.607 231.12C392.204 231.519 391.646 231.391 391.159 231.933C390.773 232.375 390.973 232.646 390.458 233.673C390.071 234.458 389.885 234.843 389.527 235.071C388.425 235.756 387.222 234.03 384.631 234.03C383.371 234.03 383.099 234.429 382.183 234.144C380.794 233.702 379.821 232.261 380.093 231.819C380.408 231.334 382.083 232.532 383.586 231.819C384.774 231.262 385.647 229.907 385.332 229.265C384.96 228.523 383.199 229.237 382.426 228.224C382.054 227.725 381.954 226.883 382.312 226.369V226.355Z" fill="url(#paint38_linear_1093_3497)"/>
<path d="M367.404 35.9922C365.485 36.3203 364.24 36.035 361.577 36.5771C360.833 36.7198 359.873 36.9623 359.243 37.7326C358.828 38.2462 358.943 38.503 358.542 38.8882C357.597 39.8012 356.151 39.1449 355.865 39.7013C355.55 40.3147 356.981 41.67 357.84 42.4831C358.871 43.4532 359.372 43.9382 359.931 44.1094C361.634 44.6373 362.536 43.2107 364.827 43.4104C365.557 43.4817 366.13 43.7243 367.275 44.2236C368.836 44.9083 369.809 45.536 372.042 47.0054C376.71 50.0725 377.211 50.4434 378.213 50.3721C378.657 50.3436 379.544 50.1867 380.546 50.6004C380.69 50.6574 381.978 51.1995 381.95 51.87C381.921 52.6118 380.36 52.7545 380.317 53.4963C380.289 54.0812 381.234 54.5805 381.835 54.8944C382.465 55.2225 383.138 55.5791 383.811 55.3651C384.555 55.1226 384.641 54.3951 385.085 54.4379C385.4 54.4664 385.572 54.823 386.244 56.1783C386.731 57.1484 386.975 57.6334 387.06 57.8046C387.733 59.0885 388.063 59.7447 388.578 60.244C389.337 60.9859 389.68 60.8147 390.668 61.6421C391.427 62.2841 391.67 62.7548 392.186 63.3825C393.961 65.5652 396.581 66.5923 396.724 66.3926C396.824 66.2499 395.708 65.3369 395.794 65.2371C395.894 65.1087 397.612 66.3355 400.217 68.133C403.925 70.7009 404.598 71.0861 405.686 71.3856C407.318 71.8421 407.376 71.4142 409.065 71.9705C410.511 72.4556 411.456 73.0975 413.26 73.3686C413.46 73.3971 414.09 73.4827 414.892 73.3686C415.536 73.2687 416.352 73.1546 416.638 72.6696C417.025 72.0133 416.252 70.9149 415.593 70.0019C413.789 67.4911 412.558 67.4625 411.399 65.3655C410.74 64.1671 411.012 63.9532 410.354 63.1543C409.194 61.7562 407.777 61.7705 407.562 60.7148C407.462 60.2583 407.691 59.8303 408.149 58.9744C409.094 57.1912 409.895 57.1198 409.895 56.4208C409.895 55.5221 408.292 54.6519 405.128 52.94C403.911 52.2837 403.496 52.1268 403.152 51.5419C402.465 50.4149 403.181 49.6018 402.68 47.9469C402.379 46.9341 401.535 45.3506 400.475 45.2792C400.189 45.265 400.003 45.3648 397.569 46.9055C396.767 47.4191 396.452 47.6188 396.166 47.4904C395.679 47.2764 395.493 46.2065 395.822 45.4076C396.209 44.4233 397.168 44.2806 397.096 43.8954C397.025 43.4389 395.622 43.3961 392.902 42.854C390.94 42.4546 390.325 42.2121 390.11 41.6985C389.852 41.0566 390.454 40.6286 390.224 39.844C390.024 39.1592 389.365 38.8311 388.134 38.2177C386.76 37.5472 385.729 37.0336 384.526 37.2904C383.61 37.4901 383.539 37.9323 382.894 37.8753C381.964 37.7897 381.692 36.8339 380.561 35.9066C379.716 35.2076 378.914 34.9651 377.884 34.6369C375.249 33.7953 372.916 34.266 371.713 34.5228C369.165 35.0649 369.652 35.6498 367.404 36.035V35.9922Z" fill="url(#paint39_linear_1093_3497)"/>
<path style="mix-blend-mode:multiply" opacity="0.63" d="M345.649 304.96C254.381 304.96 180.394 231.234 180.394 140.289C180.394 129.619 181.424 119.19 183.371 109.09C170.887 132.258 163.801 158.749 163.801 186.882C163.801 277.826 237.789 351.552 329.057 351.552C409.616 351.552 476.703 294.103 491.334 218.081C463.46 269.794 408.685 304.96 345.649 304.96Z" fill="url(#paint40_linear_1093_3497)"/>
<path opacity="0.49" d="M46.0942 33.3245C46.0942 33.3245 28.7569 165.026 98.3209 265.087C178.708 380.697 257.907 337.97 257.907 337.97C257.907 337.97 325.882 279.096 245.509 163.486C175.931 63.4253 46.0942 33.3245 46.0942 33.3245Z" fill="#27E124"/>
<path d="M82.4239 81.7366L75.5156 86.505L253.225 342.145L260.133 337.376L82.4239 81.7366Z" fill="#27E124"/>
<path d="M74.6828 90.0168C69.6577 90.5161 64.5181 88.3619 61.4543 83.9538C56.9589 77.4914 58.5767 68.5753 65.0764 64.0958C71.5761 59.6164 80.5096 61.2284 85.005 67.7051C89.5004 74.1675 87.8827 83.0836 81.383 87.5631C79.3214 88.9896 77.0164 89.7885 74.6828 90.031V90.0168ZM72.6212 69.9591C71.662 70.0589 70.7028 70.387 69.8581 70.9719C67.181 72.8265 66.5081 76.5071 68.3692 79.1748C70.2304 81.8425 73.924 82.513 76.6012 80.6584C79.2784 78.8039 79.9513 75.1233 78.0901 72.4556C76.816 70.6296 74.6971 69.7451 72.6212 69.9448V69.9591Z" fill="#27E124"/>
<path d="M163.861 210.463L125.406 210.049L81.9414 147.508L88.842 142.743L129.845 201.718L163.947 202.075L163.861 210.463Z" fill="#27E124"/>
<path d="M118.316 196.568L89.0529 197.082L79.2461 182.973L86.161 178.194L93.4051 188.636L118.173 188.194L118.316 196.568Z" fill="#27E124"/>
<path d="M237.604 316.829L166.25 312.478L111.891 234.301L118.806 229.536L170.832 304.36L238.119 308.455L237.604 316.829Z" fill="#27E124"/>
<path d="M169.458 304.075L161.083 303.362L164.604 262.376L153.48 246.37L160.395 241.605L173.237 260.094L169.458 304.075Z" fill="#27E124"/>
<path d="M82.1984 152.629C77.1733 153.129 72.0337 150.974 68.97 146.566C64.4746 140.104 66.0923 131.188 72.592 126.708C79.0918 122.229 88.0253 123.841 92.5207 130.318C97.016 136.78 95.3983 145.696 88.8986 150.176C86.837 151.602 84.532 152.401 82.1984 152.644V152.629ZM80.1369 132.572C79.1776 132.671 78.2184 133 77.3738 133.584C74.6966 135.439 74.0237 139.12 75.8848 141.787C77.746 144.455 81.4397 145.126 84.1169 143.271C86.794 141.416 87.4669 137.736 85.6058 135.068C84.3316 133.242 82.2128 132.358 80.1369 132.557V132.572Z" fill="#27E124"/>
<path d="M78.8886 187.195C73.8635 187.695 68.7239 185.541 65.6602 181.132C63.4841 177.994 62.6537 174.214 63.3409 170.462C64.0281 166.71 66.1326 163.443 69.2823 161.274C75.7676 156.795 84.7155 158.407 89.2109 164.884C93.7063 171.346 92.0885 180.262 85.5888 184.742C83.5272 186.168 81.2222 186.967 78.8886 187.21V187.195ZM76.8271 167.138C75.8679 167.238 74.9086 167.566 74.064 168.151C72.7612 169.049 71.8879 170.39 71.6158 171.945C71.3295 173.5 71.6731 175.055 72.5751 176.353C74.4362 179.021 78.1299 179.692 80.8071 177.837C82.1099 176.938 82.9832 175.597 83.2552 174.042C83.5415 172.487 83.1979 170.932 82.296 169.634C81.0218 167.808 78.903 166.924 76.8271 167.123V167.138Z" fill="#27E124"/>
<path d="M111.817 238.937C110.5 239.066 109.14 239.023 107.794 238.78C104.029 238.096 100.75 235.999 98.5742 232.86C96.3981 229.722 95.5678 225.941 96.255 222.189C96.9421 218.437 99.0467 215.171 102.196 213.002C108.682 208.523 117.63 210.135 122.125 216.611C124.301 219.75 125.131 223.53 124.444 227.282C123.757 231.034 121.652 234.287 118.503 236.469C116.484 237.867 114.194 238.709 111.803 238.937H111.817ZM109.755 218.865C108.796 218.965 107.837 219.293 106.992 219.878C105.69 220.777 104.831 222.118 104.544 223.673C104.258 225.228 104.601 226.783 105.503 228.081C106.405 229.379 107.751 230.25 109.312 230.521C110.858 230.806 112.433 230.463 113.735 229.565C115.038 228.666 115.912 227.325 116.184 225.77C116.456 224.215 116.126 222.66 115.224 221.362C113.95 219.536 111.831 218.651 109.755 218.851V218.865Z" fill="#27E124"/>
<path d="M152.635 249.894C147.61 250.393 142.47 248.239 139.406 243.831C137.23 240.692 136.4 236.912 137.087 233.16C137.774 229.408 139.879 226.155 143.028 223.973C146.178 221.804 149.972 220.977 153.737 221.662C157.502 222.346 160.781 224.443 162.957 227.582C165.133 230.72 165.963 234.501 165.276 238.253C164.589 242.005 162.485 245.257 159.335 247.44C157.273 248.866 154.968 249.665 152.635 249.908V249.894ZM150.573 229.836C149.585 229.936 148.64 230.278 147.81 230.863C146.507 231.762 145.634 233.103 145.362 234.658C145.076 236.213 145.419 237.768 146.321 239.066C148.182 241.734 151.862 242.404 154.553 240.549C155.856 239.651 156.715 238.31 157.001 236.755C157.288 235.2 156.944 233.645 156.042 232.347C155.14 231.048 153.794 230.178 152.234 229.907C151.676 229.807 151.117 229.779 150.573 229.836Z" fill="#27E124"/>
<path d="M148.798 180.291L140.895 177.423L152.535 145.482L119.664 98.2196L126.579 93.4406L161.912 144.27L148.798 180.291Z" fill="#27E124"/>
<path d="M163.243 201.233L155.426 198.151L177.616 142.244L170.372 131.816L177.273 127.036L187.094 141.16L163.243 201.233Z" fill="#27E124"/>
<path d="M250.129 325.731L242.083 323.277L261.883 259.066L233.336 218.009L240.251 213.23L271.117 257.64L250.129 325.731Z" fill="#27E124"/>
<path d="M253.854 245.814L211.19 233.887L191.477 205.541L198.391 200.762L216.373 226.64L256.116 237.753L253.854 245.814Z" fill="#27E124"/>
<path d="M119.937 103.327C114.912 103.826 109.772 101.672 106.708 97.2638C102.213 90.8014 103.831 81.8853 110.33 77.4058C116.816 72.9263 125.764 74.5384 130.259 81.0151C134.754 87.4775 133.137 96.3936 126.637 100.873C124.575 102.3 122.27 103.098 119.937 103.341V103.327ZM117.875 83.269C116.916 83.3689 115.957 83.697 115.112 84.2819C113.809 85.1807 112.936 86.5216 112.664 88.0766C112.378 89.6316 112.721 91.1866 113.623 92.4848C115.484 95.1525 119.178 95.8229 121.855 93.9684C124.532 92.1138 125.205 88.4333 123.344 85.7656C122.07 83.9395 119.951 83.0551 117.875 83.2548V83.269Z" fill="#27E124"/>
<path d="M170.016 136.038C168.699 136.167 167.339 136.124 165.993 135.881C162.228 135.197 158.95 133.099 156.773 129.961C154.597 126.823 153.767 123.042 154.454 119.29C155.141 115.538 157.246 112.271 160.396 110.103C163.545 107.935 167.339 107.107 171.104 107.792C174.87 108.477 178.148 110.574 180.324 113.712C182.5 116.851 183.331 120.631 182.643 124.383C181.956 128.135 179.852 131.402 176.702 133.57C174.683 134.968 172.393 135.81 170.002 136.038H170.016ZM167.955 115.966C166.967 116.066 166.022 116.408 165.192 116.993C163.889 117.892 163.015 119.233 162.743 120.788C162.457 122.343 162.801 123.898 163.703 125.196C164.605 126.494 165.95 127.365 167.511 127.636C169.057 127.921 170.632 127.579 171.935 126.68C173.237 125.781 174.111 124.44 174.383 122.885C174.669 121.33 174.326 119.775 173.424 118.477C172.522 117.179 171.176 116.309 169.615 116.038C169.057 115.938 168.499 115.909 167.955 115.966Z" fill="#27E124"/>
<path d="M233.266 222.646C231.949 222.774 230.589 222.731 229.243 222.489C225.478 221.804 222.2 219.707 220.023 216.569C217.847 213.43 217.017 209.65 217.704 205.898C218.391 202.146 220.496 198.879 223.646 196.711C226.795 194.542 230.589 193.715 234.354 194.4C238.12 195.084 241.398 197.181 243.574 200.32C245.75 203.458 246.581 207.239 245.893 210.991C245.206 214.743 243.102 217.995 239.952 220.178C237.933 221.576 235.643 222.418 233.252 222.646H233.266ZM231.205 202.574C230.217 202.674 229.272 203.016 228.442 203.601C227.139 204.5 226.265 205.841 225.993 207.396C225.707 208.951 226.051 210.506 226.953 211.804C227.855 213.102 229.2 213.972 230.761 214.243C232.321 214.529 233.882 214.186 235.185 213.287C236.487 212.389 237.361 211.048 237.633 209.493C237.919 207.938 237.576 206.383 236.674 205.085C235.772 203.786 234.426 202.931 232.865 202.645C232.307 202.545 231.749 202.517 231.205 202.574Z" fill="#27E124"/>
<path d="M190.632 209.065C185.607 209.564 180.467 207.41 177.404 203.002C172.908 196.539 174.526 187.623 181.026 183.144C187.511 178.664 196.459 180.276 200.954 186.753C205.45 193.216 203.832 202.132 197.332 206.611C195.271 208.038 192.966 208.837 190.632 209.079V209.065ZM188.57 189.007C187.611 189.107 186.652 189.435 185.807 190.02C183.13 191.875 182.457 195.555 184.318 198.223C186.18 200.891 189.873 201.561 192.55 199.706C195.228 197.852 195.901 194.171 194.039 191.504C192.765 189.678 190.646 188.793 188.57 188.993V189.007Z" fill="#27E124"/>
<path d="M231.247 349.369C224.375 350.054 216.473 350.139 207.725 349.041C179.651 345.489 137.274 328.47 94.8681 267.469C58.4039 215.042 45.9628 154.027 41.9256 112.086C37.5733 66.7065 41.7395 34.1519 41.9256 32.7824L42.5269 28.2031L47.0509 29.2445C48.3966 29.5583 80.4514 37.1049 121.554 57.1198C159.55 75.6226 212.507 108.676 248.957 161.103C291.363 222.089 292.479 267.612 285.937 295.059C278.764 325.188 261.398 340.51 260.668 341.138L260.324 341.437L259.923 341.651C259.308 341.979 248.628 347.628 231.276 349.369H231.247ZM49.7567 38.6028C48.7832 49.2451 46.9793 76.8352 50.3151 111.501C54.2664 152.401 66.3925 211.818 101.769 262.69C133.938 308.954 170.932 335.945 208.77 340.724C234.626 343.991 252.536 335.931 255.471 334.49C257.833 332.264 271.949 318.07 277.862 292.591C286.438 255.728 274.04 211.904 242.028 165.868C206.652 114.996 155.083 82.7983 118.047 64.7378C86.6504 49.4448 60.0932 41.4275 49.7567 38.6028Z" fill="#27E124"/>
<path d="M83.6192 79.9649L76.7109 84.7332L254.42 340.373L261.328 335.604L83.6192 79.9649Z" fill="#27E124"/>
<path d="M75.8703 88.2478C70.8452 88.7471 65.7056 86.593 62.6418 82.1848C58.1464 75.7224 59.7642 66.8063 66.2639 62.3269C72.7636 57.8474 81.6971 59.4594 86.1925 65.9361C90.6879 72.3985 89.0702 81.3146 82.5705 85.7941C80.5089 87.2207 78.2039 88.0195 75.8703 88.2621V88.2478ZM73.8087 68.1901C72.8495 68.29 71.8903 68.6181 71.0456 69.203C68.3685 71.0575 67.6956 74.7381 69.5567 77.4058C71.4179 80.0735 75.1115 80.744 77.7887 78.8894C80.4659 77.0349 81.1388 73.3543 79.2776 70.6866C78.0035 68.8606 75.8846 67.9761 73.8087 68.1758V68.1901Z" fill="#27E124"/>
<path d="M165.048 208.68L126.608 208.266L83.1289 145.739L90.0295 140.96L131.032 199.935L165.134 200.306L165.048 208.68Z" fill="#27E124"/>
<path d="M119.507 194.799L90.2443 195.313L80.4375 181.189L87.3524 176.425L94.5965 186.853L119.364 186.425L119.507 194.799Z" fill="#27E124"/>
<path d="M238.792 315.045L167.438 310.709L113.078 232.518L119.993 227.753L172.019 302.591L239.307 306.686L238.792 315.045Z" fill="#27E124"/>
<path d="M170.645 302.292L162.27 301.578L165.792 260.607L154.668 244.601L161.583 239.822L174.425 258.31L170.645 302.292Z" fill="#27E124"/>
<path d="M83.3859 150.846C78.3608 151.345 73.2212 149.191 70.1575 144.783C65.6621 138.321 67.2798 129.405 73.7795 124.925C80.2793 120.446 89.2128 122.058 93.7082 128.534C98.2035 134.997 96.5858 143.913 90.0861 148.392C88.0245 149.819 85.7195 150.618 83.3859 150.86V150.846ZM81.3244 130.788C80.3652 130.888 79.4059 131.216 78.5613 131.801C75.8841 133.656 75.2112 137.336 77.0723 140.004C78.9335 142.672 82.6272 143.342 85.3044 141.488C87.9815 139.633 88.6544 135.953 86.7933 133.285C85.5191 131.459 83.4003 130.574 81.3244 130.774V130.788Z" fill="#27E124"/>
<path d="M80.0801 185.412C75.0549 185.911 69.9153 183.757 66.8516 179.349C64.6755 176.211 63.8451 172.43 64.5323 168.678C65.2195 164.926 67.324 161.66 70.4737 159.491C76.959 155.012 85.9069 156.624 90.4023 163.1C94.8977 169.563 93.2799 178.479 86.7802 182.958C84.7186 184.385 82.4136 185.184 80.0801 185.426V185.412ZM78.0185 165.354C77.0593 165.454 76.1001 165.782 75.2554 166.367C73.9526 167.266 73.0793 168.607 72.8073 170.162C72.5209 171.717 72.8645 173.272 73.7665 174.57C75.6276 177.238 79.3213 177.908 81.9985 176.054C83.3013 175.155 84.1746 173.814 84.4466 172.259C84.7329 170.704 84.3893 169.149 83.4874 167.851C82.2132 166.025 80.0944 165.14 78.0185 165.34V165.354Z" fill="#27E124"/>
<path d="M113.008 237.168C111.691 237.297 110.331 237.254 108.985 237.012C105.22 236.327 101.942 234.23 99.7656 231.091C97.5895 227.953 96.7592 224.172 97.4464 220.42C98.1336 216.668 100.238 213.402 103.388 211.233C109.873 206.754 118.821 208.366 123.316 214.842C125.492 217.981 126.323 221.761 125.636 225.513C124.948 229.265 122.844 232.518 119.694 234.7C117.676 236.098 115.385 236.94 112.994 237.168H113.008ZM110.947 217.096C109.988 217.196 109.028 217.524 108.184 218.109C106.881 219.008 106.022 220.349 105.736 221.904C105.449 223.459 105.793 225.014 106.695 226.312C107.597 227.61 108.943 228.481 110.503 228.752C112.049 229.037 113.624 228.695 114.927 227.796C116.23 226.897 117.103 225.556 117.375 224.001C117.661 222.446 117.318 220.891 116.416 219.593C115.142 217.767 113.023 216.882 110.947 217.082V217.096Z" fill="#27E124"/>
<path d="M153.822 248.125C148.797 248.624 143.657 246.47 140.594 242.062C138.418 238.923 137.587 235.143 138.274 231.391C138.962 227.639 141.066 224.386 144.216 222.204C147.365 220.035 151.159 219.208 154.925 219.893C158.69 220.577 161.968 222.674 164.144 225.813C166.321 228.951 167.151 232.732 166.464 236.484C165.777 240.236 163.672 243.488 160.522 245.671C158.461 247.097 156.156 247.896 153.822 248.139V248.125ZM151.761 228.067C150.773 228.167 149.828 228.509 148.998 229.094C147.695 229.993 146.821 231.334 146.549 232.889C146.263 234.444 146.607 235.999 147.509 237.297C149.37 239.965 153.049 240.635 155.741 238.78C157.043 237.882 157.902 236.541 158.189 234.986C158.475 233.431 158.132 231.876 157.23 230.578C156.328 229.279 154.982 228.409 153.421 228.138C152.863 228.038 152.305 228.01 151.761 228.067Z" fill="#27E124"/>
<path d="M149.986 178.507L142.083 175.654L153.722 143.713L120.852 96.4364L127.766 91.6716L163.114 142.501L149.986 178.507Z" fill="#27E124"/>
<path d="M164.434 199.464L156.617 196.383L178.808 140.461L171.564 130.032L178.464 125.268L188.285 139.376L164.434 199.464Z" fill="#27E124"/>
<path d="M251.317 323.962L243.271 321.494L263.071 257.297L234.523 216.226L241.438 211.461L272.305 255.871L251.317 323.962Z" fill="#27E124"/>
<path d="M255.041 244.045L212.378 232.118L192.664 203.758L199.579 198.993L217.561 224.857L257.303 235.97L255.041 244.045Z" fill="#27E124"/>
<path d="M121.124 101.558C116.099 102.057 110.959 99.903 107.896 95.4948C103.4 89.0324 105.018 80.1163 111.518 75.6369C118.003 71.1574 126.951 72.7694 131.446 79.2461C135.942 85.7085 134.324 94.6246 127.824 99.1041C125.763 100.531 123.458 101.33 121.124 101.572V101.558ZM119.063 81.5001C118.103 81.6 117.144 81.9281 116.3 82.513C114.997 83.4117 114.123 84.7527 113.851 86.3077C113.579 87.8626 113.909 89.4176 114.811 90.7158C116.672 93.3835 120.365 94.054 123.043 92.1994C125.72 90.3449 126.393 86.6643 124.532 83.9966C123.257 82.1706 121.139 81.2861 119.063 81.4858V81.5001Z" fill="#27E124"/>
<path d="M171.204 134.269C169.887 134.398 168.527 134.355 167.181 134.112C163.416 133.428 160.137 131.33 157.961 128.192C155.785 125.054 154.954 121.273 155.642 117.521C156.329 113.769 158.433 110.502 161.583 108.334C164.733 106.166 168.527 105.338 172.292 106.023C176.057 106.708 179.336 108.805 181.512 111.943C183.688 115.082 184.518 118.862 183.831 122.614C183.144 126.366 181.039 129.633 177.89 131.801C175.871 133.199 173.58 134.041 171.189 134.269H171.204ZM169.142 114.197C168.154 114.297 167.209 114.64 166.379 115.224C165.076 116.123 164.203 117.464 163.931 119.019C163.645 120.574 163.988 122.129 164.89 123.427C165.792 124.725 167.138 125.596 168.698 125.867C170.245 126.152 171.819 125.81 173.122 124.911C174.425 124.012 175.298 122.671 175.57 121.116C175.857 119.561 175.513 118.006 174.611 116.708C173.709 115.41 172.363 114.54 170.803 114.269C170.245 114.169 169.686 114.14 169.142 114.197Z" fill="#27E124"/>
<path d="M234.454 220.863C233.137 220.991 231.777 220.948 230.431 220.706C226.666 220.021 223.387 217.924 221.211 214.785C219.035 211.647 218.204 207.866 218.892 204.115C219.579 200.363 221.683 197.096 224.833 194.927C227.983 192.759 231.777 191.932 235.542 192.616C239.307 193.301 242.586 195.398 244.762 198.537C246.938 201.675 247.768 205.456 247.081 209.207C246.394 212.959 244.289 216.212 241.14 218.395C239.121 219.793 236.83 220.634 234.439 220.863H234.454ZM232.392 200.791C231.404 200.891 230.459 201.233 229.629 201.818C228.326 202.717 227.453 204.058 227.181 205.612C226.895 207.167 227.238 208.722 228.14 210.021C229.042 211.319 230.388 212.189 231.948 212.46C233.509 212.745 235.069 212.403 236.372 211.504C237.675 210.606 238.548 209.265 238.82 207.71C239.107 206.155 238.763 204.6 237.861 203.301C236.959 202.003 235.613 201.147 234.053 200.862C233.495 200.762 232.936 200.734 232.392 200.791Z" fill="#27E124"/>
<path d="M191.82 207.282C186.794 207.781 181.655 205.627 178.591 201.219C174.096 194.756 175.713 185.84 182.213 181.361C188.699 176.881 197.646 178.493 202.142 184.97C206.637 191.432 205.019 200.348 198.52 204.828C196.458 206.254 194.153 207.053 191.82 207.296V207.282ZM189.758 187.224C188.799 187.324 187.84 187.652 186.995 188.237C184.318 190.091 183.645 193.772 185.506 196.44C187.367 199.107 191.061 199.778 193.738 197.923C196.415 196.069 197.088 192.388 195.227 189.72C193.953 187.894 191.834 187.01 189.758 187.21V187.224Z" fill="#27E124"/>
<g style="mix-blend-mode:multiply" opacity="0.63">
<path d="M261.768 301.393C266.593 288.254 274.782 277.398 283.142 266.342C284.689 264.288 286.55 262.562 288.626 261.306C288.468 258.838 288.253 256.313 287.953 253.717C286.807 254.459 285.662 255.2 284.517 255.985C220.15 299.881 239.277 343.634 241.31 347.828C252.648 345.474 259.406 341.922 259.892 341.651L260.293 341.437L260.637 341.138C260.637 341.138 260.794 341.009 260.952 340.852C256.456 328.455 257.301 313.562 261.754 301.393H261.768Z" fill="#27E124"/>
</g>
<path opacity="0.49" d="M440.063 219.85C440.063 219.85 363.298 209.379 304.715 249.337C237.026 295.501 261.679 341.508 261.679 341.508C261.679 341.508 295.796 381.068 363.484 334.903C422.068 294.945 440.049 219.85 440.049 219.85H440.063Z" fill="#27E124"/>
<path d="M255.127 326.03C254.74 322.05 254.726 317.471 255.399 312.406C257.56 296.157 267.625 271.677 303.345 247.311C334.039 226.369 369.673 219.365 394.154 217.168C420.64 214.8 439.609 217.31 440.411 217.425L443.088 217.795L442.458 220.406C442.272 221.176 437.763 239.722 425.951 263.46C415.042 285.401 395.586 315.958 364.891 336.901C329.186 361.252 302.629 361.752 286.637 357.871C269.085 353.62 260.209 343.506 259.837 343.078L259.665 342.878L259.536 342.635C259.35 342.279 256.086 336.073 255.127 326.016V326.03ZM436.975 221.947C430.776 221.348 414.684 220.206 394.455 222.032C370.589 224.187 335.886 231.02 306.108 251.334C279.021 269.809 263.158 291.15 260.252 313.048C258.262 328.013 262.9 338.413 263.731 340.11C265.019 341.48 273.251 349.697 288.098 353.221C309.572 358.299 335.17 351.266 362.128 332.892C391.921 312.577 410.862 282.819 421.513 261.42C430.547 243.288 435.3 227.938 436.99 221.961L436.975 221.947Z" fill="#27E124"/>
<path d="M409.978 237.406L260.305 339.488L263.062 343.502L412.736 241.42L409.978 237.406Z" fill="#27E124"/>
<path d="M407.938 236.912C407.666 234.001 408.941 231.034 411.518 229.265C415.311 226.683 420.494 227.653 423.085 231.419C425.677 235.2 424.703 240.364 420.924 242.946C417.13 245.528 411.947 244.558 409.356 240.792C408.54 239.594 408.067 238.253 407.938 236.912ZM419.649 235.785C419.592 235.228 419.406 234.672 419.062 234.187C417.989 232.632 415.855 232.232 414.281 233.288C412.72 234.358 412.319 236.484 413.393 238.053C414.467 239.608 416.6 240.007 418.175 238.952C419.248 238.224 419.764 236.997 419.649 235.799V235.785Z" fill="#27E124"/>
<path d="M337.402 288.154L337.76 265.9L374.382 240.92L377.145 244.943L342.614 268.496L342.284 288.24L337.402 288.154Z" fill="#27E124"/>
<path d="M345.65 261.834L345.449 244.886L353.71 239.251L356.473 243.274L350.36 247.44L350.532 261.777L345.65 261.834Z" fill="#27E124"/>
<path d="M275.125 330.524L277.888 289.21L323.658 257.982L326.421 262.005L282.598 291.892L279.993 330.838L275.125 330.524Z" fill="#27E124"/>
<path d="M282.785 291.093L283.229 286.243L307.109 288.425L316.486 282.034L319.249 286.057L308.426 293.433L282.785 291.093Z" fill="#27E124"/>
<path d="M371.407 241.063C371.135 238.153 372.409 235.185 374.986 233.417C378.78 230.834 383.963 231.804 386.554 235.571C389.145 239.351 388.172 244.515 384.392 247.097C380.598 249.68 375.416 248.709 372.824 244.943C372.008 243.745 371.536 242.404 371.407 241.063ZM383.118 239.936C383.061 239.38 382.875 238.823 382.531 238.338C381.457 236.783 379.324 236.384 377.749 237.44C376.189 238.509 375.788 240.649 376.847 242.204C377.921 243.759 380.054 244.159 381.629 243.103C382.703 242.375 383.218 241.149 383.104 239.95L383.118 239.936Z" fill="#27E124"/>
<path d="M351.247 239.023C350.975 236.113 352.249 233.145 354.826 231.377C356.659 230.121 358.878 229.665 361.054 230.064C363.244 230.478 365.134 231.705 366.394 233.531C368.985 237.311 368.012 242.475 364.232 245.057C360.438 247.64 355.256 246.669 352.664 242.903C351.848 241.705 351.376 240.364 351.247 239.023ZM362.958 237.896C362.901 237.34 362.715 236.783 362.371 236.298C361.856 235.542 361.068 235.029 360.166 234.872C359.264 234.7 358.348 234.9 357.589 235.414C356.029 236.484 355.628 238.624 356.687 240.179C357.203 240.935 357.99 241.448 358.892 241.605C359.794 241.776 360.71 241.577 361.469 241.063C362.543 240.335 363.058 239.109 362.944 237.91L362.958 237.896Z" fill="#27E124"/>
<path d="M320.951 257.925C320.88 257.155 320.908 256.384 321.066 255.6C321.481 253.417 322.712 251.534 324.545 250.279C326.377 249.023 328.596 248.567 330.772 248.966C332.963 249.38 334.853 250.607 336.112 252.433C338.704 256.213 337.73 261.378 333.951 263.96C332.118 265.215 329.899 265.672 327.723 265.272C325.532 264.858 323.643 263.631 322.383 261.805C321.581 260.636 321.094 259.295 320.966 257.925H320.951ZM332.662 256.798C332.605 256.242 332.419 255.685 332.075 255.2C331.56 254.444 330.772 253.931 329.87 253.774C328.968 253.603 328.052 253.802 327.293 254.316C326.535 254.829 326.019 255.614 325.862 256.513C325.69 257.412 325.89 258.325 326.406 259.081C326.921 259.837 327.709 260.35 328.611 260.507C329.512 260.678 330.429 260.479 331.188 259.965C332.261 259.238 332.777 258.011 332.662 256.812V256.798Z" fill="#27E124"/>
<path d="M314.438 281.535C314.166 278.625 315.441 275.658 318.018 273.889C319.85 272.633 322.069 272.177 324.245 272.576C326.436 272.99 328.325 274.217 329.585 276.043C330.845 277.869 331.303 280.08 330.902 282.248C330.502 284.417 329.256 286.314 327.424 287.57C325.591 288.825 323.372 289.281 321.196 288.882C319.005 288.468 317.116 287.241 315.856 285.415C315.04 284.217 314.567 282.876 314.438 281.535ZM326.149 280.408C326.092 279.837 325.892 279.295 325.562 278.81C325.047 278.054 324.26 277.541 323.358 277.384C322.456 277.213 321.539 277.412 320.781 277.926C319.22 278.996 318.819 281.121 319.879 282.691C320.394 283.447 321.181 283.96 322.083 284.117C322.985 284.288 323.902 284.089 324.66 283.575C325.419 283.062 325.935 282.277 326.092 281.378C326.149 281.05 326.164 280.736 326.135 280.422L326.149 280.408Z" fill="#27E124"/>
<path d="M355.039 279.538L356.743 274.973L375.326 281.82L403.014 262.932L405.763 266.955L375.998 287.256L355.039 279.538Z" fill="#27E124"/>
<path d="M342.785 287.841L344.603 283.318L377.145 296.357L383.244 292.192L386.007 296.215L377.746 301.85L342.785 287.841Z" fill="#27E124"/>
<path d="M269.883 337.742L271.343 333.092L308.724 344.775L332.761 328.37L335.524 332.393L309.525 350.125L269.883 337.742Z" fill="#27E124"/>
<path d="M316.473 340.153L323.574 315.488L340.181 304.175L342.944 308.184L327.783 318.526L321.183 341.494L316.473 340.153Z" fill="#27E124"/>
<path d="M400.024 263.075C399.752 260.165 401.026 257.198 403.603 255.429C407.397 252.847 412.58 253.817 415.171 257.583C417.763 261.363 416.789 266.527 413.009 269.11C409.216 271.692 404.033 270.722 401.442 266.955C400.626 265.757 400.153 264.416 400.024 263.075ZM411.735 261.948C411.678 261.392 411.492 260.835 411.148 260.35C410.633 259.594 409.845 259.081 408.944 258.924C408.042 258.753 407.125 258.952 406.367 259.466C404.806 260.536 404.405 262.676 405.465 264.231C406.538 265.786 408.672 266.185 410.246 265.129C411.32 264.402 411.835 263.175 411.721 261.977L411.735 261.948Z" fill="#27E124"/>
<path d="M380.784 291.963C380.712 291.193 380.741 290.423 380.884 289.638C381.299 287.455 382.53 285.572 384.363 284.317C386.195 283.062 388.415 282.605 390.591 283.004C392.781 283.418 394.671 284.645 395.931 286.471C397.191 288.297 397.649 290.508 397.248 292.677C396.833 294.859 395.601 296.742 393.769 297.998C391.936 299.253 389.717 299.71 387.541 299.31C385.351 298.897 383.461 297.67 382.201 295.844C381.399 294.674 380.913 293.333 380.784 291.963ZM392.495 290.836C392.437 290.266 392.237 289.724 391.908 289.239C391.392 288.482 390.605 287.969 389.703 287.812C388.801 287.641 387.885 287.841 387.126 288.354C386.367 288.868 385.852 289.652 385.694 290.551C385.523 291.45 385.723 292.363 386.238 293.119C386.754 293.875 387.541 294.389 388.443 294.545C389.345 294.717 390.261 294.517 391.02 294.003C391.779 293.49 392.294 292.705 392.452 291.806C392.509 291.478 392.523 291.164 392.495 290.851V290.836Z" fill="#27E124"/>
<path d="M330.057 328.313C329.985 327.542 330.014 326.772 330.171 325.987C330.586 323.805 331.818 321.922 333.65 320.666C335.483 319.411 337.702 318.954 339.878 319.354C342.068 319.767 343.958 320.994 345.218 322.82C346.478 324.646 346.936 326.858 346.535 329.026C346.12 331.209 344.889 333.092 343.056 334.347C341.224 335.602 339.004 336.059 336.828 335.659C334.638 335.246 332.748 334.019 331.488 332.193C330.687 331.023 330.2 329.682 330.071 328.313H330.057ZM341.768 327.186C341.71 326.615 341.51 326.073 341.181 325.588C340.665 324.832 339.878 324.318 338.976 324.161C338.074 323.99 337.158 324.19 336.399 324.703C335.64 325.217 335.125 326.002 334.967 326.9C334.795 327.799 334.996 328.712 335.511 329.468C336.027 330.224 336.814 330.738 337.716 330.895C338.618 331.066 339.534 330.866 340.293 330.353C341.052 329.839 341.567 329.054 341.725 328.156C341.782 327.842 341.796 327.514 341.768 327.2V327.186Z" fill="#27E124"/>
<path d="M338.118 303.676C337.846 300.765 339.12 297.798 341.697 296.029C345.491 293.447 350.674 294.417 353.265 298.183C355.856 301.964 354.883 307.128 351.103 309.71C347.309 312.292 342.127 311.322 339.535 307.556C338.719 306.358 338.247 305.017 338.118 303.676ZM349.829 302.549C349.772 301.992 349.586 301.436 349.242 300.951C348.168 299.396 346.035 298.996 344.46 300.052C342.9 301.122 342.499 303.262 343.558 304.817C344.632 306.372 346.765 306.771 348.34 305.716C349.414 304.988 349.929 303.761 349.815 302.563L349.829 302.549Z" fill="#27E124"/>
</g>
<defs>
<linearGradient id="paint0_linear_1093_3497" x1="407.883" y1="283.946" x2="501.313" y2="283.946" gradientUnits="userSpaceOnUse">
<stop stop-color="#59A1CB"/>
<stop offset="0.67" stop-color="#6ADAC9"/>
</linearGradient>
<linearGradient id="paint1_linear_1093_3497" x1="464.789" y1="223.659" x2="508.039" y2="223.659" gradientUnits="userSpaceOnUse">
<stop stop-color="#59A1CB"/>
<stop offset="0.67" stop-color="#6ADAC9"/>
</linearGradient>
<linearGradient id="paint2_linear_1093_3497" x1="399.232" y1="336.116" x2="456.112" y2="336.116" gradientUnits="userSpaceOnUse">
<stop stop-color="#59A1CB"/>
<stop offset="0.67" stop-color="#6ADAC9"/>
</linearGradient>
<linearGradient id="paint3_linear_1093_3497" x1="248.036" y1="348.321" x2="396.696" y2="49.9291" gradientUnits="userSpaceOnUse">
<stop offset="0.02" stop-color="#031603"/>
<stop offset="0.12" stop-color="#073406"/>
<stop offset="0.26" stop-color="#053F04"/>
<stop offset="0.41" stop-color="#085407" stop-opacity="0.58"/>
<stop offset="0.58" stop-color="#10890E" stop-opacity="0.52"/>
<stop offset="0.76" stop-color="#1CB819" stop-opacity="0.65"/>
<stop offset="0.95" stop-color="#1FCF1C" stop-opacity="0.8"/>
<stop offset="1" stop-color="#27E124" stop-opacity="0.74"/>
</linearGradient>
<linearGradient id="paint4_linear_1093_3497" x1="304.83" y1="79.0036" x2="401.998" y2="351.357" gradientUnits="userSpaceOnUse">
<stop stop-color="white"/>
<stop offset="1" stop-color="#A7CB59"/>
</linearGradient>
<linearGradient id="paint5_linear_1093_3497" x1="341.352" y1="65.9789" x2="438.52" y2="338.318" gradientUnits="userSpaceOnUse">
<stop stop-color="white"/>
<stop offset="1" stop-color="#59A1CB"/>
</linearGradient>
<linearGradient id="paint6_linear_1093_3497" x1="340.535" y1="66.2642" x2="437.689" y2="338.618" gradientUnits="userSpaceOnUse">
<stop stop-color="white"/>
<stop offset="1" stop-color="#59A1CB"/>
</linearGradient>
<linearGradient id="paint7_linear_1093_3497" x1="346.805" y1="64.0245" x2="443.973" y2="336.378" gradientUnits="userSpaceOnUse">
<stop stop-color="white"/>
<stop offset="1" stop-color="#59A1CB"/>
</linearGradient>
<linearGradient id="paint8_linear_1093_3497" x1="342.756" y1="65.4796" x2="439.924" y2="337.818" gradientUnits="userSpaceOnUse">
<stop stop-color="white"/>
<stop offset="1" stop-color="#59A1CB"/>
</linearGradient>
<linearGradient id="paint9_linear_1093_3497" x1="379.347" y1="52.4263" x2="476.501" y2="324.765" gradientUnits="userSpaceOnUse">
<stop stop-color="white"/>
<stop offset="1" stop-color="#59A1CB"/>
</linearGradient>
<linearGradient id="paint10_linear_1093_3497" x1="384.014" y1="50.7574" x2="481.181" y2="323.097" gradientUnits="userSpaceOnUse">
<stop stop-color="white"/>
<stop offset="1" stop-color="#59A1CB"/>
</linearGradient>
<linearGradient id="paint11_linear_1093_3497" x1="385.404" y1="50.258" x2="482.572" y2="322.597" gradientUnits="userSpaceOnUse">
<stop stop-color="white"/>
<stop offset="1" stop-color="#59A1CB"/>
</linearGradient>
<linearGradient id="paint12_linear_1093_3497" x1="394.596" y1="46.9768" x2="491.75" y2="319.33" gradientUnits="userSpaceOnUse">
<stop stop-color="white"/>
<stop offset="1" stop-color="#59A1CB"/>
</linearGradient>
<linearGradient id="paint13_linear_1093_3497" x1="306.03" y1="78.5756" x2="403.184" y2="350.929" gradientUnits="userSpaceOnUse">
<stop stop-color="white"/>
<stop offset="1" stop-color="#59A1CB"/>
</linearGradient>
<linearGradient id="paint14_linear_1093_3497" x1="313.321" y1="75.9792" x2="410.489" y2="348.318" gradientUnits="userSpaceOnUse">
<stop stop-color="white"/>
<stop offset="1" stop-color="#59A1CB"/>
</linearGradient>
<linearGradient id="paint15_linear_1093_3497" x1="329.038" y1="70.3728" x2="426.206" y2="342.712" gradientUnits="userSpaceOnUse">
<stop stop-color="white"/>
<stop offset="1" stop-color="#59A1CB"/>
</linearGradient>
<linearGradient id="paint16_linear_1093_3497" x1="332.66" y1="69.0746" x2="429.814" y2="341.414" gradientUnits="userSpaceOnUse">
<stop stop-color="white"/>
<stop offset="1" stop-color="#59A1CB"/>
</linearGradient>
<linearGradient id="paint17_linear_1093_3497" x1="335.968" y1="67.8905" x2="433.122" y2="340.244" gradientUnits="userSpaceOnUse">
<stop stop-color="white"/>
<stop offset="1" stop-color="#59A1CB"/>
</linearGradient>
<linearGradient id="paint18_linear_1093_3497" x1="357.974" y1="60.0443" x2="455.142" y2="332.383" gradientUnits="userSpaceOnUse">
<stop stop-color="white"/>
<stop offset="1" stop-color="#59A1CB"/>
</linearGradient>
<linearGradient id="paint19_linear_1093_3497" x1="352.749" y1="61.9132" x2="449.917" y2="334.252" gradientUnits="userSpaceOnUse">
<stop stop-color="white"/>
<stop offset="1" stop-color="#59A1CB"/>
</linearGradient>
<linearGradient id="paint20_linear_1093_3497" x1="343.139" y1="65.3369" x2="440.307" y2="337.676" gradientUnits="userSpaceOnUse">
<stop stop-color="white"/>
<stop offset="1" stop-color="#59A1CB"/>
</linearGradient>
<linearGradient id="paint21_linear_1093_3497" x1="350.958" y1="62.5551" x2="448.126" y2="334.894" gradientUnits="userSpaceOnUse">
<stop stop-color="white"/>
<stop offset="1" stop-color="#59A1CB"/>
</linearGradient>
<linearGradient id="paint22_linear_1093_3497" x1="335.869" y1="67.9333" x2="433.037" y2="340.286" gradientUnits="userSpaceOnUse">
<stop stop-color="white"/>
<stop offset="1" stop-color="#59A1CB"/>
</linearGradient>
<linearGradient id="paint23_linear_1093_3497" x1="330.972" y1="69.6738" x2="428.126" y2="342.027" gradientUnits="userSpaceOnUse">
<stop stop-color="white"/>
<stop offset="1" stop-color="#59A1CB"/>
</linearGradient>
<linearGradient id="paint24_linear_1093_3497" x1="334.15" y1="68.5467" x2="431.304" y2="340.872" gradientUnits="userSpaceOnUse">
<stop stop-color="white"/>
<stop offset="1" stop-color="#59A1CB"/>
</linearGradient>
<linearGradient id="paint25_linear_1093_3497" x1="334.593" y1="68.3898" x2="431.748" y2="340.728" gradientUnits="userSpaceOnUse">
<stop stop-color="white"/>
<stop offset="1" stop-color="#59A1CB"/>
</linearGradient>
<linearGradient id="paint26_linear_1093_3497" x1="330.73" y1="69.7593" x2="427.898" y2="342.113" gradientUnits="userSpaceOnUse">
<stop stop-color="white"/>
<stop offset="1" stop-color="#59A1CB"/>
</linearGradient>
<linearGradient id="paint27_linear_1093_3497" x1="334.279" y1="68.504" x2="431.447" y2="340.843" gradientUnits="userSpaceOnUse">
<stop stop-color="white"/>
<stop offset="1" stop-color="#59A1CB"/>
</linearGradient>
<linearGradient id="paint28_linear_1093_3497" x1="323.698" y1="72.2701" x2="420.867" y2="344.623" gradientUnits="userSpaceOnUse">
<stop stop-color="white"/>
<stop offset="1" stop-color="#59A1CB"/>
</linearGradient>
<linearGradient id="paint29_linear_1093_3497" x1="318.331" y1="74.1817" x2="415.499" y2="346.535" gradientUnits="userSpaceOnUse">
<stop stop-color="white"/>
<stop offset="1" stop-color="#59A1CB"/>
</linearGradient>
<linearGradient id="paint30_linear_1093_3497" x1="312.888" y1="76.1361" x2="410.042" y2="348.475" gradientUnits="userSpaceOnUse">
<stop stop-color="white"/>
<stop offset="1" stop-color="#59A1CB"/>
</linearGradient>
<linearGradient id="paint31_linear_1093_3497" x1="318.429" y1="74.1532" x2="415.597" y2="346.492" gradientUnits="userSpaceOnUse">
<stop stop-color="white"/>
<stop offset="1" stop-color="#59A1CB"/>
</linearGradient>
<linearGradient id="paint32_linear_1093_3497" x1="322.613" y1="72.6553" x2="419.781" y2="345.009" gradientUnits="userSpaceOnUse">
<stop stop-color="white"/>
<stop offset="1" stop-color="#59A1CB"/>
</linearGradient>
<linearGradient id="paint33_linear_1093_3497" x1="324.931" y1="71.8279" x2="422.099" y2="344.181" gradientUnits="userSpaceOnUse">
<stop stop-color="white"/>
<stop offset="1" stop-color="#59A1CB"/>
</linearGradient>
<linearGradient id="paint34_linear_1093_3497" x1="353.78" y1="61.5422" x2="450.948" y2="333.881" gradientUnits="userSpaceOnUse">
<stop stop-color="white"/>
<stop offset="1" stop-color="#59A1CB"/>
</linearGradient>
<linearGradient id="paint35_linear_1093_3497" x1="378.63" y1="52.683" x2="475.784" y2="325.022" gradientUnits="userSpaceOnUse">
<stop stop-color="white"/>
<stop offset="1" stop-color="#59A1CB"/>
</linearGradient>
<linearGradient id="paint36_linear_1093_3497" x1="328.622" y1="70.5154" x2="425.776" y2="342.869" gradientUnits="userSpaceOnUse">
<stop stop-color="white"/>
<stop offset="1" stop-color="#59A1CB"/>
</linearGradient>
<linearGradient id="paint37_linear_1093_3497" x1="305.345" y1="78.8181" x2="402.499" y2="351.171" gradientUnits="userSpaceOnUse">
<stop stop-color="white"/>
<stop offset="1" stop-color="#27E124"/>
</linearGradient>
<linearGradient id="paint38_linear_1093_3497" x1="333.32" y1="68.8321" x2="430.489" y2="341.185" gradientUnits="userSpaceOnUse">
<stop stop-color="white"/>
<stop offset="1" stop-color="#59A1CB"/>
</linearGradient>
<linearGradient id="paint39_linear_1093_3497" x1="384.355" y1="50.6289" x2="481.523" y2="322.982" gradientUnits="userSpaceOnUse">
<stop stop-color="white"/>
<stop offset="1" stop-color="#59A1CB"/>
</linearGradient>
<linearGradient id="paint40_linear_1093_3497" x1="296.844" y1="224.172" x2="337.114" y2="183.172" gradientUnits="userSpaceOnUse">
<stop stop-color="#27E124"/>
<stop offset="0.67" stop-color="#27E124"/>
</linearGradient>
<clipPath id="clip0_1093_3497">
<rect width="564" height="374" fill="white" transform="translate(0.5)"/>
</clipPath>
</defs>
</svg>
