<svg width="653" height="298" viewBox="0 0 653 298" fill="none" xmlns="http://www.w3.org/2000/svg">
<g clip-path="url(#clip0_84_520)">
<path d="M456.998 112.131C415.135 113.466 374.624 107.304 344.133 82.7816C328.758 70.4175 225.582 -11.9838 101.332 50.305C85.072 58.4555 42.5036 77.542 20.2864 123.932C-27.3649 223.43 22.9277 278.716 47.2728 286.631C53.368 288.612 544.055 288.861 546.584 286.974C652.129 208.139 581.382 108.168 457 112.131H456.998Z" fill="#044A14"/>
<path d="M208.639 124.666L185.158 100.828C184.661 100.324 184.08 99.9111 183.442 99.6049L167.03 91.7655L172.869 36.8582C172.964 35.9655 172.317 35.1652 171.425 35.0699C170.645 34.9875 169.918 35.4729 169.695 36.224L160.199 68.311C159.998 68.9899 159.917 69.6977 159.959 70.4041L161.207 91.3654L111.022 112.549C110.196 112.899 109.809 113.851 110.157 114.678C110.462 115.401 111.239 115.802 112.004 115.633L144.672 108.411C145.363 108.258 146.023 107.986 146.62 107.608L163.45 96.9412L206.551 127.134C207.286 127.649 208.298 127.471 208.814 126.736C209.263 126.093 209.191 125.222 208.64 124.663L208.639 124.666Z" fill="#27C224"/>
<path d="M166.831 268.809H160.803L161.789 85.7708H165.844L166.831 268.809Z" fill="#27C224"/>
<path d="M207.639 123.507L184.158 99.6699C183.661 99.1658 183.08 98.7526 182.442 98.4464L166.03 90.607L171.869 35.6997C171.964 34.807 171.317 34.0067 170.425 33.9114C169.645 33.829 168.918 34.3144 168.695 35.0655L159.199 67.1525C158.998 67.8314 158.917 68.5392 158.959 69.2456L160.207 90.2069L110.022 111.391C109.196 111.74 108.809 112.692 109.157 113.52C109.462 114.242 110.239 114.644 111.004 114.475L143.672 107.252C144.363 107.099 145.023 106.827 145.62 106.449L162.45 95.7827L205.551 125.976C206.286 126.49 207.298 126.313 207.814 125.577C208.263 124.934 208.191 124.063 207.64 123.504L207.639 123.507Z" fill="#27C224"/>
<path d="M165.436 92.789C165.624 91.5305 164.756 90.3578 163.498 90.1698C162.24 89.9817 161.068 90.8494 160.88 92.1079C160.691 93.3664 161.559 94.539 162.817 94.7271C164.075 94.9152 165.248 94.0475 165.436 92.789Z" fill="#005B1F"/>
<path d="M122.046 163.822L108.563 133.197C108.278 132.55 107.883 131.956 107.393 131.445L94.8356 118.285L119.796 69.0332C120.202 68.233 119.881 67.2551 119.081 66.8491C118.382 66.4952 117.53 66.6902 117.055 67.3143L96.781 93.9352C96.352 94.4986 96.0242 95.1313 95.8134 95.8073L89.5354 115.844L35.1004 117.814C34.2035 117.846 33.5031 118.6 33.5363 119.497C33.5652 120.28 34.1486 120.932 34.9242 121.046L68.0268 125.902C68.7273 126.005 69.4393 125.985 70.1325 125.843L89.6524 121.853L119.218 165.392C119.722 166.135 120.733 166.328 121.474 165.823C122.122 165.382 122.364 164.542 122.047 163.824L122.046 163.822Z" fill="#27C224"/>
<path d="M92.2059 275.044H86.1777L87.1641 114.423H91.2195L92.2059 275.044Z" fill="#27C224"/>
<path d="M121.522 162.383L108.039 131.758C107.755 131.111 107.359 130.517 106.87 130.006L94.3122 116.847L119.272 67.5945C119.678 66.7942 119.358 65.8163 118.558 65.4104C117.859 65.0565 117.006 65.2515 116.531 65.8755L96.2575 92.4965C95.8286 93.0598 95.5008 93.6925 95.2899 94.3685L89.012 114.405L34.5769 116.376C33.6801 116.407 32.9796 117.161 33.0129 118.059C33.0417 118.841 33.6252 119.493 34.4007 119.607L67.5034 124.464C68.2038 124.566 68.9158 124.546 69.609 124.404L89.1289 120.415L118.695 163.954C119.199 164.696 120.21 164.89 120.952 164.384C121.6 163.943 121.842 163.103 121.525 162.385L121.522 162.383Z" fill="#27C224"/>
<path d="M89.6537 115.656C90.6964 114.927 92.1319 115.181 92.8612 116.224C93.5906 117.267 93.3364 118.703 92.2937 119.432C91.2509 120.162 89.8154 119.908 89.0861 118.865C88.3568 117.822 88.6109 116.386 89.6537 115.656Z" fill="#005B1F"/>
<path d="M300.674 298C458.919 298 587.203 290.37 587.203 280.958C587.203 271.545 458.919 263.915 300.674 263.915C142.428 263.915 14.1445 271.545 14.1445 280.958C14.1445 290.37 142.428 298 300.674 298Z" fill="#698322"/>
<path d="M450.5 121.421C450.784 125.398 451.594 128.393 452.366 129.313C456.492 134.247 462.783 135.556 465.74 136.131C476.376 138.201 478.41 133.24 488.163 135.228C495.786 136.782 498.171 140.553 502.96 139.232C507.276 138.043 509.301 133.893 510.173 132.102C514.124 124.003 513.018 113.152 504.587 107.833C501.301 105.761 493.042 109.055 479.312 109.633C460.586 110.421 458.473 107.478 455.813 109.779C454.621 110.81 450.056 115.2 450.501 121.421H450.5Z" fill="#80A321"/>
<path d="M500.017 124.44C501.129 125.239 503.426 126.886 504.471 129.828C505.687 133.246 504.243 135.676 505.686 136.873C507.353 138.259 509.756 135.41 512.975 136.459C516.025 137.453 515.46 140.528 519.049 143.089C522.57 145.603 524.518 143.644 528.361 145.99C532.893 148.756 534.254 153.96 534.436 154.693C535.395 158.584 535.087 164.325 531.601 167.54C529.013 169.928 525.656 169.856 519.049 169.613C507.045 169.173 504.019 165.95 497.994 168.369C494.183 169.901 494.048 171.731 490.705 172.099C485.388 172.686 483.903 168.258 478.558 167.54C470.769 166.495 467.916 175.092 461.147 173.758C456.267 172.794 457.34 168.29 449.81 164.225C444.374 161.29 431.156 158.561 431.184 151.792C431.197 148.481 433.34 145.86 433.613 145.575C436.914 142.147 441.023 143.729 442.116 141.431C443.495 138.53 437.36 135.138 438.067 130.656C438.724 126.482 445.044 123.085 450.618 122.782C458.053 122.378 459.619 127.721 467.624 127.756C472.666 127.777 472.163 125.658 481.391 123.611C487.991 122.148 494.844 120.727 500.017 124.44Z" fill="#B5D855"/>
<path d="M465.194 142.26C470.523 142.924 470.867 145.548 478.962 148.063C483.771 149.556 488.971 151.093 493.134 148.477C495.798 146.803 497.988 143.456 497.183 141.847C496.671 140.821 495.095 140.804 493.134 140.603C491.567 140.443 488.174 139.53 481.391 137.702C472.906 135.416 473.566 133.687 469.244 133.558C464.005 133.402 463.633 135.96 458.311 136.044C450.128 136.174 444.507 130.229 444.139 129.827C442.981 128.563 442.108 127.25 441.425 125.982C439.624 127.289 438.342 128.903 438.065 130.656C437.358 135.138 443.493 138.53 442.114 141.431C442.106 141.45 442.093 141.463 442.084 141.481C445.749 144.447 448.866 145.276 451.428 145.162C456.231 144.947 458.723 141.452 465.195 142.261L465.194 142.26Z" fill="#80A321"/>
<path d="M534.433 154.693C534.361 154.403 534.098 153.401 533.531 152.133C533.224 154.254 532.453 156 531.194 157.179C528.358 159.832 523.489 159.288 519.451 158.837C512.367 158.046 511.826 155.573 504.875 154.278C496.813 152.777 489.936 154.689 487.059 155.522C481.972 156.994 482.517 157.895 477.747 159.252C469.958 161.466 466.104 159.746 459.121 160.495C456.227 160.806 452.515 161.598 448.234 163.468C448.733 163.685 449.251 163.929 449.809 164.225C457.36 168.248 456.266 172.794 461.146 173.758C467.915 175.092 470.768 166.495 478.557 167.54C483.902 168.258 485.387 172.686 490.704 172.099C494.048 171.731 499.414 182.839 507.48 176.057C512.624 171.731 507.044 169.171 519.048 169.613C525.655 169.856 529.012 169.928 531.6 167.54C535.085 164.325 535.392 158.584 534.435 154.693H534.433Z" fill="#80A321"/>
<path d="M483.554 270.341L477.572 269.355C480.089 251.308 480.876 235.887 479.913 223.524C479.754 221.491 479.559 219.666 479.372 217.899C478.856 213.063 478.369 208.494 478.899 201.686C479 200.397 479.126 199.168 479.247 197.979C479.681 193.738 480.055 190.076 479.268 184.886C478.974 182.953 478.359 172.179 478.427 171.087C479.376 155.782 476.05 118.022 474.385 110.683L475.581 110.13C477.341 117.887 480.572 137.421 480.884 144.94C480.953 146.617 480.959 147.579 480.965 148.692C480.972 149.972 480.98 151.424 481.096 154.485C481.425 163.218 481.652 168.059 482.846 174.122C483.387 176.865 483.765 178.006 484.099 179.014C484.486 180.184 484.852 181.288 485.237 183.814C486.161 189.9 485.703 194.375 485.261 198.704C485.144 199.851 485.023 201.037 484.929 202.24C484.449 208.391 484.881 212.447 485.382 217.142C485.576 218.958 485.777 220.834 485.943 222.968C486.946 235.846 486.143 251.783 483.555 270.339L483.554 270.341Z" fill="#80A321"/>
<path d="M480.163 155.33L479.916 152.728C482.192 150.81 483.048 149.65 484.666 147.345C489.227 140.841 490.519 131.293 490.467 126.883H490.876C490.931 131.604 490.564 141.47 485.678 148.435C483.957 150.891 482.579 153.293 480.164 155.328L480.163 155.33Z" fill="#80A321"/>
<path d="M465.622 157.378C462.825 155.911 460.286 154.14 458.075 152.113C451.804 146.364 449.34 138.353 448.377 133.732L449.101 133.464C450 137.78 453.65 145.184 459.506 150.553C461.581 152.455 463.97 154.121 466.606 155.505L465.622 157.38V157.378Z" fill="#80A321"/>
<path d="M487.365 145.473L486.914 144.028C488.768 143.45 491.05 143.088 493.39 140.62C495.178 138.735 496.389 137.096 496.94 135.464C496.979 135.346 497.103 135.28 497.221 135.315C497.343 135.351 497.412 135.481 497.374 135.602C496.801 137.408 495.916 139.059 494.742 140.512C492.366 143.452 489.418 144.831 487.366 145.473H487.365Z" fill="#80A321"/>
<path d="M458.263 151.895C456.159 151.672 449.514 150.283 446.521 148.065C445.045 146.972 442.332 144.836 442.717 144.102C443.039 143.769 447.778 147.558 449.038 147.999C451.363 148.811 454.633 149.358 456.551 149.56L458.265 151.895H458.263Z" fill="#80A321"/>
<path d="M485.941 222.969C485.775 220.836 485.574 218.958 485.38 217.143C484.879 212.449 484.447 208.394 484.927 202.242C485.021 201.039 485.142 199.853 485.259 198.706C485.701 194.376 486.159 189.901 485.235 183.816C484.85 181.289 484.485 180.186 484.097 179.016C483.763 178.009 483.385 176.866 482.844 174.123C481.65 168.059 481.423 163.22 481.094 154.486C480.978 151.425 480.97 149.974 480.963 148.694C480.957 147.58 480.951 146.618 480.882 144.941C480.57 137.422 477.339 117.888 475.579 110.131L474.383 110.684C474.543 111.394 474.721 112.387 474.907 113.617C478.291 127.623 479.367 137.336 479.524 144.21C479.572 146.281 479.654 153.24 480.281 162.947C481.032 174.585 481.594 175.111 482.247 184.971C483.158 198.73 482.202 199.772 483.153 214.884C483.822 225.503 484.326 225.486 484.515 232.964C484.608 236.653 484.705 245.366 483.457 256.467C483.006 260.474 482.355 265.017 481.397 269.989L483.554 270.345C486.142 251.789 486.945 235.851 485.941 222.973V222.969Z" fill="#6E8710"/>
<path d="M472.921 162.002L470.905 159.702C471.159 153.409 471.601 148.938 470.551 142.789C470.164 140.525 469.711 136.349 469.151 133.966C469.113 133.804 469.211 133.642 469.373 133.6C469.538 133.558 469.705 133.658 469.746 133.821C470.316 136.086 470.803 138.396 471.196 140.694C472.263 146.947 473.178 155.601 472.92 162.001L472.921 162.002Z" fill="#80A321"/>
<path d="M451.78 168.758C450.716 168.609 444.806 164.062 438.008 166.623C432.845 168.567 434.215 172.596 431.446 174.503C427.425 177.273 425.767 175.549 421.474 178.179C419.64 179.303 416.142 181.447 415.72 185.123C415.384 188.064 417.089 191.353 419.556 192.884C423.709 195.461 427.482 191.476 431.062 194.109C433.524 195.921 432.532 198.389 435.28 201.053C437.952 203.643 441.454 203.796 444.102 203.912C452.355 204.274 454.465 199.782 460.593 201.053C464.15 201.79 463.429 203.302 468.647 205.545C470.461 206.325 477.263 209.15 485.139 207.588C491.082 206.409 503.142 199.791 508.396 202.191C514.686 205.066 513.491 208.052 518.39 207.734C521.848 207.51 524.42 202.342 530.204 201.267C540.424 199.369 541.76 180.528 524.293 182.097C520.22 182.462 520.441 176.301 516.955 174.013C511.874 170.678 504.299 178.587 501.246 175.319C499.862 173.84 501.659 171.428 500.095 169.6C491.629 159.714 481.898 169.048 479.729 167.77C464.424 158.748 461.797 170.152 451.776 168.757L451.78 168.758Z" fill="#B5D855"/>
<path d="M483.642 189.237C491.596 181.353 497.278 168.398 498.224 163.796H497.889C497.673 163.717 497.437 163.842 497.384 164.066C496.344 168.432 492.742 175.534 487.074 180.732C485.513 182.163 483.361 184.82 481.061 186.354C479.255 187.56 482.337 190.531 483.644 189.237H483.642Z" fill="#80A321"/>
<path d="M491.207 177.363C493.311 177.141 499.956 175.751 502.949 173.534C504.425 172.44 507.138 170.304 506.753 169.57C506.431 169.238 501.691 173.027 500.432 173.467C498.107 174.279 494.837 174.826 492.919 175.029L491.205 177.363H491.207Z" fill="#80A321"/>
<path d="M487.023 181.699L489.039 179.4C488.785 173.106 488.343 168.635 489.393 162.486C489.78 160.222 490.234 156.046 490.794 153.663C490.832 153.501 490.733 153.339 490.572 153.297C490.407 153.256 490.239 153.355 490.199 153.518C489.629 155.783 489.142 158.093 488.749 160.391C487.682 166.645 486.766 175.299 487.025 181.698L487.023 181.699Z" fill="#80A321"/>
<path d="M494.041 269.217C494.041 269.217 494.038 269.217 494.035 269.217C493.923 267.388 491.927 265.93 489.48 265.93C488.065 265.93 486.798 266.419 485.962 267.184C485.158 265.39 482.62 264.08 479.615 264.08C476.609 264.08 473.854 265.506 473.174 267.418C473.109 267.425 473.044 267.434 472.979 267.441C472.231 266.309 470.684 265.53 468.897 265.53C466.379 265.53 464.337 267.074 464.337 268.98C464.337 269.146 464.352 269.311 464.383 269.469C464.367 269.469 464.351 269.469 464.337 269.469C460.226 269.469 456.895 271.583 456.895 274.189C456.895 276.795 458.811 279.457 471.221 280.961C473.685 281.368 476.417 281.596 479.293 281.596C480.468 281.596 481.619 281.559 482.739 281.485C495.648 281.494 501.483 276.542 501.483 273.936C501.483 271.33 498.151 269.217 494.041 269.217Z" fill="#9ABD49"/>
<path d="M494.04 269.217C494.04 269.217 494.037 269.217 494.034 269.217C493.921 267.388 491.926 265.93 489.479 265.93C488.064 265.93 486.797 266.419 485.961 267.184C485.157 265.39 482.619 264.08 479.614 264.08C479.507 264.08 479.4 264.081 479.293 264.086C484.406 265.53 484.785 269.52 484.785 269.52C484.785 269.52 485.822 268.793 487.138 268.525C488.523 268.242 490.308 268.708 491.03 269.792C492.032 271.295 490.766 273.654 490.216 274.68C488.262 278.317 482.914 280.399 478.002 281.58C478.428 281.59 478.857 281.596 479.29 281.596C480.466 281.596 481.617 281.559 482.736 281.485C495.646 281.494 501.48 276.542 501.48 273.936C501.48 271.33 498.149 269.217 494.038 269.217H494.04Z" fill="#4C5E08"/>
<path d="M477.998 265.445C477.478 265.078 476.155 266.169 475.826 266.44C475.452 266.749 473.781 268.127 474.197 269.156C474.452 269.789 475.437 270.138 476.188 269.971C478.036 269.56 478.737 265.966 477.998 265.444V265.445Z" fill="#4C5E08"/>
<path d="M467.77 266.713C467.184 266.52 466.384 267.388 466.05 267.891C465.867 268.168 465.148 269.254 465.688 270.244C466.146 271.082 467.311 271.493 467.951 271.149C469.152 270.504 468.775 267.047 467.77 266.713Z" fill="#4C5E08"/>
<path d="M463.245 271.693C463.069 271.152 461.337 271.321 461.253 271.33C460.839 271.373 459.353 271.528 458.629 272.779C458.353 273.256 457.984 274.245 458.358 274.589C459.201 275.366 463.547 272.617 463.245 271.693Z" fill="#4C5E08"/>
<path d="M467.135 274.68C467.128 274.593 467.174 274.402 469.307 273.503C471.169 272.718 472.099 272.325 473.199 272.054C474.914 271.632 478.192 271.149 478.449 271.873C478.709 272.603 475.942 274.683 472.837 275.314C470.087 275.872 467.186 275.269 467.135 274.68Z" fill="#4C5E08"/>
<path d="M487.23 270.515C486.823 269.981 484.829 270.891 484.063 271.239C481.231 272.53 478.642 275.053 479.085 275.856C479.416 276.455 481.387 276.019 482.525 275.584C485.63 274.397 487.762 271.21 487.232 270.514L487.23 270.515Z" fill="#4C5E08"/>
<path d="M473.36 100.748C474.197 97.8282 474.872 95.4722 477.113 94.0248C480.28 91.9793 486.19 91.9923 489.594 94.201C493.505 96.7376 491.124 100.23 495.544 103.57C498.213 105.585 499.605 104.708 503.635 107.229C505.232 108.227 508.432 110.229 509.936 113.466C511.744 117.357 511.094 123.013 507.18 124.657C504.436 125.81 500.977 124.615 494.919 122.524C487.519 119.97 486.808 118.262 482.92 118.041C478.412 117.784 477.274 119.96 470.988 121.888C465.83 123.471 454.951 125.579 451.46 122.131C448.296 119.005 451.035 111.148 456.993 108.47C462.738 105.887 469.692 108.923 472.295 105.785C473.246 104.638 472.384 104.155 473.36 100.749V100.748Z" fill="#B5D855"/>
<path d="M529.717 197.696C526.49 196.849 525.528 192.426 523.385 193.01C522.972 193.123 522.119 194.05 520.413 195.906C518.684 197.787 518.626 198.03 518.137 198.228C516.418 198.924 515.235 196.693 512.769 195.593C508.142 193.529 503.659 197.521 502.73 195.785C502.151 194.702 503.923 193.209 503.364 191.385C502.762 189.42 499.866 188.414 497.486 188.728C495.116 189.043 494.728 190.475 490.21 193.461C486.978 195.597 485.325 196.656 483.5 196.204C481.522 195.713 480.098 193.823 479.179 192.606C477.34 190.166 477.828 189.215 476.421 187.865C474.427 185.949 470.943 185.461 468.957 187.155C467.458 188.435 467.736 190.176 466.127 191.063C464.665 191.869 463.061 191.193 462.389 190.91C458.699 189.354 458.88 185.46 455.604 184.193C454.267 183.676 452.142 183.515 450.655 184.795C448.448 186.695 449.54 190.135 447.219 192.098C445.983 193.144 444.27 193.355 442.944 192.929C440.015 191.986 440.332 188.36 437.167 186.656C436.637 186.37 434.835 186.25 431.233 186.01C427.367 185.753 426.483 185.845 425.311 184.961C424.048 184.011 422.828 182.214 422.723 180.228C422.669 179.225 422.9 178.188 423.374 177.208C422.795 177.444 422.168 177.756 421.472 178.182C419.638 179.306 416.14 181.45 415.718 185.126C415.382 188.067 417.087 191.356 419.554 192.887C423.707 195.464 427.48 191.479 431.06 194.112C433.522 195.924 432.53 198.392 435.278 201.056C437.95 203.646 441.452 203.799 444.1 203.915C452.353 204.277 454.463 199.785 460.591 201.056C464.148 201.793 463.427 203.305 468.645 205.548C470.459 206.328 477.262 209.152 485.137 207.591C491.08 206.412 503.14 199.793 508.394 202.194C514.684 205.069 513.489 208.055 518.388 207.737C521.846 207.513 524.418 202.344 530.202 201.27C534.406 200.49 537.105 196.844 537.613 192.929C535.932 196.392 532.419 198.407 529.711 197.697L529.717 197.696Z" fill="#80A321"/>
<path d="M150.107 281.907H158.158V234.668H150.107V281.907Z" fill="#27C224"/>
<path d="M64.7943 281.907H72.8457L72.8457 217.221H64.7943V281.907Z" fill="#27C224"/>
<path d="M150.106 281.907H154.131V234.668H150.106V281.907Z" fill="#27C224"/>
<path d="M64.7943 281.907H72.8457L72.8457 217.221H64.7943V281.907Z" fill="#27C224"/>
<path d="M72.1678 256.687H178.552L180.268 254.457L157.6 191.148L55.9306 188.916L54.2148 191.148L72.1678 256.687Z" fill="#455A64"/>
<path d="M73.8826 254.457H180.267L159.315 188.916H55.9297L73.8826 254.457Z" fill="#27E124"/>
<path d="M175.099 251.036L156.333 192.335H60.9473L77.0271 251.036H175.099Z" fill="#005B1F"/>
<path d="M64.0148 192.335C67.0303 197.63 75.1525 211.608 87.1177 228.516C97.7312 243.513 118.183 244.394 124.696 245.506C127.983 246.068 149.454 248.466 174.797 250.094L175.099 251.036H77.0271L60.9473 192.335H64.0148Z" fill="#005B1F"/>
<path d="M135.313 192.335L163.145 213.643L166.034 222.679L126.4 192.335H135.313Z" fill="#27C224"/>
<path d="M143.922 278.459H164.498C165.45 278.459 166.221 279.23 166.221 280.182C166.221 281.134 165.45 281.905 164.498 281.905H143.922C142.97 281.905 142.199 281.134 142.199 280.182C142.199 279.23 142.97 278.459 143.922 278.459Z" fill="#27C224"/>
<path d="M58.471 278.459H79.0466C79.9983 278.459 80.7695 279.23 80.7695 280.182C80.7695 281.134 79.9983 281.905 79.0466 281.905H58.471C57.5193 281.905 56.748 281.134 56.748 280.182C56.748 279.23 57.5193 278.459 58.471 278.459Z" fill="#27C224"/>
<path d="M144.204 190.469L141.916 191.201L162.023 254.104L164.311 253.373L144.204 190.469Z" fill="#27E124"/>
<path d="M129.036 190.155L126.748 190.887L146.855 253.79L149.143 253.058L129.036 190.155Z" fill="#27E124"/>
<path d="M114.807 190.468L112.52 191.2L132.627 254.103L134.914 253.372L114.807 190.468Z" fill="#27E124"/>
<path d="M100.942 189.876L98.6543 190.607L118.761 253.511L121.049 252.779L100.942 189.876Z" fill="#27E124"/>
<path d="M73.0533 189.875L70.7656 190.607L90.8727 253.51L93.1604 252.778L73.0533 189.875Z" fill="#27E124"/>
<path d="M87.5044 189.876L85.2168 190.608L105.324 253.511L107.612 252.78L87.5044 189.876Z" fill="#27E124"/>
<path d="M164.317 210.496H64.2812V213.242H164.317V210.496Z" fill="#27E124"/>
<path d="M171.075 230.771H71.0391V233.517H171.075V230.771Z" fill="#27E124"/>
<path d="M183.663 56.512C189.787 74.515 209.771 87.5199 223.342 82.6866C242.865 75.7327 238.602 45.9931 218.542 29.5098C208.642 21.3743 205.575 22.371 198.759 16.4976C190.741 9.5885 190.434 5.63198 187.868 5.94255C181.23 6.7457 175.773 33.3204 183.663 56.512Z" fill="#9ABD49"/>
<path d="M190.645 7.71497C189.683 6.51025 189.023 5.88766 188.047 5.92955C188.961 6.62436 189.816 7.20217 190.645 7.71497Z" fill="#8DD32A"/>
<path d="M210.766 70.6061C204.166 72.9564 196.05 71.0872 188.748 66.4763C197.419 78.9482 212.447 86.568 223.343 82.6866C242.865 75.7327 238.602 45.9931 218.542 29.5098C217.04 28.2747 215.697 27.2534 214.472 26.3838C226.78 42.9972 227.109 64.7862 210.766 70.6061Z" fill="#8BAA37"/>
<path d="M189.706 26.0429C189.971 26.7103 190.367 27.6897 190.891 28.9247C191.933 31.3992 193.52 34.8978 195.646 38.9887C196.71 41.0341 197.913 43.2254 199.25 45.5063C199.588 46.074 199.932 46.6504 200.28 47.2325C200.641 47.8132 201.005 48.3997 201.373 48.9934C202.13 50.149 202.904 51.3306 203.691 52.5324C203.888 52.8329 204.086 53.1348 204.283 53.4367C204.486 53.7371 204.704 54.0333 204.916 54.3337C205.342 54.9332 205.771 55.537 206.203 56.1451C206.636 56.7518 207.071 57.3629 207.51 57.9782C207.969 58.5734 208.431 59.1714 208.895 59.7723C209.828 60.9684 210.739 62.2005 211.74 63.3648C212.231 63.9556 212.723 64.5479 213.216 65.1401C213.707 65.7338 214.198 66.3289 214.719 66.8981C215.746 68.0494 216.751 69.2223 217.795 70.3505C218.851 71.47 219.903 72.5837 220.945 73.6902C222.023 74.7635 223.091 75.8295 224.147 76.8811C225.233 77.9024 226.328 78.889 227.396 79.8669C228.497 80.8087 229.586 81.7289 230.665 82.6115C231.748 83.4898 232.838 84.3102 233.895 85.1134C234.42 85.5207 251.265 99.0269 253.085 100.886C253.821 101.64 258.99 104.084 258.99 104.084C258.99 104.084 263.112 102.31 262.528 101.887C261.948 101.461 251.243 95.0141 250.163 94.221C249.62 93.831 249.018 93.3991 248.362 92.9282C247.712 92.4515 247.01 91.9373 246.259 91.3855C245.887 91.1052 245.494 90.8322 245.1 90.5346C244.705 90.2371 244.299 89.9323 243.884 89.6174C243.052 88.9905 242.177 88.3332 241.277 87.6297C240.38 86.9234 239.422 86.2199 238.478 85.4312C237.997 85.0484 237.509 84.6584 237.012 84.264C236.517 83.8682 236.008 83.4724 235.514 83.0463C235.015 82.6274 234.508 82.2013 233.995 81.7708C233.482 81.3403 232.947 80.9257 232.435 80.4693C231.41 79.5607 230.328 78.6738 229.258 77.7363C228.192 76.7944 227.112 75.8324 226.004 74.8747C224.924 73.8852 223.829 72.8841 222.727 71.8759C221.647 70.843 220.573 69.7857 219.491 68.7268C218.422 67.655 217.39 66.5398 216.334 65.4449C215.804 64.9003 215.303 64.3283 214.8 63.7577C214.298 63.1886 213.795 62.6194 213.294 62.0517C212.271 60.9322 211.338 59.7449 210.382 58.5921C209.907 58.0129 209.433 57.4365 208.963 56.8631C208.513 56.2751 208.066 55.6901 207.621 55.1094C207.175 54.5287 206.731 53.9509 206.291 53.3774C206.073 53.0885 205.847 52.8083 205.635 52.5165C205.426 52.2218 205.218 51.9272 205.01 51.6339C204.179 50.4624 203.363 49.3097 202.563 48.183C201.802 47.0693 201.051 45.9295 200.341 44.8346C198.92 42.6317 197.634 40.5097 196.492 38.525C195.35 36.5402 194.349 34.6927 193.488 33.0416C192.627 31.3905 191.914 29.9301 191.326 28.7283C190.744 27.5221 190.302 26.5702 190.003 25.9173C189.706 25.2629 189.547 24.9148 189.547 24.9148L189.297 25.0217C189.297 25.0217 189.438 25.377 189.703 26.0458L189.706 26.0429Z" fill="#ADCC58"/>
<path d="M183.663 56.5121C184.418 58.7323 185.386 60.8774 186.525 62.9214C180.747 48.7059 177.999 32.6892 183.507 17.3239C184.771 13.7993 186.566 10.045 189.122 6.1997C188.739 5.97435 188.344 5.88624 187.87 5.94257C181.232 6.74572 175.775 33.3204 183.664 56.5121H183.663Z" fill="#ADCC58"/>
<path d="M221.367 34.0384C219.593 48.6785 229.186 64.4887 240.293 65.6761C256.273 67.3835 263.294 45.1684 254.817 26.9025C250.635 17.8873 248.157 17.5522 245.368 11.1559C242.088 3.6314 243.205 0.762601 241.307 0.116904C236.398 -1.5544 223.65 15.1803 221.365 34.0398L221.367 34.0384Z" fill="#9ABD49"/>
<path d="M242.654 2.28794C242.386 1.12221 242.134 0.464961 241.438 0.165947C241.843 0.958984 242.246 1.64946 242.654 2.28794Z" fill="#8DD32A"/>
<path d="M235.568 53.0033C230.165 52.4255 225.122 48.3895 221.57 42.7112C223.436 54.3424 231.376 64.7226 240.294 65.6746C256.275 67.382 263.295 45.1668 254.819 26.901C254.185 25.533 253.59 24.3673 253.027 23.3475C256.042 39.097 248.945 54.4334 235.568 53.0033Z" fill="#8BAA37"/>
<path d="M235.835 14.7801C235.797 15.3348 235.745 16.1538 235.694 17.1924C235.59 19.2725 235.522 22.2497 235.633 25.8248C235.69 27.6117 235.794 29.5473 235.961 31.5913C236.007 32.1027 236.054 32.6198 236.1 33.1442C236.156 33.6714 236.214 34.2044 236.272 34.7432C236.412 35.8064 236.556 36.8912 236.702 37.9963C236.738 38.2722 236.776 38.5495 236.812 38.8283C236.852 39.1071 236.906 39.3873 236.952 39.6676C237.049 40.2295 237.145 40.7957 237.242 41.3663C237.34 41.9369 237.44 42.5104 237.538 43.0867C237.66 43.6573 237.781 44.2308 237.904 44.8057C238.153 45.9555 238.376 47.1227 238.683 48.274C238.828 48.8518 238.972 49.431 239.118 50.0103C239.261 50.591 239.406 51.1717 239.577 51.7437C239.908 52.8935 240.216 54.0506 240.565 55.1918C240.926 56.3286 241.287 57.4611 241.644 58.5849C242.035 59.6972 242.425 60.8008 242.81 61.8914C243.226 62.9705 243.659 64.0278 244.078 65.0708C244.53 66.0993 244.982 67.1075 245.438 68.0884C245.899 69.0663 246.385 70.0067 246.855 70.9225C247.084 71.3833 254.316 86.4871 254.961 88.3997C255.223 89.1739 258.013 92.6205 258.013 92.6205C258.013 92.6205 261.489 92.7679 261.225 92.2753C260.962 91.7813 255.65 83.6775 255.162 82.7588C254.913 82.3038 254.638 81.7982 254.339 81.2493C254.045 80.6975 253.728 80.1024 253.388 79.4639C253.222 79.1432 253.039 78.8196 252.864 78.4787C252.688 78.1378 252.507 77.7883 252.323 77.43C251.951 76.7121 251.561 75.9581 251.169 75.165C250.779 74.3691 250.347 73.5558 249.953 72.6877C249.746 72.2587 249.535 71.8224 249.322 71.379C249.108 70.9355 248.887 70.4877 248.685 70.024C248.477 69.5632 248.266 69.0952 248.052 68.6214C247.838 68.149 247.603 67.6781 247.399 67.187C246.988 66.2076 246.531 65.2239 246.098 64.2084C245.671 63.1915 245.239 62.1572 244.787 61.1143C244.364 60.0598 243.936 58.9923 243.506 57.9161C243.097 56.8313 242.703 55.7306 242.303 54.627C241.916 53.519 241.57 52.3923 241.199 51.2714C241.012 50.7123 240.854 50.1446 240.695 49.5769C240.535 49.0107 240.376 48.443 240.216 47.8782C239.878 46.7515 239.625 45.6089 239.345 44.4807C239.208 43.9159 239.071 43.354 238.933 42.795C238.816 42.233 238.701 41.674 238.585 41.1179C238.468 40.5617 238.353 40.0085 238.239 39.4596C238.182 39.1851 238.12 38.9136 238.07 38.6376C238.023 38.3603 237.976 38.0858 237.93 37.8114C237.743 36.7136 237.56 35.6331 237.381 34.5771C237.223 33.5429 237.082 32.4941 236.953 31.4902C236.701 29.4737 236.516 27.5582 236.386 25.7873C236.254 24.0163 236.176 22.3883 236.13 20.9453C236.084 19.5007 236.075 18.2411 236.069 17.204C236.068 16.1654 236.08 15.3521 236.091 14.7945C236.103 14.2384 236.11 13.9408 236.11 13.9408L235.899 13.9307C235.899 13.9307 235.877 14.2268 235.838 14.783L235.835 14.7801Z" fill="#ADCC58"/>
<path d="M221.366 34.0383C221.148 35.844 221.102 37.6684 221.212 39.4798C221.954 27.603 225.419 15.4864 234.433 6.60125C236.501 4.56304 239.019 2.54361 242.096 0.716307C241.904 0.430293 241.657 0.235284 241.308 0.11539C236.399 -1.55591 223.651 15.1788 221.366 34.0383Z" fill="#ADCC58"/>
<path d="M381.276 252.687C426.615 207.338 426.615 133.813 381.276 88.4646C335.937 43.1158 262.427 43.1158 217.088 88.4646C171.749 133.813 171.749 207.338 217.088 252.687C262.427 298.036 335.937 298.036 381.276 252.687Z" fill="#637D1C"/>
<path d="M347.979 72.3814C347.487 71.4671 345.869 72.393 342.559 71.3963C340.372 70.7376 339.835 69.9576 338.371 70.1641C337.09 70.3447 335.542 71.2157 335.415 72.3814C335.283 73.5905 336.742 74.5728 337.878 75.3384C339.327 76.3149 341.879 78.0338 344.53 77.0631C346.879 76.2036 348.58 73.4981 347.979 72.3814Z" fill="#94D827"/>
<path d="M389.365 184.988C388.376 185.126 387.612 186.881 387.148 187.945C387.036 188.204 386.653 189.117 386.409 190.902C386.172 192.637 385.89 194.706 386.656 197.062C387.135 198.538 387.655 200.143 388.873 200.511C390.611 201.037 393.093 198.833 394.046 196.569C396.148 191.574 391.479 184.695 389.365 184.988Z" fill="#94D827"/>
<path d="M352.661 221.948C349.976 220.552 347.75 223.282 339.111 225.152C332.849 226.507 331.125 225.698 330.242 224.905C329.558 224.289 329.488 223.782 328.271 219.73C326.328 213.262 325.933 212.645 325.314 212.092C323.297 210.286 319.984 210.107 317.678 210.86C315.292 211.638 315.321 212.976 312.504 214.064C311.483 214.458 308.722 215.524 306.346 214.556C302.97 213.181 304.046 209.193 300.681 206.671C297.815 204.524 296.006 206.643 289.842 205.193C286.253 204.348 286.657 203.581 279.003 200.264C273.753 197.99 273.066 198.136 268.902 196.075C261.195 192.26 260.48 190.241 260.28 189.422C259.687 186.988 261.157 185.001 259.788 183.508C258.999 182.648 257.651 182.367 256.585 182.523C253.419 182.985 253.301 187.227 250.18 188.189C247.739 188.942 244.791 187.278 243.282 185.48C241.426 183.267 241.634 180.555 242.05 175.131C242.421 170.296 242.616 167.75 244.514 166.507C245.86 165.625 247.629 165.919 251.166 166.507C254.252 167.02 257.128 167.875 259.542 168.725C264.084 170.322 265.516 171.38 267.672 170.696C268.039 170.579 269.746 170.038 270.628 168.479C271.771 166.46 270.351 164.819 269.643 159.608C269.274 156.887 269.05 155.107 269.643 152.955C270.091 151.334 270.643 150.805 272.846 147.534C277.068 141.264 276.456 141.1 278.512 138.91C279.136 138.245 280.735 136.824 283.932 133.981C286.604 131.606 287.335 131.032 287.628 129.792C288.119 127.713 286.614 127.004 286.643 123.878C286.65 123.071 286.67 120.82 288.12 118.95C289.516 117.151 291.526 116.62 293.048 116.24C296.852 115.289 297.633 116.669 302.162 116.24C304.281 116.039 307.837 115.655 310.292 113.036C310.848 112.444 311.795 111.405 312.016 109.832C312.324 107.642 311.101 105.276 309.307 104.165C307.097 102.796 305.805 104.434 302.655 103.18C300.847 102.459 301.137 101.865 297.974 99.976C296.543 99.1223 295.18 98.3076 293.294 97.7586C292.519 97.5333 290.163 96.8717 287.381 97.2661C282.383 97.9739 281.237 101.348 278.02 100.716C277.345 100.583 276.256 99.8055 274.078 98.2512C270.543 95.7291 270.244 94.8364 268.658 94.5547C266.733 94.2138 264.512 95.0588 263.238 96.5265C261.795 98.1891 261.855 100.32 262.006 103.918C262.227 109.147 263.528 111.424 262.253 112.542C261.138 113.518 259.002 112.78 258.312 112.542C256.039 111.756 255.585 110.32 253.384 108.353C250.068 105.387 248.756 106.553 246.24 103.918C245.931 103.594 242.328 99.7318 243.531 96.772C244.045 95.5081 245.433 94.8609 248.211 93.5681C251.144 92.203 253.714 91.5631 254.616 91.3508C259.194 90.2717 261.495 90.617 261.761 89.626C262.048 88.5528 259.405 87.9533 258.312 84.9444C257.983 84.0401 257.928 82.8628 257.82 80.5097C257.711 78.1768 257.658 77.0097 257.82 76.3206C258.533 73.2958 261.066 73.4518 263.24 69.9142C264.567 67.7532 264.866 65.6731 265.211 63.2608C265.41 61.8683 265.469 60.5812 265.452 59.4343C256.416 62.1745 247.847 65.988 239.893 70.7246C239.893 70.7246 239.895 70.7231 239.897 70.7217C240.749 74.2088 242.16 76.6066 243.532 78.2895C246.058 81.3865 249.118 82.8946 248.705 85.1885C248.343 87.2079 245.42 89.1176 242.793 88.638C240.674 88.2509 239.516 86.451 239.344 86.1736C237.716 83.5562 239.381 81.3129 238.604 78.0425C238.307 76.7887 237.583 75.1275 235.71 73.3478C236.357 72.9246 237.008 72.5057 237.663 72.0925C233.142 74.9238 228.833 78.0598 224.759 81.4689C225.081 82.1593 225.439 82.7343 225.794 83.2153C227.809 85.9454 230.008 86.0364 231.707 89.1291C233.191 91.8304 233.434 95.2611 232.446 95.7825C231.773 96.1379 230.346 94.8739 227.519 92.333C225.176 90.2269 224.005 89.1739 223.33 88.144C222.904 87.4925 222.136 86.1505 221.736 84.0863C222.728 83.1965 223.735 82.324 224.757 81.4703C208.392 95.1614 195.847 113.27 188.979 133.975C192.247 136.006 194.807 137.997 196.724 139.644C200.76 143.109 201.793 144.909 202.144 145.558C204.322 149.589 204.263 153.785 204.115 159.603C203.93 166.903 202.746 168.181 204.115 170.198C206.245 173.337 209.891 171.384 216.186 174.387C222.825 177.553 226.6 183.462 227.519 184.983C230.837 190.486 229.722 193.254 232.939 195.331C234.682 196.456 235.769 196.134 243.532 196.316C250.271 196.475 253.64 196.553 255.603 197.056C261.713 198.617 261.161 201.063 267.92 203.215C274.148 205.2 277.082 203.91 279.253 206.665C281.363 209.343 280.678 213.208 280.485 214.303C280.258 215.582 279.812 216.899 275.804 222.927C272.071 228.543 271.29 229.159 271.124 231.058C270.791 234.862 273.437 237.995 274.325 238.944C275.406 240.097 277.316 241.677 286.889 243.872C295.534 245.854 297.277 245.324 300.191 247.569C300.909 248.122 305.029 251.294 305.364 255.947C305.634 259.684 303.186 260.555 303.393 264.818C303.523 267.499 304.491 267.119 306.102 272.703C307.375 277.109 307.057 278.327 308.566 280.342C309.015 280.94 310.667 283.147 313.494 283.792C316.853 284.559 319.766 282.637 321.376 281.574C325.371 278.938 324.616 277.088 328.766 273.196C333.17 269.069 335.376 269.879 337.388 266.297C338.896 263.612 337.826 262.855 339.605 259.398C340.096 258.445 341.79 255.238 345.271 252.745C348.753 250.25 350.657 250.881 351.676 248.803C352.152 247.829 351.884 247.387 351.429 242.396C351.094 238.723 350.932 236.868 351.182 235.99C352.157 232.572 354.869 232.533 355.615 229.583C356.286 226.937 355.061 223.193 352.659 221.945L352.661 221.948Z" fill="#94D827"/>
<path d="M286.883 68.6864C289.45 69.1905 290.728 67.6406 293.535 68.6864C294.109 68.9002 296.006 69.608 296.984 71.3963C298.275 73.7595 296.552 75.425 297.724 77.3101C298.537 78.6189 299.812 78.5307 303.389 79.7745C304.838 80.2786 307.504 81.206 310.041 82.7314C314.06 85.1495 314.746 87.2614 318.171 87.9056C319.193 88.0978 320.561 88.3563 321.127 87.6586C322.105 86.4568 319.533 83.8437 318.418 78.5423C318.035 76.7251 317.408 73.7422 318.665 72.8755C319.777 72.107 321.27 73.7537 324.085 73.8606C324.085 73.8606 327.073 73.9748 330.243 71.6433C333.18 69.4838 334.695 65.0072 334.226 59.8416C323.169 56.3445 311.397 54.4522 299.184 54.4522C291.493 54.4522 283.982 55.2076 276.709 56.6348C277.863 58.8767 279.024 60.6809 279.986 62.033C282.908 66.1397 284.369 68.1924 286.883 68.6864Z" fill="#94D827"/>
<path d="M406.727 126.773C406.371 127.394 406.092 127.994 405.869 128.561C405.085 130.572 404.941 132.415 404.145 132.503C402.977 132.633 402.75 128.723 399.464 125.605C398.527 124.715 395.747 122.376 392.074 122.401C389.713 122.416 387.662 123.403 386.162 124.125C383.848 125.238 384.105 125.684 382.713 126.097C379.207 127.136 376.685 124.573 375.323 125.85C374.643 126.487 374.727 127.634 374.831 129.054C374.988 131.206 375.766 131.781 376.062 133.243C376.643 136.108 374.67 138.927 372.614 141.867C370.57 144.788 369.464 145.136 369.41 146.795C369.354 148.53 370.543 148.811 371.627 151.724C372.193 153.244 373.154 155.827 372.367 158.378C371.544 161.041 369.572 161.21 369.41 163.552C369.272 165.561 370.605 167.156 370.888 167.494C372.118 168.964 373.21 168.865 375.569 170.204C378.118 171.653 377.811 172.321 380.496 174.146C382.702 175.644 384.599 176.934 387.148 177.103C390.691 177.338 393.708 175.29 395.031 174.393C397.922 172.431 398.589 170.655 399.958 170.943C401.567 171.283 401.215 173.863 403.654 175.378C405.69 176.643 407.254 175.664 408.088 176.856C409.028 178.199 407.214 179.686 407.595 182.523C407.916 184.912 409.403 185.347 410.305 187.697C411.537 190.908 410.277 194.038 409.812 195.582C409.138 197.823 408.824 201.079 409.78 205.968C413.348 194.808 415.28 182.918 415.28 170.575C415.28 155.077 412.237 140.291 406.727 126.773Z" fill="#94D827"/>
<path d="M369.97 78.5365C369.826 79.3556 369.822 80.0951 369.905 80.7596C370.116 82.4338 370.994 84.5847 370.152 85.1943C369.144 85.9252 367.109 83.4045 364.979 84.2091C363.769 84.6656 362.959 86.0335 362.762 87.166C362.537 88.4661 363.227 88.8402 363.009 89.6304C362.369 91.9474 355.875 90.7152 354.88 93.0799C354.166 94.7743 356.464 97.8829 358.083 97.7615C359.439 97.6604 359.498 95.355 362.024 94.065C362.593 93.7747 364.188 92.9614 365.473 93.5724C367.057 94.325 366.431 96.4124 368.182 98.0071C369.478 99.1858 370.434 98.6022 372.371 99.4848C375.465 100.896 377.861 104.593 377.051 106.138C375.994 108.156 369.771 105.922 368.922 107.863C368.444 108.958 370.349 109.841 371.386 113.284C372.229 116.085 371.523 117.34 372.618 118.213C373.774 119.135 375.639 118.593 377.791 117.966C380.049 117.309 381.596 116.859 382.718 115.502C384.915 112.845 383.043 109.663 384.935 108.356C386.391 107.35 388.849 108.299 390.108 109.095C392.065 110.332 391.886 111.675 394.05 114.024C394.967 115.019 396.765 116.971 398.977 117.473C400.12 117.733 401.252 117.576 402.313 117.196C394.464 102.055 383.378 88.8648 369.975 78.5365H369.97ZM380.005 97.0219C379.101 97.7081 376.102 96.6175 375.324 94.065C374.592 91.6671 376.173 89.1392 377.295 89.1363C379.135 89.132 381.445 95.9284 380.005 97.0205V97.0219Z" fill="#94D827"/>
<path d="M260.031 79.5275C260.128 78.1711 262.565 76.9851 264.711 76.8175C267.126 76.6283 267.559 77.8562 271.609 79.0349C273.524 79.5925 276.139 80.3537 279.493 80.267C281.671 80.2107 282.565 79.8366 283.681 80.5141C285.197 81.4328 286.078 83.6588 285.652 85.4427C284.9 88.5845 280.224 89.7734 277.523 89.8774C274.008 90.0132 271.272 88.4112 269.147 87.1675C267.795 86.3759 268.472 86.5666 263.973 83.2254C260.894 80.9387 259.97 80.3971 260.032 79.5289L260.031 79.5275Z" fill="#94D827"/>
<path opacity="0.12" d="M358.804 70.9211C369.783 88.6568 376.126 109.566 376.126 131.959C376.126 196.091 324.147 248.082 260.027 248.082C238.227 248.082 217.833 242.067 200.406 231.613C220.869 264.672 257.451 286.698 299.181 286.698C363.3 286.698 415.28 234.709 415.28 170.575C415.28 128.248 392.634 91.215 358.802 70.9211H358.804Z" fill="black"/>
<path opacity="0.05" d="M260.999 142.297C271.466 124.164 270.16 103.809 258.081 96.8343C246.003 89.8593 227.726 98.905 217.259 117.038C206.792 135.172 208.098 155.526 220.177 162.501C232.255 169.476 250.532 160.43 260.999 142.297Z" fill="white"/>
<path d="M304.037 176.193C303.648 176.758 303.544 177.301 303.726 177.806C303.902 178.295 304.213 178.82 304.645 179.363C305.516 180.536 305.989 181.722 306.05 182.89C306.111 184.054 305.757 185.205 304.997 186.312C304.297 187.331 303.414 188.052 302.377 188.455C301.339 188.86 300.136 188.907 298.8 188.601C297.458 188.293 295.971 187.581 294.379 186.486C291.996 184.848 290.463 183.09 289.82 181.263C289.18 179.444 289.407 177.721 290.492 176.142C291.173 175.15 292.007 174.478 292.967 174.144C293.932 173.809 295.11 173.737 296.466 173.929C297.302 174.049 297.947 174.071 298.38 173.994C298.826 173.915 299.232 173.611 299.589 173.094C299.909 172.628 299.993 172.092 299.839 171.502C299.685 170.917 299.356 170.448 298.862 170.108C297.978 169.5 296.8 169.18 295.36 169.154C293.923 169.129 292.428 169.503 290.915 170.269C289.401 171.034 288.087 172.217 287.01 173.786C286.126 175.073 285.529 176.473 285.238 177.948C284.946 179.423 284.979 180.928 285.336 182.42C285.693 183.912 286.384 185.358 287.391 186.717C288.398 188.077 289.751 189.347 291.416 190.491C292.441 191.195 293.485 191.779 294.522 192.227C295.559 192.675 296.619 193 297.672 193.192C298.725 193.385 299.768 193.45 300.77 193.387C301.881 193.307 302.906 193.072 303.816 192.691C304.726 192.308 305.585 191.762 306.368 191.067C307.151 190.372 307.903 189.503 308.603 188.483C309.531 187.135 310.12 185.776 310.355 184.441C310.591 183.108 310.562 181.842 310.269 180.678C309.977 179.515 309.544 178.504 308.983 177.669C308.423 176.834 307.8 176.18 307.138 175.723C306.605 175.358 306.033 175.221 305.436 175.319C304.838 175.417 304.368 175.712 304.035 176.194L304.037 176.193Z" fill="#DBE284"/>
<path d="M305.677 149.448C303.814 150.29 302.169 151.734 300.79 153.741C299.773 155.22 299.103 156.732 298.798 158.236C298.493 159.741 298.529 161.242 298.906 162.697C299.282 164.15 299.998 165.567 301.034 166.907C302.066 168.247 303.396 169.479 304.985 170.572C306.536 171.64 308.144 172.438 309.76 172.948C311.38 173.46 312.963 173.643 314.466 173.496C315.971 173.349 317.418 172.849 318.767 172.009C320.115 171.17 321.325 169.977 322.366 168.463C323.413 166.941 324.098 165.392 324.4 163.861C324.703 162.328 324.651 160.804 324.246 159.33C323.842 157.858 323.114 156.449 322.083 155.143C321.053 153.839 319.72 152.621 318.123 151.522C315.961 150.034 313.792 149.095 311.679 148.731C309.562 148.366 307.543 148.607 305.678 149.449L305.677 149.448ZM303.246 158.584C303.385 157.72 303.723 156.891 304.251 156.123C304.994 155.042 305.944 154.267 307.076 153.817C308.209 153.368 309.492 153.293 310.895 153.595C312.303 153.898 313.776 154.573 315.274 155.604C316.893 156.718 318.104 157.917 318.873 159.168C319.638 160.414 320.006 161.648 319.966 162.835C319.925 164.023 319.561 165.123 318.886 166.109C318.357 166.877 317.71 167.488 316.963 167.92C316.217 168.353 315.353 168.611 314.397 168.684C313.439 168.758 312.384 168.608 311.259 168.236C310.131 167.864 308.97 167.27 307.806 166.47C306.652 165.677 305.693 164.811 304.955 163.901C304.22 162.993 303.71 162.087 303.443 161.209C303.175 160.332 303.109 159.449 303.248 158.584H303.246Z" fill="#DBE284"/>
<path d="M338.525 145.085C338.031 145.224 337.569 145.602 337.15 146.212L333.089 152.119C332.936 151.762 332.815 151.429 332.73 151.126C332.47 150.32 332.229 148.98 332.015 147.144C331.8 145.299 331.622 143.953 331.489 143.141C331.353 142.322 331.027 141.376 330.517 140.328C330.004 139.277 329.226 138.387 328.202 137.682C327.549 137.233 326.832 136.909 326.068 136.72C325.304 136.531 324.538 136.48 323.793 136.571C323.048 136.662 322.347 136.892 321.709 137.252C320.74 137.812 319.839 138.693 319.029 139.872C318.356 140.85 317.918 141.823 317.726 142.767C317.534 143.709 317.527 144.604 317.704 145.426C317.882 146.248 318.202 147.002 318.659 147.668C319.114 148.334 319.634 148.87 320.206 149.263C320.686 149.594 321.165 149.726 321.625 149.657C322.089 149.588 322.463 149.349 322.736 148.951C323.048 148.496 323.133 148.038 322.986 147.589C322.844 147.154 322.554 146.647 322.125 146.085C321.703 145.533 321.456 145.175 321.388 145.019C320.853 143.823 320.923 142.721 321.596 141.741C321.915 141.277 322.327 140.922 322.821 140.684C323.313 140.445 323.848 140.35 324.408 140.399C324.969 140.45 325.514 140.653 326.027 141.006C326.501 141.332 326.918 141.779 327.266 142.335C327.616 142.892 327.889 143.55 328.079 144.288C328.27 145.029 328.388 145.885 328.432 146.83C328.443 147.359 328.573 148.324 328.817 149.7C329.061 151.074 329.402 152.679 329.833 154.473C329.944 154.917 330.178 155.418 330.526 155.965C330.875 156.514 331.206 156.898 331.508 157.105C331.982 157.43 332.515 157.55 333.092 157.459C333.671 157.368 334.171 157.023 334.577 156.433L340.403 147.957C340.761 147.435 340.887 146.939 340.774 146.478C340.663 146.021 340.396 145.644 339.98 145.36C339.512 145.038 339.022 144.945 338.524 145.085H338.525Z" fill="#DBE284"/>
<path d="M459.337 179.088C459.32 179.115 459.307 179.136 459.307 179.136C459.307 179.133 459.318 179.115 459.337 179.088Z" fill="#C36252"/>
<path d="M459.348 179.074C459.348 179.074 459.341 179.084 459.338 179.089C459.354 179.062 459.374 179.032 459.395 179.001C459.395 179.003 459.394 179.004 459.392 179.005C459.38 179.024 459.366 179.048 459.348 179.073V179.074Z" fill="#C36252"/>
<path d="M451.745 187.944C451.745 187.944 451.748 187.944 451.75 187.943C451.738 187.954 451.738 187.95 451.745 187.944Z" fill="#97BFFF"/>
</g>
<defs>
<clipPath id="clip0_84_520">
<rect width="652" height="298" fill="white" transform="translate(0.5)"/>
</clipPath>
</defs>
</svg>
