<svg width="1028" height="47" viewBox="0 0 1028 47" fill="none" xmlns="http://www.w3.org/2000/svg">
<path d="M1026.43 11.8399C1025.49 9.38987 1030.66 3.98297 1025.39 2.56366C1022.96 1.90469 1020.56 1.26262 1018.13 0.603656C1015.84 -0.0215174 1013.83 0.536069 1011.4 0.654345C1008.04 0.806414 1004.62 0.789518 1001.23 0.840208C986.902 1.05986 972.605 0.688138 958.307 0.519173C936.392 0.282621 914.45 0.181241 892.56 0.688138C891.96 0.688138 891.36 0.721932 890.76 0.738828C889.821 0.755725 132.868 0.688138 132.528 0.92469C128.928 -0.15669 124.414 -0.038414 120.527 0.0629654C107.612 0.384 94.6977 0.552966 81.7831 0.823311C69.2859 1.07676 56.7626 1.3471 44.2654 1.46538C38.7082 1.51607 33.2032 1.43159 27.646 1.364C22.5845 1.31331 17.523 1.29641 12.4616 1.364C10.4265 1.3809 8.41758 1.43159 6.38255 1.41469C4.84323 1.39779 1.92114 1.11055 0.616629 1.73573C-0.426976 2.22573 0.147007 2.64814 0.66881 3.20573C1.34715 3.93228 1.4776 4.11814 1.37324 4.94607C1.29497 5.50366 1.08625 6.01056 1.55587 6.53435C2.07768 7.12573 3.0691 7.2947 3.64309 7.83539C5.83466 9.91367 1.63414 12.6002 3.98226 14.7461C4.6606 15.3713 5.88684 15.6923 6.90435 16.064C8.57412 16.6892 8.05232 16.5878 8.00014 17.6861C7.94796 18.9702 10.2439 19.5109 11.8354 20.1023C13.5312 20.7275 15.2271 21.5047 17.0534 22.0116C15.9315 22.1975 11.7832 23.1775 13.8182 24.2757C11.6528 24.5461 8.73066 24.7995 6.79999 25.4923C5.62594 25.9147 5.7303 26.4554 5.70421 27.3002C5.70421 28.0268 5.78248 28.7364 5.91293 29.4461C6.46082 32.3185 7.60879 35.1064 5.83466 37.9282C5.10413 39.0771 4.58233 39.7868 6.43473 40.5809C7.97405 41.2399 10.1917 41.6623 11.5223 42.4734C11.9137 42.7268 12.0441 43.1323 12.5659 43.4027C13.2443 43.7744 14.314 44.0278 15.0967 44.332C16.7403 44.9403 18.4362 45.7344 20.2103 46.1906C23.9412 47.1706 28.8983 46.5961 32.838 46.5454C36.8558 46.4947 40.8998 46.5285 44.9177 46.5454C51.2054 46.5961 57.4931 46.6299 63.7548 46.6806C77.6086 46.782 91.4625 46.8834 105.29 46.9509C110.143 46.9678 115.022 47.0523 119.849 46.9509C122.405 46.8834 124.962 46.7651 127.493 46.5623C129.867 46.3765 889.534 46.3258 891.725 45.7513C895.091 44.8558 893.682 41.6623 893.734 39.4658C893.969 39.5503 894.178 39.6516 894.439 39.8544C894.935 40.2261 895.404 40.7668 895.717 41.1892C896.265 41.9833 896.239 42.9803 896.917 43.7406C897.283 44.1292 898.065 44.3151 898.718 44.5009C899.526 44.7375 900.335 44.9234 901.144 45.1599C901.901 45.3796 902.814 45.633 903.57 45.8189C904.483 46.0554 905.501 46.3934 906.545 46.4778C908.345 46.6299 910.354 46.5454 912.18 46.5623C935.766 46.7144 959.377 46.7651 982.963 46.6637C987.789 46.6468 992.616 46.4609 997.443 46.4609C999.034 46.4609 1000.6 46.4609 1002.19 46.4947C1003.26 46.5116 1006.1 46.8496 1007.04 46.6299C1008.61 46.2413 1008.84 44.5347 1009.84 43.6899C1010.88 42.7944 1012.26 42.2199 1014.19 42.203C1015.73 42.203 1017.85 42.6254 1019.28 42.1861C1020.9 41.6792 1020.43 40.1754 1020.43 39.3306C1020.43 38.5871 1020.43 37.8437 1020.04 37.134C1019.67 36.5089 1018.99 36.0358 1019.62 35.3768C1020.45 34.4982 1022.65 34.4982 1024.08 34.1096C1026.56 33.4337 1026.25 32.1327 1026.27 30.7809C1026.32 29.142 1026.27 27.5199 1026.69 25.8978C1027.05 24.5123 1027.45 23.2789 1025.15 22.3664C1023.17 21.5892 1020.56 21.0823 1018.37 20.4909C1014.58 19.4602 1018.65 18.7337 1020.92 18.3957C1023.09 18.0747 1027.13 18.0071 1027.81 16.6385C1028.54 15.1516 1026.95 13.3944 1026.4 11.975L1026.43 11.8399Z" fill="#914308"/>
<path d="M1009.39 39.1785L1019.91 41.713C1019.75 41.8482 1019.54 41.9496 1019.28 42.034C1017.85 42.4734 1015.71 42.034 1014.19 42.0509C1013.28 42.0509 1012.47 42.203 1011.79 42.4396L1001.17 39.1785H1009.39ZM1008.35 33.214L1019.57 35.3937C1019.57 35.3937 1019.59 35.2923 1019.65 35.2247C1020.48 34.3461 1022.67 34.3461 1024.11 33.9575C1024.24 33.9237 1024.32 33.873 1024.45 33.8392L1025.65 33.214L1015.42 30.5106L1008.35 33.214ZM1018.81 14.4757L1004.98 15.8951L1006.26 17.1454L1017.35 19.0716C1018.16 18.7168 1019.78 18.4295 1020.92 18.2606C1023.09 17.9395 1027.13 17.872 1027.81 16.5033L1018.81 14.4757ZM898.248 42.8958C898.248 42.8958 129.137 43.2675 129.189 42.8958L26.4981 42.1354L12.5659 43.3351C13.2443 43.7068 14.314 43.9603 15.0967 44.2644C16.7403 44.8727 18.4362 45.6668 20.2103 46.123C23.9412 47.103 28.8983 46.5285 32.838 46.4778C36.8558 46.4272 40.8998 46.4609 44.9177 46.4778C51.2054 46.5285 57.4931 46.5623 63.7548 46.613C77.6086 46.7144 91.4625 46.8158 105.29 46.8834C110.143 46.9003 115.022 46.9847 119.849 46.8834C120.292 46.8834 120.736 46.8496 121.205 46.8327C121.205 46.8327 121.571 46.8327 122.171 46.7989C122.953 46.7651 123.762 46.7313 124.545 46.6806C129.502 46.4609 895.143 46.0723 897.935 46.1906C901.822 46.3596 909.571 46.4947 909.571 46.4947V46.444C910.458 46.444 911.345 46.444 912.18 46.444C935.766 46.5961 959.377 46.6468 982.963 46.5454C987.789 46.5285 992.616 46.3427 997.443 46.3427C999.034 46.3427 1000.6 46.3427 1002.19 46.3765C1003.26 46.3934 1006.1 46.7313 1007.04 46.5116C1007.12 46.4947 1007.17 46.4609 1007.25 46.4271L996.53 43.4871L898.248 42.9127V42.8958ZM16.8186 22.0116L20.3669 22.2313L23.6281 19.494L10.8701 18.7337L10.3743 19.5278C10.8701 19.7137 11.3919 19.8826 11.8615 20.0516C13.5573 20.6768 15.2532 21.454 17.0795 21.9609C17.0012 21.9609 16.8969 21.9947 16.8186 22.0116Z" fill="#7A3400"/>
<path d="M909.858 9.18716C917.503 9.11957 923.843 8.83233 923.921 8.52819C923.921 8.4944 924.025 8.4775 924.156 8.4606C924.156 8.4606 924.103 8.4606 924.077 8.4606C918.938 8.27474 914.085 8.27474 909.154 8.71405C907.354 8.86612 905.553 9.05198 903.701 9.23785C903.857 9.23785 904.04 9.23785 904.197 9.23785L909.858 9.18716Z" fill="url(#paint0_radial_212_1036)"/>
<path d="M955.542 9.37302C946.515 9.28854 937.409 9.00129 928.487 8.64647C930.939 8.83233 934.174 9.13647 937.696 9.54198L943.436 10.1841C950.924 11.0289 963.317 11.7554 970.961 11.7892H976.466C984.111 11.8399 996.634 11.7385 1004.28 11.5865L1009.73 11.4682C1012.21 11.4175 1015.24 11.3499 1018.42 11.2654C1018.13 10.6741 1017.79 10.0996 1017.58 9.50819C1017.43 9.13647 1017.53 8.4606 1017.71 7.63267C996.999 9.00129 976.205 9.59267 955.542 9.37302Z" fill="url(#paint1_radial_212_1036)"/>
<path d="M19.4538 3.25646L14.0531 3.34094C10.531 3.39163 5.96518 3.5437 1.34723 3.72956C15.2272 3.57749 29.081 3.50991 42.9349 3.59439C35.4731 3.30715 25.7937 3.15508 19.4277 3.25646H19.4538Z" fill="url(#paint2_radial_212_1036)"/>
<path d="M981.163 44.1462C986.902 43.9434 992.329 43.9603 998.173 44.18C998.382 44.18 998.591 44.1799 998.747 44.1124C998.878 44.0617 998.93 43.9603 998.982 43.8758C999.06 43.7744 999.113 43.6562 999.191 43.5548C987.294 43.5548 975.501 43.8251 963.76 44.2306C972.631 44.2306 979.388 44.1968 981.163 44.1293V44.1462Z" fill="url(#paint3_radial_212_1036)"/>
<path d="M19.9234 28.8717C27.3591 29.8686 39.6215 30.1389 47.1615 29.463L53.0318 28.9392C60.5718 28.2634 73.0168 27.8579 80.6613 28.0268L86.5055 28.162C94.1499 28.331 106.647 28.5675 114.291 28.6858L119.64 28.7703C125.902 28.8717 891.986 29.0068 899.422 29.1082C894.439 28.8886 132.92 28.5844 128.041 28.2803C114.291 27.4186 100.62 26.5061 86.9229 25.543C73.2777 24.563 59.6065 23.5661 45.9092 22.5861C39.1258 22.113 32.4206 21.792 25.7937 22.0285C21.828 22.1468 17.8101 22.5861 13.6879 23.0592C13.2704 23.4479 13.2182 23.9041 13.7922 24.2251C11.0788 24.563 8.44375 25.0361 5.93909 25.6275C5.75646 26.2189 5.70428 26.8103 5.70428 27.4017C8.5742 27.5199 11.2615 27.7227 13.5313 28.0268L19.8973 28.8886L19.9234 28.8717Z" fill="url(#paint4_radial_212_1036)"/>
<path d="M995.747 38.5703C996.686 38.2324 997.678 37.9451 998.669 37.7086C991.494 37.6579 982.754 38.1986 977.014 39.1279L970.387 40.1924C963.056 41.3751 950.846 41.8651 943.28 41.2906L937.148 40.8175C929.582 40.243 917.111 39.8882 909.467 40.0572L903.884 40.1755C896.239 40.3444 127.18 39.9389 119.64 39.263L113.77 38.7393C106.23 38.0803 93.7846 37.6917 86.1402 37.8944L80.7395 38.0296C73.0951 38.2324 60.6762 38.9758 53.1362 39.7024L46.9006 40.2937C39.3606 41.0203 27.0982 40.8175 19.6625 39.8544L13.3226 39.0265C11.0788 38.7393 8.36548 38.4858 5.49556 38.2661C5.05203 38.9082 4.68677 39.601 5.49556 40.1248C6.09563 40.5134 7.13924 40.6824 8.18284 40.8175C34.6643 41.2568 60.7806 42.4903 86.7403 43.1155C101.925 43.5041 117.031 43.6224 132.215 43.4196C147.4 43.2337 919.277 42.7944 934.644 42.4396C956.116 41.9496 977.927 41.6455 999.843 42.4396C1000.6 41.3582 1001.57 40.3951 1003.55 39.8544C1005.64 39.2968 1011.24 40.7668 1011.4 38.7393C1010.44 38.7393 1009.5 38.7393 1008.56 38.7393C1004.33 38.7055 1000.31 38.3337 995.669 38.5534L995.747 38.5703Z" fill="url(#paint5_radial_212_1036)"/>
<path d="M1004.17 30.4768C996.53 30.7472 984.032 30.9837 976.388 31.0175H970.935C963.291 31.0513 950.768 31.0175 943.123 30.933L937.435 30.8824C929.791 30.7979 917.268 30.9161 909.649 31.1358L904.014 31.3048C896.37 31.5244 127.258 31.6427 119.614 31.5751L114.057 31.5244C106.412 31.4568 93.9411 30.9837 86.3489 30.4768L80.7134 30.1051C73.1212 29.5982 60.8067 29.9868 53.371 30.9499L46.9006 31.7948C39.4649 32.7579 27.333 32.6565 19.9495 31.5582L13.4791 30.5951C11.3398 30.2741 8.78292 30.0544 6.09563 29.9024C6.27826 30.7134 6.48698 31.5075 6.64353 32.3017C9.14818 32.4537 11.6267 32.6903 14.0531 33.062C16.7665 33.4844 19.506 33.8224 22.2976 34.1096C33.4381 35.2417 44.996 34.9206 56.5801 34.532C44.9699 35.2586 33.3077 35.8668 21.8019 34.9375C18.932 34.701 16.0882 34.3968 13.2965 34.0251C11.1832 33.7548 9.04382 33.5858 6.87834 33.4844C6.9827 34.3461 6.9827 35.191 6.77398 36.0358C9.33081 36.2386 11.7572 36.4582 13.7922 36.7117L19.9756 37.4889C27.4374 38.4182 39.6476 38.4689 47.1354 37.6072L52.7709 36.9482C60.2588 36.0696 72.6255 35.2755 80.2699 35.1741L86.4011 35.0896C93.8629 34.9882 105.917 35.3093 113.535 35.8162C109.073 35.3599 104.612 34.7855 100.177 34.0082C113.587 34.9882 883.011 35.0727 895.769 35.0727C908.528 35.022 921.286 34.8361 934.644 34.532C927.626 35.3937 920.686 36.0189 913.772 36.4413C921.286 36.3399 931.122 36.5934 937.514 37.0834L943.071 37.5227C950.637 38.1141 962.978 37.8944 970.466 37.0496L976.545 36.3568C984.032 35.512 996.399 35.0896 1004.04 35.4106L1010.07 35.6641C1010.54 35.681 1011.09 35.6979 1011.58 35.7317C1011.56 35.512 1011.53 35.3093 1011.45 35.0896C1011.4 34.9375 1011.32 34.8024 1011.22 34.6672C1008.4 34.7517 1005.58 34.8193 1002.74 34.8868C980.745 35.4613 958.464 35.8668 935.661 36.1372C958.386 34.5827 980.641 33.1972 1002.61 31.9806C1007.28 31.7272 1011.92 31.4737 1016.57 31.2203C1016.72 31.1358 1016.88 31.0513 1016.98 30.933C1017.22 30.6965 1017.32 30.4261 1017.38 30.1558C1014.58 30.1727 1011.92 30.2234 1009.71 30.3079L1004.2 30.5106L1004.17 30.4768Z" fill="url(#paint6_radial_212_1036)"/>
<path d="M1004.1 14.4589C996.451 14.5434 983.928 14.4927 976.284 14.3575L970.596 14.2561C962.952 14.121 956.69 13.952 956.664 13.9013C956.664 13.8337 950.481 13.1916 942.94 12.4482L937.122 11.8737C929.582 11.1303 917.19 10.7923 909.571 11.0965L904.066 11.333C896.448 11.6541 127.337 11.8399 119.692 11.7385L114.37 11.6709C106.725 11.5865 94.3325 12.161 86.8185 12.972L80.4004 13.6647C72.8864 14.4758 60.6762 14.3237 53.2405 13.3268L46.7702 12.4651C39.3345 11.4682 27.0199 10.9275 19.4016 11.2654L14.1575 11.502C11.131 11.6372 7.34796 11.8061 3.43444 11.992C3.12136 13.1072 3.19963 14.3406 4.60849 15.1347C11.5746 15.2699 18.5145 15.3375 25.4806 15.1854C28.3244 15.1347 31.09 14.9827 34.0121 14.9151C36.9081 14.8306 39.8041 14.8475 42.7001 14.8813C48.466 14.9827 54.2059 15.253 59.9718 15.4896C71.4253 15.9289 83.1659 16.3682 94.5412 14.6447C83.2181 16.723 71.1645 16.5541 59.6065 16.3513C53.7884 16.233 48.0225 16.081 42.3088 16.0979C36.5689 16.0641 31.0117 16.4696 25.1936 16.6892C19.5842 16.8751 14.0009 16.9258 8.41765 16.892C8.36547 17.0947 8.20893 17.2975 8.10457 17.4834C7.66104 18.3282 8.93946 19.1561 10.557 19.5448C11.5224 19.7644 12.5921 19.8658 13.6879 19.9165C17.5753 19.3927 21.5932 18.9027 25.7937 18.7168C33.0728 18.362 40.2476 18.6323 47.2137 19.0379C53.084 19.4096 58.9282 19.7813 64.7463 20.1699C70.46 20.2375 76.4086 20.1699 80.7917 19.9334L86.2967 19.6292C93.9151 19.2237 106.386 18.6154 114.004 18.2775L119.796 18.0241C127.415 17.703 133.703 17.6185 133.781 17.8382C133.833 18.0579 896.657 18.8858 904.171 19.663L909.963 20.2544C917.477 21.0316 929.843 21.2175 937.409 20.643L942.967 20.2375C950.559 19.6799 963.004 19.1561 970.648 19.0716L976.388 19.021C983.093 18.9534 993.581 18.9196 1001.2 18.9365C1000.47 18.9027 999.739 18.8858 998.982 18.8351C992.042 18.4296 985.233 17.7368 978.423 17.061C971.614 16.3851 964.804 15.7261 957.89 15.422C950.976 15.1347 943.932 15.2192 936.966 16.0472C943.775 14.9151 950.95 14.5096 958.021 14.5265C965.117 14.5603 972.109 14.9827 979.023 15.422C985.937 15.8613 992.773 16.3344 999.53 16.5034C1002.66 16.6047 1005.79 16.6047 1008.92 16.5372C1009.26 16.4527 1009.63 16.3682 1009.97 16.3175C1012.44 15.9458 1014.9 15.5741 1017.38 15.2023C1017.71 15.1516 1018.08 15.101 1018.37 14.9658C1018.68 14.8137 1018.81 14.5941 1018.92 14.3744C1015.55 14.3913 1012.37 14.4251 1009.76 14.4589L1004.1 14.5265V14.4589ZM940.149 17.1623C937.853 17.8382 935.14 18.1254 932.504 18.0747C929.843 18.041 927.26 17.7368 924.808 17.3482C919.851 16.571 915.415 15.5741 910.719 15.3713C905.997 15.101 901.092 15.2023 896.03 15.1179C890.995 15.0334 129.032 14.763 124.232 13.5803C134.563 14.6278 900.805 12.803 911.189 13.4451C916.485 13.6985 921.26 14.9658 925.747 15.9796C930.261 16.9934 935.035 17.8889 940.123 17.1623H940.149Z" fill="url(#paint7_radial_212_1036)"/>
<path d="M1004.17 20.5923C996.53 20.3727 984.033 20.3558 976.388 20.5585L970.935 20.6937C963.291 20.8796 950.82 21.4541 943.228 21.961L937.331 22.3496C929.739 22.8565 917.346 22.7044 909.806 22.0285L903.701 21.4879C896.161 20.812 127.102 20.2375 119.457 20.2206H114.109C106.464 20.1868 93.9672 20.5248 86.375 20.9641L81.2874 21.2513C83.6616 21.4203 86.0358 21.5723 88.3839 21.7413C102.081 22.7213 115.752 23.7182 129.45 24.6982C143.147 25.7458 913.198 26.7089 926.791 25.881C933.626 25.543 940.592 25.0192 947.715 24.8503C954.864 24.6813 961.986 24.9517 969.005 25.3403C983.015 26.1006 997.104 27.3003 1011.24 25.7965C997.234 27.9761 982.493 27.3003 968.457 27.0299C961.386 26.8779 954.42 26.8441 947.558 27.2327C940.697 27.6044 933.835 28.3141 926.817 28.821C923.999 29.0406 921.129 29.1758 918.259 29.2603C924.86 29.2265 932.217 29.1082 937.383 28.9223L942.94 28.7196C950.585 28.4492 963.082 28.2127 970.727 28.1789H976.205C983.85 28.1282 996.373 28.0099 1004.02 27.8917L1009.76 27.7903C1011.97 27.7565 1014.61 27.7396 1017.4 27.7565C1017.43 26.8103 1017.48 25.8472 1017.51 24.901C1013.46 24.7151 1009.5 24.3772 1005.64 24.073C1001.57 23.7351 997.547 23.3634 993.451 23.1268C989.355 22.9072 985.18 22.7889 980.85 23.2789C984.789 22.1637 989.277 21.7582 993.581 21.6737C997.912 21.5892 1002.14 21.8089 1006.26 22.1637C1010.17 22.4848 1013.98 22.941 1017.79 23.4141C1018.03 22.6368 1018.26 21.8258 1018.03 21.2344C1017.98 21.0992 1017.9 20.981 1017.82 20.8796C1014.82 20.8627 1011.98 20.8289 1009.63 20.7613L1004.1 20.6092L1004.17 20.5923Z" fill="url(#paint8_radial_212_1036)"/>
<path d="M84.7574 0.755768C83.9747 0.755768 83.192 0.789561 82.3832 0.806457C82.5397 0.840251 82.6963 0.874044 82.8528 0.907837L84.7574 0.772664V0.755768Z" fill="url(#paint9_radial_212_1036)"/>
<path d="M1017.64 0.586802C1017.64 0.586802 1017.45 0.485423 1017.32 0.468526C1015.81 0.113698 1014.82 0.468526 1013.41 0.603699C1013.36 0.603699 1013.28 0.603699 1013.23 0.603699C1014.61 0.603699 1016.1 0.586802 1017.61 0.586802H1017.64Z" fill="url(#paint10_radial_212_1036)"/>
<path d="M80.5047 1.05991L81.6788 0.975423C81.2352 0.924733 80.8178 0.874044 80.3743 0.840251C73.1995 0.975423 65.1898 1.14439 57.7541 1.26266C65.0854 1.5837 74.3475 1.53301 80.4786 1.05991H80.5047Z" fill="url(#paint11_radial_212_1036)"/>
<path d="M970.935 1.73577L976.31 1.5668C982.258 1.38094 991.129 1.12749 998.382 0.94163C996.921 0.958527 995.46 0.99232 994.025 1.00922C988.807 1.0768 968.065 0.620595 943.149 0.45163L943.488 0.502319C950.95 1.43163 963.317 1.98922 970.935 1.73577Z" fill="url(#paint12_radial_212_1036)"/>
<path d="M119.953 1.97232C127.415 2.86784 896.135 2.59749 903.44 1.38094L908.658 0.502319C902.005 0.569905 138.816 0.688181 132.45 0.857147C131.824 0.620595 131.041 0.485423 130.259 0.384043C129.058 0.231974 127.858 0.147491 126.684 0.079905C125.119 0.079905 123.553 0.079905 121.988 0.0292153C120.11 0.0630084 118.231 0.130595 116.274 0.181284C111.578 0.316457 106.908 0.384043 102.212 0.451629C106.464 0.586802 110.587 0.857147 113.822 1.24577L119.979 1.98922L119.953 1.97232Z" fill="url(#paint13_radial_212_1036)"/>
<path d="M4.13887 9.49129C7.60886 9.33922 10.9223 9.18715 13.6096 9.05198L19.6364 8.74784C27.2547 8.37612 39.6736 8.54508 47.2398 9.15336L53.0579 9.60957C60.624 10.2178 73.0429 10.2685 80.6091 9.74474L86.2706 9.35612C89.1927 9.15336 92.8714 8.9844 96.6806 8.88302C89.271 8.52819 81.8614 8.24095 74.4257 8.02129C50.6315 7.34543 26.7329 7.22715 2.70391 7.27784C2.86045 7.32853 2.99091 7.36233 3.17354 7.39612C4.03451 7.9706 4.21714 8.71405 4.11278 9.49129H4.13887Z" fill="url(#paint14_radial_212_1036)"/>
<path d="M1009.63 3.59439L1004.38 3.66198C996.738 3.76336 984.215 3.86474 976.571 3.88163H970.779C963.134 3.91543 950.689 3.45922 943.097 2.85094L937.383 2.39473C929.817 1.80336 917.529 2.10749 910.093 3.08749L903.727 3.93232C896.291 4.91232 127.441 5.06439 119.927 4.28715L113.796 3.64508C106.282 2.85094 93.9411 2.69887 86.375 3.30715L80.6352 3.76336C78.6784 3.91543 76.4086 4.0506 73.9561 4.13508C74.5301 4.13508 75.1041 4.15198 75.7041 4.16887C86.1141 4.47301 96.5241 4.92922 106.908 5.5375C117.292 6.14577 884.029 6.9906 893.839 6.43302C898.744 6.16267 903.805 5.5375 909.18 5.16577C914.607 4.76025 920.19 4.89543 925.434 5.16577C935.844 5.74026 946.097 6.21336 956.507 6.46681C976.91 6.9906 997.443 6.77095 1018.13 5.87543C1018.31 5.13198 1018.5 4.35474 1018.58 3.62818C1015.29 3.5775 1012.18 3.5606 1009.63 3.59439Z" fill="url(#paint15_radial_212_1036)"/>
<path d="M21.7236 34.8868C33.2294 35.8161 44.8917 35.2079 56.5018 34.4813C44.9439 34.8868 33.3598 35.191 22.2193 34.0589C19.4538 33.7717 16.6882 33.4337 13.9749 33.0113C11.5485 32.6396 9.06991 32.403 6.56526 32.251C6.64353 32.6396 6.7218 33.0451 6.77398 33.4337C8.93946 33.5351 11.0788 33.7041 13.1922 33.9744C15.9838 34.3461 18.8276 34.6503 21.6975 34.8868H21.7236Z" fill="#CC6D2D"/>
<path d="M119.901 36.2217C127.493 36.7455 896.552 36.9482 904.197 36.6779L909.806 36.4751C911.006 36.4244 912.337 36.4075 913.719 36.3906C920.633 35.9682 927.573 35.343 934.592 34.4813C921.234 34.7855 908.475 34.9882 895.717 35.022C882.959 35.022 113.535 34.9544 100.125 33.9575C104.56 34.7348 109.021 35.3261 113.483 35.7655C113.665 35.7655 113.874 35.7824 114.057 35.7993L119.901 36.2048V36.2217Z" fill="#CC6D2D"/>
<path d="M42.2827 16.0472C47.9964 16.0472 53.7623 16.1823 59.5804 16.3006C71.1384 16.5034 83.192 16.6723 94.5151 14.5941C83.1398 16.3344 71.3732 15.8782 59.9457 15.4389C54.2058 15.2023 48.466 14.932 42.674 14.8306C39.778 14.7968 36.882 14.7799 33.986 14.8644C31.0639 14.9489 28.2983 15.0841 25.4545 15.1347C18.5145 15.2868 11.5485 15.2023 4.5824 15.0841C4.84331 15.2361 5.1303 15.3713 5.49556 15.4727C6.64353 15.8444 8.41765 16.0641 8.44375 16.7399C8.44375 16.7737 8.41765 16.8075 8.41765 16.8244C13.9749 16.8413 19.5842 16.8244 25.1936 16.6216C31.0117 16.3851 36.5689 15.9796 42.3088 16.0303L42.2827 16.0472Z" fill="#CC6D2D"/>
<path d="M1004.17 37.8775C1002.53 37.7761 1000.65 37.7255 998.669 37.7086C997.652 37.9451 996.686 38.2155 995.747 38.5703C1000.39 38.3675 1004.41 38.7224 1008.64 38.7562C1009.57 38.7562 1010.51 38.7562 1011.48 38.7562C1011.48 38.7393 1011.48 38.7224 1011.48 38.7055C1011.48 38.5872 1011.48 38.4689 1011.48 38.3506C1010.93 38.3168 1010.36 38.283 1009.86 38.2493L1004.15 37.8775H1004.17Z" fill="#CC6D2D"/>
<path d="M121.962 0.0292153C123.527 0.079905 125.093 0.0968015 126.658 0.079905C125.093 0.0123187 123.527 -0.00457788 121.962 0.0292153Z" fill="#CC6D2D"/>
<path d="M925.747 15.9796C921.26 14.9658 916.485 13.6985 911.189 13.4451C900.779 12.8199 134.563 14.6447 124.232 13.5803C129.032 14.763 890.995 15.0334 896.03 15.1179C901.092 15.2023 906.023 15.0841 910.719 15.3713C915.415 15.5741 919.851 16.571 924.808 17.3482C927.26 17.7199 929.843 18.041 932.504 18.0747C935.14 18.1085 937.853 17.8382 940.149 17.1623C935.061 17.9058 930.287 16.9934 925.773 15.9796H925.747Z" fill="#CC6D2D"/>
<path d="M993.66 21.6737C989.381 21.7582 984.893 22.1637 980.928 23.2789C985.259 22.7889 989.433 22.9072 993.529 23.1268C997.625 23.3634 1001.64 23.7351 1005.71 24.073C1009.57 24.3941 1013.54 24.7151 1017.58 24.901C1017.58 24.8503 1017.58 24.7996 1017.58 24.7489C1017.58 24.3603 1017.74 23.8872 1017.87 23.3972C1014.04 22.9241 1010.25 22.4679 1006.34 22.1468C1002.22 21.792 997.991 21.5723 993.66 21.6568V21.6737Z" fill="#CC6D2D"/>
<path d="M82.8528 0.89094C82.6963 0.857147 82.5397 0.823354 82.3832 0.789561C81.731 0.789561 81.0526 0.823354 80.4004 0.823354C80.8439 0.874044 81.2613 0.924733 81.7049 0.958527L82.8789 0.874044L82.8528 0.89094Z" fill="#CC6D2D"/>
<path d="M999.53 16.4527C992.747 16.2668 985.937 15.8106 979.023 15.3713C972.109 14.932 965.091 14.5265 958.021 14.4758C950.95 14.4758 943.775 14.8644 936.966 15.9965C943.906 15.1854 950.976 15.0841 957.89 15.3713C964.804 15.6923 971.64 16.3513 978.423 17.0103C985.233 17.6861 992.042 18.3789 998.982 18.7844C999.713 18.8351 1000.44 18.852 1001.2 18.8858C1002.24 18.8858 1003.26 18.8858 1004.2 18.8858L1009.78 18.9196C1010.59 18.9196 1011.48 18.9196 1012.39 18.9196L1010.07 18.4465C1009 18.2268 1007.72 17.8213 1007.88 17.1623C1007.96 16.8244 1008.43 16.6047 1009 16.4527C1005.87 16.5203 1002.74 16.5203 999.608 16.4189L999.53 16.4527Z" fill="#CC6D2D"/>
<path d="M45.9353 22.5861C59.6326 23.583 73.2777 24.563 86.949 25.543C100.62 26.4892 114.318 27.4017 128.067 28.2803C132.946 28.5844 894.465 28.8886 899.448 29.1082C901.118 29.1251 902.709 29.1589 904.092 29.1758L909.676 29.2434C912.154 29.2772 915.155 29.2772 918.338 29.2603C921.207 29.1589 924.077 29.0237 926.895 28.821C933.913 28.3141 940.749 27.6044 947.637 27.2327C954.472 26.8441 961.464 26.8779 968.535 27.0299C982.571 27.3003 997.312 27.9761 1011.32 25.7965C997.182 27.3003 983.093 26.1006 969.083 25.3403C962.065 24.9517 954.942 24.6644 947.793 24.8503C940.671 25.0192 933.705 25.5599 926.869 25.881C913.276 26.7089 143.225 25.7458 129.528 24.6982C115.831 23.7013 102.16 22.7213 88.4622 21.7413C86.088 21.5723 83.7138 21.4203 81.3657 21.2513L80.7656 21.2851C73.1473 21.7244 60.7545 21.5723 53.1883 20.9303L47.2659 20.4403C40.0128 19.832 28.4027 20.001 20.8627 20.7951C20.3148 21.2682 19.2451 21.5723 18.1754 21.7751C16.9491 22.0117 15.5924 22.1637 14.601 22.5692C14.2879 22.7044 14.0009 22.8734 13.8183 23.0592C17.9406 22.603 21.9324 22.1468 25.9241 22.0285C32.5249 21.792 39.2562 22.113 46.0396 22.5861H45.9353Z" fill="#CC6D2D"/>
<path d="M47.1615 19.3758L53.084 19.7475C56.3192 19.9503 60.4414 20.0854 64.6941 20.1361C58.876 19.7475 53.0318 19.3758 47.1615 19.0041C40.1954 18.5985 33.0207 18.3282 25.7415 18.683C21.5671 18.8689 17.5492 19.3589 13.6357 19.8827C14.3662 19.9165 15.0967 19.9334 15.8012 19.9672C15.9577 19.9672 16.1142 19.9672 16.2708 19.9841L19.6103 19.6968C27.1765 19.0379 39.5693 18.8858 47.1615 19.3758Z" fill="#CC6D2D"/>
<path d="M935.583 36.1034C958.412 35.833 980.693 35.4275 1002.66 34.853C1005.48 34.7855 1008.32 34.7179 1011.14 34.6334C1010.8 34.1772 1010.28 33.7548 1010.54 33.231C1011.3 31.8286 1014.87 32.1327 1016.49 31.1865C1011.84 31.4399 1007.17 31.6934 1002.53 31.9468C980.536 33.1634 958.308 34.5489 935.583 36.1034Z" fill="#CC6D2D"/>
<path d="M934.696 42.4734C919.329 42.8113 147.452 43.2506 132.268 43.4534C117.083 43.6562 101.977 43.5379 86.7924 43.1493C60.8067 42.5241 34.7165 41.2906 8.23502 40.8513C9.53953 41.0203 10.8701 41.1893 11.3658 41.7468C11.6267 42.0341 11.5485 42.372 11.7311 42.6931C12.566 44.1631 17.8101 44.1293 20.3669 44.0617C25.1936 43.9434 29.9942 43.9096 34.8209 43.9434C52.7709 44.0617 98.9765 44.4165 110.169 44.3996C115.987 44.3827 900.074 44.0955 901.535 44.1293C903.544 44.1631 940.827 44.2813 963.813 44.2644C975.527 43.8589 987.346 43.5886 999.243 43.5886C999.478 43.2168 999.687 42.862 999.947 42.5072C978.032 41.7131 956.22 42.0172 934.748 42.5072L934.696 42.4734Z" fill="#CC6D2D"/>
<path d="M74.4257 8.02129C81.8614 8.24095 89.271 8.54508 96.6806 8.88302C102.76 8.71405 109.256 8.66336 113.952 8.79854L119.77 8.9675C127.258 9.17026 896.004 9.28854 903.701 9.23785C905.553 9.05198 907.354 8.86612 909.154 8.71405C914.085 8.27474 918.938 8.27474 924.077 8.4606C924.077 8.4606 924.129 8.4606 924.156 8.4606C924.703 8.39302 926.269 8.4606 928.487 8.62957C937.409 8.9844 946.515 9.28854 955.542 9.35612C976.179 9.57578 996.973 8.9844 1017.71 7.61578C1017.85 7.07508 1017.98 6.46681 1018.13 5.84164C997.443 6.73715 976.91 6.95681 956.507 6.43301C946.097 6.17957 935.844 5.70646 925.434 5.13198C920.216 4.86163 914.633 4.74336 909.18 5.13198C903.805 5.5037 898.744 6.12888 893.839 6.39922C884.029 6.97371 117.292 6.12888 106.908 5.5037C96.5241 4.87853 86.1141 4.43922 75.7041 4.13508C75.1301 4.13508 74.5562 4.11819 73.9561 4.10129C66.9639 4.37163 58.6673 4.38853 53.0057 4.08439L47.2137 3.78025C45.9353 3.71267 44.4742 3.64508 42.961 3.59439C29.1071 3.49301 15.2533 3.57749 1.37332 3.72956C1.32114 3.72956 1.26896 3.72956 1.21678 3.72956C1.6864 4.11819 1.45159 4.59129 1.29505 5.08129C1.00805 5.89232 1.37332 6.85543 2.73 7.26095C26.759 7.22715 50.6315 7.32853 74.4518 8.0044L74.4257 8.02129Z" fill="#CC6D2D"/>
<path d="M14.0531 3.34094L19.4538 3.25646C25.8198 3.15508 35.4731 3.30715 42.961 3.59439C44.4742 3.64508 45.9353 3.71267 47.2137 3.78025L53.0057 4.08439C58.6673 4.38853 66.9379 4.37163 73.9561 4.10129C76.3825 3.99991 78.6784 3.88163 80.6352 3.72956L86.375 3.27336C93.9411 2.66508 106.282 2.83405 113.796 3.61129L119.927 4.25336C127.441 5.0475 896.291 4.89543 903.727 3.89853L910.093 3.0537C917.529 2.0737 929.817 1.75267 937.383 2.36094L943.097 2.81715C950.663 3.40853 963.134 3.88163 970.779 3.86474H976.571C984.215 3.83094 996.738 3.72956 1004.38 3.62818L1009.63 3.5606C1012.18 3.5268 1015.31 3.5437 1018.58 3.59439C1018.76 2.19198 1018.63 0.99232 1017.64 0.553009C1016.12 0.553009 1014.64 0.553009 1013.25 0.569905C1011.3 0.738871 1009.31 0.738871 1007.33 0.772664C1004.36 0.823354 1001.38 0.857147 998.408 0.907837C991.155 1.0937 982.284 1.34715 976.336 1.53301L970.961 1.70198C963.317 1.93853 950.976 1.38094 943.514 0.468526L943.175 0.417836C932.165 0.35025 920.372 0.333353 908.71 0.468526L903.492 1.34715C896.187 2.5806 127.467 2.85094 120.005 1.93853L113.848 1.19508C110.639 0.806457 106.49 0.536112 102.238 0.40094C101.533 0.40094 100.803 0.434733 100.098 0.434733C97.0198 0.468526 91.4626 0.569905 84.8096 0.705078L82.905 0.840251L80.5569 1.00922C74.4257 1.46542 65.1637 1.51611 57.8324 1.21198C48.0486 1.38094 39.3084 1.48232 34.8991 1.39784C29.055 1.29646 23.2108 1.22887 17.3666 1.24577C14.4445 1.24577 11.5224 1.27956 8.60029 1.34715C6.35653 1.39784 3.2779 1.14439 1.19069 1.51611C0.825424 1.5837 0.434072 1.66818 0.22535 1.82025C-0.139911 2.0737 -0.00946077 2.42853 0.251441 2.69887C0.538432 2.96922 0.929784 3.22267 1.06024 3.5268C1.1646 3.57749 1.19069 3.64508 1.26896 3.69577C1.32114 3.69577 1.37332 3.69577 1.4255 3.69577C6.04345 3.50991 10.6092 3.35784 14.1314 3.30715L14.0531 3.34094Z" fill="#9E5123"/>
<path d="M1004.28 11.5865C996.634 11.7385 984.111 11.8568 976.466 11.823H970.961C963.317 11.7723 950.924 11.0458 943.436 10.2009L937.696 9.55888C934.174 9.15336 930.939 8.84923 928.487 8.66336C926.269 8.4944 924.703 8.42681 924.156 8.4944C924.025 8.4944 923.921 8.52819 923.921 8.56198C923.843 8.84923 917.503 9.15336 909.858 9.22095L904.197 9.27164C904.04 9.27164 903.857 9.27164 903.701 9.27164C896.03 9.32233 127.258 9.20405 119.77 9.00129L113.952 8.83233C109.256 8.69715 102.76 8.74785 96.6806 8.91681C92.8454 9.03509 89.1927 9.18716 86.2706 9.38991L80.6091 9.77854C73.0169 10.3023 60.624 10.2516 53.0579 9.64336L47.2398 9.18716C39.6736 8.57888 27.2547 8.40991 19.6364 8.78164L13.6096 9.08578C10.9223 9.22095 7.60886 9.37302 4.13887 9.52509C4.0606 10.2685 3.72143 11.0458 3.48662 11.7216C3.46053 11.8061 3.43444 11.9075 3.40835 11.992C7.34796 11.8061 11.131 11.6203 14.1314 11.502L19.3755 11.2654C26.9938 10.9275 39.3345 11.4682 46.7441 12.4651L53.2144 13.3268C60.6501 14.3237 72.8603 14.4758 80.3743 13.6647L86.7924 12.972C94.3064 12.161 106.699 11.5865 114.344 11.671L119.666 11.7385C127.31 11.823 896.422 11.6372 904.04 11.333L909.545 11.0965C917.164 10.7754 929.582 11.1303 937.096 11.8737L942.914 12.4482C950.454 13.1916 956.612 13.8506 956.638 13.9013C956.638 13.9689 962.926 14.121 970.57 14.2561L976.258 14.3575C983.902 14.4927 996.425 14.5434 1004.07 14.4589L1009.73 14.3913C1012.34 14.3575 1015.52 14.3406 1018.89 14.3068C1018.89 14.2561 1018.94 14.2223 1018.94 14.1716C1019.25 13.1916 1018.86 12.2285 1018.39 11.2654C1015.21 11.3499 1012.21 11.4175 1009.71 11.4682L1004.25 11.5865H1004.28Z" fill="#9E5123"/>
<path d="M1003.97 35.3599C996.347 35.0389 983.98 35.4613 976.466 36.3062L970.387 36.9989C962.899 37.8437 950.559 38.0634 942.993 37.472L937.435 37.0327C931.043 36.5427 921.207 36.2893 913.693 36.3906C912.311 36.4075 910.98 36.4413 909.78 36.4751L904.171 36.6779C896.526 36.9482 127.467 36.7455 119.875 36.2217L114.031 35.8162C113.848 35.8162 113.639 35.7993 113.457 35.7824C105.838 35.2755 93.7846 34.9375 86.3228 35.0558L80.1916 35.1403C72.5472 35.2417 60.1544 36.0527 52.6926 36.9144L47.0572 37.5734C39.5693 38.452 27.3591 38.4013 19.8973 37.4551L13.714 36.6779C11.6789 36.4244 9.27863 36.1879 6.69571 36.002C6.53917 36.6272 6.27826 37.2524 5.86082 37.8606C5.75646 37.9958 5.6521 38.1479 5.54774 38.2999C8.41766 38.5196 11.131 38.7731 13.3748 39.0603L19.7147 39.8882C27.1504 40.8513 39.4128 41.0541 46.9528 40.3275L53.1883 39.7362C60.7284 39.0096 73.1473 38.2493 80.7917 38.0634L86.1924 37.9282C93.8368 37.7255 106.256 38.1141 113.822 38.7731L119.692 39.2968C127.232 39.9558 896.291 40.3782 903.936 40.2093L909.519 40.091C917.164 39.922 929.608 40.2599 937.201 40.8513L943.332 41.3244C950.898 41.8989 963.108 41.4089 970.44 40.2262L977.066 39.1617C982.832 38.2324 991.547 37.6917 998.721 37.7424C1000.7 37.7424 1002.58 37.8099 1004.23 37.9113L1009.94 38.2831C1010.44 38.3168 1011.01 38.3506 1011.56 38.3844C1011.61 37.5058 1011.69 36.5934 1011.56 35.7148C1011.06 35.6979 1010.51 35.681 1010.04 35.6472L1004.02 35.3937L1003.97 35.3599Z" fill="#9E5123"/>
<path d="M1009.81 27.8072L1004.07 27.9086C996.425 28.0268 983.902 28.162 976.258 28.1789H970.779C963.134 28.2296 950.637 28.4661 942.993 28.7365L937.435 28.9392C932.27 29.1251 924.912 29.2434 918.311 29.2772C915.154 29.2772 912.128 29.2772 909.649 29.2603L904.066 29.1927C902.683 29.1758 901.092 29.1589 899.422 29.1251C891.987 29.0237 125.902 28.8886 119.64 28.7872L114.291 28.7027C106.647 28.5844 94.1238 28.3479 86.5055 28.1789L80.6613 28.0437C73.0169 27.8748 60.5979 28.2803 53.0318 28.9561L47.1615 29.4799C39.6215 30.1558 27.3591 29.8855 19.9234 28.8886L13.5574 28.0268C11.3137 27.7227 8.60029 27.5199 5.73037 27.4017C5.73037 28.2296 5.86082 29.0406 6.04345 29.8686C8.75683 30.0206 11.3137 30.2403 13.427 30.5613L19.8973 31.5244C27.2808 32.6227 39.4127 32.741 46.8484 31.761L53.3188 30.9161C60.7545 29.953 73.069 29.5644 80.6613 30.0713L86.2967 30.443C93.889 30.9499 106.36 31.423 114.004 31.4906L119.562 31.5413C127.206 31.6089 896.343 31.4906 903.962 31.271L909.597 31.102C917.242 30.8824 929.739 30.7641 937.383 30.8486L943.071 30.8992C950.715 30.9837 963.239 31.0175 970.883 31.0006H976.336C983.98 30.9668 996.478 30.7303 1004.12 30.443L1009.63 30.2403C1011.84 30.1558 1014.48 30.1051 1017.3 30.0882C1017.35 29.8855 1017.35 29.6827 1017.35 29.4799C1017.35 28.9055 1017.4 28.3141 1017.4 27.7396C1014.61 27.7396 1011.97 27.7396 1009.76 27.7734L1009.81 27.8072Z" fill="#9E5123"/>
<path d="M1004.15 18.9196C1003.21 18.9196 1002.22 18.9196 1001.15 18.9196C993.503 18.9027 983.041 18.9365 976.336 19.0041L970.596 19.0548C962.952 19.1392 950.48 19.663 942.914 20.2206L937.357 20.6261C929.765 21.1837 917.424 21.0148 909.91 20.2375L904.118 19.6461C896.604 18.8689 133.781 18.041 133.729 17.8213C133.676 17.6016 127.389 17.6861 119.744 18.0072L113.952 18.2606C106.334 18.5816 93.8629 19.1899 86.2446 19.6123L80.7395 19.9165C76.3825 20.153 70.4339 20.2206 64.6941 20.153C60.4414 20.1023 56.3192 19.9841 53.084 19.7644L47.1615 19.3927C39.5693 18.9027 27.1765 19.0548 19.6103 19.7137L16.2708 20.001C17.9406 20.0517 19.6364 20.1699 20.9931 20.6092C20.9409 20.6937 20.8366 20.7444 20.7583 20.812C28.2983 20.0179 39.8824 19.8658 47.1615 20.4572L53.084 20.9472C60.6501 21.5723 73.069 21.7244 80.6613 21.302L86.3489 20.981C93.9672 20.5417 106.438 20.2037 114.083 20.2206H119.431C127.076 20.2544 896.135 20.8289 903.675 21.5048L909.78 22.0454C917.32 22.7213 929.713 22.8734 937.305 22.3665L943.201 21.9779C950.794 21.471 963.265 20.9134 970.909 20.7106L976.362 20.5754C984.006 20.3727 996.503 20.3896 1004.15 20.6092L1009.68 20.7613C1012.03 20.8289 1014.87 20.8627 1017.87 20.8796C1017.19 20.0348 1015.39 19.5785 1013.78 19.2575C1013.28 19.1561 1012.78 19.0548 1012.31 18.9534C1011.4 18.9534 1010.51 18.9534 1009.71 18.9534L1004.12 18.9196H1004.15Z" fill="#9E5123"/>
<path d="M75.7823 36.5427C75.7823 36.5427 74.8692 36.6271 73.2255 36.7285C71.5818 36.8299 69.1554 36.8806 66.2072 36.7623C60.2587 36.5765 52.2751 35.3768 43.561 33.9068C34.8208 32.4368 26.6024 31.5751 20.6017 31.7778C17.6274 31.8454 15.2271 32.082 13.6095 32.3354C11.9919 32.572 11.131 32.7578 11.131 32.7578C11.131 32.7578 12.0441 32.6395 13.6878 32.4875C15.3315 32.3354 17.7057 32.2171 20.6539 32.2678C26.5502 32.3185 34.4555 33.383 43.1436 34.8361C51.8577 36.3061 60.1282 37.303 66.1812 37.2354C69.2076 37.2354 71.634 37.0496 73.2777 36.8637C74.9214 36.6778 75.8084 36.5258 75.8084 36.5258L75.7823 36.5427Z" fill="#E88D42"/>
<path d="M75.7823 36.5427C75.7823 36.5427 74.8692 36.6609 73.2255 36.7961C71.5818 36.9313 69.1554 37.0327 66.1812 36.9651C60.1804 36.8806 52.0925 35.7485 43.3784 34.2785C34.6643 32.8085 26.5502 31.8792 20.6017 31.9806C17.6274 32.0144 15.2532 32.2002 13.6356 32.403C12.018 32.6058 11.131 32.7578 11.131 32.7578C11.131 32.7578 11.9919 32.5551 13.5834 32.2509C15.1749 31.9468 17.5752 31.6427 20.6017 31.4906C26.6546 31.1358 35.0556 31.8623 43.8219 33.3492C52.5621 34.8192 60.3631 36.154 66.2333 36.4751C69.1554 36.6609 71.5557 36.6947 73.1994 36.644C74.8431 36.5933 75.7823 36.5427 75.7823 36.5427Z" fill="#692901"/>
<path d="M98.272 8.64642C98.272 8.64642 94.8803 8.91677 89.3492 9.22091C83.8181 9.52504 76.1476 9.82918 67.6422 9.89677C59.1368 9.96436 51.4402 9.79539 45.883 9.57573C40.3258 9.37298 36.908 9.15332 36.908 9.15332C36.908 9.15332 40.2476 9.52504 45.8048 9.89677C51.3359 10.2685 59.0846 10.6233 67.6683 10.5388C76.2519 10.4713 83.9746 9.99815 89.4536 9.50815C94.9586 9.03504 98.272 8.61263 98.272 8.61263V8.64642Z" fill="#E88D42"/>
<path d="M98.272 8.64642C98.272 8.64642 94.9064 8.96746 89.4014 9.33918C83.8964 9.71091 76.1998 10.0826 67.6683 10.1502C59.1368 10.2178 51.4141 9.98125 45.8569 9.71091C40.2997 9.44056 36.908 9.17022 36.908 9.17022C36.908 9.17022 40.3519 9.2547 45.9352 9.37298C51.4924 9.47435 59.1629 9.54194 67.6161 9.47435C76.0693 9.40677 83.7137 9.20401 89.2709 9.00125C94.8281 8.7816 98.272 8.62953 98.272 8.62953V8.64642Z" fill="#692901"/>
<path d="M120.423 20.0347C120.423 20.0347 113.483 20.0516 104.899 20.2713C96.3414 20.4909 89.4014 20.812 89.4014 20.812C89.4014 20.812 96.3935 21.2513 104.951 21.0485C113.509 20.8457 120.423 20.0516 120.423 20.0516V20.0347Z" fill="#E88D42"/>
<path d="M120.423 20.0347C120.423 20.0347 113.483 20.3557 104.925 20.5754C96.3675 20.7951 89.4014 20.812 89.4014 20.812C89.4014 20.812 96.3153 20.0178 104.873 19.8151C113.43 19.5954 120.423 20.0516 120.423 20.0516V20.0347Z" fill="#692901"/>
<path d="M46.0396 20.4064C46.0396 20.4064 40.8737 20.2544 34.4816 20.2206C28.0895 20.1868 22.9237 20.322 22.9237 20.322C22.9237 20.322 28.0896 20.9133 34.4555 20.9471C40.8215 20.9809 46.0135 20.4064 46.0135 20.4064H46.0396Z" fill="#E88D42"/>
<path d="M46.0396 20.4064C46.0396 20.4064 40.8737 20.5247 34.4816 20.5078C28.0896 20.4909 22.9237 20.322 22.9237 20.322C22.9237 20.322 28.0896 19.7644 34.4816 19.7813C40.8737 19.7982 46.0135 20.4064 46.0135 20.4064H46.0396Z" fill="#692901"/>
<path d="M44.422 3.74642C44.422 3.74642 35.9949 3.59435 25.5849 3.56055C15.1749 3.54366 6.72172 3.66193 6.72172 3.66193C6.72172 3.66193 15.1488 4.25331 25.5588 4.28711C35.9688 4.304 44.422 3.74642 44.422 3.74642Z" fill="#E88D42"/>
<path d="M44.422 3.74642C44.422 3.74642 35.9688 3.86469 25.5849 3.8478C15.1749 3.8309 6.74781 3.66193 6.74781 3.66193C6.74781 3.66193 15.201 3.10435 25.611 3.12124C36.021 3.13814 44.4481 3.74642 44.4481 3.74642L44.422 3.74642Z" fill="#692901"/>
<path d="M948.811 5.63883C948.811 5.63883 945.967 5.40228 941.349 5.18263C936.731 4.96297 930.313 4.794 923.242 4.94607C916.172 5.11504 909.806 5.55435 905.214 5.99366C900.648 6.41608 897.831 6.7878 897.831 6.7878C897.831 6.7878 900.7 6.66952 905.318 6.48366C909.936 6.2978 916.276 6.11194 923.295 5.94297C930.287 5.7909 936.653 5.70642 941.271 5.67263C945.915 5.65573 948.785 5.63883 948.785 5.63883H948.811Z" fill="#E88D42"/>
<path d="M948.811 5.63883C948.811 5.63883 945.967 5.50366 941.323 5.36849C936.705 5.23332 930.313 5.18263 923.268 5.3347C916.224 5.50366 909.858 5.84159 905.266 6.17952C900.674 6.51746 897.857 6.7878 897.857 6.7878C897.857 6.7878 900.596 6.26401 905.162 5.68952C909.702 5.09814 916.094 4.50676 923.216 4.3378C930.339 4.18573 936.783 4.48987 941.401 4.87849C946.019 5.25021 948.837 5.63883 948.837 5.63883L948.811 5.63883Z" fill="#692901"/>
<path d="M1012.37 10.6909C1012.37 10.6909 1003.52 10.2347 992.616 9.91366C981.71 9.59263 972.84 9.52504 972.84 9.52504C972.84 9.52504 981.632 10.5895 992.538 10.9106C1003.44 11.2316 1012.37 10.6909 1012.37 10.6909Z" fill="#E88D42"/>
<path d="M1012.37 10.6909C1012.37 10.6909 1003.5 10.6233 992.59 10.3023C981.684 9.98125 972.84 9.52504 972.84 9.52504C972.84 9.52504 981.763 8.98435 992.668 9.30539C1003.57 9.62642 1012.37 10.6909 1012.37 10.6909Z" fill="#692901"/>
<path d="M1005.97 34.5827C1005.97 34.5827 1004.04 34.5827 1000.96 34.4644C997.886 34.3292 993.634 33.9913 989.068 33.2985C984.502 32.5889 980.51 31.6764 977.693 30.8992C974.875 30.122 973.205 29.5644 973.205 29.5644C973.205 29.5644 974.666 30.3416 977.327 31.3554C979.988 32.3692 983.954 33.552 988.65 34.2785C993.346 34.9882 997.782 35.0896 1000.94 34.9713C1004.1 34.853 1006 34.5827 1006 34.5827H1005.97Z" fill="#E88D42"/>
<path d="M1005.97 34.5827C1005.97 34.5827 1004.07 34.7009 1000.94 34.6671C997.834 34.6333 993.503 34.3799 988.885 33.6871C984.267 32.9775 980.275 31.9468 977.536 31.0851C974.77 30.2233 973.205 29.5644 973.205 29.5644C973.205 29.5644 975.005 29.9699 977.927 30.6289C980.823 31.254 984.841 32.0144 989.329 32.7071C993.816 33.383 997.938 33.873 1000.99 34.1602C1004.07 34.4137 1005.97 34.5827 1005.97 34.5827Z" fill="#692901"/>
<path d="M919.407 31.0682C919.407 31.0682 913.667 31.6595 906.701 32.6057C899.735 33.5689 894.152 34.532 894.152 34.532C894.152 34.532 900.1 34.532 907.093 33.5858C914.059 32.6226 919.433 31.0682 919.433 31.0682H919.407Z" fill="#E88D42"/>
<path d="M919.407 31.0682C919.407 31.0682 913.824 32.0313 906.858 32.9944C899.892 33.9575 894.152 34.532 894.152 34.532C894.152 34.532 899.5 32.9775 906.492 32.0144C913.458 31.0513 919.433 31.0682 919.433 31.0682H919.407Z" fill="#692901"/>
<path d="M960.995 40.1247C960.995 40.1247 952.542 40.6147 942.079 40.7668C931.617 40.9358 923.138 40.6992 923.138 40.6992C923.138 40.6992 925.225 41.0034 928.643 41.2906C932.061 41.5778 936.835 41.8482 942.106 41.7637C947.376 41.6792 952.124 41.2737 955.516 40.8851C958.908 40.4965 960.969 40.1247 960.969 40.1247H960.995Z" fill="#E88D42"/>
<path d="M960.995 40.1247C960.995 40.1247 952.594 41.0033 942.106 41.1554C931.591 41.3244 923.138 40.6992 923.138 40.6992C923.138 40.6992 931.669 40.3275 942.053 40.1585C952.437 40.0065 960.995 40.1247 960.995 40.1247Z" fill="#692901"/>
<defs>
<radialGradient id="paint0_radial_212_1036" cx="0" cy="0" r="1" gradientUnits="userSpaceOnUse" gradientTransform="translate(230.251 545.826) scale(19514.4 11202.6)">
<stop stop-color="#C26123"/>
<stop offset="0.35" stop-color="#BE5F23"/>
<stop offset="0.66" stop-color="#B35A23"/>
<stop offset="0.96" stop-color="#A15223"/>
<stop offset="1" stop-color="#9E5123"/>
</radialGradient>
<radialGradient id="paint1_radial_212_1036" cx="0" cy="0" r="1" gradientUnits="userSpaceOnUse" gradientTransform="translate(-230.949 125.146) scale(4438.43 2404.2)">
<stop stop-color="#C26123"/>
<stop offset="0.35" stop-color="#BE5F23"/>
<stop offset="0.66" stop-color="#B35A23"/>
<stop offset="0.96" stop-color="#A15223"/>
<stop offset="1" stop-color="#9E5123"/>
</radialGradient>
<radialGradient id="paint2_radial_212_1036" cx="0" cy="0" r="1" gradientUnits="userSpaceOnUse" gradientTransform="translate(3692.55 1444.86) scale(9598.04 19869.5)">
<stop stop-color="#C26123"/>
<stop offset="0.35" stop-color="#BE5F23"/>
<stop offset="0.66" stop-color="#B35A23"/>
<stop offset="0.96" stop-color="#A15223"/>
<stop offset="1" stop-color="#9E5123"/>
</radialGradient>
<radialGradient id="paint3_radial_212_1036" cx="0" cy="0" r="1" gradientUnits="userSpaceOnUse" gradientTransform="translate(-1609.68 -1725.96) scale(11266 14832.7)">
<stop stop-color="#C26123"/>
<stop offset="0.35" stop-color="#BE5F23"/>
<stop offset="0.66" stop-color="#B35A23"/>
<stop offset="0.96" stop-color="#A15223"/>
<stop offset="1" stop-color="#9E5123"/>
</radialGradient>
<radialGradient id="paint4_radial_212_1036" cx="0" cy="0" r="1" gradientUnits="userSpaceOnUse" gradientTransform="translate(1084.95 -19.1499) scale(1081.75 3078.6)">
<stop stop-color="#C26123"/>
<stop offset="0.35" stop-color="#BE5F23"/>
<stop offset="0.66" stop-color="#B35A23"/>
<stop offset="0.96" stop-color="#A15223"/>
<stop offset="1" stop-color="#9E5123"/>
</radialGradient>
<radialGradient id="paint5_radial_212_1036" cx="0" cy="0" r="1" gradientUnits="userSpaceOnUse" gradientTransform="translate(598.302 -153.404) scale(1475.83 6418.1)">
<stop stop-color="#C26123"/>
<stop offset="0.35" stop-color="#BE5F23"/>
<stop offset="0.66" stop-color="#B35A23"/>
<stop offset="0.96" stop-color="#A15223"/>
<stop offset="1" stop-color="#9E5123"/>
</radialGradient>
<radialGradient id="paint6_radial_212_1036" cx="0" cy="0" r="1" gradientUnits="userSpaceOnUse" gradientTransform="translate(582.783 -62.823) scale(1497.53 4560.97)">
<stop stop-color="#C26123"/>
<stop offset="0.35" stop-color="#BE5F23"/>
<stop offset="0.66" stop-color="#B35A23"/>
<stop offset="0.96" stop-color="#A15223"/>
<stop offset="1" stop-color="#9E5123"/>
</radialGradient>
<radialGradient id="paint7_radial_212_1036" cx="0" cy="0" r="1" gradientUnits="userSpaceOnUse" gradientTransform="translate(584.109 36.4512) scale(1540.12 3931.13)">
<stop stop-color="#C26123"/>
<stop offset="0.35" stop-color="#BE5F23"/>
<stop offset="0.66" stop-color="#B35A23"/>
<stop offset="0.96" stop-color="#A15223"/>
<stop offset="1" stop-color="#9E5123"/>
</radialGradient>
<radialGradient id="paint8_radial_212_1036" cx="0" cy="0" r="1" gradientUnits="userSpaceOnUse" gradientTransform="translate(393.765 -7.70801) scale(2183.33 5681.35)">
<stop stop-color="#C26123"/>
<stop offset="0.35" stop-color="#BE5F23"/>
<stop offset="0.66" stop-color="#B35A23"/>
<stop offset="0.96" stop-color="#A15223"/>
<stop offset="1" stop-color="#9E5123"/>
</radialGradient>
<radialGradient id="paint9_radial_212_1036" cx="0" cy="0" r="1" gradientUnits="userSpaceOnUse" gradientTransform="translate(29592.8 5556.97) scale(168149 65933.2)">
<stop stop-color="#C26123"/>
<stop offset="0.35" stop-color="#BE5F23"/>
<stop offset="0.66" stop-color="#B35A23"/>
<stop offset="0.96" stop-color="#A15223"/>
<stop offset="1" stop-color="#9E5123"/>
</radialGradient>
<radialGradient id="paint10_radial_212_1036" cx="0" cy="0" r="1" gradientUnits="userSpaceOnUse" gradientTransform="translate(-24467.6 3003.07) scale(90528.2 34774.3)">
<stop stop-color="#C26123"/>
<stop offset="0.35" stop-color="#BE5F23"/>
<stop offset="0.66" stop-color="#B35A23"/>
<stop offset="0.96" stop-color="#A15223"/>
<stop offset="1" stop-color="#9E5123"/>
</radialGradient>
<radialGradient id="paint11_radial_212_1036" cx="0" cy="0" r="1" gradientUnits="userSpaceOnUse" gradientTransform="translate(3994.96 1342.61) scale(16685.3 16004)">
<stop stop-color="#C26123"/>
<stop offset="0.35" stop-color="#BE5F23"/>
<stop offset="0.66" stop-color="#B35A23"/>
<stop offset="0.96" stop-color="#A15223"/>
<stop offset="1" stop-color="#9E5123"/>
</radialGradient>
<radialGradient id="paint12_radial_212_1036" cx="0" cy="0" r="1" gradientUnits="userSpaceOnUse" gradientTransform="translate(-648.947 638.754) scale(7226.86 7451.6)">
<stop stop-color="#C26123"/>
<stop offset="0.35" stop-color="#BE5F23"/>
<stop offset="0.66" stop-color="#B35A23"/>
<stop offset="0.96" stop-color="#A15223"/>
<stop offset="1" stop-color="#9E5123"/>
</radialGradient>
<radialGradient id="paint13_radial_212_1036" cx="0" cy="0" r="1" gradientUnits="userSpaceOnUse" gradientTransform="translate(991.092 355.635) scale(709.068 5809.21)">
<stop stop-color="#C26123"/>
<stop offset="0.35" stop-color="#BE5F23"/>
<stop offset="0.66" stop-color="#B35A23"/>
<stop offset="0.96" stop-color="#A15223"/>
<stop offset="1" stop-color="#9E5123"/>
</radialGradient>
<radialGradient id="paint14_radial_212_1036" cx="0" cy="0" r="1" gradientUnits="userSpaceOnUse" gradientTransform="translate(1619.23 189.983) scale(4247.44 3533.56)">
<stop stop-color="#C26123"/>
<stop offset="0.35" stop-color="#BE5F23"/>
<stop offset="0.66" stop-color="#B35A23"/>
<stop offset="0.96" stop-color="#A15223"/>
<stop offset="1" stop-color="#9E5123"/>
</radialGradient>
<radialGradient id="paint15_radial_212_1036" cx="0" cy="0" r="1" gradientUnits="userSpaceOnUse" gradientTransform="translate(417.802 168.094) scale(2085.3 10631.8)">
<stop stop-color="#C26123"/>
<stop offset="0.35" stop-color="#BE5F23"/>
<stop offset="0.66" stop-color="#B35A23"/>
<stop offset="0.96" stop-color="#A15223"/>
<stop offset="1" stop-color="#9E5123"/>
</radialGradient>
</defs>
</svg>
