<svg width="197" height="197" viewBox="0 0 197 197" fill="none" xmlns="http://www.w3.org/2000/svg">
<path d="M194.595 98.0209C194.595 151.357 151.358 194.595 98.0214 194.595C44.6852 194.595 1.44775 151.357 1.44775 98.0209C1.44775 44.6848 44.6852 1.44727 98.0214 1.44727C151.358 1.44727 194.595 44.6848 194.595 98.0209Z" stroke="url(#paint0_linear_1050_100)"/>
<path d="M98.0223 172.087C138.927 172.087 172.087 138.927 172.087 98.0218C172.087 57.117 138.927 23.957 98.0223 23.957C57.1175 23.957 23.9575 57.117 23.9575 98.0218C23.9575 138.927 57.1175 172.087 98.0223 172.087Z" fill="url(#paint1_linear_1050_100)"/>
<path d="M150.764 84.8212C149.627 82.2792 145.373 81.972 141.269 84.135C140.23 84.6839 139.308 85.3309 138.518 86.0366L133.512 80.933C129.375 73.6468 123.69 66.5304 119.044 67.2427H76.6597C71.6214 67.2427 66.3217 74.346 62.1918 80.933L57.1535 86.2392C56.4281 85.625 55.6047 84.8408 54.6899 84.3572C50.5795 82.1942 46.3319 82.3903 45.1949 84.9323C44.0579 87.4743 46.626 91.2318 50.7364 93.3948C51.5075 93.7999 52.5007 94.0678 53.2065 94.2966V106.961C53.2065 114.397 58.4408 122.03 65.2892 122.03H130.395C137.243 122.03 142.863 114.397 142.863 106.961V94.3684C143.575 94.1332 144.543 93.7934 145.405 93.336C149.516 91.173 151.888 87.3567 150.757 84.8146L150.764 84.8212ZM69.1709 74.0062C73.046 68.2556 76.4048 69.373 76.4048 69.373H114.901C118.907 69.373 122.841 68.7326 126.271 73.7252C130.794 80.3187 134.845 84.3115 128.336 84.3115C118.26 84.3115 70.7261 84.697 66.5897 84.4879C61.1658 84.2069 65.4199 79.5738 69.1709 74.0062ZM70.236 105.739C69.099 108.281 64.8514 108.588 60.7411 106.425C56.6307 104.262 54.2194 100.446 55.3564 97.9037C56.4935 95.3617 60.7476 95.0546 64.8514 97.2176C68.9618 99.3806 71.3666 103.19 70.236 105.732V105.739ZM112.836 116.338H82.5214C77.9536 116.338 74.2549 113.443 74.2549 109.934C74.2549 106.425 77.9536 103.53 82.5214 103.53H112.836C117.404 103.53 121.103 106.425 121.103 109.934C121.103 113.443 117.397 116.338 112.836 116.338ZM134.44 106.425C130.33 108.588 126.082 108.281 124.945 105.739C123.808 103.197 126.219 99.3806 130.33 97.2241C134.44 95.0611 138.688 95.3683 139.825 97.9103C140.962 100.452 138.55 104.269 134.44 106.432V106.425ZM130.401 124.167H65.2958C58.4474 124.167 53.213 116.639 53.213 109.209V113.881C53.213 116.861 53.9253 119.606 55.3499 121.834V125.304C55.3499 127.356 56.8398 130.571 58.7284 130.571H73.1244C74.085 130.571 75.7579 129.689 75.7579 127.807L75.771 127.016H120.815V125.578C120.815 128.264 122.233 130.577 123.148 130.577H137.544C139.432 130.577 141.452 127.362 141.452 125.31V120.919C142.876 118.867 142.876 116.469 142.876 113.888V109.215C142.876 116.652 137.256 124.173 130.408 124.173L130.401 124.167Z" fill="#092710"/>
<defs>
<linearGradient id="paint0_linear_1050_100" x1="98.3345" y1="195" x2="98.3345" y2="0.999695" gradientUnits="userSpaceOnUse">
<stop stop-color="#89ED88"/>
<stop offset="1" stop-color="#2EAD2B"/>
</linearGradient>
<linearGradient id="paint1_linear_1050_100" x1="98.0223" y1="23.957" x2="98.0223" y2="172.087" gradientUnits="userSpaceOnUse">
<stop stop-color="#75EE73"/>
<stop offset="1" stop-color="#2AAA28"/>
</linearGradient>
</defs>
</svg>
