<svg width="197" height="197" viewBox="0 0 197 197" fill="none" xmlns="http://www.w3.org/2000/svg">
<path d="M194.26 98.0209C194.26 151.357 151.023 194.595 97.6864 194.595C44.3503 194.595 1.11279 151.357 1.11279 98.0209C1.11279 44.6848 44.3503 1.44727 97.6864 1.44727C151.023 1.44727 194.26 44.6848 194.26 98.0209Z" stroke="url(#paint0_linear_1050_165)"/>
<path d="M98.0648 172.13C138.97 172.13 172.13 138.97 172.13 98.0648C172.13 57.1599 138.97 24 98.0648 24C57.1599 24 24 57.1599 24 98.0648C24 138.97 57.1599 172.13 98.0648 172.13Z" fill="url(#paint1_linear_1050_165)"/>
<path d="M47.0005 97.9195C47.0295 69.4327 70.3482 46.7118 98.4829 47.0028C126.868 47.2995 149.07 70.4567 149 98.0766C148.93 126.552 125.716 149.162 97.7791 148.999C69.1034 148.83 46.8841 125.493 47.0005 97.9195ZM52.7938 97.1456C52.4738 121.979 71.7965 142.541 96.9124 143.157C121.842 143.768 142.543 124.254 143.148 99.0482C143.742 74.1863 124.25 53.3797 98.8901 52.8502C74.094 52.3266 53.4917 71.76 52.7996 97.1398L52.7938 97.1456Z" fill="#092710"/>
<path d="M80.4806 94.4634C80.4806 93.1426 80.4806 91.8276 80.4806 90.5069C80.4806 89.3141 80.7249 89.1163 81.8882 88.8544C84.3661 88.2959 86.8556 87.7722 89.2811 87.0391C92.0207 86.2071 94.4753 84.7525 96.7438 83.0186C97.5232 82.4193 98.1165 82.4484 98.8901 83.0419C101.903 85.3285 105.213 87.0158 108.929 87.8304C110.593 88.1911 112.251 88.5693 113.92 88.901C114.723 89.0581 115.136 89.4305 115.078 90.2974C114.822 94.3877 114.775 98.5071 114.298 102.568C113.478 109.574 110 115.037 104.003 118.819C102.287 119.901 100.536 120.943 98.8028 122.002C98.2444 122.339 97.6453 122.578 97.0346 122.171C94.074 120.198 90.9621 118.418 88.2167 116.183C84.3603 113.041 82.2547 108.736 81.4811 103.848C80.9925 100.747 80.7424 97.6111 80.3818 94.4866C80.4108 94.4866 80.4457 94.475 80.4748 94.4692L80.4806 94.4634Z" fill="#092710"/>
<path d="M116.927 85.6485C116.73 85.7823 116.625 85.8114 116.584 85.8754C115.747 87.1787 114.537 87.0973 113.269 86.7656C110.989 86.1663 108.708 85.5612 106.428 84.9503C106.324 84.9212 106.225 84.8456 105.986 84.7176C106.847 83.8506 107.65 83.0302 108.464 82.2273C109.273 81.436 110.099 80.6621 111.018 79.7836C109.598 78.393 108.313 77.1071 106.998 75.8503C105.87 74.7681 105.853 74.5005 106.952 73.3775C107.499 72.819 108.045 72.272 108.598 71.7251C109.558 70.7709 109.889 70.7534 110.814 71.696C112.14 73.0342 113.443 74.3957 114.827 75.8212C115.368 75.3034 115.822 74.8903 116.253 74.4539C118.166 72.5571 120.068 70.6429 121.988 68.7519C122.785 67.9664 123.139 67.9722 123.942 68.7577C125.251 70.0319 126.542 71.3236 127.833 72.6153C128.653 73.4415 128.659 73.8255 127.833 74.6459C125.739 76.7464 123.64 78.841 121.528 80.9182C121.301 81.1451 120.958 81.2614 120.58 81.4767C122.185 83.0651 123.529 84.3859 124.861 85.7125C125.821 86.6667 125.821 87.0333 124.844 88.0108C124.186 88.6683 123.517 89.3141 122.866 89.9716C122.29 90.5534 121.732 90.5592 121.162 89.9716C119.76 88.5402 118.358 87.1089 116.921 85.6427L116.927 85.6485Z" fill="#092710"/>
<path d="M84.8838 79.865C86.495 81.4302 88.0771 82.972 89.7755 84.6245C89.2288 84.8572 88.8216 85.1016 88.3795 85.2121C86.1227 85.794 83.8601 86.3409 81.5974 86.8936C80.7831 87.0915 80.056 86.9984 79.5616 86.2187C79.4337 86.0151 79.2999 85.8172 79.0556 85.4507C77.52 87.0333 76.1473 88.4472 74.7804 89.8552C74.0417 90.6174 73.5938 90.6232 72.826 89.8668C72.1862 89.2326 71.5464 88.6042 70.9124 87.9642C70.0515 87.0973 70.0457 86.6376 70.9007 85.7823C72.2502 84.4325 73.6055 83.0884 75.048 81.6571C73.3961 80.0221 71.8023 78.4512 70.2086 76.8744C69.4408 76.118 68.6788 75.3558 67.9227 74.5877C67.2072 73.8663 67.2072 73.3775 67.9052 72.6851C69.2023 71.3993 70.4936 70.1076 71.7965 68.8275C72.6457 67.9897 73.0587 67.9839 73.9021 68.8217C75.9844 70.8873 78.0551 72.9644 80.1258 75.0416C80.3585 75.2743 80.5446 75.5478 80.9111 75.99C82.1151 74.7216 83.1912 73.5753 84.2905 72.4408C85.5003 71.1956 86.7257 71.2014 87.9666 72.4582C88.2807 72.7782 88.6006 73.0924 88.9263 73.4066C89.95 74.3957 89.9558 74.6983 88.9786 75.6816C87.7979 76.8686 86.6055 78.0555 85.4247 79.2425C85.2619 79.4054 85.1164 79.5974 84.8896 79.865H84.8838Z" fill="#092710"/>
<path d="M80.9692 109.94C82.563 112.326 84.1334 114.671 85.7854 117.143C85.7505 117.184 85.5643 117.405 85.3666 117.615C83.3249 119.762 81.295 121.915 79.2301 124.032C78.8462 124.422 78.346 124.754 77.8341 124.952C75.4609 125.854 73.0761 126.738 70.6681 127.541C70.2086 127.692 69.528 127.611 69.1325 127.349C68.9231 127.215 68.9871 126.412 69.15 126.005C70.0632 123.701 71.0345 121.42 72.0117 119.139C72.1746 118.761 72.3898 118.371 72.6748 118.086C75.4551 115.328 78.2587 112.599 80.9692 109.94Z" fill="#092710"/>
<path d="M109.796 117.149C111.436 114.711 113.007 112.378 114.618 109.987C115.962 111.296 117.41 112.704 118.858 114.112C119.673 114.903 120.4 115.823 121.307 116.48C123.43 118.01 124.041 120.402 125.03 122.584C125.571 123.782 126.077 124.998 126.513 126.238C126.635 126.593 126.606 127.192 126.379 127.43C126.152 127.669 125.547 127.756 125.198 127.64C122.68 126.796 120.179 125.894 117.689 124.975C117.253 124.812 116.817 124.544 116.491 124.207C114.281 121.932 112.105 119.628 109.918 117.335C109.819 117.231 109.755 117.097 109.796 117.155V117.149Z" fill="#092710"/>
<defs>
<linearGradient id="paint0_linear_1050_165" x1="97.9995" y1="195" x2="97.9995" y2="0.999695" gradientUnits="userSpaceOnUse">
<stop stop-color="#89ED88"/>
<stop offset="1" stop-color="#2EAD2B"/>
</linearGradient>
<linearGradient id="paint1_linear_1050_165" x1="98.0648" y1="24" x2="98.0648" y2="172.13" gradientUnits="userSpaceOnUse">
<stop stop-color="#75ED72"/>
<stop offset="1" stop-color="#2EAD2B"/>
</linearGradient>
</defs>
</svg>
