<svg width="197" height="197" viewBox="0 0 197 197" fill="none" xmlns="http://www.w3.org/2000/svg">
<path d="M194.26 98.0209C194.26 151.357 151.023 194.595 97.6864 194.595C44.3503 194.595 1.11279 151.357 1.11279 98.0209C1.11279 44.6848 44.3503 1.44727 97.6864 1.44727C151.023 1.44727 194.26 44.6848 194.26 98.0209Z" stroke="url(#paint0_linear_1050_108)"/>
<path d="M98.0218 172.087C138.927 172.087 172.087 138.927 172.087 98.0218C172.087 57.117 138.927 23.957 98.0218 23.957C57.117 23.957 23.957 57.117 23.957 98.0218C23.957 138.927 57.117 172.087 98.0218 172.087Z" fill="url(#paint1_linear_1050_108)"/>
<path d="M143.2 66.0955C141.149 62.9743 137.492 60.8014 134.315 60.8014H134.271C133.069 60.8014 131.904 60.8556 130.767 60.9315C130.767 60.8881 130.767 60.8448 130.767 60.8014C130.767 60.5143 130.767 60.7418 130.756 60.9315C130.745 60.9315 130.729 60.9315 130.718 60.9315C130.441 59.2734 128.993 58 127.257 58H69.6338C67.9035 58 66.4615 59.2625 66.1732 60.9098C66.1568 60.9098 66.1459 60.9098 66.1296 60.9098C66.1242 60.731 66.1187 60.5305 66.1187 60.8014C66.1187 60.8394 66.1187 60.8719 66.1187 60.9098C65.0196 60.8394 63.8932 60.8014 62.7288 60.8014H62.6853C59.5075 60.8014 55.851 62.9798 53.7996 66.0955C51.6721 69.325 51.4218 73.221 53.0977 77.0574C56.1938 84.1559 62.3642 91.7962 70.0256 98.0114C77.7904 104.313 85.6041 107.928 91.4753 107.928C91.6548 107.928 91.8398 107.928 92.0139 107.917L87.5521 133.401H87.9058C85.9741 133.401 84.4451 134.978 84.4451 136.901V147.749H84.0424C82.7855 147.749 81.8115 148.773 81.8115 150.025V150.724C81.8115 151.976 82.7855 153 84.0424 153H112.854C114.111 153 115.194 151.976 115.194 150.724V150.025C115.194 148.773 114.111 147.749 112.854 147.749H112.555V136.901C112.555 134.978 110.923 133.401 108.985 133.401H109.339L104.861 107.841C105.079 107.852 105.302 107.857 105.53 107.857C111.396 107.857 119.215 104.281 126.974 97.9789C134.63 91.7637 140.801 84.1613 143.902 77.0629C145.578 73.221 145.328 69.3304 143.2 66.1009V66.0955ZM56.3244 75.6648C54.8008 72.1752 55.7095 69.5797 56.7379 68.0137C58.2724 65.6891 60.9658 64.2965 62.6853 64.2965H62.707C63.9259 64.3127 65.1067 64.3669 66.2548 64.459C67.2124 77.6101 73.138 93.3243 82.6767 102.048C72.5885 97.2745 60.8679 86.0795 56.3244 75.6594V75.6648ZM109.04 138.646V143.897H87.9602V138.646H109.04ZM140.681 75.6648C136.099 86.1662 124.232 97.4587 114.089 102.168C123.693 93.4652 129.673 77.6806 130.636 64.4699C131.823 64.3723 133.041 64.3127 134.298 64.2965H134.32C136.04 64.2965 138.739 65.6891 140.268 68.0137C141.296 69.5797 142.205 72.1752 140.681 75.6648Z" fill="#092710"/>
<defs>
<linearGradient id="paint0_linear_1050_108" x1="97.9995" y1="195" x2="97.9995" y2="0.999695" gradientUnits="userSpaceOnUse">
<stop stop-color="#89ED88"/>
<stop offset="1" stop-color="#2EAD2B"/>
</linearGradient>
<linearGradient id="paint1_linear_1050_108" x1="98.0218" y1="23.957" x2="98.0218" y2="172.087" gradientUnits="userSpaceOnUse">
<stop stop-color="#75ED72"/>
<stop offset="1" stop-color="#2EAD2B"/>
</linearGradient>
</defs>
</svg>
