<svg width="197" height="197" viewBox="0 0 197 197" fill="none" xmlns="http://www.w3.org/2000/svg">
<path d="M194.261 98.0212C194.261 151.357 151.023 194.595 97.6869 194.595C44.3508 194.595 1.11328 151.357 1.11328 98.0212C1.11328 44.6851 44.3508 1.44757 97.6869 1.44757C151.023 1.44757 194.261 44.6851 194.261 98.0212Z" stroke="url(#paint0_linear_792_3908)"/>
<path d="M98.0218 172.087C138.927 172.087 172.087 138.927 172.087 98.0221C172.087 57.1173 138.927 23.9573 98.0218 23.9573C57.117 23.9573 23.957 57.1173 23.957 98.0221C23.957 138.927 57.117 172.087 98.0218 172.087Z" fill="url(#paint1_linear_792_3908)"/>
<path d="M130.342 77.9302C134.42 77.9302 137.726 74.6236 137.726 70.5459C137.726 66.4683 134.42 63.1617 130.342 63.1617C126.264 63.1617 122.958 66.4683 122.958 70.5459C122.958 74.6236 126.264 77.9302 130.342 77.9302ZM124.8 67.8798H135.877C136.197 68.5921 136.38 69.5592 136.38 70.4218C136.38 73.761 133.675 76.5252 130.335 76.5252C126.996 76.5252 124.291 73.7284 124.291 70.3891C124.291 69.5331 124.474 68.5921 124.794 67.8798H124.8ZM70.634 79.2437H62.5636C57.7932 79.2437 54.0227 83.256 54.0227 88.0264V92.3785H58.6427V85.9745C58.6427 85.4713 59.0283 85.0662 59.5314 85.0662C60.0346 85.0662 60.4202 85.4713 60.4202 85.9745V92.3785H72.8493V85.9745C72.8493 85.4713 73.4112 85.0662 73.9144 85.0662C74.4176 85.0662 74.9796 85.4713 74.9796 85.9745V92.3785H79.5996V88.0264C79.5996 83.256 75.4174 79.2437 70.6405 79.2437H70.634ZM66.5955 77.9302C70.6732 77.9302 73.9798 74.6236 73.9798 70.5459C73.9798 66.4683 70.6732 63.1617 66.5955 63.1617C62.5178 63.1617 59.2112 66.4683 59.2112 70.5459C59.2112 74.6236 62.5178 77.9302 66.5955 77.9302ZM61.054 67.8798H72.1304C72.4506 68.5921 72.6336 69.5592 72.6336 70.4218C72.6336 73.761 69.9282 76.5252 66.589 76.5252C63.2497 76.5252 60.5443 73.7284 60.5443 70.3891C60.5443 69.5331 60.7273 68.5921 61.0475 67.8798H61.054ZM130.283 56.9471C118.697 56.9471 109.097 65.39 107.398 76.4011H89.4279C87.7289 65.39 78.1293 56.9471 66.5432 56.9471C53.7547 56.9471 43.3906 67.3962 43.3906 80.1847C43.3906 92.9732 53.7547 103.383 66.5432 103.383C69.3728 103.383 72.0847 102.893 74.5875 101.965L82.1678 115.106C77.9072 119.308 75.2606 125.15 75.2606 131.607C75.2606 144.395 85.6247 154.766 98.4132 154.766C111.202 154.766 121.566 144.402 121.566 131.613C121.566 125.32 119.05 119.609 114.979 115.44L122.657 102.141C125.042 102.971 127.61 103.429 130.283 103.429C143.072 103.429 153.436 92.9797 153.436 80.1912C153.436 67.4027 143.072 56.9537 130.283 56.9537V56.9471ZM66.5367 99.8674C55.7152 99.8674 46.939 91.0912 46.939 80.2697C46.939 69.4481 55.7152 60.6719 66.5367 60.6719C77.3582 60.6719 86.1344 69.4481 86.1344 80.2697C86.1344 91.0912 77.3582 99.8674 66.5367 99.8674ZM118.004 131.613C118.004 142.435 109.228 151.211 98.4066 151.211C87.5851 151.211 78.8089 142.435 78.8089 131.613C78.8089 120.792 87.5851 112.015 98.4066 112.015C109.228 112.015 118.004 120.792 118.004 131.613ZM108.163 110.61C105.196 109.232 101.89 108.461 98.4066 108.461C94.9236 108.461 91.9111 109.166 89.0489 110.434L81.7234 97.6913C85.4613 94.4435 88.1406 89.9019 89.1992 84.9289H107.621C108.705 90.2547 111.522 94.7049 115.43 97.9788L108.17 110.617L108.163 110.61ZM130.277 99.8674C119.455 99.8674 110.679 91.0912 110.679 80.2697C110.679 69.4481 119.455 60.6719 130.277 60.6719C141.098 60.6719 149.874 69.4481 149.874 80.2697C149.874 91.0912 141.098 99.8674 130.277 99.8674ZM134.367 79.2437H126.297C121.527 79.2437 117.586 83.256 117.586 88.0264V92.3785H122.206V85.9745C122.206 85.4713 122.768 85.0662 123.271 85.0662C123.775 85.0662 124.337 85.4713 124.337 85.9745V92.3785H136.766V85.9745C136.766 85.4713 136.975 85.0662 137.478 85.0662C137.981 85.0662 138.19 85.4713 138.19 85.9745V92.3785H143.163V88.0264C143.163 83.256 139.151 79.2437 134.374 79.2437H134.367ZM98.4589 129.274C102.537 129.274 105.843 125.967 105.843 121.889C105.843 117.812 102.537 114.505 98.4589 114.505C94.3812 114.505 91.0747 117.812 91.0747 121.889C91.0747 125.967 94.3812 129.274 98.4589 129.274ZM92.9175 119.38H103.994C104.314 120.092 104.497 120.988 104.497 121.844C104.497 125.183 101.792 127.908 98.4524 127.908C95.1131 127.908 92.4078 125.163 92.4078 121.831C92.4078 120.975 92.5907 120.092 92.9109 119.38H92.9175ZM102.491 130.391H94.4205C89.6501 130.391 85.6182 134.606 85.6182 139.383V143.892H90.2382V137.338C90.2382 136.834 90.8002 136.429 91.3034 136.429C91.8066 136.429 92.3685 136.834 92.3685 137.338V143.892H104.445V137.338C104.445 136.834 105.007 136.429 105.51 136.429C106.013 136.429 106.575 136.834 106.575 137.338V143.892H111.195V139.383C111.195 134.613 107.274 130.391 102.504 130.391H102.491Z" fill="#0D2A12"/>
<defs>
<linearGradient id="paint0_linear_792_3908" x1="98" y1="195" x2="98" y2="1" gradientUnits="userSpaceOnUse">
<stop stop-color="#89ED88"/>
<stop offset="1" stop-color="#2EAD2B"/>
</linearGradient>
<linearGradient id="paint1_linear_792_3908" x1="98.0218" y1="23.9573" x2="98.0218" y2="172.087" gradientUnits="userSpaceOnUse">
<stop stop-color="#75ED72"/>
<stop offset="1" stop-color="#2EAD2B"/>
</linearGradient>
</defs>
</svg>
