<svg width="197" height="197" viewBox="0 0 197 197" fill="none" xmlns="http://www.w3.org/2000/svg">
<path d="M195.261 98.0212C195.261 151.357 152.023 194.595 98.6869 194.595C45.3508 194.595 2.11328 151.357 2.11328 98.0212C2.11328 44.6851 45.3508 1.44757 98.6869 1.44757C152.023 1.44757 195.261 44.6851 195.261 98.0212Z" stroke="url(#paint0_linear_792_3924)"/>
<path d="M98.3148 172.087C139.22 172.087 172.38 138.927 172.38 98.0218C172.38 57.1169 139.22 23.957 98.3148 23.957C57.4099 23.957 24.25 57.1169 24.25 98.0218C24.25 138.927 57.4099 172.087 98.3148 172.087Z" fill="url(#paint1_linear_792_3924)"/>
<path d="M140.509 135.551C140.143 117.756 127.923 93.8197 111.495 85.233L85.8266 85.7624C69.7707 95.0221 58.5506 119.442 58.9231 137.237C59.3805 159.455 77.5275 153.469 100.059 153.005C122.591 152.541 140.967 157.769 140.509 135.551ZM103.431 136.635V141.308H94.9099V137.034C89.2247 136.884 84.6504 135.93 81.5856 134.871L84.2909 128.983C87.6825 130.14 92.4855 131.198 97.7329 131.198C102.412 131.198 105.568 130.042 105.568 128.081C105.568 126.121 102.961 124.958 96.9095 123.703C88.2706 121.893 81.86 119.377 81.86 114.496C81.86 110.019 86.7349 106.543 94.9034 105.536V100.472H103.425V105.184C108.398 105.288 112.678 106.04 115.501 106.843L113.292 112.529C111.273 111.927 107.522 110.764 101.713 110.764C96.4652 110.764 94.7923 112.222 94.7923 113.633C94.7923 115.241 97.6284 116.352 104.568 117.913C114.174 120.024 117.84 122.795 117.84 127.376C117.84 131.956 112.305 135.681 103.431 136.635ZM82.7553 75.8034C80.0172 75.8753 77.8412 77.5939 77.8934 79.6524C77.9457 81.7043 80.2067 83.3118 82.9448 83.2465L115.057 82.4166C117.795 82.3447 119.971 80.626 119.918 78.5676C119.866 76.5157 117.605 74.9081 114.867 74.9735L82.7553 75.8034ZM111.658 72.4249L120.095 50.8276L106.731 61.0872L99.7326 49.0436L92.015 60.0612L73.0447 48.2725L85.6894 73.0196L111.665 72.4315L111.658 72.4249Z" fill="#06240D"/>
<defs>
<linearGradient id="paint0_linear_792_3924" x1="99" y1="195" x2="99" y2="1" gradientUnits="userSpaceOnUse">
<stop stop-color="#89ED88"/>
<stop offset="1" stop-color="#2EAD2B"/>
</linearGradient>
<linearGradient id="paint1_linear_792_3924" x1="98.3148" y1="23.957" x2="98.3148" y2="172.087" gradientUnits="userSpaceOnUse">
<stop stop-color="#75ED72"/>
<stop offset="1" stop-color="#2EAE2C"/>
</linearGradient>
</defs>
</svg>
