<svg width="110" height="110" viewBox="0 0 110 110" fill="none" xmlns="http://www.w3.org/2000/svg">
<path d="M55 110C85.3757 110 110 85.3758 110 55.0002C110 24.6245 85.3757 0.000183105 55 0.000183105C24.6243 0.000183105 0 24.6245 0 55.0002C0 85.3758 24.6243 110 55 110Z" fill="#F30504"/>
<path d="M76.5549 59.2424C76.5101 59.4516 75.9125 60.064 75.3001 60.5271C73.5225 61.8266 70.3259 63.0515 67.0845 63.6191C65.2322 63.9478 63.3949 64.0075 62.8422 63.7386C62.4837 63.5594 62.424 63.41 62.5584 62.9469C62.8273 61.976 63.7086 60.9154 65.0828 59.9296C65.7849 59.4217 68.6081 57.7039 69.9226 56.9869C72.0885 55.7919 73.8512 55.0898 75.0312 54.9255C75.4047 54.8807 75.8528 54.8657 76.0022 54.9255C76.2412 55.0151 76.4951 55.7022 76.5997 56.5238C76.6445 56.957 76.6296 58.8989 76.5549 59.2424Z" fill="black"/>
<path d="M46.1271 63.5146C46.0524 63.664 45.664 63.8432 45.2159 63.903C44.7827 63.9627 43.4383 63.9328 42.6765 63.8432C39.943 63.4847 37.0301 62.6482 34.909 61.6026C33.714 61.02 32.8626 60.4374 32.2352 59.8101L31.8767 59.4366L31.8319 58.9437C31.7721 58.0923 31.7871 56.7479 31.8767 56.2699C31.9364 55.8666 32.0858 55.4782 32.28 55.1346C32.3497 55.045 32.5389 55.0002 32.8476 55.0002C33.4153 55.0002 33.8933 55.0898 34.67 55.3288C36.2534 55.8217 38.6285 57.0018 41.4965 58.7346C43.8715 60.1536 44.7678 60.8557 45.4549 61.8117C45.918 62.4092 46.2317 63.2457 46.1122 63.4996L46.1271 63.5146Z" fill="black"/>
<path d="M64.4106 81.4844C64.4106 81.4844 64.2613 82.1417 64.0671 82.8736C63.8729 83.6056 63.7235 84.2031 63.7235 84.2329C63.5741 84.2329 63.4546 84.2628 63.3053 84.2329H62.887L62.3194 85.5773C62.0057 86.3093 61.7219 86.9964 61.692 87.1009L61.6173 87.2802L61.0796 86.4138V82.8437L60.975 82.8736C60.751 82.9184 59.1974 83.1276 58.5103 83.2022C55.6871 83.4861 52.8341 83.4263 50.0258 83.023C49.5777 82.9632 49.1893 82.9035 49.1744 82.9184C49.1744 82.9184 49.1744 83.7549 49.2042 84.7707L49.2491 86.608L49.025 86.9366C48.9055 87.1159 48.786 87.2653 48.786 87.2802C48.7412 87.325 48.6217 87.1159 48.3229 86.5184C47.9943 85.9059 47.7702 85.2338 47.6059 84.5616L47.5163 84.1881L47.113 84.218L46.7097 84.2628L46.6051 83.7848C46.5603 83.5309 46.4856 83.1276 46.4557 82.9035L46.4109 82.4852L46.0823 82.1865C45.8881 82.0222 45.6939 81.8579 45.6491 81.828C45.5894 81.7832 45.5595 81.6786 45.5595 81.6039V81.4546H47.1727L48.786 81.4844L48.8756 81.8131L49.4283 81.8429C49.742 81.8429 50.7129 81.8877 51.5942 81.9027L53.2075 81.9475L53.6257 81.3052L54.0589 80.6629H54.5967V79.3185L54.5668 77.9741L53.8498 77.6604C51.5644 76.6596 50.22 75.5094 49.7121 74.1053C49.6075 73.8215 49.6075 73.7169 49.5777 72.4323C49.5777 71.1477 49.5777 71.0431 49.6524 70.7593C49.8316 70.117 50.3395 69.6091 50.9818 69.4448C51.2059 69.385 51.7884 69.385 54.8357 69.385H58.4207L58.824 69.5942C59.302 69.8332 59.5261 69.9975 59.7949 70.356C60.1086 70.7742 60.1983 71.0879 60.1983 71.8796C60.1983 72.9999 60.1236 73.9708 60.0041 74.3592C59.8398 74.882 59.5709 75.3899 59.2572 75.838C58.6149 76.6596 57.4348 77.4961 56.3593 77.8695L56.0456 77.989V79.3484L56.0755 80.7077L56.6431 80.7674L57.0315 81.35L57.4049 81.9325H59.1377C60.0937 81.9325 60.9302 81.9326 61.0049 81.9624C61.1393 81.9923 61.1543 81.9624 61.2887 81.7533L61.4381 81.5143H62.9169C64.0223 81.4695 64.3658 81.4844 64.3658 81.5143L64.4106 81.4844Z" fill="black"/>
<path d="M57.5842 85.1889C57.3452 85.3383 57.1659 85.3981 57.1361 85.3682C57.0913 85.3682 56.912 85.2039 56.7178 85.0545L56.3743 84.7707L56.0158 85.1591C55.2241 86.0105 55.2091 86.0553 54.9701 86.0703C54.6116 86.1151 54.5369 86.0404 54.0888 85.3831C53.8498 85.0545 53.6706 84.7707 53.6706 84.7707C53.6706 84.7707 53.5062 84.7408 53.3121 84.7259L52.9536 84.6811L52.6249 85.3682L52.3262 85.2786C52.0872 85.2039 51.8631 85.1142 51.6391 85.0097L51.2507 84.8155V84.0836H54.6863L58.1219 84.1134V84.457C58.1518 84.8753 58.1668 84.8603 57.5991 85.174L57.5842 85.1889Z" fill="black"/>
<path d="M89.8791 69.4448C89.8791 69.4448 89.8791 69.2954 89.8493 69.161C86.7572 68.8323 77.8992 68.6232 69.6985 75.4049C69.6985 75.4049 67.0546 63.2606 54.6564 63.2606C42.2583 63.2606 37.6575 75.4049 37.6575 75.4049C30.7116 67.9211 21.4055 68.4738 18.0595 68.9668C18.0595 69.0415 18.0595 69.1311 18.0595 69.2058C17.9549 71.073 18.0147 71.9692 18.3134 73.1493C19.2844 76.8239 22.2719 80.8869 26.9324 84.8603C34.5953 91.3731 44.9769 96.0635 52.8341 96.6162C61.0348 97.1688 73.1342 92.3739 81.1855 85.3831C82.4552 84.2628 83.6353 83.0678 84.7556 81.8131C85.5622 80.8869 86.7423 79.2886 86.6526 79.2886C86.6228 79.2886 86.6526 79.2587 86.6974 79.2438C86.7423 79.2139 86.7721 79.184 86.7423 79.1542C86.7423 79.1542 86.7423 79.1094 86.7871 79.0944C86.8319 79.0944 86.8468 79.0496 86.8319 79.0347C86.8319 79.0048 86.8319 78.9899 86.8767 78.9749C86.9215 78.9749 86.9215 78.9301 86.9215 78.9002C86.9215 78.8704 86.9215 78.8554 86.9514 78.8554C86.9813 78.8554 86.9962 78.8106 86.9962 78.7957C86.9962 78.7807 87.0261 78.7359 87.041 78.7359C87.0559 78.7359 87.0858 78.7061 87.0858 78.6911C87.1306 78.5866 87.1904 78.482 87.2501 78.3924C87.4443 78.0936 88.2211 76.7194 88.3256 76.4804C89.0576 74.8074 89.5206 73.3285 89.7447 71.8497C89.8194 71.1327 89.8941 69.8332 89.8343 69.5195L89.8791 69.4448ZM57.5991 85.2039C57.3601 85.3533 57.1809 85.413 57.151 85.3831C57.1062 85.3831 56.9269 85.2188 56.7327 85.0694L56.3892 84.7856L56.0307 85.174C55.239 86.0254 55.2241 86.0703 54.9851 86.0852C54.6266 86.13 54.5519 86.0553 54.1037 85.3981C53.8647 85.0694 53.6855 84.7856 53.6855 84.7856C53.6855 84.7856 53.5212 84.7558 53.327 84.7408L52.9685 84.696L52.6399 85.3831L52.3411 85.2935C52.1021 85.2188 51.8781 85.1292 51.654 85.0246L51.2656 84.8304V84.0985H54.7012L58.1369 84.1284V84.4719C58.1668 84.8902 58.1817 84.8752 57.6141 85.1889L57.5991 85.2039ZM64.0521 82.8736C63.858 83.6056 63.7086 84.2031 63.7086 84.2329C63.5741 84.2329 63.4397 84.2628 63.2903 84.2329H62.8721L62.3194 85.5923C62.0057 86.3242 61.7219 87.0113 61.692 87.1159L61.6173 87.2951L61.0796 86.4288V82.8587L60.975 82.8886C60.7509 82.9334 59.1974 83.1425 58.5103 83.2172C55.6871 83.501 52.8341 83.4412 50.0258 83.0379C49.5777 82.9782 49.1893 82.9184 49.1744 82.9334C49.1744 82.9334 49.1744 83.7699 49.2042 84.7856L49.2491 86.6229L49.025 86.9516C48.9055 87.1308 48.786 87.2802 48.786 87.2951C48.7412 87.3399 48.6217 87.1308 48.3229 86.5333C47.9943 85.9209 47.7702 85.2487 47.6059 84.5765L47.5163 84.2031L47.113 84.2329L46.7097 84.2777L46.6051 83.7997C46.5603 83.5458 46.4856 83.1425 46.4557 82.9184L46.4109 82.5002L46.0823 82.2014C45.8881 82.0371 45.6939 81.8728 45.6491 81.8429C45.5894 81.7981 45.5595 81.6936 45.5595 81.6189V81.4695H47.1727L48.786 81.4994L48.8756 81.828L49.4283 81.8579C49.742 81.8579 50.7129 81.9027 51.5942 81.9176L53.2075 81.9624L53.6257 81.3201L54.0589 80.6778H54.5967V79.3334L54.5668 77.989L53.8498 77.6754C51.5644 76.6745 50.22 75.5244 49.7121 74.1202C49.6075 73.8364 49.6075 73.7318 49.5777 72.4472C49.5777 71.1626 49.5777 71.058 49.6524 70.7742C49.8316 70.1319 50.3395 69.624 50.9818 69.4597C51.2059 69.4 51.7884 69.4 54.8357 69.4H58.4207L58.824 69.6091C59.302 69.8481 59.5261 70.0124 59.7949 70.3709C60.1086 70.7892 60.1983 71.1028 60.1983 71.8945C60.1983 73.0149 60.1236 73.9858 60.0041 74.3742C59.8398 74.897 59.5709 75.4049 59.2572 75.853C58.6149 76.6745 57.4348 77.511 56.3593 77.8845L56.0456 78.004V79.3633L56.0755 80.7226L56.6431 80.7824L57.0315 81.3649L57.4049 81.9475H59.1377C60.0937 81.9475 60.9302 81.9475 61.0049 81.9774C61.1393 82.0072 61.1543 81.9774 61.2887 81.7682L61.4381 81.5292H62.9169C64.0671 81.5292 64.3957 81.5292 64.3957 81.5741C64.3509 81.5741 64.1866 82.1865 63.9924 82.9184L64.0521 82.8736Z" fill="white"/>
<path d="M89.7746 68.1153C89.7447 67.5328 89.6999 66.7262 89.6551 66.3228C89.1024 60.4673 87.6086 55.6724 84.7556 50.5936C84.6361 50.3994 84.5315 50.2052 84.4718 50.0559C84.4419 50.011 84.4269 49.9812 84.4269 49.9513C84.8303 48.7563 86.4734 43.7223 87.7729 37.9863C89.5356 30.1889 90.6708 21.077 87.2352 18.3285C87.2352 18.3285 81.2901 17.8954 73.3433 25.6927C71.1923 27.8437 69.2056 30.1889 67.4579 32.6835L66.9052 32.5043C63.7086 31.4586 60.3775 30.8163 57.0464 30.5923C56.0456 30.5176 52.2814 30.5176 51.0565 30.5923C47.352 30.8313 44.5138 31.3989 41.2873 32.5192C41.1529 32.564 41.0483 32.6088 40.9288 32.6536C39.1065 30.174 37.075 27.8437 34.8493 25.7226C26.5739 17.8804 20.4047 18.3435 20.4047 18.3435C16.7599 21.1667 17.9997 30.6968 19.8819 38.7631C21.1217 44.0958 22.6453 48.7862 23.2129 50.4741C23.1681 50.5637 23.1233 50.6683 23.0636 50.7579C20.0611 56.8524 18.4329 62.7229 18.0445 68.9817C21.4204 68.4888 30.6966 67.9361 37.6575 75.4198C37.6575 75.4198 42.2583 63.2756 54.6564 63.2756C67.0546 63.2756 69.6985 75.4198 69.6985 75.4198C77.9142 68.6382 86.7572 68.8622 89.8493 69.1759C89.8493 68.922 89.8045 68.5336 89.7895 68.1452L89.7746 68.1153ZM25.6328 45.5746C25.6328 45.5746 20.808 33.5051 22.0478 26.6039C22.2569 25.4388 22.6453 24.4231 23.2428 23.6463C23.2428 23.6463 28.7249 24.1841 37.553 33.998C37.553 33.998 35.88 34.8046 33.6244 36.5374C33.6244 36.5374 33.6244 36.5374 33.5945 36.5374C31.1597 38.4046 28.0228 41.3772 25.6328 45.5447V45.5746ZM46.1271 63.5146C46.0524 63.664 45.664 63.8432 45.2159 63.903C44.7827 63.9627 43.4383 63.9328 42.6765 63.8432C39.943 63.4847 37.0301 62.6482 34.909 61.6026C33.714 61.02 32.8626 60.4374 32.2352 59.8101L31.8767 59.4366L31.8319 58.9437C31.7721 58.0923 31.7871 56.7479 31.8767 56.2699C31.9364 55.8666 32.0858 55.4782 32.28 55.1346C32.3497 55.045 32.5389 55.0002 32.8476 55.0002C33.4153 55.0002 33.8933 55.0898 34.67 55.3288C36.2534 55.8217 38.6285 57.0018 41.4965 58.7346C43.8715 60.1536 44.7678 60.8557 45.4549 61.8117C45.918 62.4092 46.2317 63.2457 46.1122 63.4996L46.1271 63.5146ZM76.5549 59.2424C76.5101 59.4516 75.9125 60.064 75.3001 60.5271C73.5225 61.8266 70.3259 63.0515 67.0845 63.6191C65.2322 63.9478 63.3949 64.0075 62.8422 63.7386C62.4837 63.5594 62.424 63.41 62.5584 62.9469C62.8273 61.976 63.7086 60.9154 65.0828 59.9296C65.7849 59.4217 68.6081 57.7039 69.9226 56.9869C72.0885 55.7919 73.8512 55.0898 75.0312 54.9255C75.4047 54.8807 75.8528 54.8657 76.0022 54.9255C76.2412 55.0151 76.4951 55.7022 76.5997 56.5238C76.6445 56.957 76.6296 58.8989 76.5549 59.2424ZM74.4188 36.5523H74.3889C72.223 34.8046 70.5948 33.998 70.5948 33.998C79.1241 24.1841 84.412 23.6463 84.412 23.6463C84.9946 24.438 85.368 25.4388 85.5771 26.6039C86.7721 33.5051 82.1116 45.5895 82.1116 45.5895C80.1548 42.1091 77.5407 39.0469 74.4188 36.5673V36.5523Z" fill="#FFA409"/>
<path d="M85.5771 26.589C84.5763 26.4546 79.8112 26.4396 74.4039 36.5523H74.374C72.208 34.8046 70.5798 33.998 70.5798 33.998C79.1092 24.1841 84.3971 23.6463 84.3971 23.6463C84.9946 24.438 85.368 25.4388 85.5771 26.6039V26.589Z" fill="#FF9300"/>
<path d="M82.1116 45.5746C80.1548 42.0942 77.5407 39.032 74.4039 36.5523C79.7963 26.4396 84.5464 26.4695 85.5771 26.589C86.7721 33.5051 82.1116 45.5746 82.1116 45.5746Z" fill="#FF8300"/>
<path d="M85.7713 26.6338C85.7713 26.6338 85.6369 26.6039 85.5771 26.589L85.7713 26.6338Z" fill="#FF8300"/>
<path d="M37.553 33.998C37.553 33.998 35.88 34.8046 33.6244 36.5374C33.6244 36.5374 33.6244 36.5374 33.5945 36.5374C28.0079 26.4097 23.0785 26.4546 22.0179 26.5741C22.2271 25.4089 22.6154 24.3932 23.2129 23.6164C23.2129 23.6164 28.695 24.1542 37.538 33.9681L37.553 33.998Z" fill="#FF9300"/>
<path d="M33.6095 36.5523C31.1597 38.4345 28.0378 41.3921 25.6328 45.5746C25.6328 45.5746 20.808 33.5051 22.0478 26.589C23.0934 26.4546 28.0228 26.4396 33.6244 36.5523H33.6095Z" fill="#FF8300"/>
<path d="M22.0329 26.589C22.0329 26.589 21.8835 26.6189 21.8237 26.6338L22.0329 26.589Z" fill="#FF8300"/>
<path d="M69.0413 52.2816C69.0413 52.2816 64.9036 52.5355 65.4264 49.309C65.9492 46.0825 69.1757 45.6941 70.072 45.8285C70.9832 45.963 74.598 47.2476 73.9408 49.9662C73.2985 52.6849 72.3873 52.162 71.8794 52.2965C71.3566 52.4309 69.0413 52.2965 69.0413 52.2965V52.2816Z" fill="white"/>
<path d="M38.5687 52.2816C38.5687 52.2816 34.431 52.5355 34.9538 49.309C35.4766 46.0825 38.7032 45.6941 39.5994 45.8285C40.5106 45.963 44.1255 47.2476 43.4682 49.9662C42.8259 52.6849 41.9147 52.162 41.4068 52.2965C40.884 52.4309 38.5687 52.2965 38.5687 52.2965V52.2816Z" fill="white"/>
</svg>
