<svg width="133" height="45" viewBox="0 0 133 45" fill="none" xmlns="http://www.w3.org/2000/svg">
<g clip-path="url(#clip0_374_3364)">
<path fill-rule="evenodd" clip-rule="evenodd" d="M0.911616 9.03758C10.307 7.37489 19.7577 5.8731 29.2083 4.5054C41.4776 2.73544 53.7745 1.23365 66.099 0.0268555H66.5135H66.928C79.2526 1.23365 91.5495 2.73544 103.791 4.47858C113.242 5.84628 122.692 7.34807 132.088 9.01077C132.419 12.0412 133 21.6419 133 22.4732C133 23.3046 132.419 32.9053 132.088 35.9357C122.692 37.5984 113.242 39.1002 103.791 40.4679C91.5495 42.2378 79.2526 43.7396 66.928 44.9464H66.5135H66.099C53.7745 43.7396 41.4776 42.2378 29.2359 40.4679C19.7853 39.1002 10.3346 37.5984 0.939249 35.9357C0.607647 32.9053 0.0273438 23.3046 0.0273438 22.4732C0.0273438 21.6419 0.580014 12.068 0.911616 9.03758Z" fill="#BA7D24"/>
<path fill-rule="evenodd" clip-rule="evenodd" d="M126.34 30.8939C126.34 30.6258 126.395 30.3576 126.395 30.0894C126.561 28.0781 126.782 24.565 126.81 22.5536C126.782 20.5155 126.534 16.9756 126.395 14.9642C126.395 14.6961 126.34 14.4279 126.34 14.1597C118.548 12.8188 110.7 11.5852 102.852 10.4589C90.7759 8.71574 78.6448 7.24077 66.486 6.06079C54.3273 7.24077 42.1962 8.74256 30.1203 10.4589C22.2724 11.5852 14.4522 12.8188 6.63188 14.1597C6.63188 14.4279 6.57661 14.6961 6.57661 14.9642C6.41081 16.9756 6.18974 20.4887 6.16211 22.5268C6.18974 24.565 6.43844 28.1049 6.57661 30.1162C6.57661 30.3844 6.63188 30.6526 6.63188 30.9207C14.4245 32.2616 22.2724 33.4952 30.1203 34.6216C42.1962 36.3647 54.3273 37.8397 66.486 39.0197C78.6448 37.8397 90.7759 36.3379 102.852 34.6216C110.7 33.4952 118.52 32.2616 126.34 30.9207V30.8939Z" fill="#CE0921"/>
<path fill-rule="evenodd" clip-rule="evenodd" d="M66.5125 9.01074C54.4919 10.1907 42.5266 11.6657 30.5889 13.382C23.57 14.4011 16.5511 15.4738 9.53219 16.6538C9.39403 18.1019 9.28349 21.025 9.25586 22.4732C9.28349 23.9214 9.42166 26.8713 9.53219 28.3194C16.5235 29.4994 23.5424 30.5989 30.5889 31.5912C42.5266 33.3075 54.5195 34.7825 66.5125 35.9625C78.533 34.7825 90.4983 33.3075 102.436 31.5912C109.455 30.5721 116.474 29.4994 123.493 28.3194C123.631 26.8713 123.741 23.9482 123.769 22.5C123.741 21.0519 123.603 18.1019 123.493 16.6538C116.501 15.4738 109.483 14.3743 102.436 13.382C90.4983 11.6657 78.533 10.1907 66.5125 9.01074Z" fill="url(#paint0_radial_374_3364)"/>
<path fill-rule="evenodd" clip-rule="evenodd" d="M4.11739 22.4732C4.14502 20.4887 4.39372 16.7879 4.53189 14.7766C4.58716 13.9989 4.64243 13.1943 4.72533 12.4166L0.911905 9.0376C0.580303 12.068 0 21.6687 0 22.5001H4.11739V22.4732Z" fill="url(#paint1_linear_374_3364)"/>
<path fill-rule="evenodd" clip-rule="evenodd" d="M4.72553 12.4166C13.0708 10.9684 21.4438 9.65435 29.8167 8.44756C42.0031 6.70441 54.2447 5.20262 66.4864 3.99583V0H66.0719C53.7473 1.23361 41.4504 2.7354 29.2088 4.50536C19.7581 5.87306 10.3351 7.37485 0.912109 9.03755L4.72553 12.4166Z" fill="url(#paint2_linear_374_3364)"/>
<path fill-rule="evenodd" clip-rule="evenodd" d="M66.514 3.99587C78.7832 5.17584 90.9972 6.67763 103.184 8.44759C111.557 9.65439 119.93 10.9685 128.275 12.4166L132.088 9.03758C122.693 7.37489 113.242 5.8731 103.792 4.5054C91.5223 2.73544 79.2254 1.23365 66.9008 0.0268555H66.4863V3.99587H66.514Z" fill="url(#paint3_linear_374_3364)"/>
<path fill-rule="evenodd" clip-rule="evenodd" d="M132.999 22.5H128.881C128.854 24.4845 128.605 28.1853 128.467 30.1966C128.412 30.9743 128.356 31.752 128.273 32.5566L132.087 35.9356C132.418 32.9052 132.999 23.3045 132.999 22.4731V22.5Z" fill="url(#paint4_linear_374_3364)"/>
<path fill-rule="evenodd" clip-rule="evenodd" d="M128.275 32.5835C119.929 34.0316 111.556 35.3457 103.183 36.5525C90.9969 38.2957 78.7553 39.7974 66.5137 41.0042V45.0001H66.9282C79.2527 43.7665 91.5496 42.2647 103.791 40.4947C113.242 39.127 122.693 37.6252 132.088 35.9625L128.275 32.5835Z" fill="url(#paint5_linear_374_3364)"/>
<path fill-rule="evenodd" clip-rule="evenodd" d="M66.5137 45.0001V41.0042C54.2445 39.8243 42.0305 38.3225 29.8441 36.5525C21.4711 35.3457 13.0982 34.0316 4.75287 32.5835L0.939453 35.9625C10.3348 37.6252 19.7855 39.127 29.2361 40.4947C41.4778 42.2647 53.7747 43.7665 66.0992 44.9732H66.5137V45.0001Z" fill="url(#paint6_linear_374_3364)"/>
<path fill-rule="evenodd" clip-rule="evenodd" d="M30.1217 10.4321C42.1976 8.68897 54.3287 7.214 66.4874 6.03403V4.02271C54.2181 5.20268 42.0041 6.70447 29.8178 8.47443C21.4448 9.68123 13.0719 10.9953 4.72656 12.4434L6.66091 14.133C14.4536 12.7921 22.3015 11.5585 30.1494 10.4321H30.1217Z" fill="url(#paint7_linear_374_3364)"/>
<path fill-rule="evenodd" clip-rule="evenodd" d="M66.5137 6.00717C78.6724 7.18715 90.8035 8.68894 102.879 10.4053C110.727 11.5316 118.548 12.7652 126.368 14.1061L128.302 12.4166C119.957 10.9684 111.584 9.65437 103.211 8.44758C91.0246 6.70443 78.7829 5.20264 66.5413 3.99585V6.00717H66.5137Z" fill="url(#paint8_linear_374_3364)"/>
<path fill-rule="evenodd" clip-rule="evenodd" d="M126.505 15.9029C126.644 17.6192 126.809 20.8105 126.837 22.5268C126.837 22.8218 126.837 23.1168 126.809 23.4386C126.726 25.155 126.561 28.3731 126.422 30.0894C126.422 30.3576 126.367 30.6258 126.367 30.8939L126.533 31.028L128.302 32.5834C128.357 31.9666 128.412 31.323 128.44 30.7062C128.44 30.5453 128.44 30.3844 128.467 30.2503C128.606 28.4267 128.827 24.9136 128.882 23.09C128.882 22.9023 128.882 22.7146 128.882 22.5536C128.854 20.7837 128.661 17.4047 128.523 15.6079C128.523 15.3397 128.467 15.0983 128.467 14.8302C128.467 14.7765 128.467 14.7497 128.467 14.6961C128.412 13.9452 128.357 13.2211 128.302 12.4702L126.367 14.1597C126.367 14.4279 126.422 14.6961 126.422 14.9643C126.422 15.2861 126.478 15.6079 126.505 15.9297V15.9029Z" fill="url(#paint9_linear_374_3364)"/>
<path fill-rule="evenodd" clip-rule="evenodd" d="M126.34 30.8938C118.548 32.2347 110.7 33.4683 102.852 34.5946C90.7762 36.3378 78.6451 37.8127 66.4863 38.9927V41.004C78.7556 39.8241 90.9696 38.3223 103.156 36.5523C111.529 35.3455 119.902 34.0315 128.247 32.5833L126.479 31.0279L126.313 30.8938H126.34Z" fill="url(#paint10_linear_374_3364)"/>
<path fill-rule="evenodd" clip-rule="evenodd" d="M66.515 38.9927C54.3563 37.8127 42.2252 36.311 30.1494 34.5946C22.3015 33.4683 14.4812 32.2347 6.66091 30.8938L6.49511 31.0279L4.72656 32.5833C13.0719 34.0315 21.4448 35.3455 29.8178 36.5523C42.0041 38.2955 54.2458 39.7973 66.4874 41.004V38.9927H66.515Z" fill="url(#paint11_linear_374_3364)"/>
<path fill-rule="evenodd" clip-rule="evenodd" d="M6.49562 15.9029C6.35745 17.6192 6.19165 20.8105 6.16402 22.5268C6.16402 22.8218 6.16402 23.1168 6.19165 23.4386C6.27455 25.155 6.44035 28.3731 6.57852 30.0894C6.57852 30.3576 6.63379 30.6258 6.63379 30.8939L6.46799 31.028L4.69944 32.5834C4.64418 31.9666 4.58891 31.323 4.56128 30.7062C4.56128 30.5453 4.56128 30.3844 4.53364 30.2503C4.39548 28.4267 4.17441 24.9136 4.11914 23.09C4.11914 22.9023 4.11914 22.7146 4.11914 22.5536C4.14677 20.7837 4.34021 17.4047 4.47838 15.6079C4.47838 15.3397 4.53364 15.0983 4.53364 14.8302C4.53364 14.7765 4.53364 14.7497 4.53364 14.6961C4.58891 13.9452 4.64418 13.2211 4.69944 12.4702L6.63379 14.1597C6.63379 14.4279 6.57852 14.6961 6.57852 14.9643C6.57852 15.2861 6.52325 15.6079 6.49562 15.9297V15.9029Z" fill="url(#paint12_linear_374_3364)"/>
<g style="mix-blend-mode:screen" opacity="0.75">
<path fill-rule="evenodd" clip-rule="evenodd" d="M66.5125 3.99602C70.4365 4.37146 74.3328 4.77373 78.2568 5.22963C86.5745 6.16825 94.8921 7.24095 103.182 8.44775C107.023 8.9841 110.837 9.57409 114.65 10.1641C98.9819 7.08005 82.7334 4.90782 67.3692 3.16467C67.0928 2.1456 66.7889 1.15335 66.5125 0.134277C66.2362 1.15335 65.9322 2.1456 65.6559 3.16467C50.264 4.90782 34.0432 7.10686 18.375 10.1641C22.1884 9.57409 26.0295 8.9841 29.8429 8.44775C38.1329 7.26777 46.4506 6.19506 54.7683 5.22963C58.6646 4.77373 62.5886 4.37146 66.5125 3.99602Z" fill="white"/>
</g>
<path fill-rule="evenodd" clip-rule="evenodd" d="M30.5634 13.3819C42.5011 11.6656 54.4664 10.1906 66.487 9.01066V6.00708C54.3282 7.18706 42.1971 8.68884 30.1213 10.4052C22.2734 11.5315 14.4531 12.7651 6.63281 14.106L7.76579 15.0983L9.17509 16.3587L9.5067 16.6537C9.7554 16.6 10.0041 16.5732 10.2252 16.5196C11.4134 16.3319 12.6016 16.1173 13.7899 15.9296C19.3719 15.0178 24.9538 14.1596 30.5358 13.3551L30.5634 13.3819Z" fill="url(#paint13_linear_374_3364)"/>
<path fill-rule="evenodd" clip-rule="evenodd" d="M66.514 9.01069C78.5345 10.1907 90.4998 11.6656 102.438 13.382C108.019 14.1865 113.601 15.0447 119.183 15.9565C120.372 16.1442 121.56 16.3587 122.748 16.5465C122.997 16.6001 123.246 16.6269 123.467 16.6805L123.798 16.3855L125.208 15.1251L126.34 14.1329C118.548 12.792 110.7 11.5584 102.852 10.432C90.7762 8.68888 78.6451 7.21391 66.4863 6.03394V9.03751L66.514 9.01069Z" fill="url(#paint14_linear_374_3364)"/>
<path fill-rule="evenodd" clip-rule="evenodd" d="M9.25677 22.4733C9.2844 21.0252 9.42257 18.102 9.53311 16.6539L9.2015 16.3589L7.7922 15.0985L6.65922 14.1062C6.65922 14.3744 6.60396 14.6426 6.60396 14.9107C6.60396 15.2325 6.54869 15.5544 6.52105 15.8762C6.38289 17.5657 6.21709 20.757 6.18945 22.4465C6.18945 22.7683 6.18945 23.0901 6.21709 23.3851C6.29999 25.1014 6.46579 28.3195 6.60396 30.0359C6.60396 30.3041 6.65922 30.5722 6.65922 30.8404L9.53311 28.2927C9.45021 27.3273 9.3673 24.8601 9.31204 23.8946C9.2844 23.4119 9.25677 22.9024 9.25677 22.4197V22.4733Z" fill="url(#paint15_linear_374_3364)"/>
<path fill-rule="evenodd" clip-rule="evenodd" d="M123.467 16.6539C123.605 18.102 123.715 21.052 123.743 22.5001C123.743 22.9828 123.715 23.4656 123.688 23.9215C123.633 24.8869 123.55 27.3541 123.467 28.3196L126.341 30.8672C126.341 30.599 126.396 30.3309 126.396 30.0627C126.534 28.3464 126.7 25.1282 126.783 23.4119C126.783 23.1169 126.783 22.8219 126.81 22.5001C126.783 20.7838 126.617 17.5925 126.479 15.8762C126.479 15.5544 126.424 15.2325 126.396 14.9107C126.396 14.6426 126.341 14.3744 126.341 14.1062L125.208 15.0985L123.798 16.3589L123.467 16.6539Z" fill="#01A238"/>
<path fill-rule="evenodd" clip-rule="evenodd" d="M30.5634 31.6179C42.5011 33.3343 54.4664 34.8092 66.487 35.9892V38.9928C54.3282 37.8128 42.1971 36.311 30.1213 34.5947C22.2734 33.4684 14.4531 32.2348 6.63281 30.8939L7.76579 29.9016L9.17509 28.6412L9.5067 28.3462C9.7554 28.3998 10.0041 28.4266 10.2252 28.4803C11.4134 28.668 12.6016 28.8825 13.7899 29.0703C19.3719 29.9821 24.9538 30.8402 30.5358 31.6448L30.5634 31.6179Z" fill="url(#paint16_linear_374_3364)"/>
<path fill-rule="evenodd" clip-rule="evenodd" d="M66.514 35.9894C78.5345 34.8094 90.4998 33.3345 102.438 31.6181C108.019 30.8136 113.601 29.9555 119.183 29.0437C120.372 28.8559 121.56 28.6414 122.748 28.4537C122.997 28.4 123.246 28.3732 123.467 28.3196L123.798 28.6146L125.208 29.875L126.34 30.8673C118.548 32.2081 110.7 33.4417 102.852 34.5681C90.7762 36.3112 78.6451 37.7862 66.4863 38.9662V35.9626L66.514 35.9894Z" fill="url(#paint17_linear_374_3364)"/>
<path fill-rule="evenodd" clip-rule="evenodd" d="M4.11739 22.5268C4.14502 24.5113 4.39372 28.2122 4.53189 30.2235C4.58716 31.0012 4.64243 31.7789 4.72533 32.5834L0.911905 35.9625C0.580303 32.9321 0 23.3313 0 22.5H4.11739V22.5268Z" fill="url(#paint18_linear_374_3364)"/>
<path fill-rule="evenodd" clip-rule="evenodd" d="M128.881 22.4732C128.854 20.4887 128.605 16.7879 128.467 14.7766C128.412 13.9989 128.356 13.1943 128.273 12.4166L132.087 9.0376C132.418 12.068 132.999 21.6687 132.999 22.5001H128.881V22.4732Z" fill="url(#paint19_linear_374_3364)"/>
<g style="mix-blend-mode:screen" opacity="0.5">
<path fill-rule="evenodd" clip-rule="evenodd" d="M66.5142 40.0654C49.5473 38.5905 32.5251 36.5255 15.4199 34.3533C20.2281 35.131 25.0364 35.8551 29.8446 36.5523C42.031 38.2955 54.2726 39.7973 66.5142 41.004C78.7835 39.8241 90.9975 38.3223 103.184 36.5523C107.992 35.8551 112.8 35.131 117.609 34.3533C100.503 36.4987 83.4812 38.5636 66.5142 40.0654Z" fill="white"/>
</g>
<path style="mix-blend-mode:screen" fill-rule="evenodd" clip-rule="evenodd" d="M37.3588 12.4434L19.3418 29.9285C23.0723 30.5185 26.8305 31.0817 30.5886 31.618C35.5903 32.3421 40.592 33.0125 45.5936 33.6293L70.5467 9.41301C69.1926 9.27892 67.8662 9.14483 66.5122 9.01074C56.7852 9.97618 47.0582 11.1025 37.3588 12.4166V12.4434Z" fill="url(#paint20_radial_374_3364)"/>
<path style="mix-blend-mode:screen" fill-rule="evenodd" clip-rule="evenodd" d="M101.829 13.3015L79.9434 34.5411C85.1937 33.9243 90.4164 33.2807 95.6668 32.5566L113.684 15.0715C109.953 14.4815 106.195 13.9183 102.437 13.382C102.244 13.3551 102.023 13.3283 101.829 13.3015Z" fill="url(#paint21_radial_374_3364)"/>
<path d="M36.8545 20.3096L34.7979 20.1602V17.5322H34.7451C34.6045 17.5264 34.4756 17.5234 34.3584 17.5234C33.8076 17.5234 33.4209 17.5703 33.1982 17.6641C32.9756 17.7578 32.8555 18.0449 32.8379 18.5254C32.832 18.6016 32.8262 18.6953 32.8203 18.8066C32.8203 18.918 32.8174 19.0322 32.8115 19.1494C32.8115 19.2607 32.8115 19.3545 32.8115 19.4307V19.5537L37.2676 22.7441V25.126C37.2676 25.6533 37.1445 26.1338 36.8984 26.5674C36.6523 27.001 36.2979 27.3467 35.835 27.6045C35.3779 27.8623 34.8242 27.9912 34.1738 27.9912H30.4297V23.5L32.4863 23.6494L32.7412 25.8643C32.958 25.8643 33.1543 25.8672 33.3301 25.873C33.4531 25.8789 33.5674 25.8818 33.6729 25.8818C33.9541 25.8818 34.1914 25.8643 34.3848 25.8291C34.5781 25.7881 34.71 25.6621 34.7803 25.4512C34.8506 25.2344 34.8857 24.8799 34.8857 24.3877V24.2295L30.4297 20.9775V18.2705C30.4297 17.7432 30.5498 17.2627 30.79 16.8291C31.0361 16.3955 31.3906 16.0498 31.8535 15.792C32.3164 15.5342 32.873 15.4053 33.5234 15.4053H37.1621L36.8545 20.3096ZM44.334 15.4053V17.585L42.2773 17.374V28H39.6934V17.3301L37.5049 17.585V15.4053H44.334ZM48.1484 15.4053H52.3936V28H49.8096V24.1592L47.6387 24.0186H47.6299V28H45.0459V24.2559L44.0967 22.0762H45.0459V18.2705C45.0459 17.7432 45.1689 17.2627 45.415 16.8291C45.6611 16.3955 46.0127 16.0498 46.4697 15.792C46.9326 15.5342 47.4922 15.4053 48.1484 15.4053ZM47.6299 22.0762H49.8096V17.5322H49.8008C49.5547 17.5205 49.332 17.5146 49.1328 17.5146C48.582 17.5146 48.207 17.5674 48.0078 17.6729C47.7559 17.8076 47.6299 18.1943 47.6299 18.833V22.0762ZM58.6689 28L57.377 24.6514C56.9668 24.9326 56.6006 25.1816 56.2783 25.3984V28H53.7031V15.4053H56.2783V22.5244C56.8057 22.1436 57.4268 21.6514 58.1416 21.0479V15.4053H60.6816V22.0586C60.3535 22.3691 59.9902 22.6855 59.5918 23.0078L61.4375 28H58.6689ZM68.5127 17.585L64.5664 17.3477V22.0762H68.5127V24.2559L64.5664 24.0186V26.0488L68.5127 25.8115V27.9912H64.5664L61.9912 28V24.2559L61.0332 22.0762H61.9912V15.4053H68.5127V17.585ZM78.0752 15.4053H80.6504V28H78.0752V21.6455L76.2119 19.1758V28H73.6719V15.3877L76.1592 15.3965L76.2207 15.4668L78.0752 17.9189V15.4053ZM88.7539 17.2949C88.7773 17.377 88.7979 17.4941 88.8154 17.6465C88.8389 17.793 88.8506 17.9131 88.8506 18.0068V25.3457C88.8506 25.873 88.7275 26.3535 88.4814 26.7871C88.2354 27.2148 87.8809 27.5576 87.418 27.8154C86.9609 28.0732 86.4043 28.2021 85.748 28.2021H84.8779C84.2275 28.2021 83.6709 28.0732 83.208 27.8154C82.7451 27.5576 82.3906 27.2148 82.1445 26.7871C81.9043 26.3535 81.7842 25.873 81.7842 25.3457V18.0596C81.7842 17.5322 81.9043 17.0547 82.1445 16.627C82.3906 16.1934 82.7451 15.8477 83.208 15.5898C83.6709 15.332 84.2275 15.2031 84.8779 15.2031H85.748C86.5625 15.2031 87.2275 15.3994 87.7432 15.792C88.2588 16.1787 88.5957 16.6797 88.7539 17.2949ZM86.2666 19.4482C86.2666 18.8975 86.252 18.4697 86.2227 18.165C86.1934 17.8604 86.1113 17.6494 85.9766 17.5322C85.8477 17.4092 85.6279 17.3477 85.3174 17.3477C85.0068 17.3477 84.7842 17.4092 84.6494 17.5322C84.5146 17.6494 84.4326 17.8604 84.4033 18.165C84.374 18.4697 84.3594 18.8975 84.3594 19.4482V23.957C84.3594 24.5078 84.374 24.9355 84.4033 25.2402C84.4326 25.5449 84.5117 25.7588 84.6406 25.8818C84.7754 25.999 85.001 26.0576 85.3174 26.0576C85.6338 26.0576 85.8564 25.999 85.9854 25.8818C86.1201 25.7588 86.1992 25.5449 86.2227 25.2402C86.252 24.9355 86.2666 24.5078 86.2666 23.957V19.4482ZM98.5713 15.4053H101.155V25.5303L98.5098 28.2109L96.9014 26.6289V27.7188L94.3174 28.2285V26.6289L92.709 28.2109L90.0635 25.5303V15.4053H92.6475V25.0732L94.3174 23.2363V17.1982L93.5352 15.4053H96.9014V23.2363L98.5713 25.0732V15.4053Z" fill="white"/>
</g>
<defs>
<radialGradient id="paint0_radial_374_3364" cx="0" cy="0" r="1" gradientUnits="userSpaceOnUse" gradientTransform="translate(66.5125 9.03756) scale(63.9992 62.1097)">
<stop stop-color="#00AF3C"/>
<stop offset="1" stop-color="#0A6629"/>
</radialGradient>
<linearGradient id="paint1_linear_374_3364" x1="2.34885" y1="22.5001" x2="2.34885" y2="9.0376" gradientUnits="userSpaceOnUse">
<stop stop-color="#FFD97A"/>
<stop offset="1" stop-color="#EB9E21"/>
</linearGradient>
<linearGradient id="paint2_linear_374_3364" x1="0.912109" y1="6.22169" x2="66.514" y2="6.22169" gradientUnits="userSpaceOnUse">
<stop stop-color="#F5D36C"/>
<stop offset="1" stop-color="#FFF5B0"/>
</linearGradient>
<linearGradient id="paint3_linear_374_3364" x1="66.514" y1="6.22173" x2="132.088" y2="6.22173" gradientUnits="userSpaceOnUse">
<stop stop-color="#FFDD6E"/>
<stop offset="1" stop-color="#D69705"/>
</linearGradient>
<linearGradient id="paint4_linear_374_3364" x1="130.65" y1="35.9624" x2="130.65" y2="22.5" gradientUnits="userSpaceOnUse">
<stop stop-color="#E8B048"/>
<stop offset="1" stop-color="#C27C0C"/>
</linearGradient>
<linearGradient id="paint5_linear_374_3364" x1="66.5137" y1="38.7784" x2="132.088" y2="38.7784" gradientUnits="userSpaceOnUse">
<stop stop-color="#A87219"/>
<stop offset="1" stop-color="#6B4200"/>
</linearGradient>
<linearGradient id="paint6_linear_374_3364" x1="0.91182" y1="38.7784" x2="66.5137" y2="38.7784" gradientUnits="userSpaceOnUse">
<stop stop-color="#A36808"/>
<stop offset="1" stop-color="#BF8800"/>
</linearGradient>
<linearGradient id="paint7_linear_374_3364" x1="4.72656" y1="9.06442" x2="66.5151" y2="9.06442" gradientUnits="userSpaceOnUse">
<stop stop-color="#6B4200"/>
<stop offset="1" stop-color="#A87219"/>
</linearGradient>
<linearGradient id="paint8_linear_374_3364" x1="66.5137" y1="9.06438" x2="128.275" y2="9.06438" gradientUnits="userSpaceOnUse">
<stop stop-color="#BF8800"/>
<stop offset="1" stop-color="#A36808"/>
</linearGradient>
<linearGradient id="paint9_linear_374_3364" x1="127.611" y1="32.5834" x2="127.611" y2="12.4166" gradientUnits="userSpaceOnUse">
<stop stop-color="#E8B048"/>
<stop offset="1" stop-color="#8F6B09"/>
</linearGradient>
<linearGradient id="paint10_linear_374_3364" x1="66.514" y1="35.9355" x2="128.275" y2="35.9355" gradientUnits="userSpaceOnUse">
<stop stop-color="#FFF5B0"/>
<stop offset="1" stop-color="#F5D36C"/>
</linearGradient>
<linearGradient id="paint11_linear_374_3364" x1="4.72656" y1="35.9355" x2="66.515" y2="35.9355" gradientUnits="userSpaceOnUse">
<stop stop-color="#D69705"/>
<stop offset="1" stop-color="#FFDD6E"/>
</linearGradient>
<linearGradient id="paint12_linear_374_3364" x1="5.39028" y1="1.4667e-05" x2="5.39028" y2="1.4667e-05" gradientUnits="userSpaceOnUse">
<stop stop-color="#E8B048"/>
<stop offset="1" stop-color="#8F6B09"/>
</linearGradient>
<linearGradient id="paint13_linear_374_3364" x1="6.66045" y1="11.3438" x2="66.5146" y2="11.3438" gradientUnits="userSpaceOnUse">
<stop stop-color="#005C1F"/>
<stop offset="1" stop-color="#07C748"/>
</linearGradient>
<linearGradient id="paint14_linear_374_3364" x1="66.514" y1="11.3438" x2="126.34" y2="11.3438" gradientUnits="userSpaceOnUse">
<stop stop-color="#02C243"/>
<stop offset="1" stop-color="#005B1F"/>
</linearGradient>
<linearGradient id="paint15_linear_374_3364" x1="7.84746" y1="30.894" x2="7.84746" y2="14.1062" gradientUnits="userSpaceOnUse">
<stop stop-color="#005B1F"/>
<stop offset="1" stop-color="#00C643"/>
</linearGradient>
<linearGradient id="paint16_linear_374_3364" x1="6.66045" y1="33.6561" x2="66.5146" y2="33.6561" gradientUnits="userSpaceOnUse">
<stop stop-color="#007628"/>
<stop offset="1" stop-color="#00C744"/>
</linearGradient>
<linearGradient id="paint17_linear_374_3364" x1="66.514" y1="33.6563" x2="126.34" y2="33.6563" gradientUnits="userSpaceOnUse">
<stop stop-color="#00A839"/>
<stop offset="1" stop-color="#00C543"/>
</linearGradient>
<linearGradient id="paint18_linear_374_3364" x1="2.34885" y1="3.48663e-06" x2="2.34885" y2="22.5" gradientUnits="userSpaceOnUse">
<stop stop-color="#E8B048"/>
<stop offset="1" stop-color="#C27C0C"/>
</linearGradient>
<linearGradient id="paint19_linear_374_3364" x1="130.65" y1="5.29935e-05" x2="130.65" y2="5.29935e-05" gradientUnits="userSpaceOnUse">
<stop stop-color="#FFD97A"/>
<stop offset="1" stop-color="#EB9E21"/>
</linearGradient>
<radialGradient id="paint20_radial_374_3364" cx="0" cy="0" r="1" gradientUnits="userSpaceOnUse" gradientTransform="translate(33.1862 -8.6889) scale(47.1427 45.7509)">
<stop/>
<stop offset="1" stop-color="#003311"/>
</radialGradient>
<radialGradient id="paint21_radial_374_3364" cx="0" cy="0" r="1" gradientUnits="userSpaceOnUse" gradientTransform="translate(84.5029 -1.63591) scale(39.6541 38.4833)">
<stop stop-color="#FF99CC"/>
<stop offset="1"/>
</radialGradient>
<clipPath id="clip0_374_3364">
<rect width="133" height="45" fill="white"/>
</clipPath>
</defs>
</svg>
