<svg width="482" height="508" viewBox="0 0 482 508" fill="none" xmlns="http://www.w3.org/2000/svg">
<g clip-path="url(#clip0_1093_3711)">
<path d="M432.613 208.329C432.613 323.378 339.317 416.64 224.225 416.64C109.134 416.64 15.8203 323.378 15.8203 208.329C15.8203 93.2797 109.116 0 224.208 0C339.299 0 432.595 93.2797 432.595 208.329H432.613Z" fill="url(#paint0_linear_1093_3711)"/>
<path d="M416.792 208.809C416.792 323.858 323.478 417.137 208.387 417.137C93.2961 417.137 0 323.875 0 208.809C0 93.7417 93.2961 0.515381 208.405 0.515381C323.514 0.515381 416.81 93.7773 416.81 208.826L416.792 208.809Z" fill="url(#paint1_linear_1093_3711)"/>
<g style="mix-blend-mode:soft-light">
<path d="M208.404 378.93C114.575 378.93 38.2383 302.621 38.2383 208.826C38.2383 115.031 114.575 38.7407 208.404 38.7407C302.233 38.7407 378.552 115.031 378.552 208.826C378.552 302.621 302.216 378.93 208.404 378.93ZM208.404 41.3708C116.032 41.3708 40.8871 116.506 40.8871 208.809C40.8871 301.111 116.032 376.282 208.404 376.282C300.776 376.282 375.921 301.164 375.921 208.809C375.921 116.453 300.776 41.3708 208.404 41.3708Z" fill="white"/>
</g>
<g style="mix-blend-mode:soft-light">
<path d="M248.188 397.767C241.681 397.767 234.73 393.751 227.993 389.859C221.362 386.038 214.535 382.075 208.384 382.075C202.233 382.075 195.389 386.038 188.776 389.841C182.056 393.751 175.105 397.749 168.598 397.749C167.461 397.749 166.376 397.642 165.327 397.394C157.541 395.617 152.136 387.673 146.91 379.978C142.732 373.829 138.412 367.467 133.15 364.944C130.412 363.611 126.875 363.007 122.039 363.007C118.981 363.007 115.675 363.256 112.475 363.487C109.239 363.718 105.897 363.967 102.751 363.967C95.8175 363.967 91.1776 362.74 87.7465 359.986C81.6311 355.099 80.2089 345.68 78.84 336.564C77.72 329.135 76.5823 321.458 72.8668 316.802C69.1869 312.2 62.0048 309.392 55.0005 306.673C46.3962 303.297 37.4719 299.831 34.0408 292.705C30.6809 285.739 33.472 276.693 36.1564 267.968C38.3963 260.735 40.7074 253.254 39.3563 247.354C38.0763 241.756 33.1164 236.407 27.8365 230.756C21.49 223.932 14.8945 216.859 14.8945 208.755C14.8945 200.652 21.49 193.632 27.8365 186.79C33.0986 181.139 38.0763 175.808 39.3563 170.192C40.6896 164.292 38.3785 156.811 36.1564 149.578C33.4542 140.835 30.6631 131.807 34.0408 124.841C37.4719 117.732 46.3962 114.249 55.0005 110.891C61.9692 108.189 69.1869 105.364 72.8668 100.761C76.5823 96.123 77.7378 88.4459 78.84 80.9999C80.2089 71.9012 81.6311 62.4648 87.7465 57.5778C91.1776 54.8411 95.8175 53.6149 102.751 53.6149C105.915 53.6149 109.257 53.8637 112.475 54.0947C115.675 54.3435 118.981 54.5745 122.039 54.5745C126.875 54.5745 130.412 53.9525 133.15 52.6375C138.412 50.114 142.732 43.752 146.91 37.6033C152.136 29.9084 157.541 21.9648 165.345 20.2055C166.376 19.9745 167.478 19.8501 168.598 19.8501C175.087 19.8501 182.056 23.8663 188.776 27.7582C195.389 31.5789 202.233 35.5241 208.384 35.5241C214.535 35.5241 221.362 31.5789 227.993 27.7582C234.713 23.8663 241.681 19.8501 248.188 19.8501C249.308 19.8501 250.41 19.9745 251.441 20.2055C259.246 21.9826 264.632 29.9262 269.859 37.6033C274.019 43.752 278.356 50.114 283.601 52.6375C286.356 53.9703 289.894 54.5745 294.729 54.5745C297.787 54.5745 301.094 54.3257 304.294 54.0947C307.529 53.8459 310.871 53.6149 314.036 53.6149C320.951 53.6149 325.591 54.8411 329.022 57.5778C335.155 62.4826 336.577 71.9012 337.946 81.0177C339.066 88.4459 340.204 96.123 343.92 100.761C347.599 105.382 354.817 108.189 361.786 110.908C370.408 114.267 379.332 117.732 382.746 124.859C386.105 131.843 383.314 140.852 380.612 149.613C378.372 156.864 376.061 164.328 377.394 170.228C378.674 175.843 383.652 181.175 388.914 186.826C395.279 193.668 401.856 200.723 401.856 208.791C401.856 216.859 395.279 223.949 388.914 230.791C383.652 236.424 378.674 241.774 377.394 247.371C376.061 253.289 378.372 260.771 380.612 268.003C383.314 276.747 386.105 285.774 382.746 292.758C379.314 299.867 370.39 303.35 361.768 306.709C354.817 309.428 347.599 312.235 343.92 316.838C340.204 321.494 339.066 329.171 337.946 336.599C336.577 345.698 335.173 355.117 329.022 360.004C325.591 362.758 320.951 363.984 314.018 363.984C310.871 363.984 307.529 363.735 304.294 363.504C301.094 363.256 297.805 363.025 294.729 363.025C289.894 363.025 286.356 363.647 283.601 364.962C278.374 367.485 274.036 373.847 269.876 379.996C264.65 387.673 259.263 395.634 251.459 397.411C250.41 397.642 249.326 397.767 248.188 397.767ZM208.402 379.463C215.264 379.463 222.411 383.603 229.308 387.584C235.744 391.298 242.393 395.155 248.188 395.155C249.112 395.155 250.019 395.048 250.872 394.852C257.646 393.306 262.748 385.807 267.708 378.539C272.063 372.106 276.596 365.441 282.481 362.598C285.61 361.105 289.503 360.395 294.747 360.395C297.912 360.395 301.271 360.643 304.507 360.874C307.689 361.123 310.978 361.354 314.036 361.354C320.329 361.354 324.471 360.306 327.404 357.96C332.72 353.713 334.071 344.809 335.351 336.208C336.506 328.425 337.733 320.392 341.875 315.203C345.982 310.049 353.537 307.117 360.826 304.256C368.968 301.075 377.394 297.805 380.381 291.621C383.279 285.579 380.772 277.44 378.106 268.803C375.777 261.233 373.359 253.414 374.852 246.821C376.275 240.53 381.732 234.665 387.012 229.014C393.021 222.563 399.243 215.881 399.243 208.826C399.243 201.771 393.021 195.125 387.012 188.656C381.732 183.005 376.292 177.158 374.852 170.85C373.359 164.275 375.777 156.438 378.106 148.867C380.772 140.23 383.297 132.074 380.381 126.031C377.394 119.847 368.968 116.56 360.826 113.396C353.537 110.553 345.982 107.621 341.875 102.449C337.733 97.2603 336.524 89.2101 335.351 81.4264C334.053 72.8253 332.72 63.922 327.404 59.6748C324.471 57.329 320.347 56.2805 314.053 56.2805C310.996 56.2805 307.689 56.5293 304.507 56.7603C301.271 57.0091 297.912 57.2579 294.747 57.2579C289.503 57.2579 285.592 56.5649 282.463 55.0366C276.579 52.1932 272.063 45.5469 267.69 39.1138C262.73 31.8455 257.646 24.3284 250.855 22.8001C250.001 22.6046 249.095 22.498 248.188 22.498C242.375 22.498 235.744 26.3365 229.308 30.0684C222.393 34.0668 215.246 38.1897 208.384 38.1897C201.522 38.1897 194.376 34.0491 187.442 30.0684C181.025 26.3543 174.376 22.498 168.581 22.498C167.656 22.498 166.75 22.5868 165.896 22.8001C159.123 24.3461 154.021 31.8455 149.097 39.1138C144.723 45.5469 140.19 52.1932 134.306 55.0366C131.195 56.5471 127.284 57.2579 122.021 57.2579C118.857 57.2579 115.479 57.0091 112.262 56.7603C109.079 56.5293 105.773 56.2805 102.733 56.2805C96.4219 56.2805 92.3153 57.329 89.382 59.6748C84.0488 63.922 82.7155 72.8253 81.4355 81.4264C80.2622 89.2101 79.0711 97.2425 74.8934 102.449C70.7868 107.603 63.2314 110.553 55.9427 113.396C47.8006 116.56 39.3741 119.847 36.4052 126.031C33.4897 132.074 36.0141 140.23 38.663 148.849C41.0274 156.42 43.4451 164.239 41.934 170.832C40.5118 177.123 35.0542 182.97 29.792 188.638C23.7655 195.089 17.5434 201.771 17.5434 208.808C17.5434 215.846 23.7655 222.545 29.792 228.996C35.0542 234.665 40.5118 240.512 41.934 246.803C43.4451 253.396 41.0274 261.215 38.663 268.785C36.0141 277.404 33.4897 285.561 36.4052 291.603C39.3919 297.788 47.8184 301.075 55.9604 304.256C63.267 307.1 70.8046 310.049 74.9112 315.203C79.0711 320.392 80.2622 328.442 81.4533 336.208C82.7333 344.809 84.0666 353.713 89.3998 357.96C92.3509 360.306 96.4575 361.354 102.751 361.354C105.791 361.354 109.097 361.123 112.279 360.874C115.515 360.643 118.875 360.395 122.039 360.395C127.284 360.395 131.177 361.105 134.306 362.598C140.19 365.441 144.723 372.106 149.097 378.539C154.021 385.807 159.123 393.324 165.896 394.852C166.767 395.048 167.674 395.155 168.598 395.155C174.394 395.155 181.043 391.298 187.46 387.584C194.376 383.586 201.522 379.463 208.384 379.463H208.402Z" fill="white"/>
<path d="M250.608 409.194C243.728 409.194 236.35 404.946 229.239 400.806C222.217 396.736 214.928 392.542 208.404 392.542C201.88 392.542 194.591 396.736 187.569 400.806C180.422 404.929 173.062 409.194 166.182 409.194C164.991 409.194 163.854 409.069 162.751 408.82C154.503 406.955 148.796 398.531 143.267 390.392C138.823 383.852 134.236 377.099 128.654 374.416C125.739 372.994 121.97 372.354 116.815 372.354C113.561 372.354 110.059 372.603 106.664 372.852C103.233 373.101 99.677 373.385 96.3349 373.385C88.9928 373.385 84.104 372.088 80.4596 369.209C73.9886 364.02 72.4776 354.05 71.0554 344.401C69.8643 336.511 68.6376 328.354 64.691 323.396C60.78 318.491 53.1179 315.505 45.7225 312.626C36.5849 309.072 27.145 305.394 23.5184 297.859C19.963 290.484 22.914 280.923 25.7762 271.664C28.1406 263.987 30.5939 256.026 29.1717 249.753C27.8206 243.782 22.5229 238.113 16.9408 232.106C10.2031 224.856 3.23438 217.374 3.23438 208.826C3.23438 200.279 10.2031 192.815 16.9408 185.582C22.5229 179.558 27.8206 173.906 29.1717 167.935C30.5939 161.645 28.1406 153.701 25.7762 146.006C22.914 136.747 19.963 127.187 23.5184 119.812C27.145 112.277 36.5849 108.616 45.7225 105.044C53.1179 102.165 60.78 99.1797 64.7088 94.2749C68.6554 89.3346 69.8643 81.1777 71.0554 73.2874C72.4953 63.6378 73.9886 53.6505 80.4596 48.4792C84.104 45.5825 88.9928 44.2852 96.3349 44.2852C99.677 44.2852 103.233 44.5518 106.664 44.8006C110.041 45.0494 113.543 45.316 116.815 45.316C121.97 45.316 125.721 44.6584 128.654 43.2545C134.254 40.5533 138.823 33.8004 143.267 27.2785C148.796 19.1394 154.52 10.7159 162.751 8.85C163.836 8.6012 164.991 8.47681 166.182 8.47681C173.062 8.47681 180.422 12.7418 187.569 16.8647C194.591 20.9342 201.862 25.1282 208.404 25.1282C214.946 25.1282 222.217 20.9342 229.239 16.8647C236.368 12.7418 243.746 8.47681 250.608 8.47681C251.781 8.47681 252.954 8.6012 254.039 8.85C262.27 10.7159 267.994 19.1394 273.523 27.2785C277.967 33.8182 282.554 40.5711 288.136 43.2545C291.069 44.6584 294.82 45.316 299.958 45.316C303.211 45.316 306.713 45.0494 310.109 44.8006C313.558 44.534 317.095 44.2675 320.437 44.2675C327.762 44.2675 332.668 45.5648 336.295 48.4614C342.784 53.6328 344.295 63.62 345.717 73.2696C346.908 81.1599 348.117 89.3168 352.063 94.2571C355.975 99.1619 363.619 102.147 371.032 105.026C380.17 108.58 389.609 112.259 393.236 119.794C396.792 127.151 393.823 136.73 390.978 145.988C388.596 153.683 386.143 161.627 387.565 167.9C388.934 173.871 394.214 179.522 399.796 185.546C406.534 192.779 413.502 200.243 413.502 208.791C413.502 217.339 406.534 224.82 399.796 232.071C394.214 238.077 388.934 243.746 387.565 249.717C386.143 255.99 388.596 263.952 390.978 271.629C393.841 280.87 396.792 290.448 393.236 297.823C389.609 305.34 380.17 309.037 371.032 312.591C363.619 315.47 355.975 318.455 352.063 323.342C348.117 328.3 346.89 336.457 345.717 344.348C344.277 353.997 342.784 363.967 336.313 369.156C332.686 372.035 327.78 373.332 320.455 373.332C317.113 373.332 313.558 373.065 310.126 372.799C306.731 372.532 303.247 372.301 299.976 372.301C294.838 372.301 291.069 372.959 288.136 374.363C282.554 377.064 277.967 383.799 273.54 390.339C268.012 398.478 262.287 406.883 254.056 408.767C252.954 409.016 251.799 409.14 250.625 409.14L250.608 409.194ZM208.386 389.93C215.622 389.93 223.195 394.302 230.537 398.531C237.363 402.476 244.439 406.564 250.608 406.564C251.585 406.564 252.545 406.457 253.47 406.261C260.705 404.609 266.11 396.63 271.372 388.917C275.994 382.093 280.776 375.056 287.016 372.052C290.305 370.453 294.429 369.724 299.993 369.724C303.353 369.724 306.909 369.991 310.34 370.24C313.718 370.489 317.22 370.755 320.473 370.755C327.157 370.755 331.548 369.653 334.677 367.148C340.366 362.616 341.753 353.162 343.139 344.01C344.384 335.782 345.646 327.252 350.037 321.761C354.392 316.305 362.374 313.195 370.108 310.192C378.765 306.815 387.725 303.332 390.889 296.721C394.001 290.288 391.316 281.616 388.49 272.464C386.001 264.449 383.458 256.15 385.023 249.184C386.552 242.538 392.329 236.318 397.894 230.329C404.294 223.47 410.907 216.379 410.907 208.862C410.907 201.345 404.294 194.272 397.894 187.412C392.312 181.424 386.552 175.222 385.023 168.557C383.458 161.591 386.001 153.292 388.49 145.277C391.316 136.108 394.001 127.435 390.889 121.02C387.707 114.427 378.765 110.944 370.108 107.568C362.374 104.564 354.375 101.437 350.037 95.9809C345.646 90.4897 344.366 81.9774 343.139 73.7317C341.753 64.5797 340.348 55.1255 334.677 50.5939C331.548 48.0882 327.157 46.9687 320.473 46.9687C317.22 46.9687 313.718 47.2352 310.358 47.484C306.927 47.7506 303.371 47.9994 299.993 47.9994C294.429 47.9994 290.305 47.253 287.016 45.6714C280.794 42.6681 275.994 35.613 271.354 28.789C266.11 21.0764 260.705 13.0973 253.47 11.4446C252.563 11.2491 251.603 11.1247 250.608 11.1247C244.439 11.1247 237.381 15.1942 230.537 19.1571C223.23 23.4044 215.639 27.776 208.386 27.776C201.133 27.776 193.56 23.4044 186.235 19.1571C179.391 15.1942 172.351 11.1247 166.165 11.1247C165.187 11.1247 164.227 11.2313 163.303 11.4446C156.085 13.0973 150.663 21.0764 145.418 28.789C140.796 35.613 135.996 42.6681 129.774 45.6714C126.468 47.253 122.361 47.9994 116.797 47.9994C113.437 47.9994 109.881 47.7328 106.45 47.484C103.073 47.2352 99.5704 46.9687 96.3171 46.9687C89.615 46.9687 85.2418 48.0882 82.0951 50.5939C76.4241 55.1077 75.0019 64.5797 73.6331 73.7139C72.4064 81.9419 71.1265 90.4719 66.7354 95.9631C62.38 101.419 54.3979 104.529 46.6647 107.55C38.0071 110.926 29.065 114.409 25.8828 121.002C22.7718 127.435 25.4562 136.09 28.2828 145.26C30.7539 153.274 33.3138 161.573 31.7316 168.54C30.2205 175.204 24.4607 181.388 18.8608 187.395C12.4609 194.272 5.84766 201.363 5.84766 208.844C5.84766 216.326 12.4609 223.452 18.8608 230.311C24.4607 236.3 30.2205 242.52 31.7316 249.166C33.3138 256.115 30.7539 264.414 28.2828 272.446C25.4562 281.598 22.7718 290.271 25.8828 296.704C29.065 303.279 38.0071 306.78 46.6647 310.156C54.3979 313.177 62.38 316.287 66.7354 321.743C71.1265 327.234 72.4064 335.764 73.6331 343.992C75.0019 353.144 76.4241 362.58 82.0951 367.13C85.2418 369.636 89.615 370.755 96.3171 370.737C99.5526 370.737 103.055 370.489 106.45 370.222C109.881 369.973 113.437 369.707 116.797 369.707C122.361 369.707 126.485 370.453 129.774 372.035C135.996 375.038 140.796 382.093 145.418 388.899C150.663 396.612 156.085 404.591 163.303 406.244C164.227 406.457 165.187 406.546 166.165 406.546C172.351 406.546 179.391 402.458 186.235 398.513C193.56 394.284 201.133 389.912 208.386 389.912V389.93Z" fill="white"/>
</g>
<g style="mix-blend-mode:soft-light">
<path d="M4.57031 218.103C4.57031 103.054 97.8486 9.79175 212.958 9.79175C328.067 9.79175 4.57031 333.152 4.57031 218.103Z" fill="white"/>
</g>
<g style="mix-blend-mode:soft-light">
<path d="M39.9479 234.559C39.9479 125.498 128.391 37.0878 237.491 37.0878C279.997 37.0878 319.338 50.5582 351.587 73.4116C315.516 34.6355 264.086 10.3604 206.949 10.3604C97.8491 10.3604 9.40625 98.7708 9.40625 207.831C9.40625 274.401 42.3834 333.205 92.8358 368.996C60.0186 333.738 39.9301 286.503 39.9301 234.559H39.9479Z" fill="white"/>
</g>
<g style="mix-blend-mode:soft-light">
<path d="M173.561 166.034C174.272 166.496 175.126 166.78 176.032 166.78C178.503 166.78 180.494 164.772 180.494 162.32C180.494 159.867 178.485 157.859 176.032 157.859C173.579 157.859 171.57 159.867 171.57 162.32C171.57 162.835 171.659 163.333 171.837 163.795L148.868 176.537H43.0391V179.344H149.597L173.561 166.034Z" fill="white"/>
<path d="M176.03 169.304C173.559 169.304 171.568 171.312 171.568 173.782C171.568 173.995 171.586 174.227 171.622 174.44L148.849 187.093H40.4062V189.9H149.595L172.884 176.981C173.702 177.763 174.804 178.278 176.03 178.278C178.501 178.278 180.493 176.27 180.493 173.818C180.493 171.365 178.484 169.34 176.03 169.34V169.304Z" fill="white"/>
<path d="M176.03 180.766C173.648 180.766 171.71 182.65 171.586 184.996L148.866 197.613H40.4062V200.421H149.595L172.368 187.786C173.168 188.941 174.519 189.705 176.03 189.705C178.501 189.705 180.493 187.697 180.493 185.227C180.493 182.756 178.484 180.766 176.03 180.766Z" fill="white"/>
<path d="M176.03 192.228C174.022 192.228 172.333 193.579 171.764 195.427L148.849 208.151H40.4062V210.959H149.595L171.959 198.537C172.653 200.083 174.235 201.167 176.03 201.167C178.501 201.167 180.493 199.159 180.493 196.707C180.493 194.254 178.484 192.246 176.03 192.246V192.228Z" fill="white"/>
<path d="M176.03 203.691C174.484 203.691 173.133 204.455 172.333 205.645L148.849 218.672H40.4062V221.497H149.595L171.693 209.217C172.173 211.172 173.933 212.629 176.03 212.629C178.501 212.629 180.493 210.621 180.493 208.169C180.493 205.717 178.484 203.708 176.03 203.708V203.691Z" fill="white"/>
</g>
<g style="mix-blend-mode:soft-light">
<path d="M244.066 166.762C243.355 167.242 242.519 167.509 241.595 167.509C239.142 167.509 237.133 165.518 237.133 163.031C237.133 160.543 239.142 158.57 241.595 158.57C244.048 158.57 246.057 160.578 246.057 163.031C246.057 163.564 245.95 164.044 245.79 164.506L268.759 177.265H377.219V180.073H268.03L244.066 166.762Z" fill="white"/>
<path d="M241.595 170.032C244.066 170.032 246.057 172.041 246.057 174.511C246.057 174.742 246.022 174.937 245.986 175.168L268.759 187.803H377.219V190.611H268.03L244.742 177.674C243.924 178.474 242.822 178.953 241.595 178.953C239.142 178.953 237.133 176.963 237.133 174.493C237.133 172.023 239.142 170.015 241.595 170.015V170.032Z" fill="white"/>
<path d="M241.595 181.477C243.977 181.477 245.915 183.343 246.039 185.706L268.759 198.324H377.219V201.131H268.03L245.257 188.479C244.457 189.651 243.106 190.416 241.595 190.416C239.142 190.416 237.133 188.425 237.133 185.955C237.133 183.485 239.142 181.477 241.595 181.477Z" fill="white"/>
<path d="M241.595 192.957C243.622 192.957 245.31 194.307 245.862 196.138L268.759 208.862H377.219V211.687H268.03L245.648 199.248C244.955 200.794 243.408 201.878 241.595 201.878C239.142 201.878 237.133 199.887 237.133 197.417C237.133 194.947 239.142 192.957 241.595 192.957Z" fill="white"/>
<path d="M241.597 204.401C243.143 204.401 244.477 205.183 245.294 206.356L268.778 219.382H377.239V222.208H268.05L245.934 209.928C245.454 211.901 243.73 213.358 241.615 213.358C239.161 213.358 237.152 211.35 237.152 208.897C237.152 206.445 239.161 204.419 241.615 204.419L241.597 204.401Z" fill="white"/>
</g>
<g style="mix-blend-mode:soft-light">
<path d="M240.546 244.493C240.084 243.8 239.799 242.947 239.799 242.04C239.799 239.588 241.79 237.58 244.261 237.58C246.732 237.58 248.741 239.588 248.741 242.04C248.741 244.493 246.732 246.501 244.261 246.501C243.746 246.501 243.266 246.394 242.786 246.234L230.039 269.177V377.615H227.23V268.448L240.546 244.493Z" fill="white"/>
<path d="M237.276 242.023C237.276 244.475 235.267 246.483 232.796 246.483C232.565 246.483 232.352 246.448 232.138 246.412L219.481 269.159V377.597H216.672V268.43L229.614 245.15C228.814 244.351 228.316 243.249 228.316 242.023C228.316 239.57 230.325 237.562 232.796 237.562C235.267 237.562 237.276 239.57 237.276 242.023Z" fill="white"/>
<path d="M225.81 242.023C225.81 244.404 223.926 246.341 221.579 246.465L208.957 269.177V377.615H206.148V268.448L218.806 245.701C217.633 244.884 216.868 243.551 216.868 242.04C216.868 239.588 218.859 237.58 221.33 237.58C223.801 237.58 225.793 239.588 225.793 242.04L225.81 242.023Z" fill="white"/>
<path d="M214.343 242.023C214.343 244.048 212.974 245.737 211.143 246.288L198.414 269.177V377.615H195.605V268.448L208.032 246.092C206.485 245.399 205.401 243.835 205.401 242.023C205.401 239.57 207.374 237.562 209.863 237.562C212.352 237.562 214.343 239.57 214.343 242.023Z" fill="white"/>
<path d="M202.877 242.022C202.877 243.551 202.113 244.901 200.922 245.701L187.891 269.159V377.597H185.082V268.43L197.366 246.323C195.411 245.843 193.953 244.102 193.953 242.005C193.953 239.552 195.962 237.544 198.433 237.544C200.904 237.544 202.895 239.552 202.895 242.005L202.877 242.022Z" fill="white"/>
</g>
<g style="mix-blend-mode:soft-light">
<path d="M240.546 52.5665C240.084 51.8734 239.799 51.0204 239.799 50.1141C239.799 47.6439 241.79 45.6536 244.261 45.6536C246.732 45.6536 248.741 47.6439 248.741 50.1141C248.741 52.5842 246.732 54.5746 244.261 54.5746C243.746 54.5746 243.266 54.4679 242.786 54.308L230.039 77.2503V185.671H227.23V76.5395L240.546 52.5665Z" fill="white"/>
<path d="M237.276 50.114C237.276 52.5664 235.267 54.5745 232.796 54.5745C232.565 54.5745 232.352 54.539 232.138 54.5034L219.481 77.2502V185.671H216.672V76.5394L229.614 53.2417C228.814 52.442 228.316 51.3224 228.316 50.0962C228.316 47.6261 230.325 45.6357 232.796 45.6357C235.267 45.6357 237.276 47.6261 237.276 50.0962V50.114Z" fill="white"/>
<path d="M225.81 50.114C225.81 52.4953 223.926 54.4146 221.579 54.5568L208.957 77.268V185.688H206.148V76.5394L218.806 53.7748C217.633 52.9574 216.868 51.6245 216.868 50.0962C216.868 47.6261 218.859 45.6357 221.33 45.6357C223.801 45.6357 225.793 47.6261 225.793 50.0962L225.81 50.114Z" fill="white"/>
<path d="M214.343 50.114C214.343 52.1399 212.974 53.8281 211.143 54.379L198.414 77.268V185.688H195.605V76.5394L208.032 54.1658C206.485 53.455 205.401 51.9089 205.401 50.0962C205.401 47.6261 207.374 45.6357 209.863 45.6357C212.352 45.6357 214.343 47.6261 214.343 50.0962V50.114Z" fill="white"/>
<path d="M202.877 50.114C202.877 51.6423 202.113 52.9929 200.922 53.8104L187.891 77.268V185.688H185.082V76.5394L197.366 54.4324C195.411 53.9525 193.953 52.211 193.953 50.0962C193.953 47.6261 195.962 45.6357 198.433 45.6357C200.904 45.6357 202.895 47.6261 202.895 50.0962L202.877 50.114Z" fill="white"/>
</g>
<g style="mix-blend-mode:soft-light">
<path d="M102.345 99.7839C101.901 100.086 101.332 100.264 100.763 100.264C99.1806 100.264 97.8828 98.9842 97.8828 97.4026C97.8828 95.821 99.1806 94.5415 100.763 94.5415C102.345 94.5415 103.625 95.821 103.625 97.4026C103.625 97.7403 103.554 98.0601 103.465 98.3445L118.22 106.537H187.908V108.35H117.758L102.363 99.8017L102.345 99.7839Z" fill="white"/>
<path d="M100.765 101.881C102.347 101.881 103.627 103.178 103.627 104.742C103.627 104.884 103.609 105.026 103.591 105.168L118.222 113.29H187.91V115.102H117.76L102.791 106.786C102.276 107.301 101.564 107.621 100.782 107.621C99.2001 107.621 97.9023 106.341 97.9023 104.742C97.9023 103.143 99.2001 101.881 100.782 101.881H100.765Z" fill="white"/>
<path d="M100.765 109.238C102.311 109.238 103.538 110.446 103.609 111.957L118.222 120.061H187.91V121.873H117.76L103.129 113.752C102.613 114.498 101.76 114.978 100.782 114.978C99.2001 114.978 97.9023 113.681 97.9023 112.099C97.9023 110.518 99.2001 109.238 100.782 109.238H100.765Z" fill="white"/>
<path d="M100.765 116.613C102.062 116.613 103.147 117.484 103.502 118.657L118.222 126.831H187.91V128.626H117.76L103.396 120.647C102.933 121.642 101.938 122.335 100.782 122.335C99.2001 122.335 97.9023 121.056 97.9023 119.456C97.9023 117.857 99.2001 116.595 100.782 116.595L100.765 116.613Z" fill="white"/>
<path d="M100.765 123.97C101.742 123.97 102.613 124.468 103.147 125.214L118.222 133.584H187.91V135.397H117.76L103.556 127.507C103.253 128.75 102.116 129.692 100.782 129.692C99.2001 129.692 97.9023 128.395 97.9023 126.813C97.9023 125.232 99.2001 123.935 100.782 123.935L100.765 123.97Z" fill="white"/>
</g>
<g style="mix-blend-mode:soft-light">
<path d="M315.674 99.7839C316.136 100.086 316.67 100.264 317.274 100.264C318.838 100.264 320.118 98.9842 320.118 97.4026C320.118 95.821 318.838 94.5415 317.274 94.5415C315.71 94.5415 314.394 95.821 314.394 97.4026C314.394 97.7403 314.465 98.0601 314.572 98.3445L299.817 106.537H230.129V108.35H300.279L315.674 99.8017V99.7839Z" fill="white"/>
<path d="M317.258 101.881C315.658 101.881 314.378 103.178 314.378 104.742C314.378 104.884 314.396 105.026 314.414 105.168L299.801 113.29H230.113V115.102H300.263L315.214 106.786C315.747 107.301 316.441 107.621 317.241 107.621C318.805 107.621 320.085 106.341 320.085 104.742C320.085 103.143 318.805 101.881 317.241 101.881H317.258Z" fill="white"/>
<path d="M317.258 109.238C315.712 109.238 314.485 110.446 314.396 111.957L299.801 120.061H230.113V121.873H300.263L314.894 113.752C315.409 114.498 316.263 114.978 317.258 114.978C318.823 114.978 320.103 113.681 320.103 112.099C320.103 110.518 318.823 109.238 317.258 109.238Z" fill="white"/>
<path d="M317.257 116.613C315.959 116.613 314.857 117.484 314.501 118.657L299.781 126.831H230.094V128.626H300.244L314.608 120.647C315.052 121.642 316.048 122.335 317.239 122.335C318.803 122.335 320.083 121.056 320.083 119.456C320.083 117.857 318.803 116.595 317.239 116.595L317.257 116.613Z" fill="white"/>
<path d="M317.257 123.97C316.261 123.97 315.372 124.468 314.874 125.214L299.781 133.584H230.094V135.397H300.244L314.448 127.507C314.75 128.75 315.888 129.692 317.239 129.692C318.803 129.692 320.083 128.395 320.083 126.813C320.083 125.232 318.803 123.935 317.239 123.935L317.257 123.97Z" fill="white"/>
</g>
<g style="mix-blend-mode:soft-light">
<path d="M312.76 299.387C313.222 299.689 313.773 299.867 314.36 299.867C315.942 299.867 317.239 298.587 317.239 297.006C317.239 295.424 315.942 294.127 314.36 294.127C312.777 294.127 311.497 295.424 311.497 297.006C311.497 297.325 311.568 297.645 311.675 297.947L296.92 306.14H227.25V307.952H297.4L312.795 299.387H312.76Z" fill="white"/>
<path d="M314.359 301.484C312.76 301.484 311.497 302.763 311.497 304.345C311.497 304.487 311.515 304.629 311.551 304.772L296.92 312.893H227.25V314.705H297.4L312.351 306.389C312.866 306.904 313.595 307.224 314.377 307.224C315.959 307.224 317.257 305.944 317.257 304.345C317.257 302.746 315.959 301.484 314.377 301.484H314.359Z" fill="white"/>
<path d="M314.358 308.841C312.829 308.841 311.584 310.067 311.496 311.56L296.9 319.664H227.23V321.476H297.38L312.011 313.355C312.527 314.101 313.398 314.599 314.376 314.599C315.958 314.599 317.255 313.319 317.255 311.738C317.255 310.156 315.958 308.859 314.376 308.859L314.358 308.841Z" fill="white"/>
<path d="M314.358 316.216C313.06 316.216 311.976 317.069 311.62 318.26L296.9 326.434H227.23V328.247H297.38L311.762 320.25C312.207 321.245 313.202 321.938 314.358 321.938C315.94 321.938 317.238 320.659 317.238 319.059C317.238 317.46 315.94 316.198 314.358 316.198V316.216Z" fill="white"/>
<path d="M314.358 323.573C313.38 323.573 312.509 324.089 311.976 324.835L296.9 333.223H227.23V335.018H297.38L311.584 327.145C311.887 328.389 313.024 329.331 314.358 329.331C315.94 329.331 317.238 328.052 317.238 326.47C317.238 324.888 315.94 323.591 314.358 323.591V323.573Z" fill="white"/>
</g>
<g style="mix-blend-mode:soft-light">
<path d="M102.347 299.387C101.902 299.689 101.333 299.867 100.765 299.867C99.1823 299.867 97.9023 298.587 97.9023 297.006C97.9023 295.424 99.1823 294.127 100.765 294.127C102.347 294.127 103.644 295.424 103.644 297.006C103.644 297.325 103.573 297.645 103.467 297.947L118.222 306.14H187.91V307.952H117.76L102.364 299.387H102.347Z" fill="white"/>
<path d="M100.766 301.484C102.348 301.484 103.646 302.763 103.646 304.345C103.646 304.487 103.611 304.629 103.593 304.772L118.224 312.893H187.911V314.705H117.762L102.793 306.389C102.277 306.904 101.566 307.224 100.784 307.224C99.2018 307.224 97.9219 305.944 97.9219 304.345C97.9219 302.746 99.2018 301.484 100.784 301.484H100.766Z" fill="white"/>
<path d="M100.766 308.841C102.313 308.841 103.54 310.067 103.628 311.56L118.224 319.664H187.911V321.476H117.762L103.148 313.355C102.615 314.101 101.762 314.599 100.784 314.599C99.2018 314.599 97.9219 313.319 97.9219 311.738C97.9219 310.156 99.2018 308.859 100.784 308.859L100.766 308.841Z" fill="white"/>
<path d="M100.766 316.216C102.064 316.216 103.148 317.069 103.504 318.26L118.224 326.434H187.911V328.247H117.762L103.397 320.25C102.953 321.245 101.94 321.938 100.784 321.938C99.2018 321.938 97.9219 320.659 97.9219 319.059C97.9219 317.46 99.2018 316.198 100.784 316.198L100.766 316.216Z" fill="white"/>
<path d="M100.766 323.573C101.744 323.573 102.633 324.089 103.148 324.835L118.224 333.223H187.911V335.018H117.762L103.557 327.145C103.255 328.389 102.117 329.331 100.784 329.331C99.2018 329.331 97.9219 328.052 97.9219 326.47C97.9219 324.888 99.2018 323.591 100.784 323.591L100.766 323.573Z" fill="white"/>
</g>
<g style="mix-blend-mode:multiply">
<path d="M262.094 288.156H239.605C248.245 288.156 253.987 288.351 259.925 288.351C260.672 288.351 261.383 288.245 262.094 288.156Z" fill="#C6C6C6"/>
</g>
<path d="M133.402 213.18L245.062 332.601L78.8606 337.879L36.0703 331.41L99.4291 204.561L133.402 213.18Z" fill="#27E124"/>
<g style="mix-blend-mode:multiply">
<path d="M133.402 213.18L245.062 332.601L78.8606 337.879L36.0703 331.41L99.4291 204.561L133.402 213.18Z" fill="#27E124"/>
</g>
<path d="M133.402 213.18L245.063 332.601L202.219 324.337L99.4297 204.561L133.402 213.18Z" fill="#27E124"/>
<g style="mix-blend-mode:multiply">
<path d="M133.402 213.18L245.063 332.601L202.219 324.337L99.4297 204.561L133.402 213.18Z" fill="#27E124"/>
</g>
<path d="M99.4291 204.561L202.218 324.337L36.0703 331.41L99.4291 204.561Z" fill="#27E124"/>
<g style="mix-blend-mode:soft-light">
<path d="M101.581 233.457L98.6123 215.668L43.1289 326.772L55.2353 326.257L101.581 233.457Z" fill="#27E124"/>
</g>
<path d="M427.032 257.27L400.74 245.434L391.886 263.472L350.661 347.546L325.897 278.311L299.604 266.457L289.577 298.658L250.342 424.423L172.655 331.641H111.98L245.24 473.4L294.484 508L276.422 465.652L310.555 339.229L381.024 415.591L364.598 381.489L413.113 302.781L447.441 350.158L482 373.403L427.032 257.27Z" fill="#27E124"/>
<g style="mix-blend-mode:multiply">
<path d="M427.032 257.27L400.74 245.434L391.886 263.472L350.661 347.546L325.897 278.311L299.604 266.457L289.577 298.658L250.342 424.423L172.655 331.641H111.98L245.24 473.4L294.484 508L276.422 465.652L310.555 339.229L381.024 415.591L364.598 381.489L413.113 302.781L447.441 350.158L482 373.403L427.032 257.27Z" fill="#27E124"/>
</g>
<path d="M427.032 257.27L418.179 275.325L376.953 359.399L343.549 306.335L325.896 278.311L315.87 310.494L276.635 436.276L180.423 331.641H125.953L271.533 485.253L294.483 508L302.714 477.487L336.829 351.065L366.98 395.066L381.024 415.591L390.89 393.324L430.943 302.959L473.733 361.994L482 373.403L427.032 257.27Z" fill="#27E124"/>
<g style="mix-blend-mode:soft-light">
<path d="M427.032 257.27L418.179 275.325L376.953 359.399L343.549 306.335L325.896 278.311L315.869 310.494L276.635 436.276L180.423 331.641H158.379L276.635 460.267L315.869 334.484L325.896 302.301L343.549 330.326L376.953 383.39L418.179 299.316L427.032 281.261L458.782 328.389L427.032 257.27Z" fill="#27E124"/>
</g>
</g>
<defs>
<linearGradient id="paint0_linear_1093_3711" x1="15.8203" y1="208.311" x2="432.613" y2="208.311" gradientUnits="userSpaceOnUse">
<stop stop-color="#F7A719"/>
<stop offset="0.4" stop-color="#F5A518"/>
<stop offset="0.55" stop-color="#EE9E18"/>
<stop offset="0.67" stop-color="#E19217"/>
<stop offset="0.76" stop-color="#D08116"/>
<stop offset="0.84" stop-color="#BA6A15"/>
<stop offset="0.92" stop-color="#9E4F14"/>
<stop offset="0.98" stop-color="#7D2F12"/>
<stop offset="1" stop-color="#722412"/>
</linearGradient>
<linearGradient id="paint1_linear_1093_3711" x1="0" y1="208.826" x2="416.792" y2="208.826" gradientUnits="userSpaceOnUse">
<stop stop-color="#72240F"/>
<stop offset="0.5" stop-color="#F59D3D"/>
<stop offset="0.79" stop-color="#FCD2A2"/>
<stop offset="1" stop-color="#F7A719"/>
</linearGradient>
<clipPath id="clip0_1093_3711">
<rect width="482" height="508" fill="white"/>
</clipPath>
</defs>
</svg>
