<svg width="673" height="386" viewBox="0 0 673 386" fill="none" xmlns="http://www.w3.org/2000/svg">
<g clip-path="url(#clip0_1105_2368)">
<path d="M336.234 386.009C521.517 386.009 671.718 374.332 671.718 359.927C671.718 345.523 521.517 333.846 336.234 333.846C150.951 333.846 0.75 345.523 0.75 359.927C0.75 374.332 150.951 386.009 336.234 386.009Z" fill="#0C750A"/>
<path d="M613.385 159.268H599.57V181.47H613.385V159.268Z" fill="#18BF15"/>
<path d="M591.938 161.448L606.477 146.932L621.016 161.448H591.938Z" fill="#18BF15"/>
<path d="M632.642 187.195H623.188V202.399H632.642V187.195Z" fill="#18BF15"/>
<path d="M617.965 188.689L627.921 178.748L637.877 188.689H617.965Z" fill="#18BF15"/>
<path d="M568.517 127.338H559.062V142.541H568.517V127.338Z" fill="#18BF15"/>
<path d="M553.84 128.831L563.796 118.891L573.752 128.831H553.84Z" fill="#18BF15"/>
<path d="M69.951 141.992H56.1367V164.194H69.951V141.992Z" fill="#15AF12"/>
<path d="M48.5039 144.183L63.0433 129.666L77.5827 144.183H48.5039Z" fill="#15AF12"/>
<path d="M56.8354 233.648H45.6055V251.701H56.8354V233.648Z" fill="#15AF12"/>
<path d="M39.3945 235.431L51.2194 223.625L63.0443 235.431H39.3945Z" fill="#15AF12"/>
<path d="M90.6147 126.492H81.7461V140.749H90.6147V126.492Z" fill="#15AF12"/>
<path d="M76.8477 127.902L86.1904 118.574L95.5239 127.902H76.8477Z" fill="#15AF12"/>
<path d="M250.496 98.4512H224.848V357.82H250.496V98.4512Z" fill="#15AF12"/>
<path d="M212.633 153.158H186.984V357.821H212.633V153.158Z" fill="#15AF12"/>
<path d="M174.758 202.396H149.109V357.819H174.758V202.396Z" fill="#15AF12"/>
<path d="M136.887 241.604H111.238V357.811H136.887V241.604Z" fill="#15AF12"/>
<path d="M99.0117 279.91H73.3633V357.821H99.0117V279.91Z" fill="#15AF12"/>
<path d="M61.1484 318.205H35.5V357.82H61.1484V318.205Z" fill="#15AF12"/>
<path d="M25.4797 296.161C24.8755 296.161 24.2898 295.864 23.9366 295.317C23.3974 294.472 23.6484 293.34 24.4943 292.801C24.8755 292.56 62.7299 268.297 104.749 227.151C143.468 189.235 193.752 128.802 213.404 56.228C213.664 55.2534 214.668 54.678 215.644 54.9471C216.621 55.207 217.197 56.2094 216.927 57.184C197.043 130.566 146.303 191.565 107.241 229.815C64.9517 271.221 26.8277 295.641 26.4559 295.883C26.1491 296.078 25.8144 296.17 25.4797 296.17V296.161Z" fill="#15AF12"/>
<path d="M198.336 66.8841L224.273 72.546L216.566 45.666L198.336 66.8841Z" fill="#15AF12"/>
<path d="M457.785 98.4512H432.137V357.82H457.785V98.4512Z" fill="#18BF15"/>
<path d="M495.648 153.158H470V357.821H495.648V153.158Z" fill="#18BF15"/>
<path d="M533.523 202.396H507.875V357.819H533.523V202.396Z" fill="#18BF15"/>
<path d="M571.395 241.604H545.746V357.811H571.395V241.604Z" fill="#18BF15"/>
<path d="M609.27 279.91H583.621V357.821H609.27V279.91Z" fill="#18BF15"/>
<path d="M647.141 318.205H621.492V357.82H647.141V318.205Z" fill="#18BF15"/>
<path d="M662.099 289.925C661.838 289.925 661.578 289.869 661.327 289.758C592.312 257.643 540.801 197.302 509.742 152.323C476.117 103.64 458.538 61.9652 458.362 61.5475C457.971 60.6193 458.408 59.5519 459.347 59.1621C460.277 58.7723 461.346 59.2085 461.736 60.146C461.913 60.5544 479.371 101.951 512.791 150.327C543.59 194.898 594.626 254.701 662.87 286.454C663.781 286.88 664.181 287.966 663.754 288.876C663.447 289.535 662.787 289.925 662.099 289.925Z" fill="#18BF15"/>
<path d="M654.922 269.793L644.91 294.334L672.753 291.354L654.922 269.793Z" fill="#18BF15"/>
<path d="M406.516 334.766H270.66V357.821H406.516V334.766Z" fill="#27E124"/>
<path d="M406.516 351.658H270.66V357.821H406.516V351.658Z" fill="#00C543"/>
<path d="M382.978 334.766H366.254V354.74H382.978V334.766Z" fill="#00C543"/>
<path d="M354.976 334.766H348.617V354.74H354.976V334.766Z" fill="#00C543"/>
<path d="M323.594 334.766H286.586V351.658H323.594V334.766Z" fill="#1DC41A"/>
<path d="M396.336 311.709H260.48V334.765H396.336V311.709Z" fill="#27E124"/>
<path d="M396.336 328.602H260.48V334.765H396.336V328.602Z" fill="#00C543"/>
<path d="M372.798 311.709H356.074V331.683H372.798V311.709Z" fill="#00C543"/>
<path d="M344.796 311.709H338.438V331.683H344.796V311.709Z" fill="#00C543"/>
<path d="M313.415 311.709H276.406V328.602H313.415V311.709Z" fill="#1DC41A"/>
<path d="M421.481 288.654H285.625V311.71H421.481V288.654Z" fill="#27E124"/>
<path d="M421.481 305.547H285.625V311.71H421.481V305.547Z" fill="#00C543"/>
<path d="M397.943 288.654H381.219V308.629H397.943V288.654Z" fill="#00C543"/>
<path d="M369.952 288.654H363.594V308.629H369.952V288.654Z" fill="#00C543"/>
<path d="M338.567 288.654H301.559V305.547H338.567V288.654Z" fill="#1DC41A"/>
<path d="M410.559 265.598H274.703V288.654H410.559V265.598Z" fill="#27E124"/>
<path d="M410.559 282.49H274.703V288.653H410.559V282.49Z" fill="#00C543"/>
<path d="M387.021 265.598H370.297V285.572H387.021V265.598Z" fill="#00C543"/>
<path d="M359.031 265.598H352.672V285.572H359.031V265.598Z" fill="#00C543"/>
<path d="M327.645 265.598H290.637V282.49H327.645V265.598Z" fill="#1DC41A"/>
<path d="M414.946 242.543H279.09V265.599H414.946V242.543Z" fill="#27E124"/>
<path d="M414.946 259.436H279.09V265.599H414.946V259.436Z" fill="#00C543"/>
<path d="M391.408 242.543H374.684V262.517H391.408V242.543Z" fill="#00C543"/>
<path d="M363.406 242.543H357.047V262.517H363.406V242.543Z" fill="#00C543"/>
<path d="M332.024 242.543H295.016V259.436H332.024V242.543Z" fill="#1DC41A"/>
<path d="M401.301 219.486H265.445V242.542H401.301V219.486Z" fill="#27E124"/>
<path d="M401.301 236.379H265.445V242.542H401.301V236.379Z" fill="#00C543"/>
<path d="M377.763 219.486H361.039V239.461H377.763V219.486Z" fill="#00C543"/>
<path d="M349.761 219.486H343.402V239.461H349.761V219.486Z" fill="#00C543"/>
<path d="M318.387 219.486H281.379V236.379H318.387V219.486Z" fill="#1DC41A"/>
<path d="M297.36 306.363C294.831 299.541 296.467 301.174 289.625 298.64C296.458 296.116 294.822 297.749 297.36 290.918C299.888 297.74 298.252 296.106 305.094 298.64C298.261 301.165 299.897 299.531 297.36 306.363Z" fill="white"/>
<path d="M365.249 329.438C363.213 323.952 364.533 325.27 359.039 323.237C364.533 321.205 363.213 322.523 365.249 317.037C367.285 322.523 365.965 321.205 371.459 323.237C365.965 325.27 367.285 323.952 365.249 329.438Z" fill="white"/>
<path d="M381.222 258.73C379.186 253.245 380.506 254.563 375.012 252.53C380.506 250.498 379.186 251.816 381.222 246.33C383.258 251.816 381.937 250.498 387.432 252.53C381.937 254.563 383.258 253.245 381.222 258.73Z" fill="white"/>
<path d="M367.601 273.041C364.152 263.732 366.383 265.959 357.059 262.516C366.383 259.072 364.152 261.3 367.601 251.99C371.049 261.3 368.818 259.072 378.143 262.516C368.818 265.959 371.049 263.732 367.601 273.041Z" fill="white"/>
<path d="M63.37 198.9C62.2359 197.963 61.5201 196.96 61.2133 195.893C60.7485 194.566 60.4696 193.368 60.3673 192.301C60.3116 191.326 60.293 190.296 60.293 189.191C60.293 187.669 60.702 185.859 61.5294 183.752C61.9942 182.62 62.6728 181.71 63.5746 181.014C64.4763 180.318 65.4896 179.975 66.6237 179.975C72.3874 179.975 75.2693 183.177 75.2693 189.581V189.73H75.1949C74.7859 190.472 74.5813 192.189 74.5813 194.872C74.5256 195.911 74.3211 196.812 73.9678 197.591C73.6052 198.371 72.9638 198.984 72.0342 199.438C70.9558 199.921 69.487 200.162 67.637 200.162C65.7871 200.162 64.4205 199.745 63.3886 198.9H63.37ZM71.7088 190.89C71.7088 185.228 70.1098 182.397 66.9212 182.397C66.3077 182.397 65.6569 183.288 64.9876 185.07C64.3183 186.852 63.9836 188.208 63.9836 189.145C63.9836 190.082 64.0301 191.085 64.1416 192.059C64.2997 193.257 64.6343 194.538 65.1456 195.893C65.4059 196.478 65.722 196.932 66.1124 197.276C66.5029 197.619 66.9491 197.786 67.4604 197.786C70.2865 197.786 71.7088 195.494 71.7088 190.899V190.89ZM70.8628 215.542C70.8628 213.575 72.0992 209.509 74.5721 203.365C76.8403 197.768 78.9971 192.589 81.0516 187.836L82.5947 184.244L83.292 182.694C83.3384 182.109 83.5615 181.58 83.952 181.088C84.3424 180.606 84.8444 180.364 85.458 180.364C86.0251 180.364 86.5085 180.476 86.9268 180.708C87.3358 180.931 87.5404 181.209 87.5404 181.534C87.5404 183.799 85.2535 190.305 80.6704 201.044C78.6624 205.834 77.5283 208.646 77.2773 209.491C77.175 209.713 77.0449 210.15 76.8868 210.799C76.422 212.414 75.9107 213.723 75.3436 214.725C74.9811 215.403 74.5442 215.941 74.0329 216.331C73.5216 216.721 72.9545 216.925 72.3316 216.962C71.3555 216.61 70.8628 216.136 70.8628 215.552V215.542ZM86.5271 216.053C85.7555 215.617 85.1419 215.041 84.6771 214.326C83.8032 212.999 83.2083 211.495 82.9015 209.815C82.7993 208.906 82.7435 208.293 82.7435 207.968C82.7435 206.901 82.79 205.88 82.9015 204.915C82.948 203.754 83.2083 202.539 83.6731 201.276C84.0357 200.144 84.7794 199.123 85.9135 198.223C86.8431 197.35 88.2283 196.914 90.0782 196.914C91.1566 196.914 92.1234 197.044 92.9694 197.304C93.8153 197.564 94.5219 197.935 95.0889 198.417C96.2696 199.55 96.9947 200.682 97.2457 201.815C97.5524 202.91 97.7105 204.126 97.7105 205.453V207.783C97.7105 209.983 97.1713 211.904 96.0929 213.556C95.4794 214.531 94.5776 215.292 93.3877 215.858C92.2071 216.424 90.7662 216.702 89.0649 216.702C88.1353 216.702 87.2894 216.489 86.5178 216.043L86.5271 216.053ZM93.9362 207.634V205.694C93.9362 204.534 93.7038 203.281 93.239 201.954C92.9787 201.174 92.5603 200.552 91.9654 200.088C91.3704 199.624 90.6639 199.383 89.8458 199.383C89.1207 199.383 88.5072 199.754 87.9959 200.497C87.2708 201.471 86.7874 203.309 86.5271 206.028C86.4713 206.548 86.4527 207.226 86.4527 208.07C86.4527 208.915 86.7688 210.112 87.4195 211.662C88.0609 213.213 88.6931 213.992 89.3066 213.992C92.393 213.992 93.9362 211.876 93.9362 207.634Z" fill="#15AF12"/>
<path d="M516.612 84.3999C515.319 83.3325 514.501 82.1908 514.148 80.9656C513.618 79.4527 513.302 78.0883 513.181 76.8724C513.126 75.7679 513.098 74.5891 513.098 73.3268C513.098 71.5911 513.562 69.5305 514.501 67.1266C515.031 65.8364 515.803 64.7968 516.835 63.9986C517.857 63.2097 519.019 62.8105 520.312 62.8105C526.884 62.8105 530.166 66.4676 530.166 73.763V73.9301H530.082C529.608 74.7747 529.375 76.7332 529.375 79.7961C529.32 80.9749 529.078 82.0052 528.669 82.8962C528.26 83.778 527.525 84.4834 526.466 85.0032C525.229 85.5601 523.565 85.8293 521.446 85.8293C519.326 85.8293 517.774 85.3466 516.602 84.3906L516.612 84.3999ZM526.112 75.2667C526.112 68.8066 524.29 65.5858 520.656 65.5858C519.949 65.5858 519.215 66.5975 518.452 68.6302C517.69 70.6629 517.309 72.213 517.309 73.2804C517.309 74.3478 517.365 75.4894 517.485 76.6032C517.662 77.9676 518.043 79.4249 518.629 80.9749C518.926 81.6432 519.289 82.163 519.726 82.5528C520.163 82.9427 520.683 83.1376 521.269 83.1376C524.495 83.1376 526.112 80.5201 526.112 75.2759V75.2667ZM525.146 103.381C525.146 101.135 526.549 96.5033 529.366 89.4956C531.951 83.1097 534.414 77.2065 536.757 71.786L538.514 67.6927L539.304 65.9199C539.36 65.2516 539.611 64.6483 540.048 64.0914C540.484 63.5345 541.061 63.2654 541.767 63.2654C542.409 63.2654 542.967 63.3953 543.441 63.6552C543.906 63.9151 544.147 64.2307 544.147 64.5926C544.147 67.173 541.535 74.5891 536.31 86.841C534.024 92.2987 532.731 95.5101 532.443 96.4662C532.322 96.7261 532.183 97.218 532.006 97.9605C531.476 99.8076 530.891 101.302 530.249 102.444C529.84 103.214 529.338 103.827 528.753 104.272C528.167 104.718 527.516 104.95 526.819 104.987C525.703 104.578 525.146 104.049 525.146 103.381ZM543.013 103.966C542.13 103.465 541.433 102.815 540.903 101.998C539.908 100.485 539.229 98.768 538.876 96.856C538.755 95.8257 538.7 95.1203 538.7 94.749C538.7 93.5331 538.755 92.3729 538.876 91.2591C538.932 89.9318 539.229 88.5488 539.759 87.1102C540.168 85.82 541.024 84.6598 542.316 83.6202C543.376 82.6271 544.956 82.1259 547.066 82.1259C548.303 82.1259 549.4 82.2744 550.366 82.5714C551.333 82.8684 552.142 83.2954 552.783 83.843C554.131 85.1332 554.949 86.4233 555.247 87.7135C555.6 88.9665 555.777 90.3495 555.777 91.8624V94.517C555.777 97.0231 555.163 99.2228 553.927 101.098C553.22 102.202 552.198 103.084 550.85 103.724C549.502 104.374 547.856 104.69 545.923 104.69C544.863 104.69 543.896 104.439 543.022 103.947L543.013 103.966ZM551.463 94.3685V92.1594C551.463 90.8321 551.203 89.412 550.673 87.8991C550.376 87.0173 549.892 86.3027 549.223 85.7643C548.544 85.226 547.745 84.9661 546.806 84.9661C545.988 84.9661 545.281 85.393 544.696 86.2377C543.878 87.3422 543.32 89.4492 543.022 92.5493C542.967 93.1433 542.939 93.9137 542.939 94.8697C542.939 95.8257 543.301 97.1901 544.036 98.963C544.77 100.736 545.486 101.618 546.192 101.618C549.716 101.618 551.473 99.2043 551.473 94.3685H551.463Z" fill="#18BF15"/>
<path d="M136.858 65.929C135.101 64.4717 133.985 62.9217 133.511 61.2602C132.795 59.1997 132.359 57.3526 132.191 55.6912C132.108 54.1876 132.07 52.5818 132.07 50.874C132.07 48.5164 132.712 45.704 133.985 42.4461C134.701 40.6919 135.761 39.2718 137.155 38.1951C138.55 37.1184 140.13 36.5801 141.878 36.5801C150.812 36.5801 155.283 41.5458 155.283 51.4773V51.7H155.162C154.521 52.851 154.205 55.5148 154.205 59.6731C154.121 61.2788 153.805 62.6804 153.247 63.887C152.689 65.0936 151.695 66.0403 150.254 66.7458C148.581 67.4976 146.303 67.8781 143.43 67.8781C140.558 67.8781 138.448 67.2284 136.849 65.9197L136.858 65.929ZM149.78 53.5193C149.78 44.7387 147.307 40.3577 142.361 40.3577C141.404 40.3577 140.409 41.7407 139.368 44.4974C138.327 47.2541 137.815 49.361 137.815 50.8183C137.815 52.2755 137.89 53.8256 138.057 55.3292C138.299 57.1856 138.81 59.1626 139.61 61.2695C140.009 62.1699 140.511 62.8845 141.106 63.4136C141.701 63.9427 142.398 64.2026 143.198 64.2026C147.586 64.2026 149.78 60.6384 149.78 53.5193ZM148.46 91.7415C148.46 88.6785 150.375 82.3855 154.205 72.8624C157.709 64.184 161.065 56.1646 164.254 48.7856L166.643 43.2165L167.722 40.8126C167.796 39.9122 168.14 39.0861 168.735 38.3343C169.33 37.5825 170.111 37.202 171.068 37.202C171.942 37.202 172.704 37.3783 173.346 37.731C173.987 38.0837 174.303 38.5107 174.303 39.0119C174.303 42.5204 170.752 52.6004 163.65 69.2518C160.536 76.6772 158.788 81.0396 158.388 82.3391C158.23 82.6918 158.026 83.3694 157.793 84.3718C157.077 86.8779 156.278 88.9106 155.404 90.4699C154.846 91.5187 154.168 92.3541 153.368 92.9481C152.569 93.5514 151.695 93.8763 150.737 93.9227C149.222 93.3751 148.46 92.6418 148.46 91.7415ZM172.751 92.5304C171.552 91.8529 170.594 90.9618 169.878 89.8573C168.521 87.806 167.601 85.467 167.127 82.8589C166.969 81.4573 166.885 80.5013 166.885 80.0001C166.885 78.3479 166.959 76.7608 167.127 75.2571C167.201 73.4472 167.601 71.5723 168.326 69.6138C168.884 67.8596 170.036 66.2817 171.793 64.8708C173.225 63.5157 175.382 62.8381 178.254 62.8381C179.928 62.8381 181.424 63.0423 182.744 63.4415C184.064 63.8406 185.152 64.416 186.035 65.1679C187.867 66.9221 188.982 68.6764 189.382 70.4306C189.856 72.1384 190.098 74.0134 190.098 76.0739V79.6845C190.098 83.1002 189.261 86.0796 187.588 88.6414C186.63 90.145 185.236 91.3424 183.404 92.2149C181.564 93.0966 179.333 93.5329 176.702 93.5329C175.27 93.5329 173.95 93.1987 172.751 92.5212V92.5304ZM184.241 79.4803V76.473C184.241 74.6631 183.878 72.7418 183.163 70.6812C182.763 69.4746 182.103 68.5093 181.192 67.7853C180.272 67.0613 179.175 66.6901 177.901 66.6901C176.785 66.6901 175.828 67.2655 175.028 68.4165C173.913 69.9201 173.151 72.7789 172.751 76.9928C172.667 77.791 172.63 78.8492 172.63 80.1486C172.63 81.448 173.132 83.3044 174.127 85.7176C175.121 88.1216 176.097 89.3282 177.055 89.3282C181.843 89.3282 184.232 86.0425 184.232 79.471L184.241 79.4803Z" fill="#15AF12"/>
<path d="M296.68 159.116C293.817 156.74 291.995 154.206 291.214 151.505C290.042 148.145 289.327 145.12 289.066 142.419C288.936 139.959 288.871 137.341 288.871 134.557C288.871 130.705 289.912 126.129 291.995 120.801C293.166 117.933 294.895 115.622 297.173 113.859C299.45 112.095 302.025 111.223 304.889 111.223C319.474 111.223 326.763 119.326 326.763 135.541V135.912H326.568C325.526 137.796 325.006 142.131 325.006 148.934C324.876 151.552 324.355 153.844 323.444 155.812C322.533 157.78 320.906 159.33 318.563 160.481C315.83 161.706 312.121 162.319 307.426 162.319C302.732 162.319 299.283 161.251 296.68 159.126V159.116ZM317.773 138.854C317.773 124.523 313.739 117.358 305.66 117.358C304.098 117.358 302.472 119.613 300.78 124.115C299.088 128.617 298.242 132.06 298.242 134.427C298.242 136.794 298.372 139.337 298.632 141.797C299.023 144.832 299.869 148.062 301.17 151.496C301.821 152.972 302.639 154.132 303.615 154.995C304.591 155.859 305.735 156.286 307.036 156.286C314.194 156.286 317.783 150.475 317.783 138.845L317.773 138.854ZM315.626 201.246C315.626 196.253 318.749 185.978 325.006 170.422C330.732 156.258 336.198 143.152 341.414 131.123L345.318 122.036L347.075 118.11C347.205 116.634 347.763 115.288 348.739 114.054C349.715 112.828 350.989 112.216 352.551 112.216C353.982 112.216 355.219 112.504 356.26 113.079C357.301 113.654 357.822 114.351 357.822 115.167C357.822 120.904 352.03 137.36 340.438 164.537C335.362 176.659 332.489 183.778 331.848 185.904C331.588 186.479 331.262 187.584 330.872 189.217C329.7 193.31 328.399 196.633 326.967 199.167C326.056 200.884 324.95 202.239 323.648 203.223C322.347 204.207 320.915 204.736 319.354 204.82C316.881 203.919 315.644 202.731 315.644 201.256L315.626 201.246ZM355.284 202.536C353.331 201.432 351.77 199.975 350.598 198.174C348.386 194.814 346.889 191.009 346.108 186.748C345.848 184.456 345.718 182.896 345.718 182.08C345.718 179.379 345.848 176.798 346.108 174.339C346.238 171.387 346.889 168.324 348.061 165.131C348.972 162.263 350.859 159.683 353.722 157.39C356.065 155.181 359.588 154.076 364.273 154.076C367.006 154.076 369.451 154.401 371.599 155.06C373.746 155.719 375.54 156.657 376.972 157.882C379.965 160.75 381.787 163.618 382.438 166.477C383.219 169.261 383.609 172.334 383.609 175.684V181.578C383.609 187.147 382.243 192.02 379.51 196.197C377.948 198.657 375.67 200.597 372.677 202.035C369.674 203.465 366.04 204.189 361.735 204.189C359.393 204.189 357.245 203.632 355.293 202.527L355.284 202.536ZM374.034 181.226V176.316C374.034 173.364 373.449 170.217 372.277 166.857C371.627 164.89 370.548 163.321 369.051 162.133C367.555 160.945 365.761 160.351 363.678 160.351C361.856 160.351 360.285 161.288 358.993 163.173C357.171 165.632 355.934 170.292 355.284 177.179C355.154 178.487 355.088 180.205 355.088 182.339C355.088 184.474 355.897 187.5 357.533 191.426C359.16 195.362 360.759 197.32 362.321 197.32C370.139 197.32 374.044 191.955 374.044 181.235L374.034 181.226Z" fill="#15AF12"/>
</g>
<defs>
<clipPath id="clip0_1105_2368">
<rect width="672" height="386" fill="white" transform="translate(0.75)"/>
</clipPath>
</defs>
</svg>
