<svg width="110" height="109" viewBox="0 0 110 109" fill="none" xmlns="http://www.w3.org/2000/svg">
<g clip-path="url(#clip0_374_2464)">
<path d="M34.9707 107.022C34.8477 107.022 34.7248 107.022 34.6018 107.007C34.0791 106.945 33.5872 106.792 33.1261 106.5C32.6496 106.209 32.2345 105.826 31.9117 105.35C31.5582 104.829 31.3122 104.246 31.1739 103.587L11.3444 5.67397C11.2368 5.13725 11.2368 4.6312 11.3444 4.14048C11.452 3.71111 11.6364 3.34307 11.9131 3.02104C12.1898 2.69901 12.5434 2.43832 12.943 2.26963C13.3734 2.08562 13.8653 1.97827 14.4033 1.97827L86.8656 2.71434C87.0654 2.71434 87.3114 2.77568 87.5573 2.89836C87.8494 3.03638 88.1568 3.2664 88.4489 3.52709C88.7563 3.81845 89.033 4.17115 89.2482 4.55452C89.4788 4.96856 89.6633 5.3826 89.7709 5.82731L107.817 78.039C107.94 78.5298 107.986 79.0205 107.971 79.5112C107.956 79.9559 107.879 80.4006 107.74 80.7686C107.617 81.106 107.464 81.3974 107.279 81.5967C107.141 81.7654 106.972 81.8728 106.818 81.9341L36.2004 106.777C35.7854 106.93 35.355 106.991 34.94 106.991L34.9707 107.022Z" fill="url(#paint0_radial_374_2464)"/>
<path d="M34.8783 107.267C30.236 106.577 30.9738 101.21 30.0208 98.1581L27.9764 87.7458C26.5929 80.7531 25.1172 73.3617 23.2111 63.9461C22.1812 58.8396 20.106 48.642 17.6004 36.1901C16.34 29.9641 14.9719 23.1861 13.5577 16.1935C12.8813 12.7125 12.082 9.15478 11.4671 5.62776C11.1136 1.13466 16.8626 2.69881 19.8908 2.48412C48.6206 2.77548 74.7371 3.03618 74.7371 3.03618C74.7371 3.03618 76.3665 3.05151 79.2718 3.08218C80.7167 3.08218 82.4845 3.11285 84.5135 3.14352C86.6194 2.79082 88.9406 3.55756 89.5401 6.22582C91.9842 16.0248 95.3045 29.2894 98.7785 43.1981C100.515 50.1448 102.299 57.2601 104.02 64.1762C104.881 67.6265 105.742 71.0308 106.572 74.3432C107.233 77.2261 109.216 81.9492 105.296 82.5166C93.2908 86.7337 83.4375 90.1994 78.5186 91.9322C60.3338 98.2348 50.127 102.222 34.8783 107.267C50.2039 102.452 60.4568 98.6029 78.6415 92.3002C83.5605 90.5674 93.4137 87.1017 105.419 82.8847C109.739 82.1179 107.571 76.9501 106.956 74.2358C106.126 70.9235 105.281 67.5191 104.42 64.0688C102.698 57.1528 100.915 50.0528 99.1781 43.0908C95.7041 29.1821 92.3838 15.9174 89.9397 6.11848C89.4171 3.25086 86.4965 2.31544 84.5289 2.72948C82.4998 2.71414 80.7321 2.68348 79.2871 2.66814C76.3973 2.63747 74.7525 2.62214 74.7525 2.62214C74.7525 2.62214 48.6359 2.36144 19.9062 2.05475C17.0932 2.3001 10.883 0.536599 11.0828 5.6431C11.6977 9.23145 12.4817 12.7431 13.1734 16.2395C14.5876 23.2168 15.9557 30.0101 17.2161 36.2361C19.7371 48.688 21.7969 58.901 22.8422 63.9921C24.7483 73.4077 26.2547 80.7838 27.715 87.7765L29.8824 98.1735C30.8816 101.179 30.236 106.623 34.909 107.252L34.8783 107.267Z" fill="url(#paint1_radial_374_2464)"/>
<path d="M31.8808 108.065C31.4504 107.773 31.0508 107.421 30.6972 107.022C30.3437 106.623 30.0362 106.163 29.7903 105.642C29.5443 105.12 29.3445 104.568 29.2215 103.97L9.4074 6.05735C9.34591 5.71998 9.29979 5.39795 9.29979 5.07592C9.29979 4.75388 9.29979 4.44719 9.34591 4.14049C9.39202 3.83379 9.45351 3.55777 9.54574 3.26641C9.63797 2.99038 9.76095 2.72969 9.89929 2.46899C6.77883 8.09688 3.65837 13.7094 0.522543 19.3066C0.414941 19.5213 0.307339 19.736 0.230481 19.966C0.153622 20.1961 0.0921353 20.4261 0.0460202 20.6868C-9.49837e-05 20.9321 -0.0154667 21.1928 -9.49814e-05 21.4382C-9.49814e-05 21.6989 0.0306485 21.9596 0.0921353 22.2356L15.3255 100.244C15.4177 100.719 15.5715 101.149 15.7713 101.563C15.9711 101.961 16.2171 102.329 16.4938 102.651C16.7858 102.973 17.1086 103.25 17.4622 103.48C17.8157 103.71 18.2 103.894 18.5997 104.016C23.5033 105.596 28.3915 107.16 33.295 108.739C32.8032 108.586 32.342 108.356 31.8962 108.065H31.8808Z" fill="url(#paint2_linear_374_2464)"/>
<path d="M86.911 0.736072C87.4183 0.736072 87.9409 0.874086 88.4482 1.11944C88.9401 1.34947 89.4166 1.70217 89.8624 2.11621C90.2928 2.53025 90.6925 3.0363 90.9999 3.57302C91.3227 4.12507 91.5687 4.72313 91.7377 5.35186L109.784 77.5636C109.953 78.2537 110.03 78.9437 109.999 79.6031C109.969 80.2625 109.846 80.8913 109.646 81.4586C109.446 82.026 109.154 82.5321 108.8 82.9308C108.447 83.3295 108.001 83.6362 107.524 83.8202L36.9068 108.663C36.0768 108.954 35.2159 109.046 34.4166 108.969C33.6019 108.877 32.818 108.617 32.1262 108.203C31.4191 107.773 30.8043 107.19 30.3124 106.485C29.8205 105.78 29.4516 104.936 29.2671 103.986L9.40684 6.05726C9.23775 5.21384 9.25312 4.4011 9.43758 3.66503C9.62204 2.92895 9.96022 2.26956 10.4214 1.73284C10.8825 1.18078 11.482 0.751407 12.1737 0.44471C12.8655 0.153348 13.6494 0 14.4949 0L86.911 0.736072Z" fill="url(#paint3_radial_374_2464)"/>
<path d="M34.9707 107.022C34.8477 107.022 34.7248 107.022 34.6018 107.007C34.0791 106.945 33.5872 106.792 33.1261 106.5C32.6496 106.209 32.2345 105.826 31.9117 105.35C31.5582 104.829 31.3122 104.246 31.1739 103.587L11.3444 5.67397C11.2368 5.13725 11.2368 4.6312 11.3444 4.14048C11.452 3.71111 11.6364 3.34307 11.9131 3.02104C12.1898 2.69901 12.5434 2.43832 12.943 2.26963C13.3734 2.08562 13.8653 1.97827 14.4033 1.97827L86.8656 2.71434C87.0654 2.71434 87.3114 2.77568 87.5573 2.89836C87.8494 3.03638 88.1568 3.2664 88.4489 3.52709C88.7563 3.81845 89.033 4.17115 89.2482 4.55452C89.4788 4.96856 89.6633 5.3826 89.7709 5.82731L107.817 78.039C107.94 78.5298 107.986 79.0205 107.971 79.5112C107.956 79.9559 107.879 80.4006 107.74 80.7686C107.617 81.106 107.464 81.3974 107.279 81.5967C107.141 81.7654 106.972 81.8728 106.818 81.9341L36.2004 106.777C35.7854 106.93 35.355 106.991 34.94 106.991L34.9707 107.022Z" fill="url(#paint4_radial_374_2464)" fill-opacity="0.6"/>
<path d="M41.5214 54.9856C41.6336 54.9648 41.7459 54.944 41.8582 54.9233C42.409 53.3561 43.0025 51.8014 43.4863 50.2137C43.6171 49.7882 43.5238 49.2291 43.3689 48.788C42.1666 45.402 40.9336 42.0269 39.6912 38.656C39.3208 37.6504 39.6941 37.048 40.5136 36.4419C45.5122 32.7413 51.0186 30.1479 57.0666 28.7342C57.4467 28.646 58.0811 28.8816 58.3497 29.1874C60.797 31.9747 63.17 34.8241 65.6109 37.6176C66.0978 38.1751 66.2691 38.6639 66.1642 39.4071C65.8113 41.8797 67.6485 44.1806 70.0877 44.4275C72.7098 44.694 75.0112 42.8181 75.1833 40.2825C75.3571 37.6881 73.3815 35.4712 70.7798 35.4244C70.0378 35.4119 69.5817 35.1307 69.1128 34.575C66.1581 31.0512 63.1776 27.5525 60.1643 24.0802C59.8918 23.7675 59.2864 23.5113 58.892 23.5767C49.9237 25.0636 42.0432 28.881 35.1349 34.7734C34.5788 35.2471 34.3751 35.7292 34.5095 36.4966C35.3016 41.0224 36.6132 45.381 38.6061 49.5195C39.5004 51.3779 40.5432 53.1656 41.5189 54.9861L41.5214 54.9856ZM82.0703 56.8418C81.9745 56.7605 81.8815 56.6812 81.7857 56.5999C79.9313 57.4941 78.0603 58.3533 76.2306 59.2988C75.7098 59.5679 75.1954 60.0084 74.8859 60.505C72.9384 63.6384 70.6383 66.4764 68.0719 69.1174C67.2621 69.9529 66.5841 70.1368 65.49 69.6409C60.061 67.1819 55.2355 63.8773 51.0718 59.592C50.6106 59.1187 50.537 58.7209 50.7555 58.1142C51.9358 54.874 53.0566 51.6117 54.2559 48.3781C54.4105 47.9585 54.8304 47.5125 55.2375 47.3382C57.7425 46.2626 58.8579 43.6261 57.7691 41.1942C56.6944 38.7979 53.8406 37.8253 51.4899 39.0526C49.25 40.2238 48.4849 43.0749 49.7212 45.4032C49.9264 45.7893 49.9729 46.3952 49.83 46.8102C48.434 50.9182 46.9949 55.0113 45.5393 59.0973C45.3298 59.6846 45.3542 60.0889 45.7882 60.5926C51.5615 67.2997 58.6545 72.0384 66.9348 75.0337C67.6197 75.2828 68.0926 75.1775 68.6297 74.7099C72.4873 71.3653 75.8707 67.6005 78.5331 63.2277C79.7974 61.1502 80.8936 58.9692 82.0665 56.8349L82.0703 56.8418ZM65.4601 22.8589C66.5559 24.1417 67.5643 25.1841 68.4007 26.3472C69.1003 27.3173 69.9751 27.5693 71.0863 27.7344C73.9294 28.158 76.7447 28.7594 79.5764 29.2715C80.4933 29.437 80.9165 29.9097 81.0356 30.8805C81.6289 35.7784 81.5817 40.6398 80.6657 45.4995C80.4816 46.4833 80.01 46.9362 79.1871 47.3196C75.3719 49.0921 71.5885 50.9273 67.7652 52.6836C67.3418 52.8788 66.7 52.835 66.2409 52.6737C64.5718 52.0862 63.0209 52.2462 61.6298 53.3111C60.101 54.4777 59.5568 56.5033 60.1805 58.3178C60.8079 60.1392 62.4598 61.3165 64.4093 61.3315C66.3636 61.3457 67.9465 60.2123 68.68 58.3777C68.8941 57.8429 69.2216 57.1703 69.6849 56.9449C74.2607 54.7116 78.8829 52.579 83.4629 50.3551C83.9448 50.1212 84.4492 49.5453 84.5817 49.0333C86.4464 41.7278 86.5615 34.3678 85.0213 26.9866C84.9307 26.5513 84.4589 26.0216 84.0427 25.8599C82.5968 25.3047 81.1101 24.8434 79.614 24.4397C75.0614 23.2101 70.4268 22.6838 65.4625 22.8585L65.4601 22.8589Z" fill="white"/>
<path d="M41.5214 54.9856C40.5457 53.1651 39.5027 51.3772 38.6084 49.5189C36.6131 45.3808 35.3016 41.0224 34.5095 36.4966C34.3751 35.7292 34.5788 35.2471 35.1349 34.7734C42.0432 28.881 49.9236 25.0634 58.8885 23.572C59.2829 23.5067 59.8883 23.7628 60.1608 24.0755C63.1762 27.5449 66.157 31.0461 69.1093 34.5703C69.5763 35.1289 70.0343 35.4073 70.7764 35.4198C73.3756 35.467 75.3512 37.6839 75.1799 40.2778C75.0107 42.8155 72.7064 44.6893 70.0843 44.4229C67.6421 44.174 65.8078 41.875 66.1607 39.4024C66.2661 38.6618 66.0943 38.1704 65.6074 37.613C63.167 34.8219 60.7936 31.9701 58.3463 29.1828C58.0776 28.877 57.4432 28.6414 57.0631 28.7295C51.0176 30.1428 45.5111 32.7362 40.5101 36.4372C39.6906 37.0434 39.3173 37.6457 39.6877 38.6513C40.9301 42.0222 42.1656 45.3969 43.3654 48.7833C43.5223 49.2215 43.6137 49.7836 43.4828 50.209C42.9966 51.7972 42.4055 53.3515 41.8548 54.9186C41.7425 54.9394 41.6302 54.9602 41.5179 54.981L41.5214 54.9856Z" fill="white"/>
<path d="M82.0703 56.8418C80.8974 58.9761 79.8012 61.1571 78.5369 63.2346C75.8745 67.6074 72.4911 71.3722 68.6335 74.7168C68.0964 75.1844 67.6231 75.2873 66.9386 75.0406C58.6584 72.0453 51.5653 67.3066 45.792 60.5995C45.358 60.0958 45.3336 59.6915 45.5431 59.1042C46.9987 55.0182 48.4379 50.9251 49.8339 46.8171C49.9743 46.4026 49.9302 45.7962 49.725 45.4101C48.4887 43.0818 49.2513 40.2312 51.4937 39.0595C53.8469 37.8317 56.6982 38.8048 57.7729 41.2012C58.8641 43.6325 57.7463 46.2695 55.2413 47.3451C54.8342 47.5195 54.4148 47.9678 54.2597 48.385C53.0604 51.6186 51.9396 54.8809 50.7593 58.1212C50.5379 58.7259 50.6144 59.1256 51.0756 59.5989C55.2418 63.8838 60.0648 67.1888 65.4938 69.6478C66.5879 70.1437 67.2654 69.9573 68.0757 69.1243C70.6421 66.4833 72.9397 63.6457 74.8897 60.5119C75.1972 60.0182 75.7136 59.5748 76.2344 59.3057C78.0617 58.3607 79.9347 57.4986 81.7895 56.6068C81.8853 56.6881 81.9783 56.7674 82.0741 56.8487L82.0703 56.8418Z" fill="white"/>
<path d="M65.4601 22.8589C70.4239 22.6818 75.0589 23.2106 79.6115 24.4402C81.1077 24.8439 82.5943 25.3052 84.0403 25.8603C84.4585 26.0191 84.9282 26.5518 85.0189 26.987C86.559 34.3683 86.444 41.7283 84.5793 49.0337C84.4492 49.5453 83.9424 50.1216 83.4605 50.3556C78.8804 52.5794 74.2582 54.7121 69.6824 56.9454C69.2216 57.1703 68.8941 57.8429 68.6776 58.3781C67.944 60.2127 66.3641 61.3482 64.4068 61.332C62.455 61.3174 60.803 60.1401 60.178 58.3182C59.5549 56.5062 60.0986 54.4782 61.6274 53.3116C63.0213 52.2487 64.5694 52.0866 66.2384 52.6741C66.6975 52.8355 67.3393 52.8792 67.7627 52.6841C71.584 50.9307 75.3695 49.0926 79.1847 47.32C80.01 46.9362 80.4792 46.4837 80.6632 45.4999C81.5793 40.6402 81.6236 35.7768 81.0332 30.881C80.9166 29.9097 80.4908 29.4374 79.574 29.2719C76.7447 28.7594 73.9265 28.156 71.0838 27.7349C69.9702 27.5702 69.0954 27.3182 68.3982 26.3477C67.5594 25.185 66.5539 24.1446 65.4576 22.8594L65.4601 22.8589Z" fill="white"/>
</g>
<defs>
<radialGradient id="paint0_radial_374_2464" cx="0" cy="0" r="1" gradientUnits="userSpaceOnUse" gradientTransform="translate(76.09 -4.96841) scale(107.771 107.513)">
<stop offset="0.14" stop-color="white"/>
<stop offset="0.48" stop-color="#FBAA17"/>
<stop offset="0.62" stop-color="#F3561F"/>
<stop offset="1" stop-color="#9F0F12"/>
</radialGradient>
<radialGradient id="paint1_radial_374_2464" cx="0" cy="0" r="1" gradientUnits="userSpaceOnUse" gradientTransform="translate(69.2955 22.3734) scale(144.848 144.5)">
<stop offset="0.3" stop-color="white"/>
<stop offset="0.78" stop-color="#FBAA17"/>
<stop offset="1" stop-color="#F3561F"/>
</radialGradient>
<linearGradient id="paint2_linear_374_2464" x1="23.3957" y1="43.597" x2="-0.372736" y2="118.219" gradientUnits="userSpaceOnUse">
<stop stop-color="#720A0B"/>
<stop offset="0.3" stop-color="#9F0F12"/>
<stop offset="0.6" stop-color="#E84D1D"/>
<stop offset="0.72" stop-color="#FCB116"/>
<stop offset="0.75" stop-color="#FBAA17"/>
<stop offset="0.84" stop-color="#F3561F"/>
<stop offset="1" stop-color="#9F0F12"/>
</linearGradient>
<radialGradient id="paint3_radial_374_2464" cx="0" cy="0" r="1" gradientUnits="userSpaceOnUse" gradientTransform="translate(54.5074 -15.1355) scale(149.92 149.561)">
<stop stop-color="white"/>
<stop offset="0.44" stop-color="#FCB116"/>
<stop offset="0.76" stop-color="#ED1C24"/>
<stop offset="1" stop-color="#AC1317"/>
</radialGradient>
<radialGradient id="paint4_radial_374_2464" cx="0" cy="0" r="1" gradientUnits="userSpaceOnUse" gradientTransform="translate(76.09 -4.96841) scale(107.771 107.513)">
<stop offset="0.14" stop-color="white"/>
<stop offset="0.48" stop-color="#FBAA17"/>
<stop offset="0.62" stop-color="#F3561F"/>
<stop offset="1" stop-color="#9F0F12"/>
</radialGradient>
<clipPath id="clip0_374_2464">
<rect width="110" height="109" fill="white"/>
</clipPath>
</defs>
</svg>
