<svg width="118" height="117" viewBox="0 0 118 117" fill="none" xmlns="http://www.w3.org/2000/svg">
<g clip-path="url(#clip0_374_2482)">
<path d="M93.2496 0.7829C93.7725 0.7829 94.3389 0.956877 94.9054 1.17435C95.4283 1.43532 95.9512 1.78327 96.4305 2.26171C96.9098 2.69665 97.302 3.26208 97.6506 3.82751C97.9992 4.39294 98.2607 5.08885 98.435 5.74126L117.826 83.2918C118 84.0312 118.087 84.7706 118.044 85.4665C118.044 86.1625 117.869 86.8584 117.651 87.4673C117.433 88.0762 117.128 88.5981 116.736 89.0331C116.344 89.468 115.865 89.816 115.385 89.99L39.6092 116.652C38.7377 116.957 37.8227 117.087 36.9512 116.957C36.0797 116.87 35.2518 116.565 34.4674 116.13C33.7267 115.695 33.0731 115.043 32.5066 114.303C31.9837 113.52 31.5915 112.651 31.3736 111.607L10.1092 6.52416C9.93494 5.61078 9.93494 4.74089 10.1092 3.95799C10.2835 3.17509 10.6757 2.47918 11.155 1.87026C11.6779 1.30483 12.288 0.826394 13.0287 0.478439C13.8131 0.173978 14.641 0 15.5561 0L93.2496 0.7829Z" fill="url(#paint0_radial_374_2482)"/>
<path d="M37.517 114.912C37.517 114.912 37.2556 114.912 37.1249 114.912C36.5584 114.869 36.0355 114.695 35.5126 114.39C34.9897 114.086 34.554 113.651 34.2054 113.172C33.8132 112.607 33.5518 111.998 33.421 111.259L12.1566 6.08913C12.0259 5.52371 12.0259 4.95828 12.1566 4.43635C12.2874 3.95791 12.4617 3.56646 12.7667 3.2185C13.0717 2.87055 13.4203 2.60958 13.856 2.39211C14.3354 2.17464 14.8583 2.08765 15.4247 2.08765L93.1618 2.87055C93.3797 2.87055 93.6411 2.95753 93.9026 3.04452C94.2076 3.2185 94.5562 3.43597 94.8612 3.74043C95.1662 4.0449 95.4713 4.43635 95.7327 4.87129C95.9942 5.30623 96.1685 5.78467 96.2992 6.21962L115.69 83.7702C115.821 84.2921 115.864 84.814 115.864 85.336C115.864 85.8144 115.777 86.2929 115.603 86.6843C115.472 87.0323 115.298 87.3367 115.08 87.5977C114.906 87.7717 114.775 87.9021 114.601 87.9456L38.8243 114.608C38.3885 114.782 37.9092 114.825 37.4735 114.825L37.517 114.912Z" fill="url(#paint1_radial_374_2482)"/>
<path d="M37.4306 115.173C32.463 114.434 33.2474 108.649 32.2016 105.387L30.0229 94.2088C28.5413 86.6843 26.9291 78.7683 24.9246 68.6341C23.7917 63.1538 21.613 52.1932 18.9113 38.8404C17.5605 32.1423 16.079 24.8787 14.5539 17.3977C13.8131 13.6571 12.9416 9.82964 12.3316 6.04562C11.9394 1.21774 18.127 2.91402 21.3951 2.65306C52.2023 2.95752 80.2208 3.26198 80.2208 3.26198C80.2208 3.26198 81.9638 3.26198 85.1012 3.30547C86.6698 3.30547 88.5435 3.30547 90.7223 3.34897C92.9882 2.95752 95.4719 3.78391 96.1255 6.65454C98.74 17.1802 102.313 31.4464 106.017 46.365C107.891 53.846 109.808 61.4575 111.638 68.8951C112.553 72.5921 113.468 76.2456 114.383 79.8122C115.08 82.9003 117.216 87.9891 112.989 88.598C100.091 93.1215 89.5458 96.862 84.2732 98.7322C64.7518 105.474 53.8146 109.78 37.4741 115.217C53.9017 110.041 64.9261 105.909 84.4475 99.1672C89.7201 97.2969 100.309 93.5999 113.163 89.0765C117.782 88.2501 115.473 82.7263 114.819 79.8122C113.904 76.2456 112.989 72.5921 112.074 68.8951C110.2 61.501 108.326 53.846 106.453 46.365C102.705 31.4464 99.1758 17.1802 96.5177 6.65454C95.9512 3.56644 92.8139 2.56607 90.7223 3.00101C88.5435 3.00101 86.6263 3.00101 85.1012 2.95752C82.0074 2.95752 80.2208 2.95752 80.2208 2.95752C80.2208 2.95752 52.2023 2.65306 21.3515 2.3486C18.3449 2.60956 11.678 0.695807 11.8958 6.2196C12.5495 10.0471 13.4209 13.8311 14.1181 17.6151C15.6433 25.0962 17.1248 32.4032 18.4756 39.0579C21.1772 52.4107 23.3995 63.3713 24.4889 68.8516C26.5369 78.9423 28.1492 86.9018 29.7178 94.3828L32.0709 105.561C33.1167 108.779 32.463 114.651 37.4741 115.304L37.4306 115.173Z" fill="url(#paint2_radial_374_2482)"/>
<path d="M36.7514 116C36.7514 116 36.4869 116 36.3547 116C35.7817 115.956 35.2528 115.78 34.7239 115.473C34.195 115.165 33.7542 114.726 33.4016 114.242C33.0049 113.671 32.7405 113.056 32.6082 112.308L11.0992 6.04318C10.9669 5.47186 10.9669 4.90054 11.0992 4.37317C11.2314 3.88975 11.4077 3.49422 11.7162 3.14264C12.0248 2.79106 12.3774 2.52737 12.8181 2.30763C13.303 2.0879 13.8319 2 14.4049 2L93.0364 2.79106C93.2568 2.79106 93.5212 2.87895 93.7857 2.96685C94.0942 3.14264 94.4469 3.36237 94.7554 3.67001C95.0639 3.97764 95.3724 4.37317 95.6369 4.81264C95.9014 5.25212 96.0777 5.73554 96.2099 6.17502L115.824 84.5335C115.956 85.0609 116 85.5883 116 86.1157C116 86.5991 115.912 87.0825 115.736 87.478C115.603 87.8296 115.427 88.1372 115.207 88.4009C115.03 88.5767 114.898 88.7086 114.722 88.7525L38.0737 115.692C37.6329 115.868 37.1481 115.912 36.7073 115.912L36.7514 116Z" fill="url(#paint3_radial_374_2482)"/>
<path d="M34.2055 116C33.7261 115.695 33.334 115.304 32.9418 114.869C32.5496 114.434 32.2446 113.955 31.9831 113.39C31.7217 112.868 31.5038 112.259 31.3731 111.607L10.1087 6.52404C10.0216 6.17609 9.97798 5.82813 9.97798 5.48018C9.97798 5.13222 9.97798 4.78427 10.0216 4.4798C10.0651 4.17534 10.1523 3.87088 10.2394 3.56642C10.3266 3.26196 10.4573 3.00099 10.6316 2.69653C7.27635 8.69876 3.92111 14.701 0.565864 20.7467C0.43514 20.9642 0.347991 21.2252 0.260842 21.4426C0.173693 21.7036 0.130118 21.9646 0.0865433 22.2255C0.0865433 22.4865 0.0429688 22.7475 0.0429688 23.0519C0.0429688 23.3129 0.0429688 23.6174 0.130118 23.9218L16.427 107.605C16.5142 108.127 16.6885 108.562 16.9063 108.997C17.1242 109.432 17.3857 109.823 17.6907 110.171C17.9957 110.519 18.3443 110.824 18.7365 111.085C19.1286 111.346 19.5208 111.52 19.9566 111.65C25.2291 113.346 30.458 115.043 35.7306 116.695C35.2077 116.521 34.6848 116.304 34.249 116H34.2055Z" fill="url(#paint4_linear_374_2482)"/>
<path d="M71.1031 60.7337C69.6788 60.884 68.0349 61.0401 66.5632 60.3308C65.2082 59.6762 64.6137 60.1662 64.0076 61.3188C63.2976 62.6718 62.4517 63.9545 61.62 65.2399C60.5465 66.8915 59.4328 68.2575 60.5743 70.6291C61.6494 72.8653 59.7069 75.3874 57.2049 75.864C54.616 76.3568 52.2575 74.6281 51.9768 72.0368C51.7084 69.5693 53.5691 67.0762 56.0131 67.1888C57.704 67.2677 58.3328 66.4534 59.0284 65.284C60.1671 63.3708 61.3392 61.476 62.5614 59.6155C63.0717 58.8372 62.9527 58.35 62.3748 57.6258C58.2633 52.4486 59.3281 46.3214 64.9699 42.8207C65.9311 42.2232 66.1358 41.6312 65.9093 40.6162C65.5161 38.8462 65.2198 37.0552 64.8787 35.2726C64.5465 33.5515 64.4595 31.9457 62.2883 31.053C60.1528 30.1755 59.8474 27.1203 61.2242 25.2418C62.5888 23.3847 65.3567 23.0033 67.161 24.4227C68.9845 25.8576 69.4191 28.7159 67.7254 30.3445C66.5049 31.5195 66.4829 32.5896 66.814 34.0151C67.2563 35.9155 67.6621 37.8394 67.8818 39.7735C68.0504 41.2625 68.6715 41.8114 70.1341 41.7196C71.1739 41.6554 72.3189 41.8453 73.1231 42.4693C74.8041 43.7695 75.8644 43.1479 77.0675 41.7651C78.5237 40.0908 80.1093 38.5099 81.7807 37.0527C82.867 36.1056 83.0773 35.0659 82.9236 33.7577C82.6144 31.1307 84.2095 29.2247 86.7083 29.1653C88.9522 29.1127 91.2327 31.3823 91.0805 33.5125C90.8906 36.1513 88.7994 38.1151 86.3517 37.5484C84.8611 37.2016 84.0363 37.6555 83.1254 38.6216C81.458 40.3905 79.7527 42.1309 78.0011 43.8142C77.1521 44.6316 76.9368 45.1818 77.5776 46.4284C81.025 53.1445 77.2516 59.3459 71.1004 60.7342L71.1031 60.7337ZM89.1184 32.8325C88.7187 31.7515 87.951 30.8877 86.5851 31.0873C85.1234 31.2995 84.4443 32.3535 84.7023 33.7818C84.9464 35.136 85.9715 35.7896 87.2851 35.5725C88.636 35.351 89.1801 34.3471 89.1153 32.8304L89.1184 32.8325ZM58.56 70.9892C58.1338 69.7241 57.311 68.9583 55.9271 69.2216C54.5568 69.4851 53.9071 70.4924 54.1613 71.8283C54.4124 73.162 55.409 73.8813 56.7597 73.6297C58.1099 73.3755 58.6571 72.3738 58.56 70.9892ZM66.6967 27.2255C66.3037 26.05 65.4608 25.3511 64.2282 25.564C62.9929 25.7773 62.3191 26.729 62.5337 27.9846C62.7503 29.2508 63.6838 29.8669 64.9469 29.6565C66.2336 29.4416 66.726 28.5105 66.694 27.226L66.6967 27.2255Z" fill="white"/>
<path d="M56.0735 53.2225C56.0498 52.9667 55.9661 52.2755 55.928 51.5813C55.8816 50.7269 56.2752 49.691 54.8925 49.4828C53.6781 49.3005 52.6579 48.9336 51.748 50.4694C50.0585 53.322 46.5223 54.2837 43.5525 52.9851C40.6335 51.7098 39.0852 48.8996 39.6043 45.5193C40.0923 42.3504 42.8137 40.1009 46.0006 40.0051C49.2852 39.9073 52.1489 42.0177 52.7232 45.3428C53.0147 47.0361 54.0002 47.204 55.2617 47.4487C56.6218 47.7105 56.6299 46.6678 56.9937 45.8787C58.1496 43.3622 59.7969 41.2409 62.1771 39.7844C62.6953 39.4677 63.3701 38.7241 63.9543 39.5978C64.451 40.34 64.1818 40.9798 63.3607 41.4824C57.8327 44.8631 56.095 53.1198 60.4665 58.2591C61.1906 59.1092 60.7098 59.7395 60.1391 60.2113C59.3633 60.8533 59.0734 59.9215 58.7245 59.5159C57.4505 58.0323 56.5205 55.8428 56.074 53.2252L56.0735 53.2225ZM49.5019 46.0233C49.1502 44.155 47.3805 42.9483 45.5044 43.3043C43.662 43.6512 42.4185 45.4854 42.7822 47.3158C43.1149 48.9958 44.9488 50.2397 46.6759 49.9612C48.501 49.6669 49.8372 47.8042 49.505 46.0254L49.5019 46.0233Z" fill="white"/>
<path d="M82.7418 48.8017C83.1098 51.0313 83.042 53.2333 82.4012 55.4172C82.2308 56.0028 81.4953 56.6125 82.3417 57.2724C83.1308 57.8883 83.6291 57.4082 84.3373 57.0009C88.0204 54.8799 90.7285 55.5126 92.8459 58.3198C94.4076 60.3904 94.2792 63.2258 92.7242 65.3599C91.3296 67.2747 88.7431 68.1562 86.4144 67.5123C83.9961 66.8414 82.2697 64.7498 82.0557 62.209C82.0261 61.8638 82.0135 61.5073 82.058 61.1646C82.1618 60.3697 82.2025 59.6304 81.3068 59.2154C80.3065 58.7516 80.1415 59.728 79.7361 60.166C76.1389 64.0463 71.781 65.623 66.576 64.5096C65.9254 64.3691 64.5952 64.6716 64.7834 63.3839C64.9687 62.1243 65.9683 62.1936 67.053 62.4114C72.2273 63.4484 76.8989 61.3084 79.4093 56.7943C81.3046 53.3851 81.2916 49.842 79.751 46.3344C79.3023 45.3119 79.1841 44.5395 80.2351 44.1142C81.3366 43.6685 81.3535 44.8435 81.6595 45.427C82.2093 46.4798 82.596 47.6071 82.7423 48.8044L82.7418 48.8017ZM87.6153 58.8799C85.9307 59.1532 84.69 60.8718 84.9841 62.5208C85.2617 64.0824 86.937 65.2795 88.5207 65.0498C90.1944 64.8059 91.3824 63.1109 91.0842 61.3969C90.7934 59.7365 89.2498 58.616 87.6158 58.8825L87.6153 58.8799Z" fill="white"/>
<path d="M70.1394 37.6661C72.1638 37.7645 74.1322 38.2899 75.94 39.3661C76.2779 39.5683 76.4522 39.8862 76.1526 40.2056C75.7488 40.6379 75.3743 41.2975 74.6351 40.99C73.2331 40.4046 71.8021 39.9835 70.2938 39.7743C69.4963 39.6641 69.5183 38.912 69.4557 38.3045C69.4117 37.8826 69.6763 37.6958 70.1368 37.6666L70.1394 37.6661Z" fill="white"/>
</g>
<defs>
<radialGradient id="paint0_radial_374_2482" cx="0" cy="0" r="1" gradientUnits="userSpaceOnUse" gradientTransform="translate(58.6078 -16.1921) scale(104.37 104.178)">
<stop stop-color="white"/>
<stop offset="0.31" stop-color="#1CC4F7"/>
<stop offset="0.94" stop-color="#1E2559"/>
</radialGradient>
<radialGradient id="paint1_radial_374_2482" cx="0" cy="0" r="1" gradientUnits="userSpaceOnUse" gradientTransform="translate(81.8237 -5.25248) scale(115.957 115.744)">
<stop offset="0.14" stop-color="white"/>
<stop offset="0.48" stop-color="#FBAA17"/>
<stop offset="0.62" stop-color="#F3561F"/>
<stop offset="1" stop-color="#9F0F12"/>
</radialGradient>
<radialGradient id="paint2_radial_374_2482" cx="0" cy="0" r="1" gradientUnits="userSpaceOnUse" gradientTransform="translate(74.5457 24.1845) scale(155.865 155.578)">
<stop offset="0.3" stop-color="white"/>
<stop offset="0.78" stop-color="#FBAA17"/>
<stop offset="1" stop-color="#F3561F"/>
</radialGradient>
<radialGradient id="paint3_radial_374_2482" cx="0" cy="0" r="1" gradientUnits="userSpaceOnUse" gradientTransform="translate(81.5678 -5.41659) scale(124.019 123.658)">
<stop stop-color="#DAF6FF"/>
<stop offset="0.52" stop-color="#1CC4F7"/>
<stop offset="1" stop-color="#1E2559"/>
</radialGradient>
<linearGradient id="paint4_linear_374_2482" x1="25.0984" y1="46.7999" x2="-0.437999" y2="126.9" gradientUnits="userSpaceOnUse">
<stop stop-color="#000A7F"/>
<stop offset="0.39" stop-color="#072CA6"/>
<stop offset="0.66" stop-color="#1779FF"/>
<stop offset="0.72" stop-color="#1468EC"/>
<stop offset="0.78" stop-color="#041C94"/>
<stop offset="1" stop-color="#000A7F"/>
</linearGradient>
<clipPath id="clip0_374_2482">
<rect width="118" height="117" fill="white"/>
</clipPath>
</defs>
</svg>
