<svg width="106" height="106" viewBox="0 0 106 106" fill="none" xmlns="http://www.w3.org/2000/svg">
<g clip-path="url(#clip0_374_2456)">
<path d="M83.7361 0.70903C84.2057 0.70903 84.7144 0.827202 85.223 1.06355C85.6926 1.29989 86.1621 1.61501 86.5925 2.04831C87.023 2.44221 87.3751 2.9149 87.6881 3.46637C88.0012 4.01784 88.236 4.6087 88.3925 5.19955L105.805 75.4329C105.961 76.1026 106.04 76.7722 106 77.4025C106 78.0327 105.844 78.663 105.648 79.2144C105.453 79.7659 105.179 80.2386 104.827 80.6325C104.474 81.0264 104.044 81.3415 103.574 81.4991L35.5294 105.645C34.7468 105.921 33.9251 106.039 33.1034 105.921C32.2817 105.803 31.5774 105.567 30.9122 105.173C30.247 104.74 29.6601 104.188 29.1514 103.518C28.6819 102.809 28.3297 102.022 28.1341 101.076L9.07832 5.90858C8.92181 5.08138 8.92181 4.29357 9.07832 3.58454C9.23484 2.87551 9.587 2.24526 10.0174 1.69379C10.487 1.18172 11.0348 0.748421 11.7 0.433296C12.4043 0.157562 13.1477 0 13.9694 0L83.7361 0.70903Z" fill="url(#paint0_radial_374_2456)"/>
<path d="M33.6891 104.07C33.6891 104.07 33.4544 104.07 33.337 104.07C32.8283 104.03 32.3588 103.833 31.8892 103.597C31.4197 103.321 31.0284 102.927 30.7154 102.455C30.3632 101.982 30.1284 101.391 30.011 100.761L10.9162 5.51456C10.7988 5.00248 10.7988 4.4904 10.9162 4.01772C11.0336 3.62381 11.1901 3.2299 11.464 2.91478C11.7379 2.59966 12.0509 2.36331 12.4422 2.16636C12.8726 1.96941 13.3422 1.89062 13.8508 1.89062L83.6567 2.59966C83.8523 2.59966 84.0871 2.67844 84.3219 2.79661C84.5958 2.95417 84.9088 3.15112 85.1827 3.42686C85.4566 3.70259 85.7305 4.05711 85.9653 4.45101C86.2 4.84492 86.3566 5.27821 86.4739 5.67212L103.886 75.9055C104.004 76.3782 104.043 76.8509 104.043 77.3629C104.043 77.7962 103.965 78.2295 103.808 78.584C103.691 78.8992 103.534 79.1749 103.338 79.4112C103.182 79.5688 103.065 79.687 102.908 79.7264L34.863 103.873C34.4717 104.03 34.0413 104.07 33.65 104.07H33.6891Z" fill="url(#paint1_radial_374_2456)"/>
<path d="M33.6119 104.306C29.1512 103.637 29.8555 98.3976 28.9164 95.4433L26.9209 85.32C25.5905 78.5054 24.1819 71.3363 22.3428 62.1583C21.3646 57.1951 19.369 47.2687 16.943 35.1758C15.73 29.1096 14.3997 22.5314 13.0301 15.7168C12.365 12.3293 11.5824 8.86289 11.0346 5.43591C10.6824 1.06356 16.2387 2.59979 19.1342 2.36344C46.8374 2.63918 71.9973 2.91491 71.9973 2.91491C71.9973 2.91491 73.5624 2.91491 76.3797 2.9543C77.7884 2.9543 79.4709 2.9543 81.4273 2.99369C83.462 2.63918 85.6924 3.3876 86.2793 5.98738C88.627 15.5199 91.8356 28.4006 95.2007 41.951C96.8832 48.6867 98.6049 55.6195 100.248 62.3553C101.07 65.7035 101.892 69.0517 102.713 72.2423C103.339 75.039 105.257 79.6477 101.5 80.1992C89.9183 84.2958 80.4491 87.6834 75.6754 89.3378C58.1457 95.4827 48.3243 99.343 33.651 104.267C48.4417 99.5793 58.3022 95.8373 75.8319 89.6923C80.5665 87.9985 90.0748 84.6503 101.618 80.5537C105.765 79.8053 103.692 74.8027 103.105 72.1635C102.283 68.9335 101.5 65.6247 100.64 62.2765C98.957 55.5407 97.2745 48.6474 95.592 41.8722C92.2269 28.3612 89.0575 15.4411 86.6706 5.94799C86.1619 3.15126 83.3446 2.24527 81.4665 2.63918C79.51 2.63918 77.7884 2.63918 76.4188 2.59979C73.6407 2.59979 72.0364 2.5604 72.0364 2.5604C72.0364 2.5604 46.8766 2.32405 19.1734 2.00893C16.4735 2.24527 10.4868 0.512087 10.6824 5.51469C11.2693 8.98106 12.0519 12.408 12.678 15.835C14.0475 22.6102 15.3779 29.2278 16.5909 35.294C19.0169 47.3869 21.0124 57.3133 21.9906 62.2765C23.8297 71.4151 25.2775 78.5842 26.6861 85.3988L28.7991 95.5221C29.7382 98.437 29.1512 103.755 33.651 104.346L33.6119 104.306Z" fill="url(#paint2_linear_374_2456)"/>
<path d="M33.6891 104.07C33.6891 104.07 33.4544 104.07 33.337 104.07C32.8283 104.03 32.3588 103.833 31.8892 103.597C31.4197 103.321 31.0284 102.927 30.7154 102.455C30.3632 101.982 30.1284 101.391 30.011 100.761L10.9162 5.51456C10.7988 5.00248 10.7988 4.4904 10.9162 4.01772C11.0336 3.62381 11.1901 3.2299 11.464 2.91478C11.7379 2.59966 12.0509 2.36331 12.4422 2.16636C12.8726 1.96941 13.3422 1.89062 13.8508 1.89062L83.6567 2.59966C83.8523 2.59966 84.0871 2.67844 84.3219 2.79661C84.5958 2.95417 84.9088 3.15112 85.1827 3.42686C85.4566 3.70259 85.7305 4.05711 85.9653 4.45101C86.2 4.84492 86.3566 5.27821 86.4739 5.67212L103.886 75.9055C104.004 76.3782 104.043 76.8509 104.043 77.3629C104.043 77.7962 103.965 78.2295 103.808 78.584C103.691 78.8992 103.534 79.1749 103.338 79.4112C103.182 79.5688 103.065 79.687 102.908 79.7264L34.863 103.873C34.4717 104.03 34.0413 104.07 33.65 104.07H33.6891Z" fill="url(#paint3_radial_374_2456)"/>
<path d="M30.7161 105.094C30.2856 104.818 29.8944 104.464 29.5813 104.07C29.2292 103.676 28.9553 103.243 28.7205 102.73C28.4857 102.258 28.2901 101.706 28.1727 101.115L9.07782 5.90851C8.99956 5.59338 8.96044 5.27826 8.96044 4.96313C8.96044 4.64801 8.96044 4.33289 8.99957 4.05715C8.99957 3.78142 9.11695 3.50568 9.19521 3.22995C9.27347 2.95422 9.39085 2.71787 9.54737 2.44214C6.53445 7.87804 3.52153 13.3139 0.508608 18.7892C0.391222 18.9862 0.312964 19.2225 0.234707 19.4195C0.156449 19.6558 0.0781913 19.8922 0.0781913 20.1285C0.0781913 20.3648 0.0390625 20.6012 0.0390625 20.8769C0.0390625 21.1133 0.0390625 21.389 0.11732 21.6647L14.7515 97.4522C14.8298 97.9248 14.9863 98.3581 15.1819 98.7521C15.3776 99.146 15.6123 99.5005 15.8862 99.8156C16.1601 100.131 16.4732 100.406 16.8253 100.603C17.1775 100.84 17.5296 100.997 17.9209 101.115C22.6555 102.652 27.351 104.188 32.0856 105.685C31.616 105.527 31.1465 105.33 30.7552 105.055L30.7161 105.094Z" fill="url(#paint4_linear_374_2456)"/>
<path d="M36.3034 43.7127C36.7071 43.6484 37.1112 43.586 37.5167 43.5211C37.4067 43.1238 37.3982 42.6478 37.1671 42.3405C35.7269 40.4325 35.5573 38.027 36.7951 36.1427C38.0487 34.2336 40.2971 33.397 42.5801 33.9919C42.7071 34.024 42.8437 34.1381 42.9486 34.1101C43.2613 34.0267 43.5607 33.8933 43.8653 33.7791C43.7301 33.4791 43.6656 32.9996 43.4461 32.9118C42.2892 32.4494 42.1701 31.4361 42.1547 30.4591C42.1371 29.3589 42.7239 28.4955 43.7026 27.9912C45.475 27.0775 47.4866 27.9571 48.0078 29.9041C50.6219 39.6532 53.2222 49.404 55.8039 59.1618C56.1927 60.635 55.7328 61.9284 54.5954 62.9099C53.5212 63.8374 52.2738 64.0237 51.0708 63.5798C51.1959 62.4251 51.3601 61.3631 51.4019 60.2945C51.4215 59.7781 51.2515 59.1329 50.5153 59.2674C49.8492 59.3894 49.9708 59.9527 50.0509 60.4672C50.353 62.4046 49.1417 64.189 47.2464 64.6264C45.3516 65.0657 43.4772 63.9805 42.9094 62.1119C42.7772 61.6772 42.673 61.233 42.5586 60.8039C42.7463 60.7188 42.8306 60.6674 42.9235 60.6406C43.3982 60.5058 44.0372 60.3972 43.8208 59.7541C43.7343 59.4989 43.0272 59.2752 42.643 59.3282C39.9352 59.7061 37.3802 58.1139 36.687 55.5449C35.9917 52.9683 37.4098 50.3125 39.9505 49.2928C40.3139 49.1464 40.8367 48.5948 40.7787 48.3464C40.6151 47.6336 39.9764 47.8121 39.4874 48.0312C38.9219 48.285 38.3394 48.5517 37.8625 48.9386C37.3279 49.3697 36.9388 49.2509 36.4743 48.88C34.78 47.5283 34.6503 45.2728 36.3021 43.7152L36.3034 43.7127ZM48.5011 46.1613C48.0852 45.4828 47.7515 44.8441 47.3223 44.2763C47.0266 43.8873 46.5769 43.4878 46.0793 43.9812C45.6369 44.4207 45.9686 44.7837 46.3176 45.1503C47.1176 45.9902 47.1177 46.6725 46.4021 47.6424C45.7108 48.5812 45.5106 49.6384 45.8821 50.7328C45.9827 51.0254 46.4688 51.1864 46.7774 51.4092C46.9077 51.0859 47.1857 50.7417 47.143 50.4439C46.8485 48.3973 47.8326 47.4155 49.9141 47.6685C50.2011 47.7032 50.5287 47.3768 50.8377 47.2181C50.6296 46.9356 50.4732 46.4867 50.2034 46.402C49.6234 46.2186 48.985 46.2219 48.4992 46.1618L48.5011 46.1613ZM46.737 57.7912C47.7846 57.1697 48.6881 56.6896 49.5119 56.0948C49.6869 55.9698 49.5623 55.4259 49.5747 55.0742C49.282 55.0719 48.9092 54.9529 48.708 55.0869C46.7923 56.3748 46.8017 56.3868 45.0488 55.0836C44.9697 55.0243 44.8864 54.9187 44.8074 54.9212C44.4561 54.9366 44.1073 54.9843 43.7573 55.0199C43.8533 55.3571 43.8403 55.8367 44.0637 56.008C45.2369 56.9071 45.5434 58.0106 45.176 59.4133C45.0997 59.7016 45.4022 60.093 45.5305 60.436C45.8205 60.237 46.2889 60.0936 46.3675 59.8294C46.591 59.0896 46.6527 58.3022 46.7379 57.7868L46.737 57.7912ZM45.5704 38.0363C46.0594 37.6256 46.5508 37.3544 46.8174 36.937C47.0047 36.6438 46.8839 36.1525 46.9007 35.7481C46.5453 35.8553 46.0927 35.8585 45.8515 36.0877C45.2829 36.6289 44.8214 36.8591 44.0696 36.33C43.2683 35.7686 42.3134 35.78 41.4562 36.2498C41.2176 36.3815 41.1468 36.8208 40.9998 37.1197C41.302 37.2494 41.6258 37.5217 41.9034 37.4827C43.697 37.2229 44.0709 37.5066 44.2195 39.2437C44.2429 39.5075 44.5944 39.7456 44.7938 39.9954C45.0386 39.7797 45.4134 39.6076 45.4959 39.3424C45.625 38.9225 45.5575 38.4396 45.5723 38.0358L45.5704 38.0363ZM39.9306 42.562C39.6892 42.3997 39.2579 41.8778 38.9212 41.9325C38.3002 42.0322 38.5124 42.5981 38.5793 43.1244C38.6451 43.6469 38.3323 44.2126 38.1993 44.7634C38.1342 45.0322 37.9844 45.3669 38.087 45.5601C38.1861 45.7481 38.5498 45.8098 38.8076 45.8956C39.1194 46.0001 39.4377 46.1213 39.761 46.1464C40.0761 46.1716 40.3998 46.0832 40.72 46.0432C40.666 45.7257 40.6458 45.3972 40.5503 45.0928C40.409 44.6317 40.19 44.1934 40.0543 43.7307C39.9732 43.4494 39.9874 43.1426 39.9301 42.5601L39.9306 42.562Z" fill="white"/>
<path d="M54.8518 45.8715L54.5177 44.6187C54.9258 44.5099 55.2958 44.4112 55.6657 44.3125C63.1029 42.3293 70.538 40.3383 77.9808 38.3761C78.6444 38.1992 79.0261 38.0067 79.1134 37.2002C79.2808 35.622 80.73 34.4234 82.3125 34.36C83.9696 34.2933 85.4304 35.3672 85.8534 36.9611C86.2913 38.6108 85.5441 40.2281 83.9831 41.0154C82.5897 41.7189 80.7388 41.3344 79.8224 40.0122C79.3996 39.3994 79.0134 39.422 78.4242 39.5792C70.9577 41.5826 63.489 43.5702 56.0194 45.5622C55.6475 45.6613 55.2756 45.7605 54.8542 45.8729L54.8518 45.8715Z" fill="white"/>
<path d="M55.788 49.4433L55.4893 48.3233C57.3276 47.8331 59.1048 47.2437 60.9315 46.9091C62.3996 46.6392 63.8684 47.7275 64.3896 49.1612C65.0545 50.9957 65.9054 51.4366 67.7976 50.9341C69.0676 50.5954 70.3312 50.2172 71.6137 49.9329C72.3332 49.774 72.6986 49.4973 72.8184 48.6903C73.0512 47.1276 74.1514 46.1829 75.7603 45.9352C77.1274 45.7232 78.5356 46.4463 79.2316 47.7159C79.9089 48.9534 79.757 50.5131 78.8493 51.6208C77.4498 53.3276 74.9742 53.3509 73.5267 51.5994C73.093 51.0761 72.7375 50.9607 72.1171 51.1467C70.733 51.5632 69.3272 51.9134 67.9268 52.2765C65.7149 52.8519 64.1396 52.0229 63.3272 49.865C62.8004 48.4637 61.7315 47.8872 60.2714 48.2559C58.8093 48.6252 57.3546 49.0296 55.7928 49.4461L55.788 49.4433Z" fill="white"/>
<path d="M53.877 42.2543L53.5839 41.1554C55.0142 40.774 56.4016 40.4082 57.7888 40.0341C59.5727 39.5543 60.1544 38.6489 59.852 36.8332C59.5496 35.0175 60.4044 33.4436 62.1568 32.8608C63.7464 32.3339 65.3784 31.9357 67.0021 31.5213C67.5509 31.3811 67.7886 31.1467 67.8684 30.5421C68.0906 28.8936 69.4511 27.6074 70.9198 27.5311C72.6704 27.4394 74.1615 28.466 74.6034 30.0693C75.0386 31.6476 74.3558 33.3385 72.992 34.0608C71.3938 34.9075 69.7105 34.6082 68.5619 33.181C68.1897 32.7196 67.883 32.6035 67.3317 32.765C65.8502 33.1992 64.3448 33.5594 62.8587 33.9763C61.4718 34.3668 60.8532 35.4098 61.1129 36.8432C61.5051 38.9957 60.5638 40.5288 58.4628 41.1138C57.0691 41.5019 55.6672 41.8593 54.2702 42.2277C54.1787 42.2521 54.076 42.2424 53.8794 42.2557L53.877 42.2543Z" fill="white"/>
<path d="M56.4343 52.0124C58.3569 51.2255 60.3544 51.7152 61.5688 53.3124C62.6645 54.7558 63.6572 56.2802 64.7109 57.7574C65.7558 59.2246 67.1154 59.6124 68.813 58.9164C68.7237 57.6623 69.0169 56.5329 70.0604 55.6816C71.5052 54.5048 73.5449 54.5936 74.7819 55.9231C76.073 57.3102 76.0753 59.4099 74.7894 60.7691C73.5109 62.1179 71.3539 62.2479 70.0017 60.9533C69.4199 60.3953 68.9525 60.2437 68.1401 60.4295C66.4174 60.825 64.9586 60.1875 63.9011 58.7649C62.8401 57.337 61.8434 55.859 60.8179 54.4031C59.9732 53.2041 58.8603 52.6537 57.4086 53.0388C56.4436 53.2961 56.6489 52.5261 56.4367 52.0138L56.4343 52.0124Z" fill="white"/>
<path d="M60.142 26.4621C58.1687 26.8214 57.3212 27.7564 57.1531 29.6461C56.9986 31.3878 56.8759 33.1334 56.647 34.864C56.375 36.9153 54.8677 38.2716 52.8438 38.3723L52.5862 37.4062C52.8035 37.3174 53.003 37.2229 53.2116 37.155C54.5293 36.7191 55.2821 35.8196 55.4206 34.4243C55.5924 32.7171 55.748 31.0101 55.926 29.3034C56.1459 27.2021 57.2006 25.9026 59.1937 25.334C59.6894 25.1935 59.9306 24.9952 60.0531 24.4514C60.4482 22.6929 61.9019 21.6106 63.631 21.6834C65.2402 21.751 66.6458 23.0849 66.8754 24.7654C67.0954 26.364 66.1397 27.9277 64.5833 28.5097C63.0792 29.0737 61.3573 28.4074 60.4326 26.9082C60.3462 26.7683 60.2514 26.6349 60.1387 26.465L60.142 26.4621Z" fill="white"/>
</g>
<defs>
<radialGradient id="paint0_radial_374_2456" cx="0" cy="0" r="1" gradientUnits="userSpaceOnUse" gradientTransform="translate(52.5113 -14.7321) scale(93.4788 94.104)">
<stop stop-color="white"/>
<stop offset="0.44" stop-color="#EB1CF7"/>
<stop offset="0.94" stop-color="#541E59"/>
</radialGradient>
<radialGradient id="paint1_radial_374_2456" cx="0" cy="0" r="1" gradientUnits="userSpaceOnUse" gradientTransform="translate(73.3267 -4.84516) scale(103.848 104.543)">
<stop offset="0.14" stop-color="white"/>
<stop offset="0.48" stop-color="#FBAA17"/>
<stop offset="0.62" stop-color="#F3561F"/>
<stop offset="1" stop-color="#9F0F12"/>
</radialGradient>
<linearGradient id="paint2_linear_374_2456" x1="10.6433" y1="53.1379" x2="104.122" y2="53.1379" gradientUnits="userSpaceOnUse">
<stop offset="0.09" stop-color="white"/>
<stop offset="0.44" stop-color="#EB1CF7"/>
<stop offset="0.94" stop-color="#541E59"/>
</linearGradient>
<radialGradient id="paint3_radial_374_2456" cx="0" cy="0" r="1" gradientUnits="userSpaceOnUse" gradientTransform="translate(73.3267 -4.84516) scale(103.848 104.543)">
<stop offset="0.32" stop-color="#EB1CF7"/>
<stop offset="1" stop-color="#541E59"/>
</radialGradient>
<linearGradient id="paint4_linear_374_2456" x1="10.2517" y1="32.5365" x2="23.3711" y2="101.714" gradientUnits="userSpaceOnUse">
<stop stop-color="#541E59"/>
<stop offset="0.68" stop-color="#8A1D91"/>
<stop offset="1" stop-color="#EB1CF7"/>
</linearGradient>
<clipPath id="clip0_374_2456">
<rect width="106" height="106" fill="white"/>
</clipPath>
</defs>
</svg>
