<svg width="109" height="109" viewBox="0 0 109 109" fill="none" xmlns="http://www.w3.org/2000/svg">
<g clip-path="url(#clip0_374_2475)">
<path d="M86.1063 0.729097C86.5891 0.729097 87.1122 0.891119 87.6353 1.09365C88.1181 1.33668 88.601 1.66072 89.0436 2.10628C89.4862 2.51133 89.8483 3.0379 90.1702 3.56447C90.4921 4.09104 90.7335 4.73913 90.8944 5.34671L108.8 77.5678C108.961 78.2564 109.041 78.945 109.001 79.5931C109.001 80.2412 108.84 80.8893 108.639 81.4563C108.437 82.0234 108.156 82.5095 107.794 82.9145C107.432 83.3196 107.029 83.6436 106.546 83.8057L36.5755 108.635C35.7305 108.919 34.8856 109.041 34.0808 108.919C33.2761 108.797 32.5116 108.554 31.8276 108.149C31.1436 107.704 30.4998 107.137 30.017 106.448C29.5341 105.719 29.172 104.909 28.9708 103.937L9.33555 6.07581C9.17461 5.2252 9.17461 4.41509 9.33555 3.68599C9.53673 2.95689 9.85862 2.30881 10.3415 1.74173C10.8243 1.21516 11.3876 0.769602 12.0716 0.445559C12.7556 0.162022 13.5201 0 14.3651 0L86.1063 0.729097Z" fill="url(#paint0_radial_374_2475)"/>
<path d="M34.6441 107.015C34.6441 107.015 34.4027 107.015 34.2819 107.015C33.7589 106.975 33.276 106.772 32.8334 106.529C32.3506 106.246 31.9482 105.841 31.6264 105.395C31.2642 104.909 31.0228 104.301 30.9021 103.653L11.2266 5.67083C11.1059 5.14426 11.1461 4.61769 11.2266 4.13163C11.3473 3.68607 11.5082 3.32152 11.7899 2.99748C12.0715 2.67343 12.3934 2.4304 12.836 2.22787C13.2786 2.02535 13.7615 1.94434 14.2845 1.94434L86.066 2.67343C86.066 2.67343 86.5086 2.75444 86.75 2.87596C87.0317 3.03798 87.3536 3.24051 87.6352 3.52405C87.9169 3.80758 88.1985 4.17213 88.4399 4.57719C88.6814 4.98224 88.8423 5.4278 88.963 5.83285L106.868 78.054C106.989 78.54 107.029 79.0261 107.029 79.5527C107.029 79.9982 106.908 80.4438 106.788 80.8083C106.667 81.1324 106.506 81.4159 106.345 81.6589C106.184 81.821 106.023 81.9425 105.902 81.983L35.9316 106.813C35.5293 106.975 35.0867 107.015 34.6843 107.015H34.6441Z" fill="url(#paint1_radial_374_2475)"/>
<path d="M34.5622 107.258C29.9752 106.57 30.6995 101.182 29.7338 98.1444L27.722 87.7346C26.354 80.7271 24.9055 73.3551 23.0144 63.9174C22.0084 58.8137 19.9564 48.6063 17.4618 36.1712C16.2144 29.9334 14.8464 23.169 13.4381 16.202C12.7541 12.7186 11.9896 9.15411 11.3861 5.63014C11.024 1.13404 16.7375 2.71375 19.7552 2.47072C48.2425 2.75426 74.1144 3.03779 74.1144 3.03779C74.1144 3.03779 75.7238 3.03779 78.6208 3.03779C80.0694 3.03779 81.7995 3.03779 83.8113 3.0783C85.9036 2.71375 88.1971 3.48335 88.8006 6.15671C91.2148 15.959 94.5142 29.2448 97.9745 43.1381C99.7046 50.105 101.435 57.1935 103.165 64.1199C104.01 67.5629 104.855 70.9653 105.7 74.2868C106.344 77.1627 108.315 81.9018 104.412 82.4689C92.5024 86.6814 82.7652 90.1649 77.8966 91.9066C59.8708 98.2255 49.7715 102.195 34.6829 107.258C49.8519 102.438 60.0317 98.59 78.0575 92.3117C82.9261 90.5699 92.7035 87.127 104.573 82.9144C108.838 82.1448 106.706 77.0006 106.102 74.2868C105.297 70.9653 104.453 67.5629 103.567 64.1199C101.837 57.1935 100.107 50.105 98.3768 43.1381C94.9165 29.2448 91.6574 15.959 89.203 6.15671C88.6799 3.28083 85.7829 2.3492 83.8516 2.75426C81.8397 2.75426 80.0694 2.75426 78.6611 2.71375C75.8043 2.71375 74.1949 2.67325 74.1949 2.67325C74.1949 2.67325 48.323 2.38971 19.8357 2.10617C17.0594 2.3492 10.9032 0.566965 11.1044 5.71115C11.708 9.31613 12.5127 12.7996 13.1565 16.3236C14.5647 23.2905 15.9328 30.0954 17.1801 36.2927C19.6747 48.7279 21.7268 58.9352 22.7327 64.0389C24.6238 73.4767 26.1125 80.8486 27.5611 87.8156L29.6936 98.1849C30.6995 101.182 30.0557 106.651 34.6829 107.258H34.5622Z" fill="url(#paint2_linear_374_2475)"/>
<path d="M34.6441 107.015C34.6441 107.015 34.4027 107.015 34.2819 107.015C33.7589 106.975 33.276 106.772 32.8334 106.529C32.3506 106.246 31.9482 105.841 31.6264 105.395C31.2642 104.909 31.0228 104.301 30.9021 103.653L11.2266 5.67083C11.1059 5.14426 11.1461 4.61769 11.2266 4.13163C11.3473 3.68607 11.5082 3.32152 11.7899 2.99748C12.0715 2.67343 12.3934 2.4304 12.836 2.22787C13.2786 2.02535 13.7615 1.94434 14.2845 1.94434L86.066 2.67343C86.066 2.67343 86.5086 2.75444 86.75 2.87596C87.0317 3.03798 87.3536 3.24051 87.6352 3.52405C87.9169 3.80758 88.1985 4.17213 88.4399 4.57719C88.6814 4.98224 88.8423 5.4278 88.963 5.83285L106.868 78.054C106.989 78.54 107.029 79.0261 107.029 79.5527C107.029 79.9982 106.908 80.4438 106.788 80.8083C106.667 81.1324 106.506 81.4159 106.345 81.6589C106.184 81.821 106.023 81.9425 105.902 81.983L35.9316 106.813C35.5293 106.975 35.0867 107.015 34.6843 107.015H34.6441Z" fill="url(#paint3_radial_374_2475)"/>
<path d="M31.5862 108.028C31.1436 107.744 30.7815 107.38 30.4194 106.975C30.0573 106.57 29.7756 106.124 29.5342 105.597C29.2928 105.111 29.0916 104.544 28.9709 103.937L9.33559 6.0757C9.25512 5.75166 9.21488 5.42762 9.21488 5.10358C9.21488 4.77953 9.21488 4.45549 9.25512 4.17195C9.25512 3.88841 9.37582 3.60488 9.4563 3.32134C9.53677 3.0378 9.65748 2.79477 9.81842 2.51123C6.72023 8.10097 3.62204 13.6907 0.523851 19.321C0.403142 19.5235 0.322669 19.7665 0.242197 19.9691C0.161724 20.2121 0.121488 20.4551 0.0812519 20.6982C0.0812519 20.9412 0.0410156 21.1842 0.0410156 21.4678C0.0410156 21.7108 0.0410156 21.9943 0.121488 22.2779L15.1698 100.21C15.2503 100.696 15.4113 101.101 15.6124 101.506C15.8136 101.911 16.055 102.276 16.3367 102.6C16.6183 102.924 16.9402 103.208 17.3024 103.41C17.6645 103.653 18.0266 103.815 18.429 103.937C23.2976 105.516 28.1259 107.096 32.9945 108.635C32.5117 108.473 32.0288 108.271 31.6265 107.947L31.5862 108.028Z" fill="url(#paint4_linear_374_2475)"/>
<path d="M47.6669 50.1532C44.2963 49.0767 41.2543 48.011 38.154 47.158C36.7802 46.7799 36.235 46.08 35.9635 44.735C35.1519 40.6895 34.2462 36.6625 33.2826 32.6507C33.0169 31.5411 33.1321 30.8006 34.0238 30.0111C37.2891 27.1197 40.4605 24.1259 43.7099 21.2183C44.1149 20.8548 44.8632 20.4694 45.2979 20.6047C53.7881 23.2351 62.2555 25.9395 71.1043 28.7492C63.2896 35.9509 55.7051 42.9414 47.9391 50.0977C57.9724 53.2832 67.7683 56.393 77.9227 59.6157C76.0971 61.3248 74.4782 62.8599 72.8395 64.3723C68.1484 68.6968 63.4195 72.9829 58.7703 77.3523C57.8654 78.2039 57.0905 78.4029 55.9249 78.0131C51.8491 76.6542 47.7293 75.4283 43.6654 74.0347C43.0468 73.8219 42.3381 73.0595 42.1828 72.4259C41.1276 68.1115 40.1625 63.7723 39.296 59.4136C39.1688 58.7737 39.493 57.7921 39.962 57.3306C42.39 54.9429 44.9323 52.6729 47.6641 50.1514L47.6669 50.1532ZM64.3414 30.1904C58.2209 28.2596 52.4613 26.4409 46.3564 24.514C47.044 27.6132 47.5816 30.2131 48.2308 32.7859C48.3389 33.2179 48.8739 33.7057 49.315 33.8593C51.6961 34.687 54.0975 35.4633 56.5229 36.148C57.0173 36.2873 57.8016 36.1528 58.1806 35.8271C60.1787 34.0994 62.0909 32.2724 64.3414 30.1904ZM71.21 61.1838C68.2904 60.2611 65.732 59.4186 63.1448 58.6785C62.7756 58.5731 62.1745 58.8593 61.8337 59.1469C59.913 60.781 58.0256 62.4546 56.167 64.1587C55.8327 64.4646 55.417 65.0228 55.4858 65.3773C56.0188 68.1336 56.6598 70.8684 57.3438 73.9511C62.0883 69.5802 66.5119 65.5098 71.2076 61.1843L71.21 61.1838ZM58.518 57.1682C55.2235 56.1142 52.3473 55.177 49.4564 54.2948C49.0931 54.1831 48.5103 54.2089 48.2536 54.4335C46.5798 55.8871 44.9686 57.413 43.1319 59.1049C46.3471 60.1223 49.1593 61.0367 51.9918 61.8875C52.407 62.0123 53.0579 62.006 53.3518 61.7608C55.0319 60.3576 56.6352 58.8629 58.5185 57.1706L58.518 57.1682ZM39.8042 43.9618C42.1516 44.7156 44.1821 45.3893 46.2315 46.0045C46.5441 46.0979 47.048 46.0699 47.265 45.8763C49.6139 43.7626 51.9233 41.6035 54.4119 39.301C52.1457 38.5711 50.2343 37.9253 48.301 37.3582C47.8679 37.2299 47.1834 37.1846 46.9069 37.4308C44.5619 39.5066 42.2857 41.6609 39.8065 43.9613L39.8042 43.9618ZM43.0883 26.3977C40.8978 28.4073 39.0338 30.0978 37.2043 31.8226C36.9751 32.0386 36.7645 32.4823 36.8219 32.7629C37.306 35.1553 37.8533 37.5337 38.458 40.2593C40.615 38.2646 42.5154 36.5388 44.3591 34.7566C44.6075 34.5166 44.7315 33.9591 44.6593 33.6004C44.2025 31.3203 43.675 29.0533 43.0855 26.3959L43.0883 26.3977ZM43.4982 63.0224C44.094 65.708 44.5736 67.9362 45.0948 70.1528C45.1735 70.4854 45.385 70.9636 45.6454 71.0537C48.1789 71.9166 50.7344 72.713 53.5638 73.6162C52.9758 70.9658 52.5149 68.7334 51.961 66.5241C51.8581 66.1156 51.4481 65.605 51.068 65.4724C48.7049 64.6481 46.3063 63.918 43.4982 63.0224Z" fill="white"/>
<path d="M54.1521 48.643C59.945 43.3048 65.6567 38.3299 71.0052 32.9893C73.5104 30.486 75.7699 29.6272 79.0268 31.1974C80.8286 32.0673 82.896 32.3655 84.7611 33.1227C85.4322 33.3954 86.1843 34.1875 86.3544 34.8771C87.4044 39.1235 88.3438 43.402 89.2021 47.691C89.333 48.3473 89.0779 49.353 88.6195 49.8073C86.2923 52.1183 83.8585 54.3248 81.4067 56.5056C81.0625 56.8113 80.3455 56.995 79.9184 56.8605C71.4338 54.1894 62.9646 51.4656 54.1516 48.6406L54.1521 48.643ZM60.84 47.1839C65.9851 48.8085 70.8132 50.3309 75.9394 51.9473C75.512 50.0206 75.2775 48.4554 74.7852 46.977C74.5665 46.3229 73.9226 45.5758 73.2987 45.3395C71.0634 44.4942 68.7685 43.8003 66.464 43.1628C65.9753 43.0271 65.2151 43.1933 64.8234 43.5169C63.5189 44.5902 62.3231 45.7997 60.8423 47.1834L60.84 47.1839ZM82.4662 35.9887C80.0756 35.2173 78.0116 34.5363 75.9308 33.9009C75.6782 33.8238 75.2601 33.9067 75.0657 34.0805C72.9504 35.987 70.8644 37.9265 68.6147 40.0009C70.7668 40.692 72.611 41.3331 74.4884 41.8583C74.9539 41.9892 75.6797 41.9441 76.0187 41.6593C78.124 39.8955 80.1549 38.0398 82.4685 35.9881L82.4662 35.9887ZM83.9404 39.5937C81.9219 41.3728 80.2188 42.8378 78.5715 44.3669C78.3132 44.6066 78.164 45.1722 78.2368 45.5333C78.7309 47.9925 79.2974 50.4357 79.9135 53.2129C81.8648 51.4291 83.5884 49.8905 85.2514 48.2889C85.5081 48.0421 85.6527 47.4775 85.5789 47.1118C85.1083 44.7583 84.5652 42.4209 83.9381 39.5943L83.9404 39.5937Z" fill="white"/>
</g>
<defs>
<radialGradient id="paint0_radial_374_2475" cx="0" cy="0" r="1" gradientUnits="userSpaceOnUse" gradientTransform="translate(53.9978 -15.149) scale(96.1244 96.7674)">
<stop stop-color="white"/>
<stop offset="0.3" stop-color="#BDF919"/>
<stop offset="1" stop-color="#385B1D"/>
</radialGradient>
<radialGradient id="paint1_radial_374_2475" cx="0" cy="0" r="1" gradientUnits="userSpaceOnUse" gradientTransform="translate(75.4034 -4.98209) scale(106.787 107.501)">
<stop offset="0.14" stop-color="white"/>
<stop offset="0.48" stop-color="#FBAA17"/>
<stop offset="0.62" stop-color="#F3561F"/>
<stop offset="1" stop-color="#9F0F12"/>
</radialGradient>
<linearGradient id="paint2_linear_374_2475" x1="10.9435" y1="54.6012" x2="107.068" y2="54.6012" gradientUnits="userSpaceOnUse">
<stop offset="0.1" stop-color="white"/>
<stop offset="0.3" stop-color="#BDF919"/>
<stop offset="1" stop-color="#385B1D"/>
</linearGradient>
<radialGradient id="paint3_radial_374_2475" cx="0" cy="0" r="1" gradientUnits="userSpaceOnUse" gradientTransform="translate(75.4034 -4.98209) scale(106.787 107.501)">
<stop stop-color="#BDF919"/>
<stop offset="1" stop-color="#385B1D"/>
</radialGradient>
<linearGradient id="paint4_linear_374_2475" x1="12.7154" y1="45.3254" x2="22.9047" y2="98.4435" gradientUnits="userSpaceOnUse">
<stop stop-color="#385B1D"/>
<stop offset="0.72" stop-color="#557D1C"/>
<stop offset="1" stop-color="#BDF919"/>
</linearGradient>
<clipPath id="clip0_374_2475">
<rect width="109" height="109" fill="white"/>
</clipPath>
</defs>
</svg>
